<?xml version="1.0" encoding="UTF-8" standalone="no"?>
<!-- Created with Inkscape (http://www.inkscape.org/) -->

<svg
   xmlns:dc="http://purl.org/dc/elements/1.1/"
   xmlns:cc="http://creativecommons.org/ns#"
   xmlns:rdf="http://www.w3.org/1999/02/22-rdf-syntax-ns#"
   xmlns:svg="http://www.w3.org/2000/svg"
   xmlns="http://www.w3.org/2000/svg"
   xmlns:sodipodi="http://sodipodi.sourceforge.net/DTD/sodipodi-0.dtd"
   xmlns:inkscape="http://www.inkscape.org/namespaces/inkscape"
   version="1.1"
   id="svg11516"
   xml:space="preserve"
   width="793.70135"
   height="1122.52"
   viewBox="0 0 793.70135 1122.52"
   sodipodi:docname="oedometerCazagrande+monolith+12.svg"
   inkscape:version="0.92.3 (2405546, 2018-03-11)"><metadata
     id="metadata11522"><rdf:RDF><cc:Work
         rdf:about=""><dc:format>image/svg+xml</dc:format><dc:type
           rdf:resource="http://purl.org/dc/dcmitype/StillImage" /><dc:title></dc:title></cc:Work></rdf:RDF></metadata><defs
     id="defs11520"><clipPath
       clipPathUnits="userSpaceOnUse"
       id="clipPath11828"><path
         d="M 145.49063,-20.96988 H 444.37108 V 230.65594 H 145.49063 Z"
         id="path11826"
         inkscape:connector-curvature="0" /></clipPath></defs><sodipodi:namedview
     pagecolor="#ffffff"
     bordercolor="#666666"
     borderopacity="1"
     objecttolerance="10"
     gridtolerance="10"
     guidetolerance="10"
     inkscape:pageopacity="0"
     inkscape:pageshadow="2"
     inkscape:window-width="1243"
     inkscape:window-height="1408"
     id="namedview11518"
     showgrid="false"
     inkscape:zoom="1.189304"
     inkscape:cx="472.83327"
     inkscape:cy="698.88242"
     inkscape:window-x="62"
     inkscape:window-y="0"
     inkscape:window-maximized="0"
     inkscape:current-layer="g11524" /><g
     id="g11524"
     inkscape:groupmode="layer"
     inkscape:label="oedometerCazagrande+monolith"
     transform="matrix(1.3333333,0,0,-1.3333333,0,1122.52)"><g
       id="g11526"
       transform="translate(185.523,463.636)"><g
         id="g11528"><g
           id="g11530"><g
             id="g11532" /><g
             id="g11534" /><g
             id="g11536"><g
               id="g11538" /></g><g
             id="g11540" /><g
             id="g11542" /><g
             id="g11544" /><g
             id="g11546" /><g
             id="g11548"
             transform="translate(-45.777,-29.887)"><g
               id="g11550"
               transform="translate(-99.712,50.857)"><g
                 id="g11552"><g
                   id="g11554"><g
                     id="g11556"><g
                       id="g11558"><g
                         id="g11560"><path
                           d="m 160.62376,-20.96988 v 2.83522 m 21.74044,-2.83522 v 2.83522 m 15.4244,-2.83522 v 2.83522 m 11.96447,-2.83522 v 2.83522 m 9.77595,-2.83522 v 2.83522 m 8.26486,-2.83522 v 2.83522 m 7.15955,-2.83522 v 2.83522 m 6.31522,-2.83522 v 2.83522 m 5.64925,-2.83522 v 2.83522 m 37.16482,-2.83522 v 2.83522 m 21.74045,-2.83522 v 2.83522 m 15.42437,-2.83522 v 2.83522 m 11.9645,-2.83522 v 2.83522 m 9.77595,-2.83522 v 2.83522 m 8.26485,-2.83522 v 2.83522 m 7.15954,-2.83522 v 2.83522 m 6.31522,-2.83522 v 2.83522 m 5.64926,-2.83522 v 2.83522 m 37.16483,-2.83522 v 2.83522 m 21.74043,-2.83522 v 2.83522 m -268.65836,248.7906 v -2.8352 m 21.74044,2.8352 v -2.8352 m 15.4244,2.8352 v -2.8352 m 11.96447,2.8352 v -2.8352 m 9.77595,2.8352 v -2.8352 m 8.26486,2.8352 v -2.8352 m 7.15955,2.8352 v -2.8352 m 6.31522,2.8352 v -2.8352 m 5.64925,2.8352 v -2.8352 m 37.16482,2.8352 v -2.8352 m 21.74045,2.8352 v -2.8352 m 15.42437,2.8352 v -2.8352 m 11.9645,2.8352 v -2.8352 m 9.77595,2.8352 v -2.8352 m 8.26485,2.8352 v -2.8352 m 7.15954,2.8352 v -2.8352 m 6.31522,2.8352 v -2.8352 m 5.64926,2.8352 v -2.8352 m 37.16483,2.8352 v -2.8352 m 21.74043,2.8352 v -2.8352"
                           style="fill:none;stroke:#808080;stroke-width:0.19925;stroke-linecap:butt;stroke-linejoin:miter;stroke-miterlimit:10;stroke-dasharray:none;stroke-opacity:1"
                           id="path11562"
                           inkscape:connector-curvature="0" /></g><g
                         id="g11564"><path
                           d="m 246.9179,-20.96988 v 4.2524 m 123.45896,-4.2524 v 4.2524 M 246.9179,230.65594 v -4.25238 m 123.45896,4.25238 v -4.25238"
                           style="fill:none;stroke:#808080;stroke-width:0.19925;stroke-linecap:butt;stroke-linejoin:miter;stroke-miterlimit:10;stroke-dasharray:none;stroke-opacity:1"
                           id="path11566"
                           inkscape:connector-curvature="0" /></g></g><g
                       id="g11568"><g
                         id="g11570"><path
                           d="m 145.49063,2.81496 h 4.23143 m -4.23143,27.76793 h 4.23143 m -4.23143,27.76794 h 4.23143 m -4.23143,27.76793 h 4.23143 m -4.23143,27.76793 h 4.23143 m -4.23143,27.76794 h 4.23143 m -4.23143,27.76793 h 4.23143 m -4.23143,27.76793 h 4.23143 m -4.23143,27.76795 h 4.23143 M 444.37108,2.81496 h -4.23143 m 4.23143,27.76793 h -4.23143 m 4.23143,27.76794 h -4.23143 m 4.23143,27.76793 h -4.23143 m 4.23143,27.76793 h -4.23143 m 4.23143,27.76794 h -4.23143 m 4.23143,27.76793 h -4.23143 m 4.23143,27.76793 h -4.23143 m 4.23143,27.76795 h -4.23143"
                           style="fill:none;stroke:#808080;stroke-width:0.19925;stroke-linecap:butt;stroke-linejoin:miter;stroke-miterlimit:10;stroke-dasharray:none;stroke-opacity:1"
                           id="path11572"
                           inkscape:connector-curvature="0" /></g></g><path
                       d="M 145.49063,-20.96988 V 230.65594 H 444.37108 V -20.96988 Z"
                       style="fill:none;stroke:#000000;stroke-width:0.3985;stroke-linecap:butt;stroke-linejoin:miter;stroke-miterlimit:10;stroke-dasharray:none;stroke-opacity:1"
                       id="path11574"
                       inkscape:connector-curvature="0" /><g
                       id="g11576"><g
                         id="g11578"
                         transform="translate(237.783,-30.909)"><g
                           id="g11580"><g
                             id="g11582"
                             transform="translate(-277.817,-453.697)"><text
                               transform="matrix(1,0,0,-1,281.137,453.697)"
                               style="font-variant:normal;font-weight:normal;font-size:9.96259975px;font-family:CMR10;-inkscape-font-specification:CMR10;writing-mode:lr-tb;fill:#000000;fill-opacity:1;fill-rule:nonzero;stroke:none"
                               id="text11586"><tspan
                                 x="0 4.9812999 9.9625998"
                                 y="0"
                                 sodipodi:role="line"
                                 id="tspan11584">100</tspan></text>
<g
                               id="g11588"
                               transform="translate(277.817,453.697)" /></g></g><g
                           id="g11590"
                           transform="translate(-237.783,30.909)" /></g></g><g
                       id="g11592"><g
                         id="g11594"
                         transform="translate(357.919,-30.909)"><g
                           id="g11596"><g
                             id="g11598"
                             transform="translate(-397.953,-453.697)"><text
                               transform="matrix(1,0,0,-1,401.273,453.697)"
                               style="font-variant:normal;font-weight:normal;font-size:9.96259975px;font-family:CMR10;-inkscape-font-specification:CMR10;writing-mode:lr-tb;fill:#000000;fill-opacity:1;fill-rule:nonzero;stroke:none"
                               id="text11602"><tspan
                                 x="0 6.6450543 11.626354 16.607655"
                                 y="0"
                                 sodipodi:role="line"
                                 id="tspan11600">1000</tspan></text>
<g
                               id="g11604"
                               transform="translate(397.953,453.697)" /></g></g><g
                           id="g11606"
                           transform="translate(-357.919,30.909)" /></g></g><g
                       id="g11608"><g
                         id="g11610"
                         transform="translate(119.277,-0.395)"><g
                           id="g11612"><g
                             id="g11614"
                             transform="translate(-159.311,-484.211)"><text
                               transform="matrix(1,0,0,-1,159.311,484.211)"
                               style="font-variant:normal;font-weight:normal;font-size:9.96259975px;font-family:CMR10;-inkscape-font-specification:CMR10;writing-mode:lr-tb;fill:#000000;fill-opacity:1;fill-rule:nonzero;stroke:none"
                               id="text11618"><tspan
                                 x="0"
                                 y="0"
                                 id="tspan11616">0</tspan></text>
<text
                               transform="matrix(1,0,0,-1,164.292,484.211)"
                               style="font-variant:normal;font-weight:normal;font-size:9.96259975px;font-family:CMMI10;-inkscape-font-specification:CMMI10;writing-mode:lr-tb;fill:#000000;fill-opacity:1;fill-rule:nonzero;stroke:none"
                               id="text11622"><tspan
                                 x="0"
                                 y="0"
                                 id="tspan11620">.</tspan></text>
<text
                               transform="matrix(1,0,0,-1,167.06,484.211)"
                               style="font-variant:normal;font-weight:normal;font-size:9.96259975px;font-family:CMR10;-inkscape-font-specification:CMR10;writing-mode:lr-tb;fill:#000000;fill-opacity:1;fill-rule:nonzero;stroke:none"
                               id="text11626"><tspan
                                 x="0 4.9812999 9.9625998"
                                 y="0"
                                 sodipodi:role="line"
                                 id="tspan11624">400</tspan></text>
<g
                               id="g11628"
                               transform="translate(159.311,484.211)" /></g></g><g
                           id="g11630"
                           transform="translate(-119.277,0.395)" /></g></g><g
                       id="g11632"><g
                         id="g11634"
                         transform="translate(119.277,27.372)"><g
                           id="g11636"><g
                             id="g11638"
                             transform="translate(-159.311,-511.978)"><text
                               transform="matrix(1,0,0,-1,159.311,511.978)"
                               style="font-variant:normal;font-weight:normal;font-size:9.96259975px;font-family:CMR10;-inkscape-font-specification:CMR10;writing-mode:lr-tb;fill:#000000;fill-opacity:1;fill-rule:nonzero;stroke:none"
                               id="text11642"><tspan
                                 x="0"
                                 y="0"
                                 id="tspan11640">0</tspan></text>
<text
                               transform="matrix(1,0,0,-1,164.292,511.978)"
                               style="font-variant:normal;font-weight:normal;font-size:9.96259975px;font-family:CMMI10;-inkscape-font-specification:CMMI10;writing-mode:lr-tb;fill:#000000;fill-opacity:1;fill-rule:nonzero;stroke:none"
                               id="text11646"><tspan
                                 x="0"
                                 y="0"
                                 id="tspan11644">.</tspan></text>
<text
                               transform="matrix(1,0,0,-1,167.06,511.978)"
                               style="font-variant:normal;font-weight:normal;font-size:9.96259975px;font-family:CMR10;-inkscape-font-specification:CMR10;writing-mode:lr-tb;fill:#000000;fill-opacity:1;fill-rule:nonzero;stroke:none"
                               id="text11650"><tspan
                                 x="0 4.9812999 9.9625998"
                                 y="0"
                                 sodipodi:role="line"
                                 id="tspan11648">420</tspan></text>
<g
                               id="g11652"
                               transform="translate(159.311,511.978)" /></g></g><g
                           id="g11654"
                           transform="translate(-119.277,-27.372)" /></g></g><g
                       id="g11656"><g
                         id="g11658"
                         transform="translate(119.277,55.14)"><g
                           id="g11660"><g
                             id="g11662"
                             transform="translate(-159.311,-539.746)"><text
                               transform="matrix(1,0,0,-1,159.311,539.746)"
                               style="font-variant:normal;font-weight:normal;font-size:9.96259975px;font-family:CMR10;-inkscape-font-specification:CMR10;writing-mode:lr-tb;fill:#000000;fill-opacity:1;fill-rule:nonzero;stroke:none"
                               id="text11666"><tspan
                                 x="0"
                                 y="0"
                                 id="tspan11664">0</tspan></text>
<text
                               transform="matrix(1,0,0,-1,164.292,539.746)"
                               style="font-variant:normal;font-weight:normal;font-size:9.96259975px;font-family:CMMI10;-inkscape-font-specification:CMMI10;writing-mode:lr-tb;fill:#000000;fill-opacity:1;fill-rule:nonzero;stroke:none"
                               id="text11670"><tspan
                                 x="0"
                                 y="0"
                                 id="tspan11668">.</tspan></text>
<text
                               transform="matrix(1,0,0,-1,167.06,539.746)"
                               style="font-variant:normal;font-weight:normal;font-size:9.96259975px;font-family:CMR10;-inkscape-font-specification:CMR10;writing-mode:lr-tb;fill:#000000;fill-opacity:1;fill-rule:nonzero;stroke:none"
                               id="text11674"><tspan
                                 x="0 4.9812999 9.9625998"
                                 y="0"
                                 sodipodi:role="line"
                                 id="tspan11672">440</tspan></text>
<g
                               id="g11676"
                               transform="translate(159.311,539.746)" /></g></g><g
                           id="g11678"
                           transform="translate(-119.277,-55.14)" /></g></g><g
                       id="g11680"><g
                         id="g11682"
                         transform="translate(119.277,82.908)"><g
                           id="g11684"><g
                             id="g11686"
                             transform="translate(-159.311,-567.514)"><text
                               transform="matrix(1,0,0,-1,159.311,567.514)"
                               style="font-variant:normal;font-weight:normal;font-size:9.96259975px;font-family:CMR10;-inkscape-font-specification:CMR10;writing-mode:lr-tb;fill:#000000;fill-opacity:1;fill-rule:nonzero;stroke:none"
                               id="text11690"><tspan
                                 x="0"
                                 y="0"
                                 id="tspan11688">0</tspan></text>
<text
                               transform="matrix(1,0,0,-1,164.292,567.514)"
                               style="font-variant:normal;font-weight:normal;font-size:9.96259975px;font-family:CMMI10;-inkscape-font-specification:CMMI10;writing-mode:lr-tb;fill:#000000;fill-opacity:1;fill-rule:nonzero;stroke:none"
                               id="text11694"><tspan
                                 x="0"
                                 y="0"
                                 id="tspan11692">.</tspan></text>
<text
                               transform="matrix(1,0,0,-1,167.06,567.514)"
                               style="font-variant:normal;font-weight:normal;font-size:9.96259975px;font-family:CMR10;-inkscape-font-specification:CMR10;writing-mode:lr-tb;fill:#000000;fill-opacity:1;fill-rule:nonzero;stroke:none"
                               id="text11698"><tspan
                                 x="0 4.9812999 9.9625998"
                                 y="0"
                                 sodipodi:role="line"
                                 id="tspan11696">460</tspan></text>
<g
                               id="g11700"
                               transform="translate(159.311,567.514)" /></g></g><g
                           id="g11702"
                           transform="translate(-119.277,-82.908)" /></g></g><g
                       id="g11704"><g
                         id="g11706"
                         transform="translate(119.277,110.675)"><g
                           id="g11708"><g
                             id="g11710"
                             transform="translate(-159.311,-595.281)"><text
                               transform="matrix(1,0,0,-1,159.311,595.281)"
                               style="font-variant:normal;font-weight:normal;font-size:9.96259975px;font-family:CMR10;-inkscape-font-specification:CMR10;writing-mode:lr-tb;fill:#000000;fill-opacity:1;fill-rule:nonzero;stroke:none"
                               id="text11714"><tspan
                                 x="0"
                                 y="0"
                                 id="tspan11712">0</tspan></text>
<text
                               transform="matrix(1,0,0,-1,164.292,595.281)"
                               style="font-variant:normal;font-weight:normal;font-size:9.96259975px;font-family:CMMI10;-inkscape-font-specification:CMMI10;writing-mode:lr-tb;fill:#000000;fill-opacity:1;fill-rule:nonzero;stroke:none"
                               id="text11718"><tspan
                                 x="0"
                                 y="0"
                                 id="tspan11716">.</tspan></text>
<text
                               transform="matrix(1,0,0,-1,167.06,595.281)"
                               style="font-variant:normal;font-weight:normal;font-size:9.96259975px;font-family:CMR10;-inkscape-font-specification:CMR10;writing-mode:lr-tb;fill:#000000;fill-opacity:1;fill-rule:nonzero;stroke:none"
                               id="text11722"><tspan
                                 x="0 4.9812999 9.9625998"
                                 y="0"
                                 sodipodi:role="line"
                                 id="tspan11720">480</tspan></text>
<g
                               id="g11724"
                               transform="translate(159.311,595.281)" /></g></g><g
                           id="g11726"
                           transform="translate(-119.277,-110.675)" /></g></g><g
                       id="g11728"><g
                         id="g11730"
                         transform="translate(119.277,138.443)"><g
                           id="g11732"><g
                             id="g11734"
                             transform="translate(-159.311,-623.049)"><text
                               transform="matrix(1,0,0,-1,159.311,623.049)"
                               style="font-variant:normal;font-weight:normal;font-size:9.96259975px;font-family:CMR10;-inkscape-font-specification:CMR10;writing-mode:lr-tb;fill:#000000;fill-opacity:1;fill-rule:nonzero;stroke:none"
                               id="text11738"><tspan
                                 x="0"
                                 y="0"
                                 id="tspan11736">0</tspan></text>
<text
                               transform="matrix(1,0,0,-1,164.292,623.049)"
                               style="font-variant:normal;font-weight:normal;font-size:9.96259975px;font-family:CMMI10;-inkscape-font-specification:CMMI10;writing-mode:lr-tb;fill:#000000;fill-opacity:1;fill-rule:nonzero;stroke:none"
                               id="text11742"><tspan
                                 x="0"
                                 y="0"
                                 id="tspan11740">.</tspan></text>
<text
                               transform="matrix(1,0,0,-1,167.06,623.049)"
                               style="font-variant:normal;font-weight:normal;font-size:9.96259975px;font-family:CMR10;-inkscape-font-specification:CMR10;writing-mode:lr-tb;fill:#000000;fill-opacity:1;fill-rule:nonzero;stroke:none"
                               id="text11746"><tspan
                                 x="0 4.9812999 9.9625998"
                                 y="0"
                                 sodipodi:role="line"
                                 id="tspan11744">500</tspan></text>
<g
                               id="g11748"
                               transform="translate(159.311,623.049)" /></g></g><g
                           id="g11750"
                           transform="translate(-119.277,-138.443)" /></g></g><g
                       id="g11752"><g
                         id="g11754"
                         transform="translate(119.277,166.21)"><g
                           id="g11756"><g
                             id="g11758"
                             transform="translate(-159.311,-650.816)"><text
                               transform="matrix(1,0,0,-1,159.311,650.816)"
                               style="font-variant:normal;font-weight:normal;font-size:9.96259975px;font-family:CMR10;-inkscape-font-specification:CMR10;writing-mode:lr-tb;fill:#000000;fill-opacity:1;fill-rule:nonzero;stroke:none"
                               id="text11762"><tspan
                                 x="0"
                                 y="0"
                                 id="tspan11760">0</tspan></text>
<text
                               transform="matrix(1,0,0,-1,164.292,650.816)"
                               style="font-variant:normal;font-weight:normal;font-size:9.96259975px;font-family:CMMI10;-inkscape-font-specification:CMMI10;writing-mode:lr-tb;fill:#000000;fill-opacity:1;fill-rule:nonzero;stroke:none"
                               id="text11766"><tspan
                                 x="0"
                                 y="0"
                                 id="tspan11764">.</tspan></text>
<text
                               transform="matrix(1,0,0,-1,167.06,650.816)"
                               style="font-variant:normal;font-weight:normal;font-size:9.96259975px;font-family:CMR10;-inkscape-font-specification:CMR10;writing-mode:lr-tb;fill:#000000;fill-opacity:1;fill-rule:nonzero;stroke:none"
                               id="text11770"><tspan
                                 x="0 4.9812999 9.9625998"
                                 y="0"
                                 sodipodi:role="line"
                                 id="tspan11768">520</tspan></text>
<g
                               id="g11772"
                               transform="translate(159.311,650.816)" /></g></g><g
                           id="g11774"
                           transform="translate(-119.277,-166.21)" /></g></g><g
                       id="g11776"><g
                         id="g11778"
                         transform="translate(119.277,193.978)"><g
                           id="g11780"><g
                             id="g11782"
                             transform="translate(-159.311,-678.584)"><text
                               transform="matrix(1,0,0,-1,159.311,678.584)"
                               style="font-variant:normal;font-weight:normal;font-size:9.96259975px;font-family:CMR10;-inkscape-font-specification:CMR10;writing-mode:lr-tb;fill:#000000;fill-opacity:1;fill-rule:nonzero;stroke:none"
                               id="text11786"><tspan
                                 x="0"
                                 y="0"
                                 id="tspan11784">0</tspan></text>
<text
                               transform="matrix(1,0,0,-1,164.292,678.584)"
                               style="font-variant:normal;font-weight:normal;font-size:9.96259975px;font-family:CMMI10;-inkscape-font-specification:CMMI10;writing-mode:lr-tb;fill:#000000;fill-opacity:1;fill-rule:nonzero;stroke:none"
                               id="text11790"><tspan
                                 x="0"
                                 y="0"
                                 id="tspan11788">.</tspan></text>
<text
                               transform="matrix(1,0,0,-1,167.06,678.584)"
                               style="font-variant:normal;font-weight:normal;font-size:9.96259975px;font-family:CMR10;-inkscape-font-specification:CMR10;writing-mode:lr-tb;fill:#000000;fill-opacity:1;fill-rule:nonzero;stroke:none"
                               id="text11794"><tspan
                                 x="0 4.9812999 9.9625998"
                                 y="0"
                                 sodipodi:role="line"
                                 id="tspan11792">540</tspan></text>
<g
                               id="g11796"
                               transform="translate(159.311,678.584)" /></g></g><g
                           id="g11798"
                           transform="translate(-119.277,-193.978)" /></g></g><g
                       id="g11800"><g
                         id="g11802"
                         transform="translate(119.277,221.745)"><g
                           id="g11804"><g
                             id="g11806"
                             transform="translate(-159.311,-706.351)"><text
                               transform="matrix(1,0,0,-1,159.311,706.351)"
                               style="font-variant:normal;font-weight:normal;font-size:9.96259975px;font-family:CMR10;-inkscape-font-specification:CMR10;writing-mode:lr-tb;fill:#000000;fill-opacity:1;fill-rule:nonzero;stroke:none"
                               id="text11810"><tspan
                                 x="0"
                                 y="0"
                                 id="tspan11808">0</tspan></text>
<text
                               transform="matrix(1,0,0,-1,164.292,706.351)"
                               style="font-variant:normal;font-weight:normal;font-size:9.96259975px;font-family:CMMI10;-inkscape-font-specification:CMMI10;writing-mode:lr-tb;fill:#000000;fill-opacity:1;fill-rule:nonzero;stroke:none"
                               id="text11814"><tspan
                                 x="0"
                                 y="0"
                                 id="tspan11812">.</tspan></text>
<text
                               transform="matrix(1,0,0,-1,167.06,706.351)"
                               style="font-variant:normal;font-weight:normal;font-size:9.96259975px;font-family:CMR10;-inkscape-font-specification:CMR10;writing-mode:lr-tb;fill:#000000;fill-opacity:1;fill-rule:nonzero;stroke:none"
                               id="text11818"><tspan
                                 x="0 4.9812999 9.9625998"
                                 y="0"
                                 sodipodi:role="line"
                                 id="tspan11816">560</tspan></text>
<g
                               id="g11820"
                               transform="translate(159.311,706.351)" /></g></g><g
                           id="g11822"
                           transform="translate(-119.277,-221.745)" /></g></g><g
                       id="g11824"
                       clip-path="url(#clipPath11828)"><g
                         id="g11830"><path
                           d="m 170.39809,209.68607 c 0,0 107.31082,-42.78147 126.07537,-50.53974 18.76454,-7.75827 6.7445,-3.5862 9.16645,-5.37657 2.42195,-1.79036 6.12385,-5.73682 8.28937,-7.52718 2.16552,-1.79037 7.33949,-4.63058 7.31826,-5.37655 -0.0212,-0.74599 -5.30571,0 -7.47124,0 -2.16552,0 -9.173,0.14918 -8.13639,0 1.0366,-0.1492 10.42589,2.5054 15.60763,-1.07533 5.18175,-3.58074 16.6028,-18.61512 21.7388,-24.73221 5.136,-6.1171 11.48519,-14.13372 15.27796,-19.35562 3.79277,-5.22191 9.02098,-14.1028 12.05774,-18.28034 3.03677,-4.17753 9.80666,-10.33649 9.82913,-11.82844 0.0225,-1.49198 -9.66713,1.3737 -9.66713,1.07531 0,-0.29838 6.6709,-0.3912 9.66713,-3.22595 2.99623,-2.83473 8.1358,-11.0879 11.92767,-17.205 3.79186,-6.1171 11.6019,-20.46733 15.40149,-26.88283 C 411.2799,12.94012 419.46362,0 419.46362,0"
                           style="fill:none;stroke:#ff0000;stroke-width:0.3985;stroke-linecap:butt;stroke-linejoin:miter;stroke-miterlimit:10;stroke-dasharray:none;stroke-opacity:1"
                           id="path11832"
                           inkscape:connector-curvature="0" /></g></g></g><g
                     id="g11834"><path
                       d="m 172.39064,209.68607 c 0,1.10046 -0.89209,1.99255 -1.99255,1.99255 -1.10047,0 -1.99256,-0.89209 -1.99256,-1.99255 0,-1.10048 0.89209,-1.99256 1.99256,-1.99256 1.10046,0 1.99255,0.89208 1.99255,1.99256 z"
                       style="fill:#ff0000;fill-opacity:1;fill-rule:nonzero;stroke:#ff0000;stroke-width:0.3985;stroke-linecap:butt;stroke-linejoin:miter;stroke-miterlimit:10;stroke-dasharray:none;stroke-opacity:1"
                       id="path11836"
                       inkscape:connector-curvature="0" /><path
                       d="m 298.46602,159.14633 c 0,1.10047 -0.89209,1.99256 -1.99256,1.99256 -1.10047,0 -1.99255,-0.89209 -1.99255,-1.99256 0,-1.10048 0.89208,-1.99255 1.99255,-1.99255 1.10047,0 1.99256,0.89207 1.99256,1.99255 z"
                       style="fill:#ff0000;fill-opacity:1;fill-rule:nonzero;stroke:#ff0000;stroke-width:0.3985;stroke-linecap:butt;stroke-linejoin:miter;stroke-miterlimit:10;stroke-dasharray:none;stroke-opacity:1"
                       id="path11838"
                       inkscape:connector-curvature="0" /><path
                       d="m 307.63246,153.76976 c 0,1.10048 -0.89209,1.99255 -1.99255,1.99255 -1.10048,0 -1.99256,-0.89207 -1.99256,-1.99255 0,-1.10046 0.89208,-1.99256 1.99256,-1.99256 1.10046,0 1.99255,0.8921 1.99255,1.99256 z"
                       style="fill:#ff0000;fill-opacity:1;fill-rule:nonzero;stroke:#ff0000;stroke-width:0.3985;stroke-linecap:butt;stroke-linejoin:miter;stroke-miterlimit:10;stroke-dasharray:none;stroke-opacity:1"
                       id="path11840"
                       inkscape:connector-curvature="0" /><path
                       d="m 315.92183,146.24258 c 0,1.10047 -0.89208,1.99256 -1.99255,1.99256 -1.10047,0 -1.99256,-0.89209 -1.99256,-1.99256 0,-1.10048 0.89209,-1.99255 1.99256,-1.99255 1.10047,0 1.99255,0.89207 1.99255,1.99255 z"
                       style="fill:#ff0000;fill-opacity:1;fill-rule:nonzero;stroke:#ff0000;stroke-width:0.3985;stroke-linecap:butt;stroke-linejoin:miter;stroke-miterlimit:10;stroke-dasharray:none;stroke-opacity:1"
                       id="path11842"
                       inkscape:connector-curvature="0" /><path
                       d="m 323.2401,140.86603 c 0,1.10046 -0.89208,1.99255 -1.99256,1.99255 -1.10046,0 -1.99255,-0.89209 -1.99255,-1.99255 0,-1.10048 0.89209,-1.99256 1.99255,-1.99256 1.10048,0 1.99256,0.89208 1.99256,1.99256 z"
                       style="fill:#ff0000;fill-opacity:1;fill-rule:nonzero;stroke:#ff0000;stroke-width:0.3985;stroke-linecap:butt;stroke-linejoin:miter;stroke-miterlimit:10;stroke-dasharray:none;stroke-opacity:1"
                       id="path11844"
                       inkscape:connector-curvature="0" /><path
                       d="m 315.76886,140.86603 c 0,1.10046 -0.89209,1.99255 -1.99256,1.99255 -1.10047,0 -1.99255,-0.89209 -1.99255,-1.99255 0,-1.10048 0.89208,-1.99256 1.99255,-1.99256 1.10047,0 1.99256,0.89208 1.99256,1.99256 z"
                       style="fill:#ff0000;fill-opacity:1;fill-rule:nonzero;stroke:#ff0000;stroke-width:0.3985;stroke-linecap:butt;stroke-linejoin:miter;stroke-miterlimit:10;stroke-dasharray:none;stroke-opacity:1"
                       id="path11846"
                       inkscape:connector-curvature="0" /><path
                       d="m 307.63246,140.86603 c 0,1.10046 -0.89209,1.99255 -1.99255,1.99255 -1.10048,0 -1.99256,-0.89209 -1.99256,-1.99255 0,-1.10048 0.89208,-1.99256 1.99256,-1.99256 1.10046,0 1.99255,0.89208 1.99255,1.99256 z"
                       style="fill:#ff0000;fill-opacity:1;fill-rule:nonzero;stroke:#ff0000;stroke-width:0.3985;stroke-linecap:butt;stroke-linejoin:miter;stroke-miterlimit:10;stroke-dasharray:none;stroke-opacity:1"
                       id="path11848"
                       inkscape:connector-curvature="0" /><path
                       d="m 323.2401,139.7907 c 0,1.10047 -0.89208,1.99255 -1.99256,1.99255 -1.10046,0 -1.99255,-0.89208 -1.99255,-1.99255 0,-1.10047 0.89209,-1.99256 1.99255,-1.99256 1.10048,0 1.99256,0.89209 1.99256,1.99256 z"
                       style="fill:#ff0000;fill-opacity:1;fill-rule:nonzero;stroke:#ff0000;stroke-width:0.3985;stroke-linecap:butt;stroke-linejoin:miter;stroke-miterlimit:10;stroke-dasharray:none;stroke-opacity:1"
                       id="path11850"
                       inkscape:connector-curvature="0" /><path
                       d="m 344.9789,115.05849 c 0,1.10048 -0.89208,1.99255 -1.99256,1.99255 -1.10046,0 -1.99255,-0.89207 -1.99255,-1.99255 0,-1.10047 0.89209,-1.99256 1.99255,-1.99256 1.10048,0 1.99256,0.89209 1.99256,1.99256 z"
                       style="fill:#ff0000;fill-opacity:1;fill-rule:nonzero;stroke:#ff0000;stroke-width:0.3985;stroke-linecap:butt;stroke-linejoin:miter;stroke-miterlimit:10;stroke-dasharray:none;stroke-opacity:1"
                       id="path11852"
                       inkscape:connector-curvature="0" /><path
                       d="m 360.25685,95.70287 c 0,1.10046 -0.89207,1.99255 -1.99255,1.99255 -1.10047,0 -1.99256,-0.89209 -1.99256,-1.99255 0,-1.10048 0.89209,-1.99256 1.99256,-1.99256 1.10048,0 1.99255,0.89208 1.99255,1.99256 z"
                       style="fill:#ff0000;fill-opacity:1;fill-rule:nonzero;stroke:#ff0000;stroke-width:0.3985;stroke-linecap:butt;stroke-linejoin:miter;stroke-miterlimit:10;stroke-dasharray:none;stroke-opacity:1"
                       id="path11854"
                       inkscape:connector-curvature="0" /><path
                       d="m 372.31459,77.42253 c 0,1.10047 -0.89207,1.99255 -1.99255,1.99255 -1.10047,0 -1.99256,-0.89208 -1.99256,-1.99255 0,-1.10048 0.89209,-1.99255 1.99256,-1.99255 1.10048,0 1.99255,0.89207 1.99255,1.99255 z"
                       style="fill:#ff0000;fill-opacity:1;fill-rule:nonzero;stroke:#ff0000;stroke-width:0.3985;stroke-linecap:butt;stroke-linejoin:miter;stroke-miterlimit:10;stroke-dasharray:none;stroke-opacity:1"
                       id="path11856"
                       inkscape:connector-curvature="0" /><path
                       d="m 382.14372,65.59409 c 0,1.10046 -0.89209,1.99255 -1.99255,1.99255 -1.10048,0 -1.99255,-0.89209 -1.99255,-1.99255 0,-1.10049 0.89207,-1.99256 1.99255,-1.99256 1.10046,0 1.99255,0.89207 1.99255,1.99256 z"
                       style="fill:#ff0000;fill-opacity:1;fill-rule:nonzero;stroke:#ff0000;stroke-width:0.3985;stroke-linecap:butt;stroke-linejoin:miter;stroke-miterlimit:10;stroke-dasharray:none;stroke-opacity:1"
                       id="path11858"
                       inkscape:connector-curvature="0" /><path
                       d="m 372.4766,66.6694 c 0,1.10048 -0.8921,1.99256 -1.99256,1.99256 -1.10048,0 -1.99255,-0.89208 -1.99255,-1.99256 0,-1.10046 0.89207,-1.99255 1.99255,-1.99255 1.10046,0 1.99256,0.89209 1.99256,1.99255 z"
                       style="fill:#ff0000;fill-opacity:1;fill-rule:nonzero;stroke:#ff0000;stroke-width:0.3985;stroke-linecap:butt;stroke-linejoin:miter;stroke-miterlimit:10;stroke-dasharray:none;stroke-opacity:1"
                       id="path11860"
                       inkscape:connector-curvature="0" /><path
                       d="m 382.14372,63.44345 c 0,1.10048 -0.89209,1.99255 -1.99255,1.99255 -1.10048,0 -1.99255,-0.89207 -1.99255,-1.99255 0,-1.10046 0.89207,-1.99255 1.99255,-1.99255 1.10046,0 1.99255,0.89209 1.99255,1.99255 z"
                       style="fill:#ff0000;fill-opacity:1;fill-rule:nonzero;stroke:#ff0000;stroke-width:0.3985;stroke-linecap:butt;stroke-linejoin:miter;stroke-miterlimit:10;stroke-dasharray:none;stroke-opacity:1"
                       id="path11862"
                       inkscape:connector-curvature="0" /><path
                       d="m 394.0714,46.23845 c 0,1.10048 -0.8921,1.99255 -1.99256,1.99255 -1.10048,0 -1.99255,-0.89207 -1.99255,-1.99255 0,-1.10046 0.89207,-1.99255 1.99255,-1.99255 1.10046,0 1.99256,0.89209 1.99256,1.99255 z"
                       style="fill:#ff0000;fill-opacity:1;fill-rule:nonzero;stroke:#ff0000;stroke-width:0.3985;stroke-linecap:butt;stroke-linejoin:miter;stroke-miterlimit:10;stroke-dasharray:none;stroke-opacity:1"
                       id="path11864"
                       inkscape:connector-curvature="0" /><path
                       d="m 409.47289,19.35562 c 0,1.10048 -0.89209,1.99256 -1.99256,1.99256 -1.10048,0 -1.99255,-0.89208 -1.99255,-1.99256 0,-1.10046 0.89207,-1.99255 1.99255,-1.99255 1.10047,0 1.99256,0.89209 1.99256,1.99255 z"
                       style="fill:#ff0000;fill-opacity:1;fill-rule:nonzero;stroke:#ff0000;stroke-width:0.3985;stroke-linecap:butt;stroke-linejoin:miter;stroke-miterlimit:10;stroke-dasharray:none;stroke-opacity:1"
                       id="path11866"
                       inkscape:connector-curvature="0" /><path
                       d="m 421.45618,0 c 0,1.10046 -0.89209,1.99255 -1.99256,1.99255 -1.10048,0 -1.99255,-0.89209 -1.99255,-1.99255 0,-1.10046 0.89207,-1.99255 1.99255,-1.99255 1.10047,0 1.99256,0.89209 1.99256,1.99255 z"
                       style="fill:#ff0000;fill-opacity:1;fill-rule:nonzero;stroke:#ff0000;stroke-width:0.3985;stroke-linecap:butt;stroke-linejoin:miter;stroke-miterlimit:10;stroke-dasharray:none;stroke-opacity:1"
                       id="path11868"
                       inkscape:connector-curvature="0" /></g><g
                     id="g11870"><g
                       id="g11872"
                       transform="translate(196.68,-45.218)"><g
                         id="g11874"><g
                           id="g11876"
                           transform="translate(-236.714,-439.388)"><text
                             transform="matrix(1,0,0,-1,236.714,439.388)"
                             style="font-variant:normal;font-weight:normal;font-size:9.96259975px;font-family:SFRM1000;-inkscape-font-specification:SFRM1000;writing-mode:lr-tb;fill:#000000;fill-opacity:1;fill-rule:nonzero;stroke:none"
                             id="text11880"><tspan
                               x="0 7.0555134 11.481896 17.015125 21.995428 27.528656 32.782932 37.763237 43.296463 48.276768 53.809994 58.790298 66.544189 72.077415 77.057724 82.59095 87.845222 93.239975 101.26086 105.68725 111.22047 116.7537 124.50759 129.47794 133.41615 136.18277 141.16307 149.46291 154.44321 162.19012 167.17044 172.14078 178.23489 183.76813 191.51505"
                               y="0"
                               sodipodi:role="line"
                               id="tspan11878">Вертикальное напряжение $\sigma_1$, кПа</tspan></text>
<g
                             id="g11882"
                             transform="translate(236.714,439.388)" /></g></g><g
                         id="g11884"
                         transform="translate(-196.68,45.218)" /></g></g><g
                     id="g11886"><g
                       id="g11888"
                       transform="rotate(90,36.861,73.641)"><g
                         id="g11890"><g
                           id="g11892"
                           transform="translate(-150.536,-521.386)"><text
                             transform="matrix(1,0,0,-1,150.536,521.386)"
                             style="font-variant:normal;font-weight:normal;font-size:9.96259975px;font-family:SFRM1000;-inkscape-font-specification:SFRM1000;writing-mode:lr-tb;fill:#000000;fill-opacity:1;fill-rule:nonzero;stroke:none"
                             id="text11896"><tspan
                               x="0 7.7469177 12.727221 17.153605 24.900522 32.647442 38.180668 43.713898 49.247124 53.673508 59.206734 67.504585 73.037811 78.01812 83.551346 89.084572 93.510956 98.491257 103.47157 107.89795 112.87825 121.73898 126.71929 131.14568"
                               y="0"
                               sodipodi:role="line"
                               id="tspan11894">Коэффициентпористости$e$</tspan></text>
<g
                             id="g11898"
                             transform="translate(150.536,521.386)" /></g></g><g
                         id="g11900"
                         transform="translate(-110.502,-36.78)" /></g></g></g></g><g
                 id="g11902"
                 transform="translate(99.712,-50.857)" /></g><g
               id="g11904"
               transform="translate(45.777,29.887)" /></g><g
             id="g11906" /><g
             id="g11908" /></g></g></g><path
       style="fill:none;stroke:#000000;stroke-width:0.465;stroke-linecap:butt;stroke-linejoin:miter;stroke-miterlimit:4;stroke-dasharray:0.46500001, 1.39500003;stroke-dashoffset:0;stroke-opacity:1"
       d="m 368.88489,629.10319 0,-165.26381"
       id="path1765"
       inkscape:connector-curvature="0"
       sodipodi:nodetypes="cc" /><path
       style="fill:none;stroke:#000000;stroke-width:0.465;stroke-linecap:butt;stroke-linejoin:miter;stroke-miterlimit:4;stroke-dasharray:none;stroke-opacity:1"
       d="M 459.49762,484.606 329.16169,692.87749"
       id="path7401"
       inkscape:connector-curvature="0"
       sodipodi:nodetypes="cc" /><path
       style="fill:none;stroke:#000000;stroke-width:0.465;stroke-linecap:butt;stroke-linejoin:miter;stroke-miterlimit:4;stroke-dasharray:none;stroke-opacity:1"
       d="m 426.80939,563.64717 -79.14293,74.72859 h 87.18335"
       id="path7403"
       inkscape:connector-curvature="0" /><path
       style="fill:none;stroke:#000000;stroke-width:0.465;stroke-linecap:butt;stroke-linejoin:miter;stroke-miterlimit:4;stroke-dasharray:none;stroke-opacity:1"
       d="M 347.66646,638.37576 435.12687,600.712"
       id="path7405"
       inkscape:connector-curvature="0"
       sodipodi:nodetypes="cc" /></g></svg>