<?xml version="1.0" encoding="UTF-8" standalone="no"?>
<!-- Created with Inkscape (http://www.inkscape.org/) -->

<svg
   xmlns:dc="http://purl.org/dc/elements/1.1/"
   xmlns:cc="http://creativecommons.org/ns#"
   xmlns:rdf="http://www.w3.org/1999/02/22-rdf-syntax-ns#"
   xmlns:svg="http://www.w3.org/2000/svg"
   xmlns="http://www.w3.org/2000/svg"
   xmlns:sodipodi="http://sodipodi.sourceforge.net/DTD/sodipodi-0.dtd"
   xmlns:inkscape="http://www.inkscape.org/namespaces/inkscape"
   version="1.1"
   id="svg13608"
   xml:space="preserve"
   width="793.70135"
   height="1122.52"
   viewBox="0 0 793.70135 1122.52"
   sodipodi:docname="oedometerCazagrande+monolith+14.svg"
   inkscape:version="0.92.3 (2405546, 2018-03-11)"><metadata
     id="metadata13614"><rdf:RDF><cc:Work
         rdf:about=""><dc:format>image/svg+xml</dc:format><dc:type
           rdf:resource="http://purl.org/dc/dcmitype/StillImage" /><dc:title></dc:title></cc:Work></rdf:RDF></metadata><defs
     id="defs13612"><clipPath
       clipPathUnits="userSpaceOnUse"
       id="clipPath13908"><path
         d="M 670.76878,-20.96977 H 969.65103 V 230.65495 H 670.76878 Z"
         id="path13906"
         inkscape:connector-curvature="0" /></clipPath></defs><sodipodi:namedview
     pagecolor="#ffffff"
     bordercolor="#666666"
     borderopacity="1"
     objecttolerance="10"
     gridtolerance="10"
     guidetolerance="10"
     inkscape:pageopacity="0"
     inkscape:pageshadow="2"
     inkscape:window-width="1243"
     inkscape:window-height="1408"
     id="namedview13610"
     showgrid="false"
     inkscape:zoom="1.189304"
     inkscape:cx="368.77086"
     inkscape:cy="795.62663"
     inkscape:window-x="62"
     inkscape:window-y="0"
     inkscape:window-maximized="0"
     inkscape:current-layer="g13616" /><g
     id="g13616"
     inkscape:groupmode="layer"
     inkscape:label="oedometerCazagrande+monolith"
     transform="matrix(1.3333333,0,0,-1.3333333,0,1122.52)"><g
       id="g13618"
       transform="translate(185.523,464.271)"><g
         id="g13620"><g
           id="g13622"><g
             id="g13624" /><g
             id="g13626" /><g
             id="g13628"><g
               id="g13630" /></g><g
             id="g13632" /><g
             id="g13634" /><g
             id="g13636" /><g
             id="g13638" /><g
             id="g13640"
             transform="translate(-45.777,-29.887)"><g
               id="g13642"
               transform="translate(-624.983,50.856)"><g
                 id="g13644"><g
                   id="g13646"><g
                     id="g13648"><g
                       id="g13650"><g
                         id="g13652"><path
                           d="m 675.60416,-20.96977 v 4.25255 m 56.29879,-4.25255 v 4.25255 m 56.2988,-4.25255 v 4.25255 m 56.29878,-4.25255 v 4.25255 m 56.2988,-4.25255 v 4.25255 m 56.2988,-4.25255 v 4.25255 M 675.60416,230.65495 v -4.25251 m 56.29879,4.25251 v -4.25251 m 56.2988,4.25251 v -4.25251 m 56.29878,4.25251 v -4.25251 m 56.2988,4.25251 v -4.25251 m 56.2988,4.25251 v -4.25251"
                           style="fill:none;stroke:#808080;stroke-width:0.19925;stroke-linecap:butt;stroke-linejoin:miter;stroke-miterlimit:10;stroke-dasharray:none;stroke-opacity:1"
                           id="path13654"
                           inkscape:connector-curvature="0" /></g></g><g
                       id="g13656"><g
                         id="g13658"><path
                           d="m 670.76878,15.20894 h 4.24961 m -4.24961,40.87051 h 4.24961 m -4.24961,40.87052 h 4.24961 m -4.24961,40.87053 h 4.24961 m -4.24961,40.87051 h 4.24961 m -4.24961,40.87051 h 4.24961 M 969.65103,15.20894 h -4.24959 m 4.24959,40.87051 h -4.24959 m 4.24959,40.87052 h -4.24959 m 4.24959,40.87053 h -4.24959 m 4.24959,40.87051 h -4.24959 m 4.24959,40.87051 h -4.24959"
                           style="fill:none;stroke:#808080;stroke-width:0.19925;stroke-linecap:butt;stroke-linejoin:miter;stroke-miterlimit:10;stroke-dasharray:none;stroke-opacity:1"
                           id="path13660"
                           inkscape:connector-curvature="0" /></g></g><path
                       d="M 670.76878,-20.96977 V 230.65495 H 969.65103 V -20.96977 Z"
                       style="fill:none;stroke:#000000;stroke-width:0.3985;stroke-linecap:butt;stroke-linejoin:miter;stroke-miterlimit:10;stroke-dasharray:none;stroke-opacity:1"
                       id="path13662"
                       inkscape:connector-curvature="0" /><g
                       id="g13664"><g
                         id="g13666"
                         transform="translate(666.463,-30.909)"><g
                           id="g13668"><g
                             id="g13670"
                             transform="translate(-181.226,-454.331)"><text
                               transform="matrix(1,0,0,-1,184.546,454.331)"
                               style="font-variant:normal;font-weight:normal;font-size:9.96259975px;font-family:CMR10;-inkscape-font-specification:CMR10;writing-mode:lr-tb;fill:#000000;fill-opacity:1;fill-rule:nonzero;stroke:none"
                               id="text13674"><tspan
                                 x="0 4.9812999 9.9625998"
                                 y="0"
                                 sodipodi:role="line"
                                 id="tspan13672">251</tspan></text>
<g
                               id="g13676"
                               transform="translate(181.226,454.331)" /></g></g><g
                           id="g13678"
                           transform="translate(-666.463,30.909)" /></g></g><g
                       id="g13680"><g
                         id="g13682"
                         transform="translate(722.761,-30.909)"><g
                           id="g13684"><g
                             id="g13686"
                             transform="translate(-237.524,-454.331)"><text
                               transform="matrix(1,0,0,-1,240.844,454.331)"
                               style="font-variant:normal;font-weight:normal;font-size:9.96259975px;font-family:CMR10;-inkscape-font-specification:CMR10;writing-mode:lr-tb;fill:#000000;fill-opacity:1;fill-rule:nonzero;stroke:none"
                               id="text13690"><tspan
                                 x="0 4.9812999 9.9625998"
                                 y="0"
                                 sodipodi:role="line"
                                 id="tspan13688">398</tspan></text>
<g
                               id="g13692"
                               transform="translate(237.524,454.331)" /></g></g><g
                           id="g13694"
                           transform="translate(-722.761,30.909)" /></g></g><g
                       id="g13696"><g
                         id="g13698"
                         transform="translate(779.059,-30.909)"><g
                           id="g13700"><g
                             id="g13702"
                             transform="translate(-293.822,-454.331)"><text
                               transform="matrix(1,0,0,-1,297.142,454.331)"
                               style="font-variant:normal;font-weight:normal;font-size:9.96259975px;font-family:CMR10;-inkscape-font-specification:CMR10;writing-mode:lr-tb;fill:#000000;fill-opacity:1;fill-rule:nonzero;stroke:none"
                               id="text13706"><tspan
                                 x="0 4.9812999 9.9625998"
                                 y="0"
                                 sodipodi:role="line"
                                 id="tspan13704">631</tspan></text>
<g
                               id="g13708"
                               transform="translate(293.822,454.331)" /></g></g><g
                           id="g13710"
                           transform="translate(-779.059,30.909)" /></g></g><g
                       id="g13712"><g
                         id="g13714"
                         transform="translate(832.036,-30.909)"><g
                           id="g13716"><g
                             id="g13718"
                             transform="translate(-346.799,-454.331)"><text
                               transform="matrix(1,0,0,-1,350.12,454.331)"
                               style="font-variant:normal;font-weight:normal;font-size:9.96259975px;font-family:CMR10;-inkscape-font-specification:CMR10;writing-mode:lr-tb;fill:#000000;fill-opacity:1;fill-rule:nonzero;stroke:none"
                               id="text13722"><tspan
                                 x="0 6.6450543 11.626354 16.607655"
                                 y="0"
                                 sodipodi:role="line"
                                 id="tspan13720">1000</tspan></text>
<g
                               id="g13724"
                               transform="translate(346.799,454.331)" /></g></g><g
                           id="g13726"
                           transform="translate(-832.036,30.909)" /></g></g><g
                       id="g13728"><g
                         id="g13730"
                         transform="translate(888.335,-30.909)"><g
                           id="g13732"><g
                             id="g13734"
                             transform="translate(-403.098,-454.331)"><text
                               transform="matrix(1,0,0,-1,406.418,454.331)"
                               style="font-variant:normal;font-weight:normal;font-size:9.96259975px;font-family:CMR10;-inkscape-font-specification:CMR10;writing-mode:lr-tb;fill:#000000;fill-opacity:1;fill-rule:nonzero;stroke:none"
                               id="text13738"><tspan
                                 x="0 6.6450543 11.626354 16.607655"
                                 y="0"
                                 sodipodi:role="line"
                                 id="tspan13736">1585</tspan></text>
<g
                               id="g13740"
                               transform="translate(403.098,454.331)" /></g></g><g
                           id="g13742"
                           transform="translate(-888.335,30.909)" /></g></g><g
                       id="g13744"><g
                         id="g13746"
                         transform="translate(944.633,-30.909)"><g
                           id="g13748"><g
                             id="g13750"
                             transform="translate(-459.396,-454.331)"><text
                               transform="matrix(1,0,0,-1,462.716,454.331)"
                               style="font-variant:normal;font-weight:normal;font-size:9.96259975px;font-family:CMR10;-inkscape-font-specification:CMR10;writing-mode:lr-tb;fill:#000000;fill-opacity:1;fill-rule:nonzero;stroke:none"
                               id="text13754"><tspan
                                 x="0 6.6450543 11.626354 16.607655"
                                 y="0"
                                 sodipodi:role="line"
                                 id="tspan13752">2511</tspan></text>
<g
                               id="g13756"
                               transform="translate(459.396,454.331)" /></g></g><g
                           id="g13758"
                           transform="translate(-944.633,30.909)" /></g></g><g
                       id="g13760"><g
                         id="g13762"
                         transform="translate(644.548,11.999)"><g
                           id="g13764"><g
                             id="g13766"
                             transform="translate(-159.311,-497.239)"><text
                               transform="matrix(1,0,0,-1,159.311,497.239)"
                               style="font-variant:normal;font-weight:normal;font-size:9.96259975px;font-family:CMR10;-inkscape-font-specification:CMR10;writing-mode:lr-tb;fill:#000000;fill-opacity:1;fill-rule:nonzero;stroke:none"
                               id="text13770"><tspan
                                 x="0"
                                 y="0"
                                 id="tspan13768">0</tspan></text>
<text
                               transform="matrix(1,0,0,-1,164.293,497.239)"
                               style="font-variant:normal;font-weight:normal;font-size:9.96259975px;font-family:CMMI10;-inkscape-font-specification:CMMI10;writing-mode:lr-tb;fill:#000000;fill-opacity:1;fill-rule:nonzero;stroke:none"
                               id="text13774"><tspan
                                 x="0"
                                 y="0"
                                 id="tspan13772">.</tspan></text>
<text
                               transform="matrix(1,0,0,-1,167.06,497.239)"
                               style="font-variant:normal;font-weight:normal;font-size:9.96259975px;font-family:CMR10;-inkscape-font-specification:CMR10;writing-mode:lr-tb;fill:#000000;fill-opacity:1;fill-rule:nonzero;stroke:none"
                               id="text13778"><tspan
                                 x="0 4.9812999 9.9625998"
                                 y="0"
                                 sodipodi:role="line"
                                 id="tspan13776">400</tspan></text>
<g
                               id="g13780"
                               transform="translate(159.311,497.239)" /></g></g><g
                           id="g13782"
                           transform="translate(-644.548,-11.999)" /></g></g><g
                       id="g13784"><g
                         id="g13786"
                         transform="translate(644.548,52.869)"><g
                           id="g13788"><g
                             id="g13790"
                             transform="translate(-159.311,-538.109)"><text
                               transform="matrix(1,0,0,-1,159.311,538.109)"
                               style="font-variant:normal;font-weight:normal;font-size:9.96259975px;font-family:CMR10;-inkscape-font-specification:CMR10;writing-mode:lr-tb;fill:#000000;fill-opacity:1;fill-rule:nonzero;stroke:none"
                               id="text13794"><tspan
                                 x="0"
                                 y="0"
                                 id="tspan13792">0</tspan></text>
<text
                               transform="matrix(1,0,0,-1,164.293,538.109)"
                               style="font-variant:normal;font-weight:normal;font-size:9.96259975px;font-family:CMMI10;-inkscape-font-specification:CMMI10;writing-mode:lr-tb;fill:#000000;fill-opacity:1;fill-rule:nonzero;stroke:none"
                               id="text13798"><tspan
                                 x="0"
                                 y="0"
                                 id="tspan13796">.</tspan></text>
<text
                               transform="matrix(1,0,0,-1,167.06,538.109)"
                               style="font-variant:normal;font-weight:normal;font-size:9.96259975px;font-family:CMR10;-inkscape-font-specification:CMR10;writing-mode:lr-tb;fill:#000000;fill-opacity:1;fill-rule:nonzero;stroke:none"
                               id="text13802"><tspan
                                 x="0 4.9812999 9.9625998"
                                 y="0"
                                 sodipodi:role="line"
                                 id="tspan13800">420</tspan></text>
<g
                               id="g13804"
                               transform="translate(159.311,538.109)" /></g></g><g
                           id="g13806"
                           transform="translate(-644.548,-52.869)" /></g></g><g
                       id="g13808"><g
                         id="g13810"
                         transform="translate(644.548,93.739)"><g
                           id="g13812"><g
                             id="g13814"
                             transform="translate(-159.311,-578.979)"><text
                               transform="matrix(1,0,0,-1,159.311,578.979)"
                               style="font-variant:normal;font-weight:normal;font-size:9.96259975px;font-family:CMR10;-inkscape-font-specification:CMR10;writing-mode:lr-tb;fill:#000000;fill-opacity:1;fill-rule:nonzero;stroke:none"
                               id="text13818"><tspan
                                 x="0"
                                 y="0"
                                 id="tspan13816">0</tspan></text>
<text
                               transform="matrix(1,0,0,-1,164.293,578.979)"
                               style="font-variant:normal;font-weight:normal;font-size:9.96259975px;font-family:CMMI10;-inkscape-font-specification:CMMI10;writing-mode:lr-tb;fill:#000000;fill-opacity:1;fill-rule:nonzero;stroke:none"
                               id="text13822"><tspan
                                 x="0"
                                 y="0"
                                 id="tspan13820">.</tspan></text>
<text
                               transform="matrix(1,0,0,-1,167.06,578.979)"
                               style="font-variant:normal;font-weight:normal;font-size:9.96259975px;font-family:CMR10;-inkscape-font-specification:CMR10;writing-mode:lr-tb;fill:#000000;fill-opacity:1;fill-rule:nonzero;stroke:none"
                               id="text13826"><tspan
                                 x="0 4.9812999 9.9625998"
                                 y="0"
                                 sodipodi:role="line"
                                 id="tspan13824">440</tspan></text>
<g
                               id="g13828"
                               transform="translate(159.311,578.979)" /></g></g><g
                           id="g13830"
                           transform="translate(-644.548,-93.739)" /></g></g><g
                       id="g13832"><g
                         id="g13834"
                         transform="translate(644.548,134.609)"><g
                           id="g13836"><g
                             id="g13838"
                             transform="translate(-159.311,-619.849)"><text
                               transform="matrix(1,0,0,-1,159.311,619.849)"
                               style="font-variant:normal;font-weight:normal;font-size:9.96259975px;font-family:CMR10;-inkscape-font-specification:CMR10;writing-mode:lr-tb;fill:#000000;fill-opacity:1;fill-rule:nonzero;stroke:none"
                               id="text13842"><tspan
                                 x="0"
                                 y="0"
                                 id="tspan13840">0</tspan></text>
<text
                               transform="matrix(1,0,0,-1,164.293,619.849)"
                               style="font-variant:normal;font-weight:normal;font-size:9.96259975px;font-family:CMMI10;-inkscape-font-specification:CMMI10;writing-mode:lr-tb;fill:#000000;fill-opacity:1;fill-rule:nonzero;stroke:none"
                               id="text13846"><tspan
                                 x="0"
                                 y="0"
                                 id="tspan13844">.</tspan></text>
<text
                               transform="matrix(1,0,0,-1,167.06,619.849)"
                               style="font-variant:normal;font-weight:normal;font-size:9.96259975px;font-family:CMR10;-inkscape-font-specification:CMR10;writing-mode:lr-tb;fill:#000000;fill-opacity:1;fill-rule:nonzero;stroke:none"
                               id="text13850"><tspan
                                 x="0 4.9812999 9.9625998"
                                 y="0"
                                 sodipodi:role="line"
                                 id="tspan13848">460</tspan></text>
<g
                               id="g13852"
                               transform="translate(159.311,619.849)" /></g></g><g
                           id="g13854"
                           transform="translate(-644.548,-134.609)" /></g></g><g
                       id="g13856"><g
                         id="g13858"
                         transform="translate(644.548,175.479)"><g
                           id="g13860"><g
                             id="g13862"
                             transform="translate(-159.311,-660.719)"><text
                               transform="matrix(1,0,0,-1,159.311,660.719)"
                               style="font-variant:normal;font-weight:normal;font-size:9.96259975px;font-family:CMR10;-inkscape-font-specification:CMR10;writing-mode:lr-tb;fill:#000000;fill-opacity:1;fill-rule:nonzero;stroke:none"
                               id="text13866"><tspan
                                 x="0"
                                 y="0"
                                 id="tspan13864">0</tspan></text>
<text
                               transform="matrix(1,0,0,-1,164.293,660.719)"
                               style="font-variant:normal;font-weight:normal;font-size:9.96259975px;font-family:CMMI10;-inkscape-font-specification:CMMI10;writing-mode:lr-tb;fill:#000000;fill-opacity:1;fill-rule:nonzero;stroke:none"
                               id="text13870"><tspan
                                 x="0"
                                 y="0"
                                 id="tspan13868">.</tspan></text>
<text
                               transform="matrix(1,0,0,-1,167.06,660.719)"
                               style="font-variant:normal;font-weight:normal;font-size:9.96259975px;font-family:CMR10;-inkscape-font-specification:CMR10;writing-mode:lr-tb;fill:#000000;fill-opacity:1;fill-rule:nonzero;stroke:none"
                               id="text13874"><tspan
                                 x="0 4.9812999 9.9625998"
                                 y="0"
                                 sodipodi:role="line"
                                 id="tspan13872">480</tspan></text>
<g
                               id="g13876"
                               transform="translate(159.311,660.719)" /></g></g><g
                           id="g13878"
                           transform="translate(-644.548,-175.479)" /></g></g><g
                       id="g13880"><g
                         id="g13882"
                         transform="translate(644.548,216.349)"><g
                           id="g13884"><g
                             id="g13886"
                             transform="translate(-159.311,-701.589)"><text
                               transform="matrix(1,0,0,-1,159.311,701.589)"
                               style="font-variant:normal;font-weight:normal;font-size:9.96259975px;font-family:CMR10;-inkscape-font-specification:CMR10;writing-mode:lr-tb;fill:#000000;fill-opacity:1;fill-rule:nonzero;stroke:none"
                               id="text13890"><tspan
                                 x="0"
                                 y="0"
                                 id="tspan13888">0</tspan></text>
<text
                               transform="matrix(1,0,0,-1,164.293,701.589)"
                               style="font-variant:normal;font-weight:normal;font-size:9.96259975px;font-family:CMMI10;-inkscape-font-specification:CMMI10;writing-mode:lr-tb;fill:#000000;fill-opacity:1;fill-rule:nonzero;stroke:none"
                               id="text13894"><tspan
                                 x="0"
                                 y="0"
                                 id="tspan13892">.</tspan></text>
<text
                               transform="matrix(1,0,0,-1,167.06,701.589)"
                               style="font-variant:normal;font-weight:normal;font-size:9.96259975px;font-family:CMR10;-inkscape-font-specification:CMR10;writing-mode:lr-tb;fill:#000000;fill-opacity:1;fill-rule:nonzero;stroke:none"
                               id="text13898"><tspan
                                 x="0 4.9812999 9.9625998"
                                 y="0"
                                 sodipodi:role="line"
                                 id="tspan13896">500</tspan></text>
<g
                               id="g13900"
                               transform="translate(159.311,701.589)" /></g></g><g
                           id="g13902"
                           transform="translate(-644.548,-216.349)" /></g></g><g
                       id="g13904"
                       clip-path="url(#clipPath13908)"><g
                         id="g13910"><path
                           d="m 695.6769,209.68518 c 0,0 44.95861,-27.90359 56.01522,-34.68477 11.05661,-6.78117 18.93106,-11.34552 23.67314,-14.18922 4.7421,-2.84372 7.72863,-4.3376 10.50461,-6.30632 2.77599,-1.96871 9.50283,-6.78916 9.50283,-7.88289 0,-1.09374 -6.78586,0 -9.50283,0 -2.71697,0 -11.39777,0.21873 -10.07927,0 1.3185,-0.21874 12.38886,2.79837 19.5821,-1.57658 7.19325,-4.37494 24.31128,-22.2989 32.26188,-29.95504 7.95061,-7.65616 18.64348,-19.53784 25.04056,-25.22529 6.3971,-5.68744 15.67368,-10.95337 21.06517,-15.76581 5.39151,-4.81246 17.79309,-16.29401 17.79309,-18.91896 0,-2.62496 -17.80447,0 -17.79309,0 0.0114,0 12.2453,3.06245 17.87519,0 5.62988,-3.06246 15.32987,-14.41596 22.70121,-22.07212 C 921.68803,25.45203 944.74295,0 944.74295,0"
                           style="fill:none;stroke:#ff0000;stroke-width:0.3985;stroke-linecap:butt;stroke-linejoin:miter;stroke-miterlimit:10;stroke-dasharray:none;stroke-opacity:1"
                           id="path13912"
                           inkscape:connector-curvature="0" /></g></g></g><g
                     id="g13914"><path
                       d="m 697.66945,209.68518 c 0,1.10048 -0.89209,1.99255 -1.99255,1.99255 -1.10047,0 -1.99256,-0.89207 -1.99256,-1.99255 0,-1.10046 0.89209,-1.99255 1.99256,-1.99255 1.10046,0 1.99255,0.89209 1.99255,1.99255 z"
                       style="fill:#ff0000;fill-opacity:1;fill-rule:nonzero;stroke:#ff0000;stroke-width:0.3985;stroke-linecap:butt;stroke-linejoin:miter;stroke-miterlimit:10;stroke-dasharray:none;stroke-opacity:1"
                       id="path13916"
                       inkscape:connector-curvature="0" /><path
                       d="m 753.68468,175.00041 c 0,1.10047 -0.89208,1.99256 -1.99256,1.99256 -1.10046,0 -1.99255,-0.89209 -1.99255,-1.99256 0,-1.10048 0.89209,-1.99255 1.99255,-1.99255 1.10048,0 1.99256,0.89207 1.99256,1.99255 z"
                       style="fill:#ff0000;fill-opacity:1;fill-rule:nonzero;stroke:#ff0000;stroke-width:0.3985;stroke-linecap:butt;stroke-linejoin:miter;stroke-miterlimit:10;stroke-dasharray:none;stroke-opacity:1"
                       id="path13918"
                       inkscape:connector-curvature="0" /><path
                       d="m 777.35782,160.81119 c 0,1.10046 -0.89208,1.99255 -1.99256,1.99255 -1.10046,0 -1.99255,-0.89209 -1.99255,-1.99255 0,-1.10048 0.89209,-1.99256 1.99255,-1.99256 1.10048,0 1.99256,0.89208 1.99256,1.99256 z"
                       style="fill:#ff0000;fill-opacity:1;fill-rule:nonzero;stroke:#ff0000;stroke-width:0.3985;stroke-linecap:butt;stroke-linejoin:miter;stroke-miterlimit:10;stroke-dasharray:none;stroke-opacity:1"
                       id="path13920"
                       inkscape:connector-curvature="0" /><path
                       d="m 787.86243,154.50487 c 0,1.10048 -0.89209,1.99255 -1.99256,1.99255 -1.10047,0 -1.99255,-0.89207 -1.99255,-1.99255 0,-1.10047 0.89208,-1.99256 1.99255,-1.99256 1.10047,0 1.99256,0.89209 1.99256,1.99256 z"
                       style="fill:#ff0000;fill-opacity:1;fill-rule:nonzero;stroke:#ff0000;stroke-width:0.3985;stroke-linecap:butt;stroke-linejoin:miter;stroke-miterlimit:10;stroke-dasharray:none;stroke-opacity:1"
                       id="path13922"
                       inkscape:connector-curvature="0" /><path
                       d="m 797.36525,146.62198 c 0,1.10048 -0.89207,1.99255 -1.99255,1.99255 -1.10047,0 -1.99256,-0.89207 -1.99256,-1.99255 0,-1.10047 0.89209,-1.99255 1.99256,-1.99255 1.10048,0 1.99255,0.89208 1.99255,1.99255 z"
                       style="fill:#ff0000;fill-opacity:1;fill-rule:nonzero;stroke:#ff0000;stroke-width:0.3985;stroke-linecap:butt;stroke-linejoin:miter;stroke-miterlimit:10;stroke-dasharray:none;stroke-opacity:1"
                       id="path13924"
                       inkscape:connector-curvature="0" /><path
                       d="m 787.86243,146.62198 c 0,1.10048 -0.89209,1.99255 -1.99256,1.99255 -1.10047,0 -1.99255,-0.89207 -1.99255,-1.99255 0,-1.10047 0.89208,-1.99255 1.99255,-1.99255 1.10047,0 1.99256,0.89208 1.99256,1.99255 z"
                       style="fill:#ff0000;fill-opacity:1;fill-rule:nonzero;stroke:#ff0000;stroke-width:0.3985;stroke-linecap:butt;stroke-linejoin:miter;stroke-miterlimit:10;stroke-dasharray:none;stroke-opacity:1"
                       id="path13926"
                       inkscape:connector-curvature="0" /><path
                       d="m 777.78316,146.62198 c 0,1.10048 -0.89208,1.99255 -1.99256,1.99255 -1.10046,0 -1.99255,-0.89207 -1.99255,-1.99255 0,-1.10047 0.89209,-1.99255 1.99255,-1.99255 1.10048,0 1.99256,0.89208 1.99256,1.99255 z"
                       style="fill:#ff0000;fill-opacity:1;fill-rule:nonzero;stroke:#ff0000;stroke-width:0.3985;stroke-linecap:butt;stroke-linejoin:miter;stroke-miterlimit:10;stroke-dasharray:none;stroke-opacity:1"
                       id="path13928"
                       inkscape:connector-curvature="0" /><path
                       d="m 797.36525,145.0454 c 0,1.10047 -0.89207,1.99255 -1.99255,1.99255 -1.10047,0 -1.99256,-0.89208 -1.99256,-1.99255 0,-1.10047 0.89209,-1.99256 1.99256,-1.99256 1.10048,0 1.99255,0.89209 1.99255,1.99256 z"
                       style="fill:#ff0000;fill-opacity:1;fill-rule:nonzero;stroke:#ff0000;stroke-width:0.3985;stroke-linecap:butt;stroke-linejoin:miter;stroke-miterlimit:10;stroke-dasharray:none;stroke-opacity:1"
                       id="path13930"
                       inkscape:connector-curvature="0" /><path
                       d="m 829.62714,115.09036 c 0,1.10047 -0.89209,1.99256 -1.99256,1.99256 -1.10046,0 -1.99255,-0.89209 -1.99255,-1.99256 0,-1.10048 0.89209,-1.99255 1.99255,-1.99255 1.10047,0 1.99256,0.89207 1.99256,1.99255 z"
                       style="fill:#ff0000;fill-opacity:1;fill-rule:nonzero;stroke:#ff0000;stroke-width:0.3985;stroke-linecap:butt;stroke-linejoin:miter;stroke-miterlimit:10;stroke-dasharray:none;stroke-opacity:1"
                       id="path13932"
                       inkscape:connector-curvature="0" /><path
                       d="m 854.6677,89.86507 c 0,1.10048 -0.89208,1.99255 -1.99256,1.99255 -1.10046,0 -1.99255,-0.89207 -1.99255,-1.99255 0,-1.10047 0.89209,-1.99256 1.99255,-1.99256 1.10048,0 1.99256,0.89209 1.99256,1.99256 z"
                       style="fill:#ff0000;fill-opacity:1;fill-rule:nonzero;stroke:#ff0000;stroke-width:0.3985;stroke-linecap:butt;stroke-linejoin:miter;stroke-miterlimit:10;stroke-dasharray:none;stroke-opacity:1"
                       id="path13934"
                       inkscape:connector-curvature="0" /><path
                       d="m 875.73286,74.09926 c 0,1.10046 -0.89207,1.99255 -1.99255,1.99255 -1.10046,0 -1.99255,-0.89209 -1.99255,-1.99255 0,-1.10048 0.89209,-1.99256 1.99255,-1.99256 1.10048,0 1.99255,0.89208 1.99255,1.99256 z"
                       style="fill:#ff0000;fill-opacity:1;fill-rule:nonzero;stroke:#ff0000;stroke-width:0.3985;stroke-linecap:butt;stroke-linejoin:miter;stroke-miterlimit:10;stroke-dasharray:none;stroke-opacity:1"
                       id="path13936"
                       inkscape:connector-curvature="0" /><path
                       d="m 893.52596,55.1803 c 0,1.10048 -0.89208,1.99255 -1.99256,1.99255 -1.10046,0 -1.99255,-0.89207 -1.99255,-1.99255 0,-1.10047 0.89209,-1.99256 1.99255,-1.99256 1.10048,0 1.99256,0.89209 1.99256,1.99256 z"
                       style="fill:#ff0000;fill-opacity:1;fill-rule:nonzero;stroke:#ff0000;stroke-width:0.3985;stroke-linecap:butt;stroke-linejoin:miter;stroke-miterlimit:10;stroke-dasharray:none;stroke-opacity:1"
                       id="path13938"
                       inkscape:connector-curvature="0" /><path
                       d="m 875.73286,55.1803 c 0,1.10048 -0.89207,1.99255 -1.99255,1.99255 -1.10046,0 -1.99255,-0.89207 -1.99255,-1.99255 0,-1.10047 0.89209,-1.99256 1.99255,-1.99256 1.10048,0 1.99255,0.89209 1.99255,1.99256 z"
                       style="fill:#ff0000;fill-opacity:1;fill-rule:nonzero;stroke:#ff0000;stroke-width:0.3985;stroke-linecap:butt;stroke-linejoin:miter;stroke-miterlimit:10;stroke-dasharray:none;stroke-opacity:1"
                       id="path13940"
                       inkscape:connector-curvature="0" /><path
                       d="m 893.60805,55.1803 c 0,1.10048 -0.89208,1.99255 -1.99255,1.99255 -1.10047,0 -1.99256,-0.89207 -1.99256,-1.99255 0,-1.10047 0.89209,-1.99256 1.99256,-1.99256 1.10047,0 1.99255,0.89209 1.99255,1.99256 z"
                       style="fill:#ff0000;fill-opacity:1;fill-rule:nonzero;stroke:#ff0000;stroke-width:0.3985;stroke-linecap:butt;stroke-linejoin:miter;stroke-miterlimit:10;stroke-dasharray:none;stroke-opacity:1"
                       id="path13942"
                       inkscape:connector-curvature="0" /><path
                       d="m 916.30927,33.10818 c 0,1.10047 -0.89209,1.99256 -1.99256,1.99256 -1.10048,0 -1.99255,-0.89209 -1.99255,-1.99256 0,-1.10048 0.89207,-1.99255 1.99255,-1.99255 1.10047,0 1.99256,0.89207 1.99256,1.99255 z"
                       style="fill:#ff0000;fill-opacity:1;fill-rule:nonzero;stroke:#ff0000;stroke-width:0.3985;stroke-linecap:butt;stroke-linejoin:miter;stroke-miterlimit:10;stroke-dasharray:none;stroke-opacity:1"
                       id="path13944"
                       inkscape:connector-curvature="0" /><path
                       d="m 946.7355,0 c 0,1.10046 -0.89209,1.99255 -1.99255,1.99255 -1.10048,0 -1.99255,-0.89209 -1.99255,-1.99255 0,-1.10046 0.89207,-1.99255 1.99255,-1.99255 1.10046,0 1.99255,0.89209 1.99255,1.99255 z"
                       style="fill:#ff0000;fill-opacity:1;fill-rule:nonzero;stroke:#ff0000;stroke-width:0.3985;stroke-linecap:butt;stroke-linejoin:miter;stroke-miterlimit:10;stroke-dasharray:none;stroke-opacity:1"
                       id="path13946"
                       inkscape:connector-curvature="0" /></g><g
                     id="g13948"><g
                       id="g13950"
                       transform="translate(721.953,-45.217)"><g
                         id="g13952"><g
                           id="g13954"
                           transform="translate(-236.716,-440.023)"><text
                             transform="matrix(1,0,0,-1,236.716,440.023)"
                             style="font-variant:normal;font-weight:normal;font-size:9.96259975px;font-family:SFRM1000;-inkscape-font-specification:SFRM1000;writing-mode:lr-tb;fill:#000000;fill-opacity:1;fill-rule:nonzero;stroke:none"
                             id="text13958"><tspan
                               x="0 7.0555134 11.481896 17.015125 21.995428 27.528656 32.782932 37.763237 43.296463 48.276768 53.809994 58.790298 66.544189 72.077415 77.057724 82.59095 87.845222 93.239975 101.26086 105.68725 111.22047 116.7537 124.49763 129.47794 133.40619 136.17281 141.15311 149.46291 154.43326 162.18018 167.16048 172.14078 178.23489 183.76813 191.51505"
                               y="0"
                               sodipodi:role="line"
                               id="tspan13956">Вертикальное напряжение $\sigma_1$, кПа</tspan></text>
<g
                             id="g13960"
                             transform="translate(236.716,440.023)" /></g></g><g
                         id="g13962"
                         transform="translate(-721.953,45.217)" /></g></g><g
                     id="g13964"><g
                       id="g13966"
                       transform="rotate(90,299.4965,336.2765)"><g
                         id="g13968"><g
                           id="g13970"
                           transform="translate(-150.536,-522.02)"><text
                             transform="matrix(1,0,0,-1,150.536,522.02)"
                             style="font-variant:normal;font-weight:normal;font-size:9.96259975px;font-family:SFRM1000;-inkscape-font-specification:SFRM1000;writing-mode:lr-tb;fill:#000000;fill-opacity:1;fill-rule:nonzero;stroke:none"
                             id="text13974"><tspan
                               x="0 7.7469177 12.727221 17.153605 24.900522 32.647442 38.180668 43.713898 49.247124 53.673508 59.206734 67.504585 73.037811 78.01812 83.551346 89.084572 93.510956 98.491257 103.47157 107.89795 112.87825 121.73898 126.71929 131.14568"
                               y="0"
                               sodipodi:role="line"
                               id="tspan13972">Коэффициентпористости$e$</tspan></text>
<g
                             id="g13976"
                             transform="translate(150.536,522.02)" /></g></g><g
                         id="g13978"
                         transform="translate(-635.773,-36.78)" /></g></g></g></g><g
                 id="g13980"
                 transform="translate(624.983,-50.856)" /></g><g
               id="g13982"
               transform="translate(45.777,29.887)" /></g><g
             id="g13984" /><g
             id="g13986" /></g></g></g><path
       style="fill:none;stroke:#000000;stroke-width:0.465;stroke-linecap:butt;stroke-linejoin:miter;stroke-miterlimit:4;stroke-dasharray:0.46500001, 1.39500003;stroke-dashoffset:0;stroke-opacity:1"
       d="m 320.50706,632.30121 0,-166.49008"
       id="path1765"
       inkscape:connector-curvature="0"
       sodipodi:nodetypes="cc" /><path
       style="fill:none;stroke:#000000;stroke-width:0.465;stroke-linecap:butt;stroke-linejoin:miter;stroke-miterlimit:4;stroke-dasharray:none;stroke-opacity:1"
       d="M 459.50595,485.24 261.86008,694.74063"
       id="path7401"
       inkscape:connector-curvature="0"
       sodipodi:nodetypes="cc" /><path
       style="fill:none;stroke:#000000;stroke-width:0.465;stroke-linecap:butt;stroke-linejoin:miter;stroke-miterlimit:4;stroke-dasharray:none;stroke-opacity:1"
       d="m 381.76836,565.01628 -79.14293,74.72859 h 87.18335"
       id="path7403"
       inkscape:connector-curvature="0" /><path
       style="fill:none;stroke:#000000;stroke-width:0.465;stroke-linecap:butt;stroke-linejoin:miter;stroke-miterlimit:4;stroke-dasharray:none;stroke-opacity:1"
       d="m 302.62543,639.74487 88.12928,-36.10305"
       id="path7405"
       inkscape:connector-curvature="0" /></g></svg>