<?xml version="1.0" encoding="UTF-8" standalone="no"?>
<!-- Created with Inkscape (http://www.inkscape.org/) -->

<svg
   xmlns:dc="http://purl.org/dc/elements/1.1/"
   xmlns:cc="http://creativecommons.org/ns#"
   xmlns:rdf="http://www.w3.org/1999/02/22-rdf-syntax-ns#"
   xmlns:svg="http://www.w3.org/2000/svg"
   xmlns="http://www.w3.org/2000/svg"
   xmlns:sodipodi="http://sodipodi.sourceforge.net/DTD/sodipodi-0.dtd"
   xmlns:inkscape="http://www.inkscape.org/namespaces/inkscape"
   version="1.1"
   id="svg13902"
   xml:space="preserve"
   width="793.70135"
   height="1122.52"
   viewBox="0 0 793.70135 1122.52"
   sodipodi:docname="oedometerBecker+monolith+11.svg"
   inkscape:version="0.92.3 (2405546, 2018-03-11)"><metadata
     id="metadata13908"><rdf:RDF><cc:Work
         rdf:about=""><dc:format>image/svg+xml</dc:format><dc:type
           rdf:resource="http://purl.org/dc/dcmitype/StillImage" /><dc:title></dc:title></cc:Work></rdf:RDF></metadata><defs
     id="defs13906"><clipPath
       clipPathUnits="userSpaceOnUse"
       id="clipPath14170"><path
         d="M -24.90822,-20.96986 H 273.97545 V 230.65611 H -24.90822 Z"
         id="path14168"
         inkscape:connector-curvature="0" /></clipPath></defs><sodipodi:namedview
     pagecolor="#ffffff"
     bordercolor="#666666"
     borderopacity="1"
     objecttolerance="10"
     gridtolerance="10"
     guidetolerance="10"
     inkscape:pageopacity="0"
     inkscape:pageshadow="2"
     inkscape:window-width="1243"
     inkscape:window-height="1408"
     id="namedview13904"
     showgrid="false"
     inkscape:zoom="1.189304"
     inkscape:cx="358.76315"
     inkscape:cy="702.72238"
     inkscape:window-x="62"
     inkscape:window-y="0"
     inkscape:window-maximized="0"
     inkscape:current-layer="g13910" /><g
     id="g13910"
     inkscape:groupmode="layer"
     inkscape:label="oedometerBecker+monolith"
     transform="matrix(1.3333333,0,0,-1.3333333,0,1122.52)"><g
       id="g13912"
       transform="translate(179.351,464.27)"><g
         id="g13914"><g
           id="g13916"><g
             id="g13918" /><g
             id="g13920" /><g
             id="g13922"><g
               id="g13924" /></g><g
             id="g13926" /><g
             id="g13928" /><g
             id="g13930" /><g
             id="g13932" /><g
             id="g13934"
             transform="translate(-39.605,-29.888)"><g
               id="g13936"
               transform="translate(64.513,50.857)"><g
                 id="g13938"><g
                   id="g13940"><g
                     id="g13942"><g
                       id="g13944"><g
                         id="g13946"><path
                           d="m -2.41322,-20.96986 v 4.25215 m 50.27594,-4.25215 v 4.25215 m 50.27598,-4.25215 v 4.25215 m 50.27599,-4.25215 v 4.25215 m 50.27598,-4.25215 v 4.25215 m 50.27599,-4.25215 v 4.25215 M -2.41322,230.65611 v -4.25216 m 50.27594,4.25216 v -4.25216 m 50.27598,4.25216 v -4.25216 m 50.27599,4.25216 v -4.25216 m 50.27598,4.25216 v -4.25216 m 50.27599,4.25216 v -4.25216"
                           style="fill:none;stroke:#808080;stroke-width:0.19925;stroke-linecap:butt;stroke-linejoin:miter;stroke-miterlimit:10;stroke-dasharray:none;stroke-opacity:1"
                           id="path13948"
                           inkscape:connector-curvature="0" /></g></g><g
                       id="g13950"><g
                         id="g13952"><path
                           d="m -24.90822,-0.06696 h 4.25278 m -4.25278,37.21047 h 4.25278 m -4.25278,37.21048 h 4.25278 m -4.25278,37.21049 h 4.25278 m -4.25278,37.2105 h 4.25278 m -4.25278,37.21048 h 4.25278 m -4.25278,37.21049 h 4.25278 M 273.97545,-0.06696 h -4.25278 m 4.25278,37.21047 h -4.25278 m 4.25278,37.21048 h -4.25278 m 4.25278,37.21049 h -4.25278 m 4.25278,37.2105 h -4.25278 m 4.25278,37.21048 h -4.25278 m 4.25278,37.21049 h -4.25278"
                           style="fill:none;stroke:#808080;stroke-width:0.19925;stroke-linecap:butt;stroke-linejoin:miter;stroke-miterlimit:10;stroke-dasharray:none;stroke-opacity:1"
                           id="path13954"
                           inkscape:connector-curvature="0" /></g></g><path
                       d="M -24.90822,-20.96986 V 230.65611 H 273.97545 V -20.96986 Z"
                       style="fill:none;stroke:#000000;stroke-width:0.3985;stroke-linecap:butt;stroke-linejoin:miter;stroke-miterlimit:10;stroke-dasharray:none;stroke-opacity:1"
                       id="path13956"
                       inkscape:connector-curvature="0" /><g
                       id="g13958"><g
                         id="g13960"
                         transform="translate(-4.904,-30.909)"><g
                           id="g13962"><g
                             id="g13964"
                             transform="translate(-199.355,-454.33)"><text
                               transform="matrix(1,0,0,-1,199.355,454.33)"
                               style="font-variant:normal;font-weight:normal;font-size:9.96259975px;font-family:CMR10;-inkscape-font-specification:CMR10;writing-mode:lr-tb;fill:#000000;fill-opacity:1;fill-rule:nonzero;stroke:none"
                               id="text13968"><tspan
                                 x="0"
                                 y="0"
                                 id="tspan13966">0</tspan></text>
<g
                               id="g13970"
                               transform="translate(199.355,454.33)" /></g></g><g
                           id="g13972"
                           transform="translate(4.904,30.909)" /></g></g><g
                       id="g13974"><g
                         id="g13976"
                         transform="translate(40.39,-30.909)"><g
                           id="g13978"><g
                             id="g13980"
                             transform="translate(-244.649,-454.33)"><text
                               transform="matrix(1,0,0,-1,244.649,454.33)"
                               style="font-variant:normal;font-weight:normal;font-size:9.96259975px;font-family:CMR10;-inkscape-font-specification:CMR10;writing-mode:lr-tb;fill:#000000;fill-opacity:1;fill-rule:nonzero;stroke:none"
                               id="text13984"><tspan
                                 x="0 4.9812999 9.9625998"
                                 y="0"
                                 sodipodi:role="line"
                                 id="tspan13982">500</tspan></text>
<g
                               id="g13986"
                               transform="translate(244.649,454.33)" /></g></g><g
                           id="g13988"
                           transform="translate(-40.39,30.909)" /></g></g><g
                       id="g13990"><g
                         id="g13992"
                         transform="translate(87.345,-30.909)"><g
                           id="g13994"><g
                             id="g13996"
                             transform="translate(-291.604,-454.33)"><text
                               transform="matrix(1,0,0,-1,291.604,454.33)"
                               style="font-variant:normal;font-weight:normal;font-size:9.96259975px;font-family:CMR10;-inkscape-font-specification:CMR10;writing-mode:lr-tb;fill:#000000;fill-opacity:1;fill-rule:nonzero;stroke:none"
                               id="text14000"><tspan
                                 x="0 6.6450543 11.626354 16.607655"
                                 y="0"
                                 sodipodi:role="line"
                                 id="tspan13998">1000</tspan></text>
<g
                               id="g14002"
                               transform="translate(291.604,454.33)" /></g></g><g
                           id="g14004"
                           transform="translate(-87.345,30.909)" /></g></g><g
                       id="g14006"><g
                         id="g14008"
                         transform="translate(137.62,-30.909)"><g
                           id="g14010"><g
                             id="g14012"
                             transform="translate(-341.879,-454.33)"><text
                               transform="matrix(1,0,0,-1,341.879,454.33)"
                               style="font-variant:normal;font-weight:normal;font-size:9.96259975px;font-family:CMR10;-inkscape-font-specification:CMR10;writing-mode:lr-tb;fill:#000000;fill-opacity:1;fill-rule:nonzero;stroke:none"
                               id="text14016"><tspan
                                 x="0 6.6450543 11.626354 16.607655"
                                 y="0"
                                 sodipodi:role="line"
                                 id="tspan14014">1500</tspan></text>
<g
                               id="g14018"
                               transform="translate(341.879,454.33)" /></g></g><g
                           id="g14020"
                           transform="translate(-137.62,30.909)" /></g></g><g
                       id="g14022"><g
                         id="g14024"
                         transform="translate(187.895,-30.909)"><g
                           id="g14026"><g
                             id="g14028"
                             transform="translate(-392.154,-454.33)"><text
                               transform="matrix(1,0,0,-1,392.154,454.33)"
                               style="font-variant:normal;font-weight:normal;font-size:9.96259975px;font-family:CMR10;-inkscape-font-specification:CMR10;writing-mode:lr-tb;fill:#000000;fill-opacity:1;fill-rule:nonzero;stroke:none"
                               id="text14032"><tspan
                                 x="0 6.6450543 11.626354 16.607655"
                                 y="0"
                                 sodipodi:role="line"
                                 id="tspan14030">2000</tspan></text>
<g
                               id="g14034"
                               transform="translate(392.154,454.33)" /></g></g><g
                           id="g14036"
                           transform="translate(-187.895,30.909)" /></g></g><g
                       id="g14038"><g
                         id="g14040"
                         transform="translate(238.171,-30.909)"><g
                           id="g14042"><g
                             id="g14044"
                             transform="translate(-442.43,-454.33)"><text
                               transform="matrix(1,0,0,-1,442.43,454.33)"
                               style="font-variant:normal;font-weight:normal;font-size:9.96259975px;font-family:CMR10;-inkscape-font-specification:CMR10;writing-mode:lr-tb;fill:#000000;fill-opacity:1;fill-rule:nonzero;stroke:none"
                               id="text14048"><tspan
                                 x="0 6.6450543 11.626354 16.607655"
                                 y="0"
                                 sodipodi:role="line"
                                 id="tspan14046">2500</tspan></text>
<g
                               id="g14050"
                               transform="translate(442.43,454.33)" /></g></g><g
                           id="g14052"
                           transform="translate(-238.171,30.909)" /></g></g><g
                       id="g14054"><g
                         id="g14056"
                         transform="translate(-33.408,-3.277)"><g
                           id="g14058"><g
                             id="g14060"
                             transform="translate(-170.851,-481.962)"><text
                               transform="matrix(1,0,0,-1,170.851,481.962)"
                               style="font-variant:normal;font-weight:normal;font-size:9.96259975px;font-family:CMR10;-inkscape-font-specification:CMR10;writing-mode:lr-tb;fill:#000000;fill-opacity:1;fill-rule:nonzero;stroke:none"
                               id="text14064"><tspan
                                 x="0"
                                 y="0"
                                 id="tspan14062">0</tspan></text>
<g
                               id="g14066"
                               transform="translate(170.851,481.962)" /></g></g><g
                           id="g14068"
                           transform="translate(33.408,3.277)" /></g></g><g
                       id="g14070"><g
                         id="g14072"
                         transform="translate(-38.389,33.933)"><g
                           id="g14074"><g
                             id="g14076"
                             transform="translate(-165.87,-519.172)"><text
                               transform="matrix(1,0,0,-1,165.87,519.172)"
                               style="font-variant:normal;font-weight:normal;font-size:9.96259975px;font-family:CMR10;-inkscape-font-specification:CMR10;writing-mode:lr-tb;fill:#000000;fill-opacity:1;fill-rule:nonzero;stroke:none"
                               id="text14080"><tspan
                                 x="0 4.9812999"
                                 y="0"
                                 sodipodi:role="line"
                                 id="tspan14078">20</tspan></text>
<g
                               id="g14082"
                               transform="translate(165.87,519.172)" /></g></g><g
                           id="g14084"
                           transform="translate(38.389,-33.933)" /></g></g><g
                       id="g14086"><g
                         id="g14088"
                         transform="translate(-38.389,71.143)"><g
                           id="g14090"><g
                             id="g14092"
                             transform="translate(-165.87,-556.382)"><text
                               transform="matrix(1,0,0,-1,165.87,556.382)"
                               style="font-variant:normal;font-weight:normal;font-size:9.96259975px;font-family:CMR10;-inkscape-font-specification:CMR10;writing-mode:lr-tb;fill:#000000;fill-opacity:1;fill-rule:nonzero;stroke:none"
                               id="text14096"><tspan
                                 x="0 4.9812999"
                                 y="0"
                                 sodipodi:role="line"
                                 id="tspan14094">40</tspan></text>
<g
                               id="g14098"
                               transform="translate(165.87,556.382)" /></g></g><g
                           id="g14100"
                           transform="translate(38.389,-71.143)" /></g></g><g
                       id="g14102"><g
                         id="g14104"
                         transform="translate(-38.389,108.353)"><g
                           id="g14106"><g
                             id="g14108"
                             transform="translate(-165.87,-593.592)"><text
                               transform="matrix(1,0,0,-1,165.87,593.592)"
                               style="font-variant:normal;font-weight:normal;font-size:9.96259975px;font-family:CMR10;-inkscape-font-specification:CMR10;writing-mode:lr-tb;fill:#000000;fill-opacity:1;fill-rule:nonzero;stroke:none"
                               id="text14112"><tspan
                                 x="0 4.9812999"
                                 y="0"
                                 sodipodi:role="line"
                                 id="tspan14110">60</tspan></text>
<g
                               id="g14114"
                               transform="translate(165.87,593.592)" /></g></g><g
                           id="g14116"
                           transform="translate(38.389,-108.353)" /></g></g><g
                       id="g14118"><g
                         id="g14120"
                         transform="translate(-38.389,145.563)"><g
                           id="g14122"><g
                             id="g14124"
                             transform="translate(-165.87,-630.802)"><text
                               transform="matrix(1,0,0,-1,165.87,630.802)"
                               style="font-variant:normal;font-weight:normal;font-size:9.96259975px;font-family:CMR10;-inkscape-font-specification:CMR10;writing-mode:lr-tb;fill:#000000;fill-opacity:1;fill-rule:nonzero;stroke:none"
                               id="text14128"><tspan
                                 x="0 4.9812999"
                                 y="0"
                                 sodipodi:role="line"
                                 id="tspan14126">80</tspan></text>
<g
                               id="g14130"
                               transform="translate(165.87,630.802)" /></g></g><g
                           id="g14132"
                           transform="translate(38.389,-145.563)" /></g></g><g
                       id="g14134"><g
                         id="g14136"
                         transform="translate(-43.371,182.773)"><g
                           id="g14138"><g
                             id="g14140"
                             transform="translate(-160.888,-668.012)"><text
                               transform="matrix(1,0,0,-1,160.888,668.012)"
                               style="font-variant:normal;font-weight:normal;font-size:9.96259975px;font-family:CMR10;-inkscape-font-specification:CMR10;writing-mode:lr-tb;fill:#000000;fill-opacity:1;fill-rule:nonzero;stroke:none"
                               id="text14144"><tspan
                                 x="0 4.9812999 9.9625998"
                                 y="0"
                                 sodipodi:role="line"
                                 id="tspan14142">100</tspan></text>
<g
                               id="g14146"
                               transform="translate(160.888,668.012)" /></g></g><g
                           id="g14148"
                           transform="translate(43.371,-182.773)" /></g></g><g
                       id="g14150"><g
                         id="g14152"
                         transform="translate(-43.371,219.983)"><g
                           id="g14154"><g
                             id="g14156"
                             transform="translate(-160.888,-705.222)"><text
                               transform="matrix(1,0,0,-1,160.888,705.222)"
                               style="font-variant:normal;font-weight:normal;font-size:9.96259975px;font-family:CMR10;-inkscape-font-specification:CMR10;writing-mode:lr-tb;fill:#000000;fill-opacity:1;fill-rule:nonzero;stroke:none"
                               id="text14160"><tspan
                                 x="0 4.9812999 9.9625998"
                                 y="0"
                                 sodipodi:role="line"
                                 id="tspan14158">120</tspan></text>
<g
                               id="g14162"
                               transform="translate(160.888,705.222)" /></g></g><g
                           id="g14164"
                           transform="translate(43.371,-219.983)" /></g></g><g
                       id="g14166"
                       clip-path="url(#clipPath14170)"><g
                         id="g14172"><path
                           d="m 0,0 21.1159,7.56024 6.63643,2.73216 4.92705,2.41497 4.92705,3.12709 -4.92705,-0.34745 h -5.12814 l 10.25629,0.64931 20.00984,15.33397 20.11039,18.20711 20.00984,18.38849 20.21096,19.41597 -19.90929,-1.02329 19.80873,2.04564 30.46724,25.10777 50.17543,52.10959 50.37654,43.96466"
                           style="fill:none;stroke:#ff0000;stroke-width:0.3985;stroke-linecap:butt;stroke-linejoin:miter;stroke-miterlimit:10;stroke-dasharray:none;stroke-opacity:1"
                           id="path14174"
                           inkscape:connector-curvature="0" /></g></g></g><g
                     id="g14176"><path
                       d="M 1.99255,0 C 1.99255,1.10046 1.10046,1.99255 0,1.99255 -1.10046,1.99255 -1.99255,1.10046 -1.99255,0 c 0,-1.10046 0.89209,-1.99255 1.99255,-1.99255 1.10046,0 1.99255,0.89209 1.99255,1.99255 z"
                       style="fill:#ff0000;fill-opacity:1;fill-rule:nonzero;stroke:#ff0000;stroke-width:0.3985;stroke-linecap:butt;stroke-linejoin:miter;stroke-miterlimit:10;stroke-dasharray:none;stroke-opacity:1"
                       id="path14178"
                       inkscape:connector-curvature="0" /><path
                       d="m 23.10846,7.56024 c 0,1.10046 -0.89209,1.99256 -1.99256,1.99256 -1.10047,0 -1.99255,-0.8921 -1.99255,-1.99256 0,-1.10048 0.89208,-1.99255 1.99255,-1.99255 1.10047,0 1.99256,0.89207 1.99256,1.99255 z"
                       style="fill:#ff0000;fill-opacity:1;fill-rule:nonzero;stroke:#ff0000;stroke-width:0.3985;stroke-linecap:butt;stroke-linejoin:miter;stroke-miterlimit:10;stroke-dasharray:none;stroke-opacity:1"
                       id="path14180"
                       inkscape:connector-curvature="0" /><path
                       d="m 29.74489,10.2924 c 0,1.10047 -0.89209,1.99256 -1.99256,1.99256 -1.10047,0 -1.99255,-0.89209 -1.99255,-1.99256 0,-1.10047 0.89208,-1.99255 1.99255,-1.99255 1.10047,0 1.99256,0.89208 1.99256,1.99255 z"
                       style="fill:#ff0000;fill-opacity:1;fill-rule:nonzero;stroke:#ff0000;stroke-width:0.3985;stroke-linecap:butt;stroke-linejoin:miter;stroke-miterlimit:10;stroke-dasharray:none;stroke-opacity:1"
                       id="path14182"
                       inkscape:connector-curvature="0" /><path
                       d="m 34.67194,12.70737 c 0,1.10048 -0.89209,1.99255 -1.99256,1.99255 -1.10048,0 -1.99255,-0.89207 -1.99255,-1.99255 0,-1.10047 0.89207,-1.99256 1.99255,-1.99256 1.10047,0 1.99256,0.89209 1.99256,1.99256 z"
                       style="fill:#ff0000;fill-opacity:1;fill-rule:nonzero;stroke:#ff0000;stroke-width:0.3985;stroke-linecap:butt;stroke-linejoin:miter;stroke-miterlimit:10;stroke-dasharray:none;stroke-opacity:1"
                       id="path14184"
                       inkscape:connector-curvature="0" /><path
                       d="m 39.59898,15.83446 c 0,1.10048 -0.89207,1.99255 -1.99255,1.99255 -1.10046,0 -1.99255,-0.89207 -1.99255,-1.99255 0,-1.10046 0.89209,-1.99256 1.99255,-1.99256 1.10048,0 1.99255,0.8921 1.99255,1.99256 z"
                       style="fill:#ff0000;fill-opacity:1;fill-rule:nonzero;stroke:#ff0000;stroke-width:0.3985;stroke-linecap:butt;stroke-linejoin:miter;stroke-miterlimit:10;stroke-dasharray:none;stroke-opacity:1"
                       id="path14186"
                       inkscape:connector-curvature="0" /><path
                       d="m 34.67194,15.48701 c 0,1.10047 -0.89209,1.99256 -1.99256,1.99256 -1.10048,0 -1.99255,-0.89209 -1.99255,-1.99256 0,-1.10047 0.89207,-1.99255 1.99255,-1.99255 1.10047,0 1.99256,0.89208 1.99256,1.99255 z"
                       style="fill:#ff0000;fill-opacity:1;fill-rule:nonzero;stroke:#ff0000;stroke-width:0.3985;stroke-linecap:butt;stroke-linejoin:miter;stroke-miterlimit:10;stroke-dasharray:none;stroke-opacity:1"
                       id="path14188"
                       inkscape:connector-curvature="0" /><path
                       d="m 29.5438,15.48701 c 0,1.10047 -0.8921,1.99256 -1.99256,1.99256 -1.10048,0 -1.99255,-0.89209 -1.99255,-1.99256 0,-1.10047 0.89207,-1.99255 1.99255,-1.99255 1.10046,0 1.99256,0.89208 1.99256,1.99255 z"
                       style="fill:#ff0000;fill-opacity:1;fill-rule:nonzero;stroke:#ff0000;stroke-width:0.3985;stroke-linecap:butt;stroke-linejoin:miter;stroke-miterlimit:10;stroke-dasharray:none;stroke-opacity:1"
                       id="path14190"
                       inkscape:connector-curvature="0" /><path
                       d="m 39.80008,16.13632 c 0,1.10047 -0.89209,1.99256 -1.99255,1.99256 -1.10047,0 -1.99256,-0.89209 -1.99256,-1.99256 0,-1.10048 0.89209,-1.99255 1.99256,-1.99255 1.10046,0 1.99255,0.89207 1.99255,1.99255 z"
                       style="fill:#ff0000;fill-opacity:1;fill-rule:nonzero;stroke:#ff0000;stroke-width:0.3985;stroke-linecap:butt;stroke-linejoin:miter;stroke-miterlimit:10;stroke-dasharray:none;stroke-opacity:1"
                       id="path14192"
                       inkscape:connector-curvature="0" /><path
                       d="m 59.80992,31.47029 c 0,1.10048 -0.89207,1.99255 -1.99255,1.99255 -1.10047,0 -1.99256,-0.89207 -1.99256,-1.99255 0,-1.10046 0.89209,-1.99255 1.99256,-1.99255 1.10048,0 1.99255,0.89209 1.99255,1.99255 z"
                       style="fill:#ff0000;fill-opacity:1;fill-rule:nonzero;stroke:#ff0000;stroke-width:0.3985;stroke-linecap:butt;stroke-linejoin:miter;stroke-miterlimit:10;stroke-dasharray:none;stroke-opacity:1"
                       id="path14194"
                       inkscape:connector-curvature="0" /><path
                       d="m 79.92032,49.6774 c 0,1.10046 -0.89208,1.99255 -1.99256,1.99255 -1.10046,0 -1.99255,-0.89209 -1.99255,-1.99255 0,-1.10048 0.89209,-1.99256 1.99255,-1.99256 1.10048,0 1.99256,0.89208 1.99256,1.99256 z"
                       style="fill:#ff0000;fill-opacity:1;fill-rule:nonzero;stroke:#ff0000;stroke-width:0.3985;stroke-linecap:butt;stroke-linejoin:miter;stroke-miterlimit:10;stroke-dasharray:none;stroke-opacity:1"
                       id="path14196"
                       inkscape:connector-curvature="0" /><path
                       d="m 99.93016,68.06589 c 0,1.10048 -0.89207,1.99255 -1.99256,1.99255 -1.10046,0 -1.99255,-0.89207 -1.99255,-1.99255 0,-1.10047 0.89209,-1.99256 1.99255,-1.99256 1.10049,0 1.99256,0.89209 1.99256,1.99256 z"
                       style="fill:#ff0000;fill-opacity:1;fill-rule:nonzero;stroke:#ff0000;stroke-width:0.3985;stroke-linecap:butt;stroke-linejoin:miter;stroke-miterlimit:10;stroke-dasharray:none;stroke-opacity:1"
                       id="path14198"
                       inkscape:connector-curvature="0" /><path
                       d="m 120.14111,87.48186 c 0,1.10048 -0.89209,1.99255 -1.99255,1.99255 -1.10048,0 -1.99256,-0.89207 -1.99256,-1.99255 0,-1.10046 0.89208,-1.99256 1.99256,-1.99256 1.10046,0 1.99255,0.8921 1.99255,1.99256 z"
                       style="fill:#ff0000;fill-opacity:1;fill-rule:nonzero;stroke:#ff0000;stroke-width:0.3985;stroke-linecap:butt;stroke-linejoin:miter;stroke-miterlimit:10;stroke-dasharray:none;stroke-opacity:1"
                       id="path14200"
                       inkscape:connector-curvature="0" /><path
                       d="m 100.23183,86.45857 c 0,1.10047 -0.89209,1.99256 -1.99256,1.99256 -1.10047,0 -1.99255,-0.89209 -1.99255,-1.99256 0,-1.10047 0.89208,-1.99255 1.99255,-1.99255 1.10047,0 1.99256,0.89208 1.99256,1.99255 z"
                       style="fill:#ff0000;fill-opacity:1;fill-rule:nonzero;stroke:#ff0000;stroke-width:0.3985;stroke-linecap:butt;stroke-linejoin:miter;stroke-miterlimit:10;stroke-dasharray:none;stroke-opacity:1"
                       id="path14202"
                       inkscape:connector-curvature="0" /><path
                       d="m 120.04056,88.50421 c 0,1.10047 -0.89208,1.99256 -1.99256,1.99256 -1.10046,0 -1.99255,-0.89209 -1.99255,-1.99256 0,-1.10048 0.89209,-1.99255 1.99255,-1.99255 1.10048,0 1.99256,0.89207 1.99256,1.99255 z"
                       style="fill:#ff0000;fill-opacity:1;fill-rule:nonzero;stroke:#ff0000;stroke-width:0.3985;stroke-linecap:butt;stroke-linejoin:miter;stroke-miterlimit:10;stroke-dasharray:none;stroke-opacity:1"
                       id="path14204"
                       inkscape:connector-curvature="0" /><path
                       d="m 150.5078,113.61198 c 0,1.10047 -0.89208,1.99256 -1.99256,1.99256 -1.10046,0 -1.99255,-0.89209 -1.99255,-1.99256 0,-1.10048 0.89209,-1.99255 1.99255,-1.99255 1.10048,0 1.99256,0.89207 1.99256,1.99255 z"
                       style="fill:#ff0000;fill-opacity:1;fill-rule:nonzero;stroke:#ff0000;stroke-width:0.3985;stroke-linecap:butt;stroke-linejoin:miter;stroke-miterlimit:10;stroke-dasharray:none;stroke-opacity:1"
                       id="path14206"
                       inkscape:connector-curvature="0" /><path
                       d="m 200.68323,165.72157 c 0,1.10048 -0.89209,1.99256 -1.99256,1.99256 -1.10047,0 -1.99255,-0.89208 -1.99255,-1.99256 0,-1.10046 0.89208,-1.99255 1.99255,-1.99255 1.10047,0 1.99256,0.89209 1.99256,1.99255 z"
                       style="fill:#ff0000;fill-opacity:1;fill-rule:nonzero;stroke:#ff0000;stroke-width:0.3985;stroke-linecap:butt;stroke-linejoin:miter;stroke-miterlimit:10;stroke-dasharray:none;stroke-opacity:1"
                       id="path14208"
                       inkscape:connector-curvature="0" /><path
                       d="m 251.05977,209.68623 c 0,1.10047 -0.89209,1.99256 -1.99256,1.99256 -1.10046,0 -1.99255,-0.89209 -1.99255,-1.99256 0,-1.10048 0.89209,-1.99255 1.99255,-1.99255 1.10047,0 1.99256,0.89207 1.99256,1.99255 z"
                       style="fill:#ff0000;fill-opacity:1;fill-rule:nonzero;stroke:#ff0000;stroke-width:0.3985;stroke-linecap:butt;stroke-linejoin:miter;stroke-miterlimit:10;stroke-dasharray:none;stroke-opacity:1"
                       id="path14210"
                       inkscape:connector-curvature="0" /></g><g
                     id="g14212"><g
                       id="g14214"
                       transform="translate(26.286,-45.218)"><g
                         id="g14216"><g
                           id="g14218"
                           transform="translate(-230.545,-440.021)"><text
                             transform="matrix(1,0,0,-1,230.545,440.021)"
                             style="font-variant:normal;font-weight:normal;font-size:9.96259975px;font-family:SFRM1000;-inkscape-font-specification:SFRM1000;writing-mode:lr-tb;fill:#000000;fill-opacity:1;fill-rule:nonzero;stroke:none"
                             id="text14222"><tspan
                               x="0 7.0555134 11.481896 17.015125 21.995428 27.528656 32.782932 37.763237 43.296463 48.276768 53.809994 58.790298 66.544189 72.077415 77.057724 82.59095 87.845222 93.239975 101.26086 105.68725 111.22047 116.7537 124.49763 129.47794 133.40619 136.17281 141.15311 149.46291 154.43326 162.18018 167.16048 172.14078 178.23489 183.76813 191.51505"
                               y="0"
                               sodipodi:role="line"
                               id="tspan14220">Вертикальное напряжение $\sigma_1$, кПа</tspan></text>
<g
                             id="g14224"
                             transform="translate(230.545,440.021)" /></g></g><g
                         id="g14226"
                         transform="translate(-26.286,45.218)" /></g></g><g
                     id="g14228"><g
                       id="g14230"
                       transform="rotate(90,-49.824,-2.876)"><g
                         id="g14232"><g
                           id="g14234"
                           transform="translate(-151.559,-532.187)"><text
                             transform="matrix(1,0,0,-1,151.559,532.187)"
                             style="font-variant:normal;font-weight:normal;font-size:9.96259975px;font-family:SFRM1000;-inkscape-font-specification:SFRM1000;writing-mode:lr-tb;fill:#000000;fill-opacity:1;fill-rule:nonzero;stroke:none"
                             id="text14242"><tspan
                               x="0 7.192997 12.726225 17.152609 22.685837 27.112219 32.645447 41.367702 46.348007 56.584579 61.564884 67.64904 73.182274 80.929192 89.229034 94.209335 100.84941"
                               y="0"
                               sodipodi:role="line"
                               id="tspan14236">Энергия$W$,кДж/м$</tspan><tspan
                               x="105.828"
                               y="-2.1029999"
                               id="tspan14238">ˆ</tspan><tspan
                               x="105.828 110.8083"
                               y="0"
                               sodipodi:role="line"
                               id="tspan14240">3$</tspan></text>
<g
                             id="g14244"
                             transform="translate(151.559,532.187)" /></g></g><g
                         id="g14246"
                         transform="translate(52.7,-46.948)" /></g></g></g></g><g
                 id="g14248"
                 transform="translate(-64.513,-50.857)" /></g><g
               id="g14250"
               transform="translate(39.605,29.887)" /></g><g
             id="g14252" /><g
             id="g14254" /></g></g></g><path
       style="fill:none;stroke:#000000;stroke-width:0.46771654;stroke-linecap:butt;stroke-linejoin:miter;stroke-miterlimit:4;stroke-dasharray:none;stroke-opacity:1"
       d="m 204.259,485.239 70.77479,25.94609"
       id="path1761"
       inkscape:connector-curvature="0"
       sodipodi:nodetypes="cc" /><path
       style="fill:none;stroke:#000000;stroke-width:0.4678441;stroke-linecap:butt;stroke-linejoin:miter;stroke-miterlimit:4;stroke-dasharray:none;stroke-opacity:1"
       d="M 453.32551,694.928 232.5092,488.31788"
       id="path1763"
       inkscape:connector-curvature="0"
       sodipodi:nodetypes="cc" /><path
       style="fill:none;stroke:#000000;stroke-width:0.46771654;stroke-linecap:butt;stroke-linejoin:miter;stroke-miterlimit:4;stroke-dasharray:0.46771656, 1.40314967;stroke-dashoffset:0;stroke-opacity:1"
       d="M 245.55267,497.68188 V 465.05912"
       id="path1765"
       inkscape:connector-curvature="0" /></g></svg>