<?xml version="1.0" encoding="UTF-8" standalone="no"?>
<!-- Created with Inkscape (http://www.inkscape.org/) -->

<svg
   xmlns:dc="http://purl.org/dc/elements/1.1/"
   xmlns:cc="http://creativecommons.org/ns#"
   xmlns:rdf="http://www.w3.org/1999/02/22-rdf-syntax-ns#"
   xmlns:svg="http://www.w3.org/2000/svg"
   xmlns="http://www.w3.org/2000/svg"
   xmlns:sodipodi="http://sodipodi.sourceforge.net/DTD/sodipodi-0.dtd"
   xmlns:inkscape="http://www.inkscape.org/namespaces/inkscape"
   version="1.1"
   id="svg14820"
   xml:space="preserve"
   width="793.70135"
   height="1122.52"
   viewBox="0 0 793.70135 1122.52"
   sodipodi:docname="oedometerBecker+monolith+12.svg"
   inkscape:version="0.92.3 (2405546, 2018-03-11)"><metadata
     id="metadata14826"><rdf:RDF><cc:Work
         rdf:about=""><dc:format>image/svg+xml</dc:format><dc:type
           rdf:resource="http://purl.org/dc/dcmitype/StillImage" /><dc:title></dc:title></cc:Work></rdf:RDF></metadata><defs
     id="defs14824"><clipPath
       clipPathUnits="userSpaceOnUse"
       id="clipPath15136"><path
         d="M -24.90814,-20.97017 H 273.9746 v 251.6293 H -24.90814 Z"
         id="path15134"
         inkscape:connector-curvature="0" /></clipPath></defs><sodipodi:namedview
     pagecolor="#ffffff"
     bordercolor="#666666"
     borderopacity="1"
     objecttolerance="10"
     gridtolerance="10"
     guidetolerance="10"
     inkscape:pageopacity="0"
     inkscape:pageshadow="2"
     inkscape:window-width="1243"
     inkscape:window-height="1408"
     id="namedview14822"
     showgrid="false"
     inkscape:zoom="1.189304"
     inkscape:cx="434.92321"
     inkscape:cy="798.7597"
     inkscape:window-x="62"
     inkscape:window-y="0"
     inkscape:window-maximized="0"
     inkscape:current-layer="g14828" /><g
     id="g14828"
     inkscape:groupmode="layer"
     inkscape:label="oedometerBecker+monolith"
     transform="matrix(1.3333333,0,0,-1.3333333,0,1122.52)"><g
       id="g14830"
       transform="translate(174.37,464.266)"><g
         id="g14832"><g
           id="g14834"><g
             id="g14836" /><g
             id="g14838" /><g
             id="g14840"><g
               id="g14842" /></g><g
             id="g14844" /><g
             id="g14846" /><g
             id="g14848" /><g
             id="g14850" /><g
             id="g14852"
             transform="translate(-34.624,-29.887)"><g
               id="g14854"
               transform="translate(59.532,50.857)"><g
                 id="g14856"><g
                   id="g14858"><g
                     id="g14860"><g
                       id="g14862"><g
                         id="g14864"><path
                           d="m -2.41615,-20.97017 v 4.25176 m 50.33676,-4.25176 v 4.25176 m 50.33679,-4.25176 v 4.25176 m 50.3368,-4.25176 v 4.25176 m 50.33678,-4.25176 v 4.25176 m 50.3368,-4.25176 v 4.25176 M -2.41615,230.65913 v -4.25173 m 50.33676,4.25173 v -4.25173 m 50.33679,4.25173 v -4.25173 m 50.3368,4.25173 v -4.25173 m 50.33678,4.25173 v -4.25173 m 50.3368,4.25173 v -4.25173"
                           style="fill:none;stroke:#808080;stroke-width:0.19925;stroke-linecap:butt;stroke-linejoin:miter;stroke-miterlimit:10;stroke-dasharray:none;stroke-opacity:1"
                           id="path14866"
                           inkscape:connector-curvature="0" /></g></g><g
                       id="g14868"><g
                         id="g14870"><path
                           d="m -24.90814,0 h 4.25281 m -4.25281,24.41437 h 4.25281 m -4.25281,24.41438 h 4.25281 m -4.25281,24.41437 h 4.25281 m -4.25281,24.41438 h 4.25281 m -4.25281,24.41438 h 4.25281 m -4.25281,24.41437 h 4.25281 m -4.25281,24.41438 h 4.25281 m -4.25281,24.41439 h 4.25281 m -4.25281,24.41437 h 4.25281 M 273.9746,0 h -4.25281 m 4.25281,24.41437 h -4.25281 m 4.25281,24.41438 h -4.25281 m 4.25281,24.41437 h -4.25281 m 4.25281,24.41438 h -4.25281 m 4.25281,24.41438 h -4.25281 m 4.25281,24.41437 h -4.25281 m 4.25281,24.41438 h -4.25281 m 4.25281,24.41439 h -4.25281 m 4.25281,24.41437 h -4.25281"
                           style="fill:none;stroke:#808080;stroke-width:0.19925;stroke-linecap:butt;stroke-linejoin:miter;stroke-miterlimit:10;stroke-dasharray:none;stroke-opacity:1"
                           id="path14872"
                           inkscape:connector-curvature="0" /></g></g><path
                       d="m -24.90814,-20.97017 v 251.6293 H 273.9746 v -251.6293 z"
                       style="fill:none;stroke:#000000;stroke-width:0.3985;stroke-linecap:butt;stroke-linejoin:miter;stroke-miterlimit:10;stroke-dasharray:none;stroke-opacity:1"
                       id="path14874"
                       inkscape:connector-curvature="0" /><g
                       id="g14876"><g
                         id="g14878"
                         transform="translate(-4.907,-30.909)"><g
                           id="g14880"><g
                             id="g14882"
                             transform="translate(-194.371,-454.327)"><text
                               transform="matrix(1,0,0,-1,194.371,454.327)"
                               style="font-variant:normal;font-weight:normal;font-size:9.96259975px;font-family:CMR10;-inkscape-font-specification:CMR10;writing-mode:lr-tb;fill:#000000;fill-opacity:1;fill-rule:nonzero;stroke:none"
                               id="text14886"><tspan
                                 x="0"
                                 y="0"
                                 id="tspan14884">0</tspan></text>
<g
                               id="g14888"
                               transform="translate(194.371,454.327)" /></g></g><g
                           id="g14890"
                           transform="translate(4.907,30.909)" /></g></g><g
                       id="g14892"><g
                         id="g14894"
                         transform="translate(40.448,-30.909)"><g
                           id="g14896"><g
                             id="g14898"
                             transform="translate(-239.726,-454.327)"><text
                               transform="matrix(1,0,0,-1,239.726,454.327)"
                               style="font-variant:normal;font-weight:normal;font-size:9.96259975px;font-family:CMR10;-inkscape-font-specification:CMR10;writing-mode:lr-tb;fill:#000000;fill-opacity:1;fill-rule:nonzero;stroke:none"
                               id="text14902"><tspan
                                 x="0 4.9812999 9.9625998"
                                 y="0"
                                 sodipodi:role="line"
                                 id="tspan14900">500</tspan></text>
<g
                               id="g14904"
                               transform="translate(239.726,454.327)" /></g></g><g
                           id="g14906"
                           transform="translate(-40.448,30.909)" /></g></g><g
                       id="g14908"><g
                         id="g14910"
                         transform="translate(87.463,-30.909)"><g
                           id="g14912"><g
                             id="g14914"
                             transform="translate(-286.741,-454.327)"><text
                               transform="matrix(1,0,0,-1,286.741,454.327)"
                               style="font-variant:normal;font-weight:normal;font-size:9.96259975px;font-family:CMR10;-inkscape-font-specification:CMR10;writing-mode:lr-tb;fill:#000000;fill-opacity:1;fill-rule:nonzero;stroke:none"
                               id="text14918"><tspan
                                 x="0 6.6450543 11.626354 16.607655"
                                 y="0"
                                 sodipodi:role="line"
                                 id="tspan14916">1000</tspan></text>
<g
                               id="g14920"
                               transform="translate(286.741,454.327)" /></g></g><g
                           id="g14922"
                           transform="translate(-87.463,30.909)" /></g></g><g
                       id="g14924"><g
                         id="g14926"
                         transform="translate(137.799,-30.909)"><g
                           id="g14928"><g
                             id="g14930"
                             transform="translate(-337.077,-454.327)"><text
                               transform="matrix(1,0,0,-1,337.077,454.327)"
                               style="font-variant:normal;font-weight:normal;font-size:9.96259975px;font-family:CMR10;-inkscape-font-specification:CMR10;writing-mode:lr-tb;fill:#000000;fill-opacity:1;fill-rule:nonzero;stroke:none"
                               id="text14934"><tspan
                                 x="0 6.6450543 11.626354 16.607655"
                                 y="0"
                                 sodipodi:role="line"
                                 id="tspan14932">1500</tspan></text>
<g
                               id="g14936"
                               transform="translate(337.077,454.327)" /></g></g><g
                           id="g14938"
                           transform="translate(-137.799,30.909)" /></g></g><g
                       id="g14940"><g
                         id="g14942"
                         transform="translate(188.135,-30.909)"><g
                           id="g14944"><g
                             id="g14946"
                             transform="translate(-387.413,-454.327)"><text
                               transform="matrix(1,0,0,-1,387.413,454.327)"
                               style="font-variant:normal;font-weight:normal;font-size:9.96259975px;font-family:CMR10;-inkscape-font-specification:CMR10;writing-mode:lr-tb;fill:#000000;fill-opacity:1;fill-rule:nonzero;stroke:none"
                               id="text14950"><tspan
                                 x="0 6.6450543 11.626354 16.607655"
                                 y="0"
                                 sodipodi:role="line"
                                 id="tspan14948">2000</tspan></text>
<g
                               id="g14952"
                               transform="translate(387.413,454.327)" /></g></g><g
                           id="g14954"
                           transform="translate(-188.135,30.909)" /></g></g><g
                       id="g14956"><g
                         id="g14958"
                         transform="translate(238.471,-30.909)"><g
                           id="g14960"><g
                             id="g14962"
                             transform="translate(-437.749,-454.327)"><text
                               transform="matrix(1,0,0,-1,437.749,454.327)"
                               style="font-variant:normal;font-weight:normal;font-size:9.96259975px;font-family:CMR10;-inkscape-font-specification:CMR10;writing-mode:lr-tb;fill:#000000;fill-opacity:1;fill-rule:nonzero;stroke:none"
                               id="text14966"><tspan
                                 x="0 6.6450543 11.626354 16.607655"
                                 y="0"
                                 sodipodi:role="line"
                                 id="tspan14964">2500</tspan></text>
<g
                               id="g14968"
                               transform="translate(437.749,454.327)" /></g></g><g
                           id="g14970"
                           transform="translate(-238.471,30.909)" /></g></g><g
                       id="g14972"><g
                         id="g14974"
                         transform="translate(-33.408,-3.21)"><g
                           id="g14976"><g
                             id="g14978"
                             transform="translate(-165.87,-482.026)"><text
                               transform="matrix(1,0,0,-1,165.87,482.026)"
                               style="font-variant:normal;font-weight:normal;font-size:9.96259975px;font-family:CMR10;-inkscape-font-specification:CMR10;writing-mode:lr-tb;fill:#000000;fill-opacity:1;fill-rule:nonzero;stroke:none"
                               id="text14982"><tspan
                                 x="0"
                                 y="0"
                                 id="tspan14980">0</tspan></text>
<g
                               id="g14984"
                               transform="translate(165.87,482.026)" /></g></g><g
                           id="g14986"
                           transform="translate(33.408,3.21)" /></g></g><g
                       id="g14988"><g
                         id="g14990"
                         transform="translate(-38.39,21.204)"><g
                           id="g14992"><g
                             id="g14994"
                             transform="translate(-160.888,-506.44)"><text
                               transform="matrix(1,0,0,-1,160.888,506.44)"
                               style="font-variant:normal;font-weight:normal;font-size:9.96259975px;font-family:CMR10;-inkscape-font-specification:CMR10;writing-mode:lr-tb;fill:#000000;fill-opacity:1;fill-rule:nonzero;stroke:none"
                               id="text14998"><tspan
                                 x="0 4.9812999"
                                 y="0"
                                 sodipodi:role="line"
                                 id="tspan14996">10</tspan></text>
<g
                               id="g15000"
                               transform="translate(160.888,506.44)" /></g></g><g
                           id="g15002"
                           transform="translate(38.39,-21.204)" /></g></g><g
                       id="g15004"><g
                         id="g15006"
                         transform="translate(-38.39,45.618)"><g
                           id="g15008"><g
                             id="g15010"
                             transform="translate(-160.888,-530.854)"><text
                               transform="matrix(1,0,0,-1,160.888,530.854)"
                               style="font-variant:normal;font-weight:normal;font-size:9.96259975px;font-family:CMR10;-inkscape-font-specification:CMR10;writing-mode:lr-tb;fill:#000000;fill-opacity:1;fill-rule:nonzero;stroke:none"
                               id="text15014"><tspan
                                 x="0 4.9812999"
                                 y="0"
                                 sodipodi:role="line"
                                 id="tspan15012">20</tspan></text>
<g
                               id="g15016"
                               transform="translate(160.888,530.854)" /></g></g><g
                           id="g15018"
                           transform="translate(38.39,-45.618)" /></g></g><g
                       id="g15020"><g
                         id="g15022"
                         transform="translate(-38.39,70.032)"><g
                           id="g15024"><g
                             id="g15026"
                             transform="translate(-160.888,-555.268)"><text
                               transform="matrix(1,0,0,-1,160.888,555.268)"
                               style="font-variant:normal;font-weight:normal;font-size:9.96259975px;font-family:CMR10;-inkscape-font-specification:CMR10;writing-mode:lr-tb;fill:#000000;fill-opacity:1;fill-rule:nonzero;stroke:none"
                               id="text15030"><tspan
                                 x="0 4.9812999"
                                 y="0"
                                 sodipodi:role="line"
                                 id="tspan15028">30</tspan></text>
<g
                               id="g15032"
                               transform="translate(160.888,555.268)" /></g></g><g
                           id="g15034"
                           transform="translate(38.39,-70.032)" /></g></g><g
                       id="g15036"><g
                         id="g15038"
                         transform="translate(-38.39,94.446)"><g
                           id="g15040"><g
                             id="g15042"
                             transform="translate(-160.888,-579.682)"><text
                               transform="matrix(1,0,0,-1,160.888,579.682)"
                               style="font-variant:normal;font-weight:normal;font-size:9.96259975px;font-family:CMR10;-inkscape-font-specification:CMR10;writing-mode:lr-tb;fill:#000000;fill-opacity:1;fill-rule:nonzero;stroke:none"
                               id="text15046"><tspan
                                 x="0 4.9812999"
                                 y="0"
                                 sodipodi:role="line"
                                 id="tspan15044">40</tspan></text>
<g
                               id="g15048"
                               transform="translate(160.888,579.682)" /></g></g><g
                           id="g15050"
                           transform="translate(38.39,-94.446)" /></g></g><g
                       id="g15052"><g
                         id="g15054"
                         transform="translate(-38.39,118.86)"><g
                           id="g15056"><g
                             id="g15058"
                             transform="translate(-160.888,-604.096)"><text
                               transform="matrix(1,0,0,-1,160.888,604.096)"
                               style="font-variant:normal;font-weight:normal;font-size:9.96259975px;font-family:CMR10;-inkscape-font-specification:CMR10;writing-mode:lr-tb;fill:#000000;fill-opacity:1;fill-rule:nonzero;stroke:none"
                               id="text15062"><tspan
                                 x="0 4.9812999"
                                 y="0"
                                 sodipodi:role="line"
                                 id="tspan15060">50</tspan></text>
<g
                               id="g15064"
                               transform="translate(160.888,604.096)" /></g></g><g
                           id="g15066"
                           transform="translate(38.39,-118.86)" /></g></g><g
                       id="g15068"><g
                         id="g15070"
                         transform="translate(-38.39,143.274)"><g
                           id="g15072"><g
                             id="g15074"
                             transform="translate(-160.888,-628.51)"><text
                               transform="matrix(1,0,0,-1,160.888,628.51)"
                               style="font-variant:normal;font-weight:normal;font-size:9.96259975px;font-family:CMR10;-inkscape-font-specification:CMR10;writing-mode:lr-tb;fill:#000000;fill-opacity:1;fill-rule:nonzero;stroke:none"
                               id="text15078"><tspan
                                 x="0 4.9812999"
                                 y="0"
                                 sodipodi:role="line"
                                 id="tspan15076">60</tspan></text>
<g
                               id="g15080"
                               transform="translate(160.888,628.51)" /></g></g><g
                           id="g15082"
                           transform="translate(38.39,-143.274)" /></g></g><g
                       id="g15084"><g
                         id="g15086"
                         transform="translate(-38.39,167.688)"><g
                           id="g15088"><g
                             id="g15090"
                             transform="translate(-160.888,-652.924)"><text
                               transform="matrix(1,0,0,-1,160.888,652.924)"
                               style="font-variant:normal;font-weight:normal;font-size:9.96259975px;font-family:CMR10;-inkscape-font-specification:CMR10;writing-mode:lr-tb;fill:#000000;fill-opacity:1;fill-rule:nonzero;stroke:none"
                               id="text15094"><tspan
                                 x="0 4.9812999"
                                 y="0"
                                 sodipodi:role="line"
                                 id="tspan15092">70</tspan></text>
<g
                               id="g15096"
                               transform="translate(160.888,652.924)" /></g></g><g
                           id="g15098"
                           transform="translate(38.39,-167.688)" /></g></g><g
                       id="g15100"><g
                         id="g15102"
                         transform="translate(-38.39,192.102)"><g
                           id="g15104"><g
                             id="g15106"
                             transform="translate(-160.888,-677.338)"><text
                               transform="matrix(1,0,0,-1,160.888,677.338)"
                               style="font-variant:normal;font-weight:normal;font-size:9.96259975px;font-family:CMR10;-inkscape-font-specification:CMR10;writing-mode:lr-tb;fill:#000000;fill-opacity:1;fill-rule:nonzero;stroke:none"
                               id="text15110"><tspan
                                 x="0 4.9812999"
                                 y="0"
                                 sodipodi:role="line"
                                 id="tspan15108">80</tspan></text>
<g
                               id="g15112"
                               transform="translate(160.888,677.338)" /></g></g><g
                           id="g15114"
                           transform="translate(38.39,-192.102)" /></g></g><g
                       id="g15116"><g
                         id="g15118"
                         transform="translate(-38.39,216.516)"><g
                           id="g15120"><g
                             id="g15122"
                             transform="translate(-160.888,-701.752)"><text
                               transform="matrix(1,0,0,-1,160.888,701.752)"
                               style="font-variant:normal;font-weight:normal;font-size:9.96259975px;font-family:CMR10;-inkscape-font-specification:CMR10;writing-mode:lr-tb;fill:#000000;fill-opacity:1;fill-rule:nonzero;stroke:none"
                               id="text15126"><tspan
                                 x="0 4.9812999"
                                 y="0"
                                 sodipodi:role="line"
                                 id="tspan15124">90</tspan></text>
<g
                               id="g15128"
                               transform="translate(160.888,701.752)" /></g></g><g
                           id="g15130"
                           transform="translate(38.39,-216.516)" /></g></g><g
                       id="g15132"
                       clip-path="url(#clipPath15136)"><g
                         id="g15138"><path
                           d="m 0,0 22.95357,7.91756 4.73166,1.68156 5.03367,2.76858 5.13436,2.2858 h -5.23502 -4.93301 l 10.16803,0.42664 20.13472,14.03827 19.93338,15.35907 20.23538,18.64589 20.23538,14.76397 -19.93336,-1.34401 19.93336,4.03203 30.10141,26.35776 50.23611,53.36069 50.3368,49.39515"
                           style="fill:none;stroke:#ff0000;stroke-width:0.3985;stroke-linecap:butt;stroke-linejoin:miter;stroke-miterlimit:10;stroke-dasharray:none;stroke-opacity:1"
                           id="path15140"
                           inkscape:connector-curvature="0" /></g></g></g><g
                     id="g15142"><path
                       d="M 1.99255,0 C 1.99255,1.10046 1.10046,1.99255 0,1.99255 -1.10046,1.99255 -1.99255,1.10046 -1.99255,0 c 0,-1.10046 0.89209,-1.99255 1.99255,-1.99255 1.10046,0 1.99255,0.89209 1.99255,1.99255 z"
                       style="fill:#ff0000;fill-opacity:1;fill-rule:nonzero;stroke:#ff0000;stroke-width:0.3985;stroke-linecap:butt;stroke-linejoin:miter;stroke-miterlimit:10;stroke-dasharray:none;stroke-opacity:1"
                       id="path15144"
                       inkscape:connector-curvature="0" /><path
                       d="m 24.94612,7.91756 c 0,1.10048 -0.89209,1.99255 -1.99255,1.99255 -1.10048,0 -1.99256,-0.89207 -1.99256,-1.99255 0,-1.10046 0.89208,-1.99256 1.99256,-1.99256 1.10046,0 1.99255,0.8921 1.99255,1.99256 z"
                       style="fill:#ff0000;fill-opacity:1;fill-rule:nonzero;stroke:#ff0000;stroke-width:0.3985;stroke-linecap:butt;stroke-linejoin:miter;stroke-miterlimit:10;stroke-dasharray:none;stroke-opacity:1"
                       id="path15146"
                       inkscape:connector-curvature="0" /><path
                       d="m 29.67778,9.59912 c 0,1.10046 -0.89208,1.99255 -1.99255,1.99255 -1.10047,0 -1.99256,-0.89209 -1.99256,-1.99255 0,-1.10048 0.89209,-1.99255 1.99256,-1.99255 1.10047,0 1.99255,0.89207 1.99255,1.99255 z"
                       style="fill:#ff0000;fill-opacity:1;fill-rule:nonzero;stroke:#ff0000;stroke-width:0.3985;stroke-linecap:butt;stroke-linejoin:miter;stroke-miterlimit:10;stroke-dasharray:none;stroke-opacity:1"
                       id="path15148"
                       inkscape:connector-curvature="0" /><path
                       d="m 34.71146,12.3677 c 0,1.10047 -0.89208,1.99256 -1.99256,1.99256 -1.10046,0 -1.99255,-0.89209 -1.99255,-1.99256 0,-1.10047 0.89209,-1.99255 1.99255,-1.99255 1.10048,0 1.99256,0.89208 1.99256,1.99255 z"
                       style="fill:#ff0000;fill-opacity:1;fill-rule:nonzero;stroke:#ff0000;stroke-width:0.3985;stroke-linecap:butt;stroke-linejoin:miter;stroke-miterlimit:10;stroke-dasharray:none;stroke-opacity:1"
                       id="path15150"
                       inkscape:connector-curvature="0" /><path
                       d="m 39.84581,14.6535 c 0,1.10047 -0.89209,1.99256 -1.99255,1.99256 -1.10048,0 -1.99256,-0.89209 -1.99256,-1.99256 0,-1.10048 0.89208,-1.99255 1.99256,-1.99255 1.10046,0 1.99255,0.89207 1.99255,1.99255 z"
                       style="fill:#ff0000;fill-opacity:1;fill-rule:nonzero;stroke:#ff0000;stroke-width:0.3985;stroke-linecap:butt;stroke-linejoin:miter;stroke-miterlimit:10;stroke-dasharray:none;stroke-opacity:1"
                       id="path15152"
                       inkscape:connector-curvature="0" /><path
                       d="m 34.6108,14.6535 c 0,1.10047 -0.8921,1.99256 -1.99256,1.99256 -1.10048,0 -1.99255,-0.89209 -1.99255,-1.99256 0,-1.10048 0.89207,-1.99255 1.99255,-1.99255 1.10046,0 1.99256,0.89207 1.99256,1.99255 z"
                       style="fill:#ff0000;fill-opacity:1;fill-rule:nonzero;stroke:#ff0000;stroke-width:0.3985;stroke-linecap:butt;stroke-linejoin:miter;stroke-miterlimit:10;stroke-dasharray:none;stroke-opacity:1"
                       id="path15154"
                       inkscape:connector-curvature="0" /><path
                       d="m 29.67778,14.6535 c 0,1.10047 -0.89208,1.99256 -1.99255,1.99256 -1.10047,0 -1.99256,-0.89209 -1.99256,-1.99256 0,-1.10048 0.89209,-1.99255 1.99256,-1.99255 1.10047,0 1.99255,0.89207 1.99255,1.99255 z"
                       style="fill:#ff0000;fill-opacity:1;fill-rule:nonzero;stroke:#ff0000;stroke-width:0.3985;stroke-linecap:butt;stroke-linejoin:miter;stroke-miterlimit:10;stroke-dasharray:none;stroke-opacity:1"
                       id="path15156"
                       inkscape:connector-curvature="0" /><path
                       d="m 39.84581,15.08014 c 0,1.10048 -0.89209,1.99256 -1.99255,1.99256 -1.10048,0 -1.99256,-0.89208 -1.99256,-1.99256 0,-1.10046 0.89208,-1.99255 1.99256,-1.99255 1.10046,0 1.99255,0.89209 1.99255,1.99255 z"
                       style="fill:#ff0000;fill-opacity:1;fill-rule:nonzero;stroke:#ff0000;stroke-width:0.3985;stroke-linecap:butt;stroke-linejoin:miter;stroke-miterlimit:10;stroke-dasharray:none;stroke-opacity:1"
                       id="path15158"
                       inkscape:connector-curvature="0" /><path
                       d="m 59.98053,29.11841 c 0,1.10048 -0.89209,1.99255 -1.99255,1.99255 -1.10048,0 -1.99256,-0.89207 -1.99256,-1.99255 0,-1.10047 0.89208,-1.99256 1.99256,-1.99256 1.10046,0 1.99255,0.89209 1.99255,1.99256 z"
                       style="fill:#ff0000;fill-opacity:1;fill-rule:nonzero;stroke:#ff0000;stroke-width:0.3985;stroke-linecap:butt;stroke-linejoin:miter;stroke-miterlimit:10;stroke-dasharray:none;stroke-opacity:1"
                       id="path15160"
                       inkscape:connector-curvature="0" /><path
                       d="m 79.91391,44.47748 c 0,1.10048 -0.89209,1.99255 -1.99255,1.99255 -1.10048,0 -1.99256,-0.89207 -1.99256,-1.99255 0,-1.10047 0.89208,-1.99256 1.99256,-1.99256 1.10046,0 1.99255,0.89209 1.99255,1.99256 z"
                       style="fill:#ff0000;fill-opacity:1;fill-rule:nonzero;stroke:#ff0000;stroke-width:0.3985;stroke-linecap:butt;stroke-linejoin:miter;stroke-miterlimit:10;stroke-dasharray:none;stroke-opacity:1"
                       id="path15162"
                       inkscape:connector-curvature="0" /><path
                       d="m 100.14929,63.12337 c 0,1.10046 -0.89209,1.99255 -1.99255,1.99255 -1.10048,0 -1.99256,-0.89209 -1.99256,-1.99255 0,-1.10048 0.89208,-1.99256 1.99256,-1.99256 1.10046,0 1.99255,0.89208 1.99255,1.99256 z"
                       style="fill:#ff0000;fill-opacity:1;fill-rule:nonzero;stroke:#ff0000;stroke-width:0.3985;stroke-linecap:butt;stroke-linejoin:miter;stroke-miterlimit:10;stroke-dasharray:none;stroke-opacity:1"
                       id="path15164"
                       inkscape:connector-curvature="0" /><path
                       d="m 120.38467,77.88734 c 0,1.10047 -0.89209,1.99256 -1.99255,1.99256 -1.10048,0 -1.99255,-0.89209 -1.99255,-1.99256 0,-1.10047 0.89207,-1.99255 1.99255,-1.99255 1.10046,0 1.99255,0.89208 1.99255,1.99255 z"
                       style="fill:#ff0000;fill-opacity:1;fill-rule:nonzero;stroke:#ff0000;stroke-width:0.3985;stroke-linecap:butt;stroke-linejoin:miter;stroke-miterlimit:10;stroke-dasharray:none;stroke-opacity:1"
                       id="path15166"
                       inkscape:connector-curvature="0" /><path
                       d="m 100.45131,76.54333 c 0,1.10048 -0.89209,1.99256 -1.99255,1.99256 -1.10048,0 -1.99256,-0.89208 -1.99256,-1.99256 0,-1.10046 0.89208,-1.99255 1.99256,-1.99255 1.10046,0 1.99255,0.89209 1.99255,1.99255 z"
                       style="fill:#ff0000;fill-opacity:1;fill-rule:nonzero;stroke:#ff0000;stroke-width:0.3985;stroke-linecap:butt;stroke-linejoin:miter;stroke-miterlimit:10;stroke-dasharray:none;stroke-opacity:1"
                       id="path15168"
                       inkscape:connector-curvature="0" /><path
                       d="m 120.38467,80.57536 c 0,1.10047 -0.89209,1.99256 -1.99255,1.99256 -1.10048,0 -1.99255,-0.89209 -1.99255,-1.99256 0,-1.10048 0.89207,-1.99255 1.99255,-1.99255 1.10046,0 1.99255,0.89207 1.99255,1.99255 z"
                       style="fill:#ff0000;fill-opacity:1;fill-rule:nonzero;stroke:#ff0000;stroke-width:0.3985;stroke-linecap:butt;stroke-linejoin:miter;stroke-miterlimit:10;stroke-dasharray:none;stroke-opacity:1"
                       id="path15170"
                       inkscape:connector-curvature="0" /><path
                       d="m 150.48608,106.93312 c 0,1.10048 -0.89208,1.99255 -1.99255,1.99255 -1.10048,0 -1.99255,-0.89207 -1.99255,-1.99255 0,-1.10046 0.89207,-1.99255 1.99255,-1.99255 1.10047,0 1.99255,0.89209 1.99255,1.99255 z"
                       style="fill:#ff0000;fill-opacity:1;fill-rule:nonzero;stroke:#ff0000;stroke-width:0.3985;stroke-linecap:butt;stroke-linejoin:miter;stroke-miterlimit:10;stroke-dasharray:none;stroke-opacity:1"
                       id="path15172"
                       inkscape:connector-curvature="0" /><path
                       d="m 200.7222,160.29381 c 0,1.10046 -0.89208,1.99255 -1.99256,1.99255 -1.10046,0 -1.99255,-0.89209 -1.99255,-1.99255 0,-1.10048 0.89209,-1.99256 1.99255,-1.99256 1.10048,0 1.99256,0.89208 1.99256,1.99256 z"
                       style="fill:#ff0000;fill-opacity:1;fill-rule:nonzero;stroke:#ff0000;stroke-width:0.3985;stroke-linecap:butt;stroke-linejoin:miter;stroke-miterlimit:10;stroke-dasharray:none;stroke-opacity:1"
                       id="path15174"
                       inkscape:connector-curvature="0" /><path
                       d="m 251.05899,209.68896 c 0,1.10048 -0.89207,1.99256 -1.99255,1.99256 -1.10047,0 -1.99256,-0.89208 -1.99256,-1.99256 0,-1.10046 0.89209,-1.99255 1.99256,-1.99255 1.10048,0 1.99255,0.89209 1.99255,1.99255 z"
                       style="fill:#ff0000;fill-opacity:1;fill-rule:nonzero;stroke:#ff0000;stroke-width:0.3985;stroke-linecap:butt;stroke-linejoin:miter;stroke-miterlimit:10;stroke-dasharray:none;stroke-opacity:1"
                       id="path15176"
                       inkscape:connector-curvature="0" /></g><g
                     id="g15178"><g
                       id="g15180"
                       transform="translate(26.285,-45.218)"><g
                         id="g15182"><g
                           id="g15184"
                           transform="translate(-225.563,-440.018)"><text
                             transform="matrix(1,0,0,-1,225.563,440.018)"
                             style="font-variant:normal;font-weight:normal;font-size:9.96259975px;font-family:SFRM1000;-inkscape-font-specification:SFRM1000;writing-mode:lr-tb;fill:#000000;fill-opacity:1;fill-rule:nonzero;stroke:none"
                             id="text15188"><tspan
                               x="0 7.0555134 11.481896 17.015125 21.995428 27.528656 32.782932 37.763237 43.296463 48.276768 53.809994 58.790298 66.544189 72.077415 77.057724 82.59095 87.845222 93.239975 101.26086 105.68725 111.22047 116.7537 124.49763 129.47794 133.41615 136.18277 141.15311 149.46291 154.44321 162.18018 167.16048 172.14078 178.23489 183.76813 191.51505"
                               y="0"
                               sodipodi:role="line"
                               id="tspan15186">Вертикальное напряжение $\sigma_1$, кПа</tspan></text>
<g
                             id="g15190"
                             transform="translate(225.563,440.018)" /></g></g><g
                         id="g15192"
                         transform="translate(-26.285,45.218)" /></g></g><g
                     id="g15194"><g
                       id="g15196"
                       transform="rotate(90,-47.3335,-0.3845)"><g
                         id="g15198"><g
                           id="g15200"
                           transform="translate(-151.56,-532.185)"><text
                             transform="matrix(1,0,0,-1,151.56,532.185)"
                             style="font-variant:normal;font-weight:normal;font-size:9.96259975px;font-family:SFRM1000;-inkscape-font-specification:SFRM1000;writing-mode:lr-tb;fill:#000000;fill-opacity:1;fill-rule:nonzero;stroke:none"
                             id="text15208"><tspan
                               x="0 7.192997 12.726225 17.152609 22.685837 27.112219 32.645447 41.357742 46.338043 56.574615 61.55492 67.64904 73.182274 80.929192 89.229034 94.209335 100.84941"
                               y="0"
                               sodipodi:role="line"
                               id="tspan15202">Энергия$W$,кДж/м$</tspan><tspan
                               x="105.827"
                               y="-2.1029999"
                               id="tspan15204">ˆ</tspan><tspan
                               x="105.827 110.8073"
                               y="0"
                               sodipodi:role="line"
                               id="tspan15206">3$</tspan></text>
<g
                             id="g15210"
                             transform="translate(151.56,532.185)" /></g></g><g
                         id="g15212"
                         transform="translate(47.718,-46.949)" /></g></g></g></g><g
                 id="g15214"
                 transform="translate(-59.532,-50.857)" /></g><g
               id="g15216"
               transform="translate(34.624,29.887)" /></g><g
             id="g15218" /><g
             id="g15220" /></g></g></g><path
       style="fill:none;stroke:#000000;stroke-width:0.46771654;stroke-linecap:butt;stroke-linejoin:miter;stroke-miterlimit:4;stroke-dasharray:none;stroke-opacity:1"
       d="m 199.278,485.236 85.51787,30.02192"
       id="path1761"
       inkscape:connector-curvature="0"
       sodipodi:nodetypes="cc" /><path
       style="fill:none;stroke:#000000;stroke-width:0.4678441;stroke-linecap:butt;stroke-linejoin:miter;stroke-miterlimit:4;stroke-dasharray:none;stroke-opacity:1"
       d="M 448.34452,694.925 236.89245,490.09854"
       id="path1763"
       inkscape:connector-curvature="0"
       sodipodi:nodetypes="cc" /><path
       style="fill:none;stroke:#000000;stroke-width:0.46771654;stroke-linecap:butt;stroke-linejoin:miter;stroke-miterlimit:4;stroke-dasharray:0.46771656, 1.40314967;stroke-dashoffset:0;stroke-opacity:1"
       d="m 250.66569,502.53778 0,-37.52784"
       id="path1765"
       inkscape:connector-curvature="0"
       sodipodi:nodetypes="cc" /></g></svg>