<?xml version="1.0" encoding="UTF-8" standalone="no"?>
<!-- Created with Inkscape (http://www.inkscape.org/) -->

<svg
   xmlns:dc="http://purl.org/dc/elements/1.1/"
   xmlns:cc="http://creativecommons.org/ns#"
   xmlns:rdf="http://www.w3.org/1999/02/22-rdf-syntax-ns#"
   xmlns:svg="http://www.w3.org/2000/svg"
   xmlns="http://www.w3.org/2000/svg"
   xmlns:sodipodi="http://sodipodi.sourceforge.net/DTD/sodipodi-0.dtd"
   xmlns:inkscape="http://www.inkscape.org/namespaces/inkscape"
   version="1.1"
   id="svg1874"
   xml:space="preserve"
   width="793.70135"
   height="1122.52"
   viewBox="0 0 793.70135 1122.52"
   sodipodi:docname="oedometerCazagrande+monolith+2.svg"
   inkscape:version="0.92.3 (2405546, 2018-03-11)"><metadata
     id="metadata1880"><rdf:RDF><cc:Work
         rdf:about=""><dc:format>image/svg+xml</dc:format><dc:type
           rdf:resource="http://purl.org/dc/dcmitype/StillImage" /><dc:title></dc:title></cc:Work></rdf:RDF></metadata><defs
     id="defs1878"><clipPath
       clipPathUnits="userSpaceOnUse"
       id="clipPath2090"><path
         d="M 394.7797,-20.97023 H 693.66193 V 230.65984 H 394.7797 Z"
         id="path2088"
         inkscape:connector-curvature="0" /></clipPath></defs><sodipodi:namedview
     pagecolor="#ffffff"
     bordercolor="#666666"
     borderopacity="1"
     objecttolerance="10"
     gridtolerance="10"
     guidetolerance="10"
     inkscape:pageopacity="0"
     inkscape:pageshadow="2"
     inkscape:window-width="1243"
     inkscape:window-height="1408"
     id="namedview1876"
     showgrid="false"
     inkscape:zoom="1.189304"
     inkscape:cx="483.84832"
     inkscape:cy="572.05237"
     inkscape:window-x="62"
     inkscape:window-y="0"
     inkscape:window-maximized="0"
     inkscape:current-layer="g1882" /><g
     id="g1882"
     inkscape:groupmode="layer"
     inkscape:label="oedometerCazagrande+monolith"
     transform="matrix(1.3333333,0,0,-1.3333333,0,1122.52)"><g
       id="g1884"
       transform="translate(185.523,464.265)"><g
         id="g1886"><g
           id="g1888"><g
             id="g1890" /><g
             id="g1892" /><g
             id="g1894"><g
               id="g1896" /></g><g
             id="g1898" /><g
             id="g1900" /><g
             id="g1902" /><g
             id="g1904" /><g
             id="g1906"
             transform="translate(-45.777,-29.887)"><g
               id="g1908"
               transform="translate(-348.998,50.857)"><g
                 id="g1910"><g
                   id="g1912"><g
                     id="g1914"><g
                       id="g1916"><g
                         id="g1918"><path
                           d="m 395.8576,-20.97023 v 2.83496 m 9.26893,-2.83496 v 2.83496 m 60.97758,-2.83496 v 2.83496 m 35.67026,-2.83496 v 2.83496 m 25.30733,-2.83496 v 2.83496 m 19.63052,-2.83496 v 2.83496 m 16.03973,-2.83496 v 2.83496 m 13.56043,-2.83496 v 2.83496 m 11.7469,-2.83496 v 2.83496 m 10.36159,-2.83496 v 2.83496 M 395.8576,230.65984 v -2.83495 m 9.26893,2.83495 v -2.83495 m 60.97758,2.83495 v -2.83495 m 35.67026,2.83495 v -2.83495 m 25.30733,2.83495 v -2.83495 m 19.63052,2.83495 v -2.83495 m 16.03973,2.83495 v -2.83495 m 13.56043,2.83495 v -2.83495 m 11.7469,2.83495 v -2.83495 m 10.36159,2.83495 v -2.83495"
                           style="fill:none;stroke:#808080;stroke-width:0.19925;stroke-linecap:butt;stroke-linejoin:miter;stroke-miterlimit:10;stroke-dasharray:none;stroke-opacity:1"
                           id="path1920"
                           inkscape:connector-curvature="0" /></g><g
                         id="g1922"><path
                           d="m 405.12653,-20.97023 v 4.252 m 202.56327,-4.252 v 4.252 M 405.12653,230.65984 v -4.25199 m 202.56327,4.25199 v -4.25199"
                           style="fill:none;stroke:#808080;stroke-width:0.19925;stroke-linecap:butt;stroke-linejoin:miter;stroke-miterlimit:10;stroke-dasharray:none;stroke-opacity:1"
                           id="path1924"
                           inkscape:connector-curvature="0" /></g></g><g
                       id="g1926"><g
                         id="g1928"><path
                           d="m 394.7797,18.71547 h 4.23913 m -4.23913,46.30826 h 4.23913 M 394.7797,111.332 h 4.23913 m -4.23913,46.30827 h 4.23913 m -4.23913,46.30826 h 4.23913 M 693.66193,18.71547 h -4.23913 m 4.23913,46.30826 h -4.23913 m 4.23913,46.30827 h -4.23913 m 4.23913,46.30827 h -4.23913 m 4.23913,46.30826 h -4.23913"
                           style="fill:none;stroke:#808080;stroke-width:0.19925;stroke-linecap:butt;stroke-linejoin:miter;stroke-miterlimit:10;stroke-dasharray:none;stroke-opacity:1"
                           id="path1930"
                           inkscape:connector-curvature="0" /></g></g><path
                       d="M 394.7797,-20.97023 V 230.65984 H 693.66193 V -20.97023 Z"
                       style="fill:none;stroke:#000000;stroke-width:0.3985;stroke-linecap:butt;stroke-linejoin:miter;stroke-miterlimit:10;stroke-dasharray:none;stroke-opacity:1"
                       id="path1932"
                       inkscape:connector-curvature="0" /><g
                       id="g1934"><g
                         id="g1936"
                         transform="translate(395.99,-30.909)"><g
                           id="g1938"><g
                             id="g1940"
                             transform="translate(-186.738,-454.326)"><text
                               transform="matrix(1,0,0,-1,190.058,454.326)"
                               style="font-variant:normal;font-weight:normal;font-size:9.96259975px;font-family:CMR10;-inkscape-font-specification:CMR10;writing-mode:lr-tb;fill:#000000;fill-opacity:1;fill-rule:nonzero;stroke:none"
                               id="text1944"><tspan
                                 x="0 4.9812999 9.9625998"
                                 y="0"
                                 sodipodi:role="line"
                                 id="tspan1942">100</tspan></text>
<g
                               id="g1946"
                               transform="translate(186.738,454.326)" /></g></g><g
                           id="g1948"
                           transform="translate(-395.99,30.909)" /></g></g><g
                       id="g1950"><g
                         id="g1952"
                         transform="translate(595.229,-30.909)"><g
                           id="g1954"><g
                             id="g1956"
                             transform="translate(-385.977,-454.326)"><text
                               transform="matrix(1,0,0,-1,389.297,454.326)"
                               style="font-variant:normal;font-weight:normal;font-size:9.96259975px;font-family:CMR10;-inkscape-font-specification:CMR10;writing-mode:lr-tb;fill:#000000;fill-opacity:1;fill-rule:nonzero;stroke:none"
                               id="text1960"><tspan
                                 x="0 6.6450543 11.626354 16.607655"
                                 y="0"
                                 sodipodi:role="line"
                                 id="tspan1958">1000</tspan></text>
<g
                               id="g1962"
                               transform="translate(385.977,454.326)" /></g></g><g
                           id="g1964"
                           transform="translate(-595.229,30.909)" /></g></g><g
                       id="g1966"><g
                         id="g1968"
                         transform="translate(368.563,15.505)"><g
                           id="g1970"><g
                             id="g1972"
                             transform="translate(-159.311,-500.74)"><text
                               transform="matrix(1,0,0,-1,159.311,500.74)"
                               style="font-variant:normal;font-weight:normal;font-size:9.96259975px;font-family:CMR10;-inkscape-font-specification:CMR10;writing-mode:lr-tb;fill:#000000;fill-opacity:1;fill-rule:nonzero;stroke:none"
                               id="text1976"><tspan
                                 x="0"
                                 y="0"
                                 id="tspan1974">0</tspan></text>
<text
                               transform="matrix(1,0,0,-1,164.292,500.74)"
                               style="font-variant:normal;font-weight:normal;font-size:9.96259975px;font-family:CMMI10;-inkscape-font-specification:CMMI10;writing-mode:lr-tb;fill:#000000;fill-opacity:1;fill-rule:nonzero;stroke:none"
                               id="text1980"><tspan
                                 x="0"
                                 y="0"
                                 id="tspan1978">.</tspan></text>
<text
                               transform="matrix(1,0,0,-1,167.06,500.74)"
                               style="font-variant:normal;font-weight:normal;font-size:9.96259975px;font-family:CMR10;-inkscape-font-specification:CMR10;writing-mode:lr-tb;fill:#000000;fill-opacity:1;fill-rule:nonzero;stroke:none"
                               id="text1984"><tspan
                                 x="0 4.9812999 9.9625998"
                                 y="0"
                                 sodipodi:role="line"
                                 id="tspan1982">360</tspan></text>
<g
                               id="g1986"
                               transform="translate(159.311,500.74)" /></g></g><g
                           id="g1988"
                           transform="translate(-368.563,-15.505)" /></g></g><g
                       id="g1990"><g
                         id="g1992"
                         transform="translate(368.563,61.813)"><g
                           id="g1994"><g
                             id="g1996"
                             transform="translate(-159.311,-547.048)"><text
                               transform="matrix(1,0,0,-1,159.311,547.048)"
                               style="font-variant:normal;font-weight:normal;font-size:9.96259975px;font-family:CMR10;-inkscape-font-specification:CMR10;writing-mode:lr-tb;fill:#000000;fill-opacity:1;fill-rule:nonzero;stroke:none"
                               id="text2000"><tspan
                                 x="0"
                                 y="0"
                                 id="tspan1998">0</tspan></text>
<text
                               transform="matrix(1,0,0,-1,164.292,547.048)"
                               style="font-variant:normal;font-weight:normal;font-size:9.96259975px;font-family:CMMI10;-inkscape-font-specification:CMMI10;writing-mode:lr-tb;fill:#000000;fill-opacity:1;fill-rule:nonzero;stroke:none"
                               id="text2004"><tspan
                                 x="0"
                                 y="0"
                                 id="tspan2002">.</tspan></text>
<text
                               transform="matrix(1,0,0,-1,167.06,547.048)"
                               style="font-variant:normal;font-weight:normal;font-size:9.96259975px;font-family:CMR10;-inkscape-font-specification:CMR10;writing-mode:lr-tb;fill:#000000;fill-opacity:1;fill-rule:nonzero;stroke:none"
                               id="text2008"><tspan
                                 x="0 4.9812999 9.9625998"
                                 y="0"
                                 sodipodi:role="line"
                                 id="tspan2006">380</tspan></text>
<g
                               id="g2010"
                               transform="translate(159.311,547.048)" /></g></g><g
                           id="g2012"
                           transform="translate(-368.563,-61.813)" /></g></g><g
                       id="g2014"><g
                         id="g2016"
                         transform="translate(368.563,108.121)"><g
                           id="g2018"><g
                             id="g2020"
                             transform="translate(-159.311,-593.356)"><text
                               transform="matrix(1,0,0,-1,159.311,593.356)"
                               style="font-variant:normal;font-weight:normal;font-size:9.96259975px;font-family:CMR10;-inkscape-font-specification:CMR10;writing-mode:lr-tb;fill:#000000;fill-opacity:1;fill-rule:nonzero;stroke:none"
                               id="text2024"><tspan
                                 x="0"
                                 y="0"
                                 id="tspan2022">0</tspan></text>
<text
                               transform="matrix(1,0,0,-1,164.292,593.356)"
                               style="font-variant:normal;font-weight:normal;font-size:9.96259975px;font-family:CMMI10;-inkscape-font-specification:CMMI10;writing-mode:lr-tb;fill:#000000;fill-opacity:1;fill-rule:nonzero;stroke:none"
                               id="text2028"><tspan
                                 x="0"
                                 y="0"
                                 id="tspan2026">.</tspan></text>
<text
                               transform="matrix(1,0,0,-1,167.06,593.356)"
                               style="font-variant:normal;font-weight:normal;font-size:9.96259975px;font-family:CMR10;-inkscape-font-specification:CMR10;writing-mode:lr-tb;fill:#000000;fill-opacity:1;fill-rule:nonzero;stroke:none"
                               id="text2032"><tspan
                                 x="0 4.9812999 9.9625998"
                                 y="0"
                                 sodipodi:role="line"
                                 id="tspan2030">400</tspan></text>
<g
                               id="g2034"
                               transform="translate(159.311,593.356)" /></g></g><g
                           id="g2036"
                           transform="translate(-368.563,-108.121)" /></g></g><g
                       id="g2038"><g
                         id="g2040"
                         transform="translate(368.563,154.428)"><g
                           id="g2042"><g
                             id="g2044"
                             transform="translate(-159.311,-639.663)"><text
                               transform="matrix(1,0,0,-1,159.311,639.663)"
                               style="font-variant:normal;font-weight:normal;font-size:9.96259975px;font-family:CMR10;-inkscape-font-specification:CMR10;writing-mode:lr-tb;fill:#000000;fill-opacity:1;fill-rule:nonzero;stroke:none"
                               id="text2048"><tspan
                                 x="0"
                                 y="0"
                                 id="tspan2046">0</tspan></text>
<text
                               transform="matrix(1,0,0,-1,164.292,639.663)"
                               style="font-variant:normal;font-weight:normal;font-size:9.96259975px;font-family:CMMI10;-inkscape-font-specification:CMMI10;writing-mode:lr-tb;fill:#000000;fill-opacity:1;fill-rule:nonzero;stroke:none"
                               id="text2052"><tspan
                                 x="0"
                                 y="0"
                                 id="tspan2050">.</tspan></text>
<text
                               transform="matrix(1,0,0,-1,167.06,639.663)"
                               style="font-variant:normal;font-weight:normal;font-size:9.96259975px;font-family:CMR10;-inkscape-font-specification:CMR10;writing-mode:lr-tb;fill:#000000;fill-opacity:1;fill-rule:nonzero;stroke:none"
                               id="text2056"><tspan
                                 x="0 4.9812999 9.9625998"
                                 y="0"
                                 sodipodi:role="line"
                                 id="tspan2054">420</tspan></text>
<g
                               id="g2058"
                               transform="translate(159.311,639.663)" /></g></g><g
                           id="g2060"
                           transform="translate(-368.563,-154.428)" /></g></g><g
                       id="g2062"><g
                         id="g2064"
                         transform="translate(368.563,200.736)"><g
                           id="g2066"><g
                             id="g2068"
                             transform="translate(-159.311,-685.971)"><text
                               transform="matrix(1,0,0,-1,159.311,685.971)"
                               style="font-variant:normal;font-weight:normal;font-size:9.96259975px;font-family:CMR10;-inkscape-font-specification:CMR10;writing-mode:lr-tb;fill:#000000;fill-opacity:1;fill-rule:nonzero;stroke:none"
                               id="text2072"><tspan
                                 x="0"
                                 y="0"
                                 id="tspan2070">0</tspan></text>
<text
                               transform="matrix(1,0,0,-1,164.292,685.971)"
                               style="font-variant:normal;font-weight:normal;font-size:9.96259975px;font-family:CMMI10;-inkscape-font-specification:CMMI10;writing-mode:lr-tb;fill:#000000;fill-opacity:1;fill-rule:nonzero;stroke:none"
                               id="text2076"><tspan
                                 x="0"
                                 y="0"
                                 id="tspan2074">.</tspan></text>
<text
                               transform="matrix(1,0,0,-1,167.06,685.971)"
                               style="font-variant:normal;font-weight:normal;font-size:9.96259975px;font-family:CMR10;-inkscape-font-specification:CMR10;writing-mode:lr-tb;fill:#000000;fill-opacity:1;fill-rule:nonzero;stroke:none"
                               id="text2080"><tspan
                                 x="0 4.9812999 9.9625998"
                                 y="0"
                                 sodipodi:role="line"
                                 id="tspan2078">440</tspan></text>
<g
                               id="g2082"
                               transform="translate(159.311,685.971)" /></g></g><g
                           id="g2084"
                           transform="translate(-368.563,-200.736)" /></g></g><g
                       id="g2086"
                       clip-path="url(#clipPath2090)"><g
                         id="g2092"><path
                           d="m 419.687,209.6896 c 0,0 12.51455,-6.06007 16.89883,-8.38758 4.38429,-2.32752 9.55292,-4.89632 14.70007,-8.38759 5.14717,-3.49126 14.64359,-10.7236 22.39711,-16.77516 7.75353,-6.05157 21.14819,-15.90091 33.48493,-26.84027 12.33673,-10.93935 44.22439,-41.76194 55.42966,-52.00303 11.20524,-10.2411 19.08615,-16.45443 25.33012,-21.80772 6.24397,-5.3533 14.20669,-11.88739 19.67215,-16.77518 5.46547,-4.88778 14.75783,-13.56489 19.71911,-18.45268 4.96129,-4.88779 11.9251,-12.81837 16.0384,-16.77516 4.11328,-3.95679 10.08358,-8.48409 13.6074,-11.74262 C 660.4886,8.48409 668.75464,0 668.75464,0"
                           style="fill:none;stroke:#ff0000;stroke-width:0.3985;stroke-linecap:butt;stroke-linejoin:miter;stroke-miterlimit:10;stroke-dasharray:none;stroke-opacity:1"
                           id="path2094"
                           inkscape:connector-curvature="0" /></g></g></g><g
                     id="g2096"><path
                       d="m 421.67955,209.6896 c 0,1.10048 -0.89207,1.99256 -1.99255,1.99256 -1.10047,0 -1.99256,-0.89208 -1.99256,-1.99256 0,-1.10046 0.89209,-1.99255 1.99256,-1.99255 1.10048,0 1.99255,0.89209 1.99255,1.99255 z"
                       style="fill:#ff0000;fill-opacity:1;fill-rule:nonzero;stroke:#ff0000;stroke-width:0.3985;stroke-linecap:butt;stroke-linejoin:miter;stroke-miterlimit:10;stroke-dasharray:none;stroke-opacity:1"
                       id="path2098"
                       inkscape:connector-curvature="0" /><path
                       d="m 438.57838,201.30202 c 0,1.10048 -0.89207,1.99255 -1.99255,1.99255 -1.10046,0 -1.99255,-0.89207 -1.99255,-1.99255 0,-1.10047 0.89209,-1.99256 1.99255,-1.99256 1.10048,0 1.99255,0.89209 1.99255,1.99256 z"
                       style="fill:#ff0000;fill-opacity:1;fill-rule:nonzero;stroke:#ff0000;stroke-width:0.3985;stroke-linecap:butt;stroke-linejoin:miter;stroke-miterlimit:10;stroke-dasharray:none;stroke-opacity:1"
                       id="path2100"
                       inkscape:connector-curvature="0" /><path
                       d="m 453.27846,192.91443 c 0,1.10048 -0.89208,1.99255 -1.99256,1.99255 -1.10046,0 -1.99255,-0.89207 -1.99255,-1.99255 0,-1.10047 0.89209,-1.99255 1.99255,-1.99255 1.10048,0 1.99256,0.89208 1.99256,1.99255 z"
                       style="fill:#ff0000;fill-opacity:1;fill-rule:nonzero;stroke:#ff0000;stroke-width:0.3985;stroke-linecap:butt;stroke-linejoin:miter;stroke-miterlimit:10;stroke-dasharray:none;stroke-opacity:1"
                       id="path2102"
                       inkscape:connector-curvature="0" /><path
                       d="m 475.67557,176.13927 c 0,1.10046 -0.89209,1.99255 -1.99256,1.99255 -1.10048,0 -1.99255,-0.89209 -1.99255,-1.99255 0,-1.10048 0.89207,-1.99256 1.99255,-1.99256 1.10047,0 1.99256,0.89208 1.99256,1.99256 z"
                       style="fill:#ff0000;fill-opacity:1;fill-rule:nonzero;stroke:#ff0000;stroke-width:0.3985;stroke-linecap:butt;stroke-linejoin:miter;stroke-miterlimit:10;stroke-dasharray:none;stroke-opacity:1"
                       id="path2104"
                       inkscape:connector-curvature="0" /><path
                       d="m 509.16049,149.299 c 0,1.10048 -0.89207,1.99255 -1.99255,1.99255 -1.10047,0 -1.99256,-0.89207 -1.99256,-1.99255 0,-1.10047 0.89209,-1.99256 1.99256,-1.99256 1.10048,0 1.99255,0.89209 1.99255,1.99256 z"
                       style="fill:#ff0000;fill-opacity:1;fill-rule:nonzero;stroke:#ff0000;stroke-width:0.3985;stroke-linecap:butt;stroke-linejoin:miter;stroke-miterlimit:10;stroke-dasharray:none;stroke-opacity:1"
                       id="path2106"
                       inkscape:connector-curvature="0" /><path
                       d="m 564.59015,97.29597 c 0,1.10047 -0.89209,1.99256 -1.99255,1.99256 -1.10048,0 -1.99256,-0.89209 -1.99256,-1.99256 0,-1.10047 0.89208,-1.99255 1.99256,-1.99255 1.10046,0 1.99255,0.89208 1.99255,1.99255 z"
                       style="fill:#ff0000;fill-opacity:1;fill-rule:nonzero;stroke:#ff0000;stroke-width:0.3985;stroke-linecap:butt;stroke-linejoin:miter;stroke-miterlimit:10;stroke-dasharray:none;stroke-opacity:1"
                       id="path2108"
                       inkscape:connector-curvature="0" /><path
                       d="m 589.92027,75.48825 c 0,1.10046 -0.89207,1.99255 -1.99255,1.99255 -1.10046,0 -1.99255,-0.89209 -1.99255,-1.99255 0,-1.10048 0.89209,-1.99255 1.99255,-1.99255 1.10048,0 1.99255,0.89207 1.99255,1.99255 z"
                       style="fill:#ff0000;fill-opacity:1;fill-rule:nonzero;stroke:#ff0000;stroke-width:0.3985;stroke-linecap:butt;stroke-linejoin:miter;stroke-miterlimit:10;stroke-dasharray:none;stroke-opacity:1"
                       id="path2110"
                       inkscape:connector-curvature="0" /><path
                       d="m 609.59242,58.71307 c 0,1.10047 -0.89207,1.99256 -1.99255,1.99256 -1.10047,0 -1.99255,-0.89209 -1.99255,-1.99256 0,-1.10047 0.89208,-1.99255 1.99255,-1.99255 1.10048,0 1.99255,0.89208 1.99255,1.99255 z"
                       style="fill:#ff0000;fill-opacity:1;fill-rule:nonzero;stroke:#ff0000;stroke-width:0.3985;stroke-linecap:butt;stroke-linejoin:miter;stroke-miterlimit:10;stroke-dasharray:none;stroke-opacity:1"
                       id="path2112"
                       inkscape:connector-curvature="0" /><path
                       d="m 629.31154,40.26039 c 0,1.10048 -0.89209,1.99255 -1.99256,1.99255 -1.10048,0 -1.99255,-0.89207 -1.99255,-1.99255 0,-1.10046 0.89207,-1.99255 1.99255,-1.99255 1.10047,0 1.99256,0.89209 1.99256,1.99255 z"
                       style="fill:#ff0000;fill-opacity:1;fill-rule:nonzero;stroke:#ff0000;stroke-width:0.3985;stroke-linecap:butt;stroke-linejoin:miter;stroke-miterlimit:10;stroke-dasharray:none;stroke-opacity:1"
                       id="path2114"
                       inkscape:connector-curvature="0" /><path
                       d="m 645.34993,23.48523 c 0,1.10047 -0.89209,1.99255 -1.99255,1.99255 -1.10048,0 -1.99256,-0.89208 -1.99256,-1.99255 0,-1.10048 0.89208,-1.99255 1.99256,-1.99255 1.10046,0 1.99255,0.89207 1.99255,1.99255 z"
                       style="fill:#ff0000;fill-opacity:1;fill-rule:nonzero;stroke:#ff0000;stroke-width:0.3985;stroke-linecap:butt;stroke-linejoin:miter;stroke-miterlimit:10;stroke-dasharray:none;stroke-opacity:1"
                       id="path2116"
                       inkscape:connector-curvature="0" /><path
                       d="m 658.95734,11.74261 c 0,1.10047 -0.89208,1.99256 -1.99256,1.99256 -1.10046,0 -1.99255,-0.89209 -1.99255,-1.99256 0,-1.10047 0.89209,-1.99255 1.99255,-1.99255 1.10048,0 1.99256,0.89208 1.99256,1.99255 z"
                       style="fill:#ff0000;fill-opacity:1;fill-rule:nonzero;stroke:#ff0000;stroke-width:0.3985;stroke-linecap:butt;stroke-linejoin:miter;stroke-miterlimit:10;stroke-dasharray:none;stroke-opacity:1"
                       id="path2118"
                       inkscape:connector-curvature="0" /><path
                       d="m 670.7472,0 c 0,1.10046 -0.8921,1.99255 -1.99256,1.99255 -1.10048,0 -1.99256,-0.89209 -1.99256,-1.99255 0,-1.10046 0.89208,-1.99255 1.99256,-1.99255 1.10046,0 1.99256,0.89209 1.99256,1.99255 z"
                       style="fill:#ff0000;fill-opacity:1;fill-rule:nonzero;stroke:#ff0000;stroke-width:0.3985;stroke-linecap:butt;stroke-linejoin:miter;stroke-miterlimit:10;stroke-dasharray:none;stroke-opacity:1"
                       id="path2120"
                       inkscape:connector-curvature="0" /></g><g
                     id="g2122"><g
                       id="g2124"
                       transform="translate(445.968,-45.218)"><g
                         id="g2126"><g
                           id="g2128"
                           transform="translate(-236.716,-440.017)"><text
                             transform="matrix(1,0,0,-1,236.716,440.017)"
                             style="font-variant:normal;font-weight:normal;font-size:9.96259975px;font-family:SFRM1000;-inkscape-font-specification:SFRM1000;writing-mode:lr-tb;fill:#000000;fill-opacity:1;fill-rule:nonzero;stroke:none"
                             id="text2132"><tspan
                               x="0 7.0555134 11.481896 17.015125 21.995428 27.528656 32.782932 37.763237 43.296463 48.276768 53.809994 58.790298 66.544189 72.077415 77.057724 82.59095 87.845222 93.239975 101.26086 105.68725 111.22047 116.7537 124.49763 129.47794 133.40619 136.17281 141.15311 149.45294 154.43326 162.18018 167.16048 172.14078 178.23489 183.76813 191.51505"
                               y="0"
                               sodipodi:role="line"
                               id="tspan2130">Вертикальное напряжение $\sigma_1$, кПа</tspan></text>
<g
                             id="g2134"
                             transform="translate(236.716,440.017)" /></g></g><g
                         id="g2136"
                         transform="translate(-445.968,45.218)" /></g></g><g
                     id="g2138"><g
                       id="g2140"
                       transform="rotate(90,161.503,198.285)"><g
                         id="g2142"><g
                           id="g2144"
                           transform="translate(-150.536,-522.017)"><text
                             transform="matrix(1,0,0,-1,150.536,522.017)"
                             style="font-variant:normal;font-weight:normal;font-size:9.96259975px;font-family:SFRM1000;-inkscape-font-specification:SFRM1000;writing-mode:lr-tb;fill:#000000;fill-opacity:1;fill-rule:nonzero;stroke:none"
                             id="text2148"><tspan
                               x="0 7.7469177 12.727221 17.153605 24.900522 32.647442 38.180668 43.713898 49.247124 53.673508 59.206734 67.504585 73.037811 78.01812 83.551346 89.084572 93.510956 98.491257 103.47157 107.89795 112.87825 121.73898 126.71929 131.14568"
                               y="0"
                               sodipodi:role="line"
                               id="tspan2146">Коэффициентпористости$e$</tspan></text>
<g
                             id="g2150"
                             transform="translate(150.536,522.017)" /></g></g><g
                         id="g2152"
                         transform="translate(-359.788,-36.782)" /></g></g></g></g><g
                 id="g2154"
                 transform="translate(348.998,-50.857)" /></g><g
               id="g2156"
               transform="translate(45.777,29.887)" /></g><g
             id="g2158" /><g
             id="g2160" /></g></g></g><path
       style="fill:none;stroke:#000000;stroke-width:0.465;stroke-linecap:butt;stroke-linejoin:miter;stroke-miterlimit:4;stroke-dasharray:0.46500001, 1.39500003;stroke-dashoffset:0;stroke-opacity:1"
       d="m 269.47205,668.42937 0,-203.72409"
       id="path1765"
       inkscape:connector-curvature="0"
       sodipodi:nodetypes="cc" /><path
       style="fill:none;stroke:#000000;stroke-width:0.465;stroke-linecap:butt;stroke-linejoin:miter;stroke-miterlimit:4;stroke-dasharray:none;stroke-opacity:1"
       d="M 459.50264,485.235 230.25524,706.53466"
       id="path7401"
       inkscape:connector-curvature="0"
       sodipodi:nodetypes="cc" /><path
       style="fill:none;stroke:#000000;stroke-width:0.465;stroke-linecap:butt;stroke-linejoin:miter;stroke-miterlimit:4;stroke-dasharray:none;stroke-opacity:1"
       d="m 322.53877,614.77202 -78.51231,63.37741 h 87.18335"
       id="path7403"
       inkscape:connector-curvature="0"
       sodipodi:nodetypes="ccc" /><path
       style="fill:none;stroke:#000000;stroke-width:0.465;stroke-linecap:butt;stroke-linejoin:miter;stroke-miterlimit:4;stroke-dasharray:none;stroke-opacity:1"
       d="m 244.02646,678.14943 88.7599,-33.58057"
       id="path7405"
       inkscape:connector-curvature="0"
       sodipodi:nodetypes="cc" /></g></svg>