<?xml version="1.0" encoding="UTF-8" standalone="no"?>
<!-- Created with Inkscape (http://www.inkscape.org/) -->

<svg
   xmlns:dc="http://purl.org/dc/elements/1.1/"
   xmlns:cc="http://creativecommons.org/ns#"
   xmlns:rdf="http://www.w3.org/1999/02/22-rdf-syntax-ns#"
   xmlns:svg="http://www.w3.org/2000/svg"
   xmlns="http://www.w3.org/2000/svg"
   xmlns:sodipodi="http://sodipodi.sourceforge.net/DTD/sodipodi-0.dtd"
   xmlns:inkscape="http://www.inkscape.org/namespaces/inkscape"
   version="1.1"
   id="svg15786"
   xml:space="preserve"
   width="793.70135"
   height="1122.52"
   viewBox="0 0 793.70135 1122.52"
   sodipodi:docname="oedometerBecker+monolith+13.svg"
   inkscape:version="0.92.3 (2405546, 2018-03-11)"><metadata
     id="metadata15792"><rdf:RDF><cc:Work
         rdf:about=""><dc:format>image/svg+xml</dc:format><dc:type
           rdf:resource="http://purl.org/dc/dcmitype/StillImage" /><dc:title></dc:title></cc:Work></rdf:RDF></metadata><defs
     id="defs15790"><clipPath
       clipPathUnits="userSpaceOnUse"
       id="clipPath16038"><path
         d="M -24.90811,-20.96944 H 273.97438 V 230.65112 H -24.90811 Z"
         id="path16036"
         inkscape:connector-curvature="0" /></clipPath></defs><sodipodi:namedview
     pagecolor="#ffffff"
     bordercolor="#666666"
     borderopacity="1"
     objecttolerance="10"
     gridtolerance="10"
     guidetolerance="10"
     inkscape:pageopacity="0"
     inkscape:pageshadow="2"
     inkscape:window-width="1243"
     inkscape:window-height="1408"
     id="namedview15788"
     showgrid="false"
     inkscape:zoom="1.189304"
     inkscape:cx="416.42526"
     inkscape:cy="800.05937"
     inkscape:window-x="62"
     inkscape:window-y="0"
     inkscape:window-maximized="0"
     inkscape:current-layer="g15794" /><g
     id="g15794"
     inkscape:groupmode="layer"
     inkscape:label="oedometerBecker+monolith"
     transform="matrix(1.3333333,0,0,-1.3333333,0,1122.52)"><g
       id="g15796"
       transform="translate(174.37,464.275)"><g
         id="g15798"><g
           id="g15800"><g
             id="g15802" /><g
             id="g15804" /><g
             id="g15806"><g
               id="g15808" /></g><g
             id="g15810" /><g
             id="g15812" /><g
             id="g15814" /><g
             id="g15816" /><g
             id="g15818"
             transform="translate(-34.624,-29.887)"><g
               id="g15820"
               transform="translate(59.532,50.856)"><g
                 id="g15822"><g
                   id="g15824"><g
                     id="g15826"><g
                       id="g15828"><g
                         id="g15830"><path
                           d="m 22.83737,-20.96944 v 4.25193 m 63.0867,-4.25193 v 4.25193 m 63.08669,-4.25193 v 4.25193 m 63.08668,-4.25193 v 4.25193 M 22.83737,230.65112 v -4.2519 m 63.0867,4.2519 v -4.2519 m 63.08669,4.2519 v -4.2519 m 63.08668,4.2519 v -4.2519"
                           style="fill:none;stroke:#808080;stroke-width:0.19925;stroke-linecap:butt;stroke-linejoin:miter;stroke-miterlimit:10;stroke-dasharray:none;stroke-opacity:1"
                           id="path15832"
                           inkscape:connector-curvature="0" /></g></g><g
                       id="g15834"><g
                         id="g15836"><path
                           d="m -24.90811,-10.39153 h 4.25273 m -4.25273,31.02416 h 4.25273 m -4.25273,31.0242 h 4.25273 m -4.25273,31.0242 h 4.25273 m -4.25273,31.0242 h 4.25273 m -4.25273,31.0242 h 4.25273 m -4.25273,31.02419 h 4.25273 m -4.25273,31.0242 h 4.25273 M 273.97438,-10.39153 h -4.25275 m 4.25275,31.02416 h -4.25275 m 4.25275,31.0242 h -4.25275 m 4.25275,31.0242 h -4.25275 m 4.25275,31.0242 h -4.25275 m 4.25275,31.0242 h -4.25275 m 4.25275,31.02419 h -4.25275 m 4.25275,31.0242 h -4.25275"
                           style="fill:none;stroke:#808080;stroke-width:0.19925;stroke-linecap:butt;stroke-linejoin:miter;stroke-miterlimit:10;stroke-dasharray:none;stroke-opacity:1"
                           id="path15838"
                           inkscape:connector-curvature="0" /></g></g><path
                       d="M -24.90811,-20.96944 V 230.65112 H 273.97438 V -20.96944 Z"
                       style="fill:none;stroke:#000000;stroke-width:0.3985;stroke-linecap:butt;stroke-linejoin:miter;stroke-miterlimit:10;stroke-dasharray:none;stroke-opacity:1"
                       id="path15840"
                       inkscape:connector-curvature="0" /><g
                       id="g15842"><g
                         id="g15844"
                         transform="translate(15.365,-30.908)"><g
                           id="g15846"><g
                             id="g15848"
                             transform="translate(-214.643,-454.336)"><text
                               transform="matrix(1,0,0,-1,214.643,454.336)"
                               style="font-variant:normal;font-weight:normal;font-size:9.96259975px;font-family:CMR10;-inkscape-font-specification:CMR10;writing-mode:lr-tb;fill:#000000;fill-opacity:1;fill-rule:nonzero;stroke:none"
                               id="text15852"><tspan
                                 x="0 4.9812999 9.9625998"
                                 y="0"
                                 sodipodi:role="line"
                                 id="tspan15850">500</tspan></text>
<g
                               id="g15854"
                               transform="translate(214.643,454.336)" /></g></g><g
                           id="g15856"
                           transform="translate(-15.365,30.908)" /></g></g><g
                       id="g15858"><g
                         id="g15860"
                         transform="translate(75.13,-30.908)"><g
                           id="g15862"><g
                             id="g15864"
                             transform="translate(-274.408,-454.336)"><text
                               transform="matrix(1,0,0,-1,274.408,454.336)"
                               style="font-variant:normal;font-weight:normal;font-size:9.96259975px;font-family:CMR10;-inkscape-font-specification:CMR10;writing-mode:lr-tb;fill:#000000;fill-opacity:1;fill-rule:nonzero;stroke:none"
                               id="text15868"><tspan
                                 x="0 6.6450543 11.626354 16.607655"
                                 y="0"
                                 sodipodi:role="line"
                                 id="tspan15866">1000</tspan></text>
<g
                               id="g15870"
                               transform="translate(274.408,454.336)" /></g></g><g
                           id="g15872"
                           transform="translate(-75.13,30.908)" /></g></g><g
                       id="g15874"><g
                         id="g15876"
                         transform="translate(138.216,-30.908)"><g
                           id="g15878"><g
                             id="g15880"
                             transform="translate(-337.494,-454.336)"><text
                               transform="matrix(1,0,0,-1,337.494,454.336)"
                               style="font-variant:normal;font-weight:normal;font-size:9.96259975px;font-family:CMR10;-inkscape-font-specification:CMR10;writing-mode:lr-tb;fill:#000000;fill-opacity:1;fill-rule:nonzero;stroke:none"
                               id="text15884"><tspan
                                 x="0 6.6450543 11.626354 16.607655"
                                 y="0"
                                 sodipodi:role="line"
                                 id="tspan15882">1500</tspan></text>
<g
                               id="g15886"
                               transform="translate(337.494,454.336)" /></g></g><g
                           id="g15888"
                           transform="translate(-138.216,30.908)" /></g></g><g
                       id="g15890"><g
                         id="g15892"
                         transform="translate(201.302,-30.908)"><g
                           id="g15894"><g
                             id="g15896"
                             transform="translate(-400.58,-454.336)"><text
                               transform="matrix(1,0,0,-1,400.58,454.336)"
                               style="font-variant:normal;font-weight:normal;font-size:9.96259975px;font-family:CMR10;-inkscape-font-specification:CMR10;writing-mode:lr-tb;fill:#000000;fill-opacity:1;fill-rule:nonzero;stroke:none"
                               id="text15900"><tspan
                                 x="0 6.6450543 11.626354 16.607655"
                                 y="0"
                                 sodipodi:role="line"
                                 id="tspan15898">2000</tspan></text>
<g
                               id="g15902"
                               transform="translate(400.58,454.336)" /></g></g><g
                           id="g15904"
                           transform="translate(-201.302,30.908)" /></g></g><g
                       id="g15906"><g
                         id="g15908"
                         transform="translate(-33.408,-13.601)"><g
                           id="g15910"><g
                             id="g15912"
                             transform="translate(-165.87,-471.643)"><text
                               transform="matrix(1,0,0,-1,165.87,471.643)"
                               style="font-variant:normal;font-weight:normal;font-size:9.96259975px;font-family:CMR10;-inkscape-font-specification:CMR10;writing-mode:lr-tb;fill:#000000;fill-opacity:1;fill-rule:nonzero;stroke:none"
                               id="text15916"><tspan
                                 x="0"
                                 y="0"
                                 id="tspan15914">0</tspan></text>
<g
                               id="g15918"
                               transform="translate(165.87,471.643)" /></g></g><g
                           id="g15920"
                           transform="translate(33.408,13.601)" /></g></g><g
                       id="g15922"><g
                         id="g15924"
                         transform="translate(-38.39,17.422)"><g
                           id="g15926"><g
                             id="g15928"
                             transform="translate(-160.888,-502.666)"><text
                               transform="matrix(1,0,0,-1,160.888,502.666)"
                               style="font-variant:normal;font-weight:normal;font-size:9.96259975px;font-family:CMR10;-inkscape-font-specification:CMR10;writing-mode:lr-tb;fill:#000000;fill-opacity:1;fill-rule:nonzero;stroke:none"
                               id="text15932"><tspan
                                 x="0 4.9812999"
                                 y="0"
                                 sodipodi:role="line"
                                 id="tspan15930">10</tspan></text>
<g
                               id="g15934"
                               transform="translate(160.888,502.666)" /></g></g><g
                           id="g15936"
                           transform="translate(38.39,-17.422)" /></g></g><g
                       id="g15938"><g
                         id="g15940"
                         transform="translate(-38.39,48.446)"><g
                           id="g15942"><g
                             id="g15944"
                             transform="translate(-160.888,-533.69)"><text
                               transform="matrix(1,0,0,-1,160.888,533.69)"
                               style="font-variant:normal;font-weight:normal;font-size:9.96259975px;font-family:CMR10;-inkscape-font-specification:CMR10;writing-mode:lr-tb;fill:#000000;fill-opacity:1;fill-rule:nonzero;stroke:none"
                               id="text15948"><tspan
                                 x="0 4.9812999"
                                 y="0"
                                 sodipodi:role="line"
                                 id="tspan15946">20</tspan></text>
<g
                               id="g15950"
                               transform="translate(160.888,533.69)" /></g></g><g
                           id="g15952"
                           transform="translate(38.39,-48.446)" /></g></g><g
                       id="g15954"><g
                         id="g15956"
                         transform="translate(-38.39,79.47)"><g
                           id="g15958"><g
                             id="g15960"
                             transform="translate(-160.888,-564.714)"><text
                               transform="matrix(1,0,0,-1,160.888,564.714)"
                               style="font-variant:normal;font-weight:normal;font-size:9.96259975px;font-family:CMR10;-inkscape-font-specification:CMR10;writing-mode:lr-tb;fill:#000000;fill-opacity:1;fill-rule:nonzero;stroke:none"
                               id="text15964"><tspan
                                 x="0 4.9812999"
                                 y="0"
                                 sodipodi:role="line"
                                 id="tspan15962">30</tspan></text>
<g
                               id="g15966"
                               transform="translate(160.888,564.714)" /></g></g><g
                           id="g15968"
                           transform="translate(38.39,-79.47)" /></g></g><g
                       id="g15970"><g
                         id="g15972"
                         transform="translate(-38.39,110.494)"><g
                           id="g15974"><g
                             id="g15976"
                             transform="translate(-160.888,-595.738)"><text
                               transform="matrix(1,0,0,-1,160.888,595.738)"
                               style="font-variant:normal;font-weight:normal;font-size:9.96259975px;font-family:CMR10;-inkscape-font-specification:CMR10;writing-mode:lr-tb;fill:#000000;fill-opacity:1;fill-rule:nonzero;stroke:none"
                               id="text15980"><tspan
                                 x="0 4.9812999"
                                 y="0"
                                 sodipodi:role="line"
                                 id="tspan15978">40</tspan></text>
<g
                               id="g15982"
                               transform="translate(160.888,595.738)" /></g></g><g
                           id="g15984"
                           transform="translate(38.39,-110.494)" /></g></g><g
                       id="g15986"><g
                         id="g15988"
                         transform="translate(-38.39,141.517)"><g
                           id="g15990"><g
                             id="g15992"
                             transform="translate(-160.888,-626.761)"><text
                               transform="matrix(1,0,0,-1,160.888,626.761)"
                               style="font-variant:normal;font-weight:normal;font-size:9.96259975px;font-family:CMR10;-inkscape-font-specification:CMR10;writing-mode:lr-tb;fill:#000000;fill-opacity:1;fill-rule:nonzero;stroke:none"
                               id="text15996"><tspan
                                 x="0 4.9812999"
                                 y="0"
                                 sodipodi:role="line"
                                 id="tspan15994">50</tspan></text>
<g
                               id="g15998"
                               transform="translate(160.888,626.761)" /></g></g><g
                           id="g16000"
                           transform="translate(38.39,-141.517)" /></g></g><g
                       id="g16002"><g
                         id="g16004"
                         transform="translate(-38.39,172.541)"><g
                           id="g16006"><g
                             id="g16008"
                             transform="translate(-160.888,-657.785)"><text
                               transform="matrix(1,0,0,-1,160.888,657.785)"
                               style="font-variant:normal;font-weight:normal;font-size:9.96259975px;font-family:CMR10;-inkscape-font-specification:CMR10;writing-mode:lr-tb;fill:#000000;fill-opacity:1;fill-rule:nonzero;stroke:none"
                               id="text16012"><tspan
                                 x="0 4.9812999"
                                 y="0"
                                 sodipodi:role="line"
                                 id="tspan16010">60</tspan></text>
<g
                               id="g16014"
                               transform="translate(160.888,657.785)" /></g></g><g
                           id="g16016"
                           transform="translate(38.39,-172.541)" /></g></g><g
                       id="g16018"><g
                         id="g16020"
                         transform="translate(-38.39,203.565)"><g
                           id="g16022"><g
                             id="g16024"
                             transform="translate(-160.888,-688.809)"><text
                               transform="matrix(1,0,0,-1,160.888,688.809)"
                               style="font-variant:normal;font-weight:normal;font-size:9.96259975px;font-family:CMR10;-inkscape-font-specification:CMR10;writing-mode:lr-tb;fill:#000000;fill-opacity:1;fill-rule:nonzero;stroke:none"
                               id="text16028"><tspan
                                 x="0 4.9812999"
                                 y="0"
                                 sodipodi:role="line"
                                 id="tspan16026">70</tspan></text>
<g
                               id="g16030"
                               transform="translate(160.888,688.809)" /></g></g><g
                           id="g16032"
                           transform="translate(38.39,-203.565)" /></g></g><g
                       id="g16034"
                       clip-path="url(#clipPath16038)"><g
                         id="g16040"><path
                           d="m 0,0 21.82799,10.69325 12.49116,7.55982 6.6872,2.87361 6.18248,3.11096 H 40.75398 34.5715 l 12.365,0.99588 25.36083,19.64452 25.48703,24.64561 25.23468,20.37361 24.85616,17.28046 -24.98233,-2.15927 25.36084,4.32321 37.85202,30.60228 62.96051,69.73775"
                           style="fill:none;stroke:#ff0000;stroke-width:0.3985;stroke-linecap:butt;stroke-linejoin:miter;stroke-miterlimit:10;stroke-dasharray:none;stroke-opacity:1"
                           id="path16042"
                           inkscape:connector-curvature="0" /></g></g></g><g
                     id="g16044"><path
                       d="M 1.99255,0 C 1.99255,1.10046 1.10046,1.99255 0,1.99255 -1.10046,1.99255 -1.99255,1.10046 -1.99255,0 c 0,-1.10046 0.89209,-1.99255 1.99255,-1.99255 1.10046,0 1.99255,0.89209 1.99255,1.99255 z"
                       style="fill:#ff0000;fill-opacity:1;fill-rule:nonzero;stroke:#ff0000;stroke-width:0.3985;stroke-linecap:butt;stroke-linejoin:miter;stroke-miterlimit:10;stroke-dasharray:none;stroke-opacity:1"
                       id="path16046"
                       inkscape:connector-curvature="0" /><path
                       d="m 23.82054,10.69325 c 0,1.10047 -0.89209,1.99255 -1.99255,1.99255 -1.10048,0 -1.99256,-0.89208 -1.99256,-1.99255 0,-1.10048 0.89208,-1.99255 1.99256,-1.99255 1.10046,0 1.99255,0.89207 1.99255,1.99255 z"
                       style="fill:#ff0000;fill-opacity:1;fill-rule:nonzero;stroke:#ff0000;stroke-width:0.3985;stroke-linecap:butt;stroke-linejoin:miter;stroke-miterlimit:10;stroke-dasharray:none;stroke-opacity:1"
                       id="path16048"
                       inkscape:connector-curvature="0" /><path
                       d="m 36.3117,18.25307 c 0,1.10048 -0.89207,1.99255 -1.99255,1.99255 -1.10046,0 -1.99255,-0.89207 -1.99255,-1.99255 0,-1.10047 0.89209,-1.99256 1.99255,-1.99256 1.10048,0 1.99255,0.89209 1.99255,1.99256 z"
                       style="fill:#ff0000;fill-opacity:1;fill-rule:nonzero;stroke:#ff0000;stroke-width:0.3985;stroke-linecap:butt;stroke-linejoin:miter;stroke-miterlimit:10;stroke-dasharray:none;stroke-opacity:1"
                       id="path16050"
                       inkscape:connector-curvature="0" /><path
                       d="m 42.9989,21.12668 c 0,1.10048 -0.89209,1.99255 -1.99255,1.99255 -1.10048,0 -1.99255,-0.89207 -1.99255,-1.99255 0,-1.10047 0.89207,-1.99256 1.99255,-1.99256 1.10046,0 1.99255,0.89209 1.99255,1.99256 z"
                       style="fill:#ff0000;fill-opacity:1;fill-rule:nonzero;stroke:#ff0000;stroke-width:0.3985;stroke-linecap:butt;stroke-linejoin:miter;stroke-miterlimit:10;stroke-dasharray:none;stroke-opacity:1"
                       id="path16052"
                       inkscape:connector-curvature="0" /><path
                       d="m 49.18138,24.23764 c 0,1.10048 -0.89208,1.99256 -1.99255,1.99256 -1.10047,0 -1.99256,-0.89208 -1.99256,-1.99256 0,-1.10046 0.89209,-1.99255 1.99256,-1.99255 1.10047,0 1.99255,0.89209 1.99255,1.99255 z"
                       style="fill:#ff0000;fill-opacity:1;fill-rule:nonzero;stroke:#ff0000;stroke-width:0.3985;stroke-linecap:butt;stroke-linejoin:miter;stroke-miterlimit:10;stroke-dasharray:none;stroke-opacity:1"
                       id="path16054"
                       inkscape:connector-curvature="0" /><path
                       d="m 42.74654,24.23764 c 0,1.10048 -0.89208,1.99256 -1.99256,1.99256 -1.10046,0 -1.99255,-0.89208 -1.99255,-1.99256 0,-1.10046 0.89209,-1.99255 1.99255,-1.99255 1.10048,0 1.99256,0.89209 1.99256,1.99255 z"
                       style="fill:#ff0000;fill-opacity:1;fill-rule:nonzero;stroke:#ff0000;stroke-width:0.3985;stroke-linecap:butt;stroke-linejoin:miter;stroke-miterlimit:10;stroke-dasharray:none;stroke-opacity:1"
                       id="path16056"
                       inkscape:connector-curvature="0" /><path
                       d="m 36.56406,24.23764 c 0,1.10048 -0.89209,1.99256 -1.99256,1.99256 -1.10048,0 -1.99255,-0.89208 -1.99255,-1.99256 0,-1.10046 0.89207,-1.99255 1.99255,-1.99255 1.10047,0 1.99256,0.89209 1.99256,1.99255 z"
                       style="fill:#ff0000;fill-opacity:1;fill-rule:nonzero;stroke:#ff0000;stroke-width:0.3985;stroke-linecap:butt;stroke-linejoin:miter;stroke-miterlimit:10;stroke-dasharray:none;stroke-opacity:1"
                       id="path16058"
                       inkscape:connector-curvature="0" /><path
                       d="m 48.92905,25.23352 c 0,1.10046 -0.89208,1.99255 -1.99255,1.99255 -1.10047,0 -1.99256,-0.89209 -1.99256,-1.99255 0,-1.10048 0.89209,-1.99255 1.99256,-1.99255 1.10047,0 1.99255,0.89207 1.99255,1.99255 z"
                       style="fill:#ff0000;fill-opacity:1;fill-rule:nonzero;stroke:#ff0000;stroke-width:0.3985;stroke-linecap:butt;stroke-linejoin:miter;stroke-miterlimit:10;stroke-dasharray:none;stroke-opacity:1"
                       id="path16060"
                       inkscape:connector-curvature="0" /><path
                       d="m 74.28989,44.87804 c 0,1.10048 -0.89208,1.99255 -1.99256,1.99255 -1.10046,0 -1.99255,-0.89207 -1.99255,-1.99255 0,-1.10047 0.89209,-1.99256 1.99255,-1.99256 1.10048,0 1.99256,0.89209 1.99256,1.99256 z"
                       style="fill:#ff0000;fill-opacity:1;fill-rule:nonzero;stroke:#ff0000;stroke-width:0.3985;stroke-linecap:butt;stroke-linejoin:miter;stroke-miterlimit:10;stroke-dasharray:none;stroke-opacity:1"
                       id="path16062"
                       inkscape:connector-curvature="0" /><path
                       d="m 99.77692,69.52365 c 0,1.10048 -0.89209,1.99255 -1.99256,1.99255 -1.10048,0 -1.99255,-0.89207 -1.99255,-1.99255 0,-1.10046 0.89207,-1.99255 1.99255,-1.99255 1.10047,0 1.99256,0.89209 1.99256,1.99255 z"
                       style="fill:#ff0000;fill-opacity:1;fill-rule:nonzero;stroke:#ff0000;stroke-width:0.3985;stroke-linecap:butt;stroke-linejoin:miter;stroke-miterlimit:10;stroke-dasharray:none;stroke-opacity:1"
                       id="path16064"
                       inkscape:connector-curvature="0" /><path
                       d="m 125.0116,89.89726 c 0,1.10047 -0.8921,1.99256 -1.99256,1.99256 -1.10048,0 -1.99255,-0.89209 -1.99255,-1.99256 0,-1.10048 0.89207,-1.99255 1.99255,-1.99255 1.10046,0 1.99256,0.89207 1.99256,1.99255 z"
                       style="fill:#ff0000;fill-opacity:1;fill-rule:nonzero;stroke:#ff0000;stroke-width:0.3985;stroke-linecap:butt;stroke-linejoin:miter;stroke-miterlimit:10;stroke-dasharray:none;stroke-opacity:1"
                       id="path16066"
                       inkscape:connector-curvature="0" /><path
                       d="m 149.86775,107.17772 c 0,1.10048 -0.89207,1.99255 -1.99255,1.99255 -1.10047,0 -1.99256,-0.89207 -1.99256,-1.99255 0,-1.10046 0.89209,-1.99255 1.99256,-1.99255 1.10048,0 1.99255,0.89209 1.99255,1.99255 z"
                       style="fill:#ff0000;fill-opacity:1;fill-rule:nonzero;stroke:#ff0000;stroke-width:0.3985;stroke-linecap:butt;stroke-linejoin:miter;stroke-miterlimit:10;stroke-dasharray:none;stroke-opacity:1"
                       id="path16068"
                       inkscape:connector-curvature="0" /><path
                       d="m 124.88542,105.01845 c 0,1.10048 -0.89209,1.99255 -1.99255,1.99255 -1.10048,0 -1.99256,-0.89207 -1.99256,-1.99255 0,-1.10047 0.89208,-1.99255 1.99256,-1.99255 1.10046,0 1.99255,0.89208 1.99255,1.99255 z"
                       style="fill:#ff0000;fill-opacity:1;fill-rule:nonzero;stroke:#ff0000;stroke-width:0.3985;stroke-linecap:butt;stroke-linejoin:miter;stroke-miterlimit:10;stroke-dasharray:none;stroke-opacity:1"
                       id="path16070"
                       inkscape:connector-curvature="0" /><path
                       d="m 150.24626,109.34166 c 0,1.10048 -0.89207,1.99255 -1.99255,1.99255 -1.10047,0 -1.99256,-0.89207 -1.99256,-1.99255 0,-1.10046 0.89209,-1.99256 1.99256,-1.99256 1.10048,0 1.99255,0.8921 1.99255,1.99256 z"
                       style="fill:#ff0000;fill-opacity:1;fill-rule:nonzero;stroke:#ff0000;stroke-width:0.3985;stroke-linecap:butt;stroke-linejoin:miter;stroke-miterlimit:10;stroke-dasharray:none;stroke-opacity:1"
                       id="path16072"
                       inkscape:connector-curvature="0" /><path
                       d="m 188.09828,139.94394 c 0,1.10046 -0.89209,1.99256 -1.99255,1.99256 -1.10047,0 -1.99256,-0.8921 -1.99256,-1.99256 0,-1.10048 0.89209,-1.99255 1.99256,-1.99255 1.10046,0 1.99255,0.89207 1.99255,1.99255 z"
                       style="fill:#ff0000;fill-opacity:1;fill-rule:nonzero;stroke:#ff0000;stroke-width:0.3985;stroke-linecap:butt;stroke-linejoin:miter;stroke-miterlimit:10;stroke-dasharray:none;stroke-opacity:1"
                       id="path16074"
                       inkscape:connector-curvature="0" /><path
                       d="m 251.05879,209.68169 c 0,1.10046 -0.89207,1.99255 -1.99255,1.99255 -1.10047,0 -1.99256,-0.89209 -1.99256,-1.99255 0,-1.10049 0.89209,-1.99256 1.99256,-1.99256 1.10048,0 1.99255,0.89207 1.99255,1.99256 z"
                       style="fill:#ff0000;fill-opacity:1;fill-rule:nonzero;stroke:#ff0000;stroke-width:0.3985;stroke-linecap:butt;stroke-linejoin:miter;stroke-miterlimit:10;stroke-dasharray:none;stroke-opacity:1"
                       id="path16076"
                       inkscape:connector-curvature="0" /></g><g
                     id="g16078"><g
                       id="g16080"
                       transform="translate(26.285,-45.217)"><g
                         id="g16082"><g
                           id="g16084"
                           transform="translate(-225.563,-440.027)"><text
                             transform="matrix(1,0,0,-1,225.563,440.027)"
                             style="font-variant:normal;font-weight:normal;font-size:9.96259975px;font-family:SFRM1000;-inkscape-font-specification:SFRM1000;writing-mode:lr-tb;fill:#000000;fill-opacity:1;fill-rule:nonzero;stroke:none"
                             id="text16088"><tspan
                               x="0 7.0555134 11.481896 17.015125 21.995428 27.528656 32.782932 37.763237 43.296463 48.276768 53.809994 58.790298 66.544189 72.077415 77.057724 82.59095 87.845222 93.239975 101.26086 105.68725 111.22047 116.7537 124.49763 129.47794 133.40619 136.18277 141.15311 149.46291 154.43326 162.18018 167.16048 172.14078 178.23489 183.76813 191.51505"
                               y="0"
                               sodipodi:role="line"
                               id="tspan16086">Вертикальное напряжение $\sigma_1$, кПа</tspan></text>
<g
                             id="g16090"
                             transform="translate(225.563,440.027)" /></g></g><g
                         id="g16092"
                         transform="translate(-26.285,45.217)" /></g></g><g
                     id="g16094"><g
                       id="g16096"
                       transform="rotate(90,-47.332,-0.386)"><g
                         id="g16098"><g
                           id="g16100"
                           transform="translate(-151.56,-532.19)"><text
                             transform="matrix(1,0,0,-1,151.56,532.19)"
                             style="font-variant:normal;font-weight:normal;font-size:9.96259975px;font-family:SFRM1000;-inkscape-font-specification:SFRM1000;writing-mode:lr-tb;fill:#000000;fill-opacity:1;fill-rule:nonzero;stroke:none"
                             id="text16108"><tspan
                               x="0 7.192997 12.726225 17.152609 22.685837 27.112219 32.645447 41.357742 46.338043 56.574615 61.55492 67.64904 73.182274 80.929192 89.229034 94.209335 100.84941"
                               y="0"
                               sodipodi:role="line"
                               id="tspan16102">Энергия$W$,кДж/м$</tspan><tspan
                               x="105.827"
                               y="-2.1029999"
                               id="tspan16104">ˆ</tspan><tspan
                               x="105.827 110.8073"
                               y="0"
                               sodipodi:role="line"
                               id="tspan16106">3$</tspan></text>
<g
                             id="g16110"
                             transform="translate(151.56,532.19)" /></g></g><g
                         id="g16112"
                         transform="translate(47.718,-46.946)" /></g></g></g></g><g
                 id="g16114"
                 transform="translate(-59.532,-50.856)" /></g><g
               id="g16116"
               transform="translate(34.624,29.887)" /></g><g
             id="g16118" /><g
             id="g16120" /></g></g></g><path
       style="fill:none;stroke:#000000;stroke-width:0.46771654;stroke-linecap:butt;stroke-linejoin:miter;stroke-miterlimit:4;stroke-dasharray:none;stroke-opacity:1"
       d="m 199.278,485.244 127.20833,64.84052"
       id="path1761"
       inkscape:connector-curvature="0"
       sodipodi:nodetypes="cc" /><path
       style="fill:none;stroke:#000000;stroke-width:0.4678441;stroke-linecap:butt;stroke-linejoin:miter;stroke-miterlimit:4;stroke-dasharray:none;stroke-opacity:1"
       d="M 448.34451,694.933 292.18608,523.55027"
       id="path1763"
       inkscape:connector-curvature="0"
       sodipodi:nodetypes="cc" /><path
       style="fill:none;stroke:#000000;stroke-width:0.46771654;stroke-linecap:butt;stroke-linejoin:miter;stroke-miterlimit:4;stroke-dasharray:0.46771656, 1.40314967;stroke-dashoffset:0;stroke-opacity:1"
       d="m 307.18559,538.99944 0,-73.87002"
       id="path1765"
       inkscape:connector-curvature="0"
       sodipodi:nodetypes="cc" /></g></svg>