<?xml version="1.0" encoding="UTF-8" standalone="no"?>
<!-- Created with Inkscape (http://www.inkscape.org/) -->

<svg
   xmlns:dc="http://purl.org/dc/elements/1.1/"
   xmlns:cc="http://creativecommons.org/ns#"
   xmlns:rdf="http://www.w3.org/1999/02/22-rdf-syntax-ns#"
   xmlns:svg="http://www.w3.org/2000/svg"
   xmlns="http://www.w3.org/2000/svg"
   xmlns:sodipodi="http://sodipodi.sourceforge.net/DTD/sodipodi-0.dtd"
   xmlns:inkscape="http://www.inkscape.org/namespaces/inkscape"
   version="1.1"
   id="svg999"
   xml:space="preserve"
   width="793.70135"
   height="1122.52"
   viewBox="0 0 793.70135 1122.52"
   sodipodi:docname="oedometerCazagrande+monolith+1.svg"
   inkscape:version="0.92.3 (2405546, 2018-03-11)"><metadata
     id="metadata1005"><rdf:RDF><cc:Work
         rdf:about=""><dc:format>image/svg+xml</dc:format><dc:type
           rdf:resource="http://purl.org/dc/dcmitype/StillImage" /><dc:title></dc:title></cc:Work></rdf:RDF></metadata><defs
     id="defs1003"><clipPath
       clipPathUnits="userSpaceOnUse"
       id="clipPath1239"><path
         d="M 444.70596,-20.97 H 743.58913 V 230.65738 H 444.70596 Z"
         id="path1237"
         inkscape:connector-curvature="0" /></clipPath></defs><sodipodi:namedview
     pagecolor="#ffffff"
     bordercolor="#666666"
     borderopacity="1"
     objecttolerance="10"
     gridtolerance="10"
     guidetolerance="10"
     inkscape:pageopacity="0"
     inkscape:pageshadow="2"
     inkscape:window-width="1243"
     inkscape:window-height="1408"
     id="namedview1001"
     showgrid="false"
     inkscape:zoom="0.84096496"
     inkscape:cx="464.03072"
     inkscape:cy="820.37933"
     inkscape:window-x="62"
     inkscape:window-y="0"
     inkscape:window-maximized="0"
     inkscape:current-layer="g1007" /><g
     id="g1007"
     inkscape:groupmode="layer"
     inkscape:label="oedometerCazagrande+monolith"
     transform="matrix(1.3333333,0,0,-1.3333333,0,1122.52)"><g
       id="g1009"
       transform="translate(185.523,464.268)"><g
         id="g1011"><g
           id="g1013"><g
             id="g1015" /><g
             id="g1017" /><g
             id="g1019"><g
               id="g1021" /></g><g
             id="g1023" /><g
             id="g1025" /><g
             id="g1027" /><g
             id="g1029" /><g
             id="g1031"
             transform="translate(-45.777,-29.887)"><g
               id="g1033"
               transform="translate(-398.923,50.857)"><g
                 id="g1035"><g
                   id="g1037"><g
                     id="g1039"><g
                       id="g1041"><g
                         id="g1043"><path
                           d="m 452.52077,-20.97 v 2.8349 m 68.11111,-2.8349 v 2.8349 m 39.8432,-2.8349 v 2.8349 M 588.743,-20.97 v 2.8349 m 21.92703,-2.8349 v 2.8349 M 628.5862,-20.97 v 2.8349 M 643.733,-20.97 v 2.8349 m 13.12113,-2.8349 v 2.8349 m 11.57376,-2.8349 v 2.8349 M 452.52077,230.65738 v -2.8349 m 68.11111,2.8349 v -2.8349 m 39.8432,2.8349 v -2.8349 m 28.26792,2.8349 v -2.8349 m 21.92703,2.8349 v -2.8349 m 17.91617,2.8349 v -2.8349 m 15.1468,2.8349 v -2.8349 m 13.12113,2.8349 v -2.8349 m 11.57376,2.8349 v -2.8349"
                           style="fill:none;stroke:#808080;stroke-width:0.19925;stroke-linecap:butt;stroke-linejoin:miter;stroke-miterlimit:10;stroke-dasharray:none;stroke-opacity:1"
                           id="path1045"
                           inkscape:connector-curvature="0" /></g><g
                         id="g1047"><path
                           d="m 452.52077,-20.97 v 4.25192 M 678.78114,-20.97 v 4.25192 M 452.52077,230.65738 v -4.25192 m 226.26037,4.25192 v -4.25192"
                           style="fill:none;stroke:#808080;stroke-width:0.19925;stroke-linecap:butt;stroke-linejoin:miter;stroke-miterlimit:10;stroke-dasharray:none;stroke-opacity:1"
                           id="path1049"
                           inkscape:connector-curvature="0" /></g></g><g
                       id="g1051"><g
                         id="g1053"><path
                           d="m 444.70596,-8.71161 h 4.23577 m -4.23577,46.35689 h 4.23577 m -4.23577,46.3569 h 4.23577 m -4.23577,46.35692 h 4.23577 m -4.23577,46.35692 h 4.23577 m -4.23577,46.3569 h 4.23577 M 743.58913,-8.71161 h -4.23578 m 4.23578,46.35689 h -4.23578 m 4.23578,46.3569 h -4.23578 m 4.23578,46.35692 h -4.23578 m 4.23578,46.35692 h -4.23578 m 4.23578,46.3569 h -4.23578"
                           style="fill:none;stroke:#808080;stroke-width:0.19925;stroke-linecap:butt;stroke-linejoin:miter;stroke-miterlimit:10;stroke-dasharray:none;stroke-opacity:1"
                           id="path1055"
                           inkscape:connector-curvature="0" /></g></g><path
                       d="M 444.70596,-20.97 V 230.65738 H 743.58913 V -20.97 Z"
                       style="fill:none;stroke:#000000;stroke-width:0.3985;stroke-linecap:butt;stroke-linejoin:miter;stroke-miterlimit:10;stroke-dasharray:none;stroke-opacity:1"
                       id="path1057"
                       inkscape:connector-curvature="0" /><g
                       id="g1059"><g
                         id="g1061"
                         transform="translate(443.383,-30.909)"><g
                           id="g1063"><g
                             id="g1065"
                             transform="translate(-184.206,-454.329)"><text
                               transform="matrix(1,0,0,-1,187.526,454.329)"
                               style="font-variant:normal;font-weight:normal;font-size:9.96259975px;font-family:CMR10;-inkscape-font-specification:CMR10;writing-mode:lr-tb;fill:#000000;fill-opacity:1;fill-rule:nonzero;stroke:none"
                               id="text1069"><tspan
                                 x="0 4.9812999 9.9625998"
                                 y="0"
                                 sodipodi:role="line"
                                 id="tspan1067">100</tspan></text>
<g
                               id="g1071"
                               transform="translate(184.206,454.329)" /></g></g><g
                           id="g1073"
                           transform="translate(-443.383,30.909)" /></g></g><g
                       id="g1075"><g
                         id="g1077"
                         transform="translate(666.319,-30.909)"><g
                           id="g1079"><g
                             id="g1081"
                             transform="translate(-407.142,-454.329)"><text
                               transform="matrix(1,0,0,-1,410.462,454.329)"
                               style="font-variant:normal;font-weight:normal;font-size:9.96259975px;font-family:CMR10;-inkscape-font-specification:CMR10;writing-mode:lr-tb;fill:#000000;fill-opacity:1;fill-rule:nonzero;stroke:none"
                               id="text1085"><tspan
                                 x="0 6.6450543 11.626354 16.607655"
                                 y="0"
                                 sodipodi:role="line"
                                 id="tspan1083">1000</tspan></text>
<g
                               id="g1087"
                               transform="translate(407.142,454.329)" /></g></g><g
                           id="g1089"
                           transform="translate(-666.319,30.909)" /></g></g><g
                       id="g1091"><g
                         id="g1093"
                         transform="translate(418.488,-11.922)"><g
                           id="g1095"><g
                             id="g1097"
                             transform="translate(-159.311,-473.316)"><text
                               transform="matrix(1,0,0,-1,159.311,473.316)"
                               style="font-variant:normal;font-weight:normal;font-size:9.96259975px;font-family:CMR10;-inkscape-font-specification:CMR10;writing-mode:lr-tb;fill:#000000;fill-opacity:1;fill-rule:nonzero;stroke:none"
                               id="text1101"><tspan
                                 x="0"
                                 y="0"
                                 id="tspan1099">0</tspan></text>
<text
                               transform="matrix(1,0,0,-1,164.293,473.316)"
                               style="font-variant:normal;font-weight:normal;font-size:9.96259975px;font-family:CMMI10;-inkscape-font-specification:CMMI10;writing-mode:lr-tb;fill:#000000;fill-opacity:1;fill-rule:nonzero;stroke:none"
                               id="text1105"><tspan
                                 x="0"
                                 y="0"
                                 id="tspan1103">.</tspan></text>
<text
                               transform="matrix(1,0,0,-1,167.06,473.316)"
                               style="font-variant:normal;font-weight:normal;font-size:9.96259975px;font-family:CMR10;-inkscape-font-specification:CMR10;writing-mode:lr-tb;fill:#000000;fill-opacity:1;fill-rule:nonzero;stroke:none"
                               id="text1109"><tspan
                                 x="0 4.9812999 9.9625998"
                                 y="0"
                                 sodipodi:role="line"
                                 id="tspan1107">340</tspan></text>
<g
                               id="g1111"
                               transform="translate(159.311,473.316)" /></g></g><g
                           id="g1113"
                           transform="translate(-418.488,11.922)" /></g></g><g
                       id="g1115"><g
                         id="g1117"
                         transform="translate(418.488,34.434)"><g
                           id="g1119"><g
                             id="g1121"
                             transform="translate(-159.311,-519.672)"><text
                               transform="matrix(1,0,0,-1,159.311,519.672)"
                               style="font-variant:normal;font-weight:normal;font-size:9.96259975px;font-family:CMR10;-inkscape-font-specification:CMR10;writing-mode:lr-tb;fill:#000000;fill-opacity:1;fill-rule:nonzero;stroke:none"
                               id="text1125"><tspan
                                 x="0"
                                 y="0"
                                 id="tspan1123">0</tspan></text>
<text
                               transform="matrix(1,0,0,-1,164.293,519.672)"
                               style="font-variant:normal;font-weight:normal;font-size:9.96259975px;font-family:CMMI10;-inkscape-font-specification:CMMI10;writing-mode:lr-tb;fill:#000000;fill-opacity:1;fill-rule:nonzero;stroke:none"
                               id="text1129"><tspan
                                 x="0"
                                 y="0"
                                 id="tspan1127">.</tspan></text>
<text
                               transform="matrix(1,0,0,-1,167.06,519.672)"
                               style="font-variant:normal;font-weight:normal;font-size:9.96259975px;font-family:CMR10;-inkscape-font-specification:CMR10;writing-mode:lr-tb;fill:#000000;fill-opacity:1;fill-rule:nonzero;stroke:none"
                               id="text1133"><tspan
                                 x="0 4.9812999 9.9625998"
                                 y="0"
                                 sodipodi:role="line"
                                 id="tspan1131">360</tspan></text>
<g
                               id="g1135"
                               transform="translate(159.311,519.672)" /></g></g><g
                           id="g1137"
                           transform="translate(-418.488,-34.434)" /></g></g><g
                       id="g1139"><g
                         id="g1141"
                         transform="translate(418.488,80.791)"><g
                           id="g1143"><g
                             id="g1145"
                             transform="translate(-159.311,-566.029)"><text
                               transform="matrix(1,0,0,-1,159.311,566.029)"
                               style="font-variant:normal;font-weight:normal;font-size:9.96259975px;font-family:CMR10;-inkscape-font-specification:CMR10;writing-mode:lr-tb;fill:#000000;fill-opacity:1;fill-rule:nonzero;stroke:none"
                               id="text1149"><tspan
                                 x="0"
                                 y="0"
                                 id="tspan1147">0</tspan></text>
<text
                               transform="matrix(1,0,0,-1,164.293,566.029)"
                               style="font-variant:normal;font-weight:normal;font-size:9.96259975px;font-family:CMMI10;-inkscape-font-specification:CMMI10;writing-mode:lr-tb;fill:#000000;fill-opacity:1;fill-rule:nonzero;stroke:none"
                               id="text1153"><tspan
                                 x="0"
                                 y="0"
                                 id="tspan1151">.</tspan></text>
<text
                               transform="matrix(1,0,0,-1,167.06,566.029)"
                               style="font-variant:normal;font-weight:normal;font-size:9.96259975px;font-family:CMR10;-inkscape-font-specification:CMR10;writing-mode:lr-tb;fill:#000000;fill-opacity:1;fill-rule:nonzero;stroke:none"
                               id="text1157"><tspan
                                 x="0 4.9812999 9.9625998"
                                 y="0"
                                 sodipodi:role="line"
                                 id="tspan1155">380</tspan></text>
<g
                               id="g1159"
                               transform="translate(159.311,566.029)" /></g></g><g
                           id="g1161"
                           transform="translate(-418.488,-80.791)" /></g></g><g
                       id="g1163"><g
                         id="g1165"
                         transform="translate(418.488,127.147)"><g
                           id="g1167"><g
                             id="g1169"
                             transform="translate(-159.311,-612.385)"><text
                               transform="matrix(1,0,0,-1,159.311,612.385)"
                               style="font-variant:normal;font-weight:normal;font-size:9.96259975px;font-family:CMR10;-inkscape-font-specification:CMR10;writing-mode:lr-tb;fill:#000000;fill-opacity:1;fill-rule:nonzero;stroke:none"
                               id="text1173"><tspan
                                 x="0"
                                 y="0"
                                 id="tspan1171">0</tspan></text>
<text
                               transform="matrix(1,0,0,-1,164.293,612.385)"
                               style="font-variant:normal;font-weight:normal;font-size:9.96259975px;font-family:CMMI10;-inkscape-font-specification:CMMI10;writing-mode:lr-tb;fill:#000000;fill-opacity:1;fill-rule:nonzero;stroke:none"
                               id="text1177"><tspan
                                 x="0"
                                 y="0"
                                 id="tspan1175">.</tspan></text>
<text
                               transform="matrix(1,0,0,-1,167.06,612.385)"
                               style="font-variant:normal;font-weight:normal;font-size:9.96259975px;font-family:CMR10;-inkscape-font-specification:CMR10;writing-mode:lr-tb;fill:#000000;fill-opacity:1;fill-rule:nonzero;stroke:none"
                               id="text1181"><tspan
                                 x="0 4.9812999 9.9625998"
                                 y="0"
                                 sodipodi:role="line"
                                 id="tspan1179">400</tspan></text>
<g
                               id="g1183"
                               transform="translate(159.311,612.385)" /></g></g><g
                           id="g1185"
                           transform="translate(-418.488,-127.147)" /></g></g><g
                       id="g1187"><g
                         id="g1189"
                         transform="translate(418.488,173.503)"><g
                           id="g1191"><g
                             id="g1193"
                             transform="translate(-159.311,-658.741)"><text
                               transform="matrix(1,0,0,-1,159.311,658.741)"
                               style="font-variant:normal;font-weight:normal;font-size:9.96259975px;font-family:CMR10;-inkscape-font-specification:CMR10;writing-mode:lr-tb;fill:#000000;fill-opacity:1;fill-rule:nonzero;stroke:none"
                               id="text1197"><tspan
                                 x="0"
                                 y="0"
                                 id="tspan1195">0</tspan></text>
<text
                               transform="matrix(1,0,0,-1,164.293,658.741)"
                               style="font-variant:normal;font-weight:normal;font-size:9.96259975px;font-family:CMMI10;-inkscape-font-specification:CMMI10;writing-mode:lr-tb;fill:#000000;fill-opacity:1;fill-rule:nonzero;stroke:none"
                               id="text1201"><tspan
                                 x="0"
                                 y="0"
                                 id="tspan1199">.</tspan></text>
<text
                               transform="matrix(1,0,0,-1,167.06,658.741)"
                               style="font-variant:normal;font-weight:normal;font-size:9.96259975px;font-family:CMR10;-inkscape-font-specification:CMR10;writing-mode:lr-tb;fill:#000000;fill-opacity:1;fill-rule:nonzero;stroke:none"
                               id="text1205"><tspan
                                 x="0 4.9812999 9.9625998"
                                 y="0"
                                 sodipodi:role="line"
                                 id="tspan1203">420</tspan></text>
<g
                               id="g1207"
                               transform="translate(159.311,658.741)" /></g></g><g
                           id="g1209"
                           transform="translate(-418.488,-173.503)" /></g></g><g
                       id="g1211"><g
                         id="g1213"
                         transform="translate(418.488,219.86)"><g
                           id="g1215"><g
                             id="g1217"
                             transform="translate(-159.311,-705.098)"><text
                               transform="matrix(1,0,0,-1,159.311,705.098)"
                               style="font-variant:normal;font-weight:normal;font-size:9.96259975px;font-family:CMR10;-inkscape-font-specification:CMR10;writing-mode:lr-tb;fill:#000000;fill-opacity:1;fill-rule:nonzero;stroke:none"
                               id="text1221"><tspan
                                 x="0"
                                 y="0"
                                 id="tspan1219">0</tspan></text>
<text
                               transform="matrix(1,0,0,-1,164.293,705.098)"
                               style="font-variant:normal;font-weight:normal;font-size:9.96259975px;font-family:CMMI10;-inkscape-font-specification:CMMI10;writing-mode:lr-tb;fill:#000000;fill-opacity:1;fill-rule:nonzero;stroke:none"
                               id="text1225"><tspan
                                 x="0"
                                 y="0"
                                 id="tspan1223">.</tspan></text>
<text
                               transform="matrix(1,0,0,-1,167.06,705.098)"
                               style="font-variant:normal;font-weight:normal;font-size:9.96259975px;font-family:CMR10;-inkscape-font-specification:CMR10;writing-mode:lr-tb;fill:#000000;fill-opacity:1;fill-rule:nonzero;stroke:none"
                               id="text1229"><tspan
                                 x="0 4.9812999 9.9625998"
                                 y="0"
                                 sodipodi:role="line"
                                 id="tspan1227">440</tspan></text>
<g
                               id="g1231"
                               transform="translate(159.311,705.098)" /></g></g><g
                           id="g1233"
                           transform="translate(-418.488,-219.86)" /></g></g><g
                       id="g1235"
                       clip-path="url(#clipPath1239)"><g
                         id="g1241"><path
                           d="m 469.61377,209.68738 c 0,0 13.79332,-6.39508 18.73482,-8.5239 4.94149,-2.1288 11.16386,-3.2711 16.88009,-6.8191 5.71624,-3.54801 15.81732,-11.89303 24.31855,-18.75252 8.50122,-6.8595 21.11077,-15.54775 36.95237,-30.68596 15.8416,-15.1382 63.08077,-64.70068 77.2229,-78.41968 14.14215,-13.71899 18.55286,-15.01701 24.70389,-20.4573 6.15103,-5.44028 14.59377,-14.02184 19.62847,-18.75254 5.03469,-4.73068 12.40882,-11.55842 16.65818,-15.34297 C 708.9624,8.14886 718.68132,0 718.68132,0"
                           style="fill:none;stroke:#ff0000;stroke-width:0.3985;stroke-linecap:butt;stroke-linejoin:miter;stroke-miterlimit:10;stroke-dasharray:none;stroke-opacity:1"
                           id="path1243"
                           inkscape:connector-curvature="0" /></g></g></g><g
                     id="g1245"><path
                       d="m 471.60632,209.68738 c 0,1.10046 -0.89209,1.99255 -1.99255,1.99255 -1.10048,0 -1.99255,-0.89209 -1.99255,-1.99255 0,-1.10048 0.89207,-1.99256 1.99255,-1.99256 1.10046,0 1.99255,0.89208 1.99255,1.99256 z"
                       style="fill:#ff0000;fill-opacity:1;fill-rule:nonzero;stroke:#ff0000;stroke-width:0.3985;stroke-linecap:butt;stroke-linejoin:miter;stroke-miterlimit:10;stroke-dasharray:none;stroke-opacity:1"
                       id="path1247"
                       inkscape:connector-curvature="0" /><path
                       d="m 490.34114,201.16348 c 0,1.10048 -0.89207,1.99256 -1.99255,1.99256 -1.10047,0 -1.99256,-0.89208 -1.99256,-1.99256 0,-1.10046 0.89209,-1.99255 1.99256,-1.99255 1.10048,0 1.99255,0.89209 1.99255,1.99255 z"
                       style="fill:#ff0000;fill-opacity:1;fill-rule:nonzero;stroke:#ff0000;stroke-width:0.3985;stroke-linecap:butt;stroke-linejoin:miter;stroke-miterlimit:10;stroke-dasharray:none;stroke-opacity:1"
                       id="path1249"
                       inkscape:connector-curvature="0" /><path
                       d="m 507.22124,194.34438 c 0,1.10047 -0.89209,1.99255 -1.99256,1.99255 -1.10046,0 -1.99255,-0.89208 -1.99255,-1.99255 0,-1.10047 0.89209,-1.99256 1.99255,-1.99256 1.10047,0 1.99256,0.89209 1.99256,1.99256 z"
                       style="fill:#ff0000;fill-opacity:1;fill-rule:nonzero;stroke:#ff0000;stroke-width:0.3985;stroke-linecap:butt;stroke-linejoin:miter;stroke-miterlimit:10;stroke-dasharray:none;stroke-opacity:1"
                       id="path1251"
                       inkscape:connector-curvature="0" /><path
                       d="m 531.53978,175.59186 c 0,1.10046 -0.89208,1.99255 -1.99255,1.99255 -1.10047,0 -1.99256,-0.89209 -1.99256,-1.99255 0,-1.10048 0.89209,-1.99256 1.99256,-1.99256 1.10047,0 1.99255,0.89208 1.99255,1.99256 z"
                       style="fill:#ff0000;fill-opacity:1;fill-rule:nonzero;stroke:#ff0000;stroke-width:0.3985;stroke-linecap:butt;stroke-linejoin:miter;stroke-miterlimit:10;stroke-dasharray:none;stroke-opacity:1"
                       id="path1253"
                       inkscape:connector-curvature="0" /><path
                       d="m 568.49216,144.9059 c 0,1.10048 -0.89208,1.99255 -1.99256,1.99255 -1.10046,0 -1.99255,-0.89207 -1.99255,-1.99255 0,-1.10046 0.89209,-1.99255 1.99255,-1.99255 1.10048,0 1.99256,0.89209 1.99256,1.99255 z"
                       style="fill:#ff0000;fill-opacity:1;fill-rule:nonzero;stroke:#ff0000;stroke-width:0.3985;stroke-linecap:butt;stroke-linejoin:miter;stroke-miterlimit:10;stroke-dasharray:none;stroke-opacity:1"
                       id="path1255"
                       inkscape:connector-curvature="0" /><path
                       d="m 645.71506,66.48622 c 0,1.10048 -0.89208,1.99256 -1.99256,1.99256 -1.10046,0 -1.99255,-0.89208 -1.99255,-1.99256 0,-1.10046 0.89209,-1.99255 1.99255,-1.99255 1.10048,0 1.99256,0.89209 1.99256,1.99255 z"
                       style="fill:#ff0000;fill-opacity:1;fill-rule:nonzero;stroke:#ff0000;stroke-width:0.3985;stroke-linecap:butt;stroke-linejoin:miter;stroke-miterlimit:10;stroke-dasharray:none;stroke-opacity:1"
                       id="path1257"
                       inkscape:connector-curvature="0" /><path
                       d="m 670.41895,46.02892 c 0,1.10048 -0.89209,1.99255 -1.99256,1.99255 -1.10048,0 -1.99255,-0.89207 -1.99255,-1.99255 0,-1.10047 0.89207,-1.99256 1.99255,-1.99256 1.10047,0 1.99256,0.89209 1.99256,1.99256 z"
                       style="fill:#ff0000;fill-opacity:1;fill-rule:nonzero;stroke:#ff0000;stroke-width:0.3985;stroke-linecap:butt;stroke-linejoin:miter;stroke-miterlimit:10;stroke-dasharray:none;stroke-opacity:1"
                       id="path1259"
                       inkscape:connector-curvature="0" /><path
                       d="m 690.04741,27.27638 c 0,1.10048 -0.89209,1.99256 -1.99255,1.99256 -1.10048,0 -1.99256,-0.89208 -1.99256,-1.99256 0,-1.10046 0.89208,-1.99255 1.99256,-1.99255 1.10046,0 1.99255,0.89209 1.99255,1.99255 z"
                       style="fill:#ff0000;fill-opacity:1;fill-rule:nonzero;stroke:#ff0000;stroke-width:0.3985;stroke-linecap:butt;stroke-linejoin:miter;stroke-miterlimit:10;stroke-dasharray:none;stroke-opacity:1"
                       id="path1261"
                       inkscape:connector-curvature="0" /><path
                       d="m 706.7056,11.93341 c 0,1.10046 -0.8921,1.99255 -1.99256,1.99255 -1.10048,0 -1.99255,-0.89209 -1.99255,-1.99255 0,-1.10048 0.89207,-1.99255 1.99255,-1.99255 1.10046,0 1.99256,0.89207 1.99256,1.99255 z"
                       style="fill:#ff0000;fill-opacity:1;fill-rule:nonzero;stroke:#ff0000;stroke-width:0.3985;stroke-linecap:butt;stroke-linejoin:miter;stroke-miterlimit:10;stroke-dasharray:none;stroke-opacity:1"
                       id="path1263"
                       inkscape:connector-curvature="0" /><path
                       d="m 720.67387,0 c 0,1.10046 -0.89209,1.99255 -1.99255,1.99255 -1.10048,0 -1.99255,-0.89209 -1.99255,-1.99255 0,-1.10046 0.89207,-1.99255 1.99255,-1.99255 1.10046,0 1.99255,0.89209 1.99255,1.99255 z"
                       style="fill:#ff0000;fill-opacity:1;fill-rule:nonzero;stroke:#ff0000;stroke-width:0.3985;stroke-linecap:butt;stroke-linejoin:miter;stroke-miterlimit:10;stroke-dasharray:none;stroke-opacity:1"
                       id="path1265"
                       inkscape:connector-curvature="0" /></g><g
                     id="g1267"><g
                       id="g1269"
                       transform="translate(495.892,-45.218)"><g
                         id="g1271"><g
                           id="g1273"
                           transform="translate(-236.715,-440.02)"><text
                             transform="matrix(1,0,0,-1,236.715,440.02)"
                             style="font-variant:normal;font-weight:normal;font-size:9.96259975px;font-family:SFRM1000;-inkscape-font-specification:SFRM1000;writing-mode:lr-tb;fill:#000000;fill-opacity:1;fill-rule:nonzero;stroke:none"
                             id="text1277"><tspan
                               x="0 7.0555134 11.481896 17.015125 21.995428 27.528656 32.782932 37.763237 43.296463 48.276768 53.809994 58.790298 66.544189 72.077415 77.057724 82.59095 87.845222 93.239975 101.26086 105.68725 111.22047 116.7537 124.50759 129.4879 133.41615 136.18277 141.16307 149.46291 154.44321 162.19012 167.17044 172.15074 178.23489 183.76813 191.51505"
                               y="0"
                               sodipodi:role="line"
                               id="tspan1275">Вертикальное напряжение $\sigma_1$, кПа</tspan></text>
<g
                             id="g1279"
                             transform="translate(236.715,440.02)" /></g></g><g
                         id="g1281"
                         transform="translate(-495.892,45.218)" /></g></g><g
                     id="g1283"><g
                       id="g1285"
                       transform="rotate(90,186.466,223.247)"><g
                         id="g1287"><g
                           id="g1289"
                           transform="translate(-150.536,-522.019)"><text
                             transform="matrix(1,0,0,-1,150.536,522.019)"
                             style="font-variant:normal;font-weight:normal;font-size:9.96259975px;font-family:SFRM1000;-inkscape-font-specification:SFRM1000;writing-mode:lr-tb;fill:#000000;fill-opacity:1;fill-rule:nonzero;stroke:none"
                             id="text1293"><tspan
                               x="0 7.7469177 12.727221 17.153605 24.900522 32.647442 38.180668 43.713898 49.247124 53.673508 59.206734 67.504585 73.037811 78.01812 83.551346 89.084572 93.510956 98.491257 103.47157 107.89795 112.87825 121.73898 126.71929 131.14568"
                               y="0"
                               sodipodi:role="line"
                               id="tspan1291">Коэффициентпористости$e$</tspan></text>
<g
                             id="g1295"
                             transform="translate(150.536,522.019)" /></g></g><g
                         id="g1297"
                         transform="translate(-409.713,-36.781)" /></g></g></g></g><g
                 id="g1299"
                 transform="translate(398.923,-50.857)" /></g><g
               id="g1301"
               transform="translate(45.777,29.887)" /></g><g
             id="g1303" /><g
             id="g1305" /></g></g></g><path
       style="fill:none;stroke:#000000;stroke-width:0.465;stroke-linecap:butt;stroke-linejoin:miter;stroke-miterlimit:4;stroke-dasharray:0.46500001, 1.39500003;stroke-dashoffset:0;stroke-opacity:1"
       d="m 258.89999,674.30542 0,-209.07509"
       id="path1765"
       inkscape:connector-curvature="0"
       sodipodi:nodetypes="cc" /><path
       style="fill:none;stroke:#000000;stroke-width:0.465;stroke-linecap:butt;stroke-linejoin:miter;stroke-miterlimit:4;stroke-dasharray:none;stroke-opacity:1"
       d="M 459.50432,485.238 231.37675,701.53557"
       id="path7401"
       inkscape:connector-curvature="0"
       sodipodi:nodetypes="cc" /><path
       style="fill:none;stroke:#000000;stroke-width:0.465;stroke-linecap:butt;stroke-linejoin:miter;stroke-miterlimit:4;stroke-dasharray:none;stroke-opacity:1"
       d="m 331.20042,610.6507 -83.15618,68.93168 h 87.18335"
       id="path7403"
       inkscape:connector-curvature="0"
       sodipodi:nodetypes="ccc" /><path
       style="fill:none;stroke:#000000;stroke-width:0.465;stroke-linecap:butt;stroke-linejoin:miter;stroke-miterlimit:4;stroke-dasharray:none;stroke-opacity:1"
       d="m 248.04424,679.58238 88.12928,-35.65713"
       id="path7405"
       inkscape:connector-curvature="0"
       sodipodi:nodetypes="cc" /></g></svg>