<?xml version="1.0" encoding="UTF-8" standalone="no"?>
<!-- Created with Inkscape (http://www.inkscape.org/) -->

<svg
   xmlns:dc="http://purl.org/dc/elements/1.1/"
   xmlns:cc="http://creativecommons.org/ns#"
   xmlns:rdf="http://www.w3.org/1999/02/22-rdf-syntax-ns#"
   xmlns:svg="http://www.w3.org/2000/svg"
   xmlns="http://www.w3.org/2000/svg"
   xmlns:sodipodi="http://sodipodi.sourceforge.net/DTD/sodipodi-0.dtd"
   xmlns:inkscape="http://www.inkscape.org/namespaces/inkscape"
   version="1.1"
   id="svg5584"
   xml:space="preserve"
   width="793.70135"
   height="1122.52"
   viewBox="0 0 793.70135 1122.52"
   sodipodi:docname="oedometerBecker+monolith+2.svg"
   inkscape:version="0.92.3 (2405546, 2018-03-11)"><metadata
     id="metadata5590"><rdf:RDF><cc:Work
         rdf:about=""><dc:format>image/svg+xml</dc:format><dc:type
           rdf:resource="http://purl.org/dc/dcmitype/StillImage" /><dc:title></dc:title></cc:Work></rdf:RDF></metadata><defs
     id="defs5588"><clipPath
       clipPathUnits="userSpaceOnUse"
       id="clipPath5820"><path
         d="M -24.90816,-20.96997 H 273.97476 V 230.65694 H -24.90816 Z"
         id="path5818"
         inkscape:connector-curvature="0" /></clipPath></defs><sodipodi:namedview
     pagecolor="#ffffff"
     bordercolor="#666666"
     borderopacity="1"
     objecttolerance="10"
     gridtolerance="10"
     guidetolerance="10"
     inkscape:pageopacity="0"
     inkscape:pageshadow="2"
     inkscape:window-width="1243"
     inkscape:window-height="1408"
     id="namedview5586"
     showgrid="false"
     inkscape:zoom="1.189304"
     inkscape:cx="398.49348"
     inkscape:cy="703.34964"
     inkscape:window-x="62"
     inkscape:window-y="0"
     inkscape:window-maximized="0"
     inkscape:current-layer="g5592" /><g
     id="g5592"
     inkscape:groupmode="layer"
     inkscape:label="oedometerBecker+monolith"
     transform="matrix(1.3333333,0,0,-1.3333333,0,1122.52)"><g
       id="g5594"
       transform="translate(174.37,458.389)"><g
         id="g5596"><g
           id="g5598"><g
             id="g5600" /><g
             id="g5602" /><g
             id="g5604"><g
               id="g5606" /></g><g
             id="g5608" /><g
             id="g5610" /><g
             id="g5612" /><g
             id="g5614" /><g
             id="g5616"
             transform="translate(-34.624,-29.887)"><g
               id="g5618"
               transform="translate(59.532,50.857)"><g
                 id="g5620"><g
                   id="g5622"><g
                     id="g5624"><g
                       id="g5626"><g
                         id="g5628"><path
                           d="m -15.5997,-20.96997 v 4.25172 m 66.10045,-4.25172 v 4.25172 m 66.10048,-4.25172 v 4.25172 m 66.10049,-4.25172 v 4.25172 m 66.10048,-4.25172 v 4.25172 M -15.5997,230.65694 v -4.25171 m 66.10045,4.25171 v -4.25171 m 66.10048,4.25171 v -4.25171 m 66.10049,4.25171 v -4.25171 m 66.10048,4.25171 v -4.25171"
                           style="fill:none;stroke:#808080;stroke-width:0.19925;stroke-linecap:butt;stroke-linejoin:miter;stroke-miterlimit:10;stroke-dasharray:none;stroke-opacity:1"
                           id="path5630"
                           inkscape:connector-curvature="0" /></g></g><g
                       id="g5632"><g
                         id="g5634"><path
                           d="m -24.90816,-1.22891 h 4.25273 m -4.25273,46.28695 h 4.25273 m -4.25273,46.28699 h 4.25273 m -4.25273,46.28699 h 4.25273 m -4.25273,46.28698 h 4.25273 m -4.25273,46.28698 h 4.25273 M 273.97476,-1.22891 h -4.25274 m 4.25274,46.28695 h -4.25274 m 4.25274,46.28699 h -4.25274 m 4.25274,46.28699 h -4.25274 m 4.25274,46.28698 h -4.25274 m 4.25274,46.28698 h -4.25274"
                           style="fill:none;stroke:#808080;stroke-width:0.19925;stroke-linecap:butt;stroke-linejoin:miter;stroke-miterlimit:10;stroke-dasharray:none;stroke-opacity:1"
                           id="path5636"
                           inkscape:connector-curvature="0" /></g></g><path
                       d="M -24.90816,-20.96997 V 230.65694 H 273.97476 V -20.96997 Z"
                       style="fill:none;stroke:#000000;stroke-width:0.3985;stroke-linecap:butt;stroke-linejoin:miter;stroke-miterlimit:10;stroke-dasharray:none;stroke-opacity:1"
                       id="path5638"
                       inkscape:connector-curvature="0" /><g
                       id="g5640"><g
                         id="g5642"
                         transform="translate(-18.09,-30.909)"><g
                           id="g5644"><g
                             id="g5646"
                             transform="translate(-181.188,-448.45)"><text
                               transform="matrix(1,0,0,-1,181.188,448.45)"
                               style="font-variant:normal;font-weight:normal;font-size:9.96259975px;font-family:CMR10;-inkscape-font-specification:CMR10;writing-mode:lr-tb;fill:#000000;fill-opacity:1;fill-rule:nonzero;stroke:none"
                               id="text5650"><tspan
                                 x="0"
                                 y="0"
                                 id="tspan5648">0</tspan></text>
<g
                               id="g5652"
                               transform="translate(181.188,448.45)" /></g></g><g
                           id="g5654"
                           transform="translate(18.09,30.909)" /></g></g><g
                       id="g5656"><g
                         id="g5658"
                         transform="translate(43.028,-30.909)"><g
                           id="g5660"><g
                             id="g5662"
                             transform="translate(-242.306,-448.45)"><text
                               transform="matrix(1,0,0,-1,242.306,448.45)"
                               style="font-variant:normal;font-weight:normal;font-size:9.96259975px;font-family:CMR10;-inkscape-font-specification:CMR10;writing-mode:lr-tb;fill:#000000;fill-opacity:1;fill-rule:nonzero;stroke:none"
                               id="text5666"><tspan
                                 x="0 4.9812999 9.9625998"
                                 y="0"
                                 sodipodi:role="line"
                                 id="tspan5664">500</tspan></text>
<g
                               id="g5668"
                               transform="translate(242.306,448.45)" /></g></g><g
                           id="g5670"
                           transform="translate(-43.028,30.909)" /></g></g><g
                       id="g5672"><g
                         id="g5674"
                         transform="translate(105.807,-30.909)"><g
                           id="g5676"><g
                             id="g5678"
                             transform="translate(-305.085,-448.45)"><text
                               transform="matrix(1,0,0,-1,305.085,448.45)"
                               style="font-variant:normal;font-weight:normal;font-size:9.96259975px;font-family:CMR10;-inkscape-font-specification:CMR10;writing-mode:lr-tb;fill:#000000;fill-opacity:1;fill-rule:nonzero;stroke:none"
                               id="text5682"><tspan
                                 x="0 6.6450543 11.626354 16.607655"
                                 y="0"
                                 sodipodi:role="line"
                                 id="tspan5680">1000</tspan></text>
<g
                               id="g5684"
                               transform="translate(305.085,448.45)" /></g></g><g
                           id="g5686"
                           transform="translate(-105.807,30.909)" /></g></g><g
                       id="g5688"><g
                         id="g5690"
                         transform="translate(171.906,-30.909)"><g
                           id="g5692"><g
                             id="g5694"
                             transform="translate(-371.184,-448.45)"><text
                               transform="matrix(1,0,0,-1,371.184,448.45)"
                               style="font-variant:normal;font-weight:normal;font-size:9.96259975px;font-family:CMR10;-inkscape-font-specification:CMR10;writing-mode:lr-tb;fill:#000000;fill-opacity:1;fill-rule:nonzero;stroke:none"
                               id="text5698"><tspan
                                 x="0 6.6450543 11.626354 16.607655"
                                 y="0"
                                 sodipodi:role="line"
                                 id="tspan5696">1500</tspan></text>
<g
                               id="g5700"
                               transform="translate(371.184,448.45)" /></g></g><g
                           id="g5702"
                           transform="translate(-171.906,30.909)" /></g></g><g
                       id="g5704"><g
                         id="g5706"
                         transform="translate(238.006,-30.909)"><g
                           id="g5708"><g
                             id="g5710"
                             transform="translate(-437.284,-448.45)"><text
                               transform="matrix(1,0,0,-1,437.284,448.45)"
                               style="font-variant:normal;font-weight:normal;font-size:9.96259975px;font-family:CMR10;-inkscape-font-specification:CMR10;writing-mode:lr-tb;fill:#000000;fill-opacity:1;fill-rule:nonzero;stroke:none"
                               id="text5714"><tspan
                                 x="0 6.6450543 11.626354 16.607655"
                                 y="0"
                                 sodipodi:role="line"
                                 id="tspan5712">2000</tspan></text>
<g
                               id="g5716"
                               transform="translate(437.284,448.45)" /></g></g><g
                           id="g5718"
                           transform="translate(-238.006,30.909)" /></g></g><g
                       id="g5720"><g
                         id="g5722"
                         transform="translate(-33.408,-4.439)"><g
                           id="g5724"><g
                             id="g5726"
                             transform="translate(-165.87,-474.92)"><text
                               transform="matrix(1,0,0,-1,165.87,474.92)"
                               style="font-variant:normal;font-weight:normal;font-size:9.96259975px;font-family:CMR10;-inkscape-font-specification:CMR10;writing-mode:lr-tb;fill:#000000;fill-opacity:1;fill-rule:nonzero;stroke:none"
                               id="text5730"><tspan
                                 x="0"
                                 y="0"
                                 id="tspan5728">0</tspan></text>
<g
                               id="g5732"
                               transform="translate(165.87,474.92)" /></g></g><g
                           id="g5734"
                           transform="translate(33.408,4.439)" /></g></g><g
                       id="g5736"><g
                         id="g5738"
                         transform="translate(-38.39,41.847)"><g
                           id="g5740"><g
                             id="g5742"
                             transform="translate(-160.888,-521.206)"><text
                               transform="matrix(1,0,0,-1,160.888,521.206)"
                               style="font-variant:normal;font-weight:normal;font-size:9.96259975px;font-family:CMR10;-inkscape-font-specification:CMR10;writing-mode:lr-tb;fill:#000000;fill-opacity:1;fill-rule:nonzero;stroke:none"
                               id="text5746"><tspan
                                 x="0 4.9812999"
                                 y="0"
                                 sodipodi:role="line"
                                 id="tspan5744">10</tspan></text>
<g
                               id="g5748"
                               transform="translate(160.888,521.206)" /></g></g><g
                           id="g5750"
                           transform="translate(38.39,-41.847)" /></g></g><g
                       id="g5752"><g
                         id="g5754"
                         transform="translate(-38.39,88.133)"><g
                           id="g5756"><g
                             id="g5758"
                             transform="translate(-160.888,-567.492)"><text
                               transform="matrix(1,0,0,-1,160.888,567.492)"
                               style="font-variant:normal;font-weight:normal;font-size:9.96259975px;font-family:CMR10;-inkscape-font-specification:CMR10;writing-mode:lr-tb;fill:#000000;fill-opacity:1;fill-rule:nonzero;stroke:none"
                               id="text5762"><tspan
                                 x="0 4.9812999"
                                 y="0"
                                 sodipodi:role="line"
                                 id="tspan5760">20</tspan></text>
<g
                               id="g5764"
                               transform="translate(160.888,567.492)" /></g></g><g
                           id="g5766"
                           transform="translate(38.39,-88.133)" /></g></g><g
                       id="g5768"><g
                         id="g5770"
                         transform="translate(-38.39,134.42)"><g
                           id="g5772"><g
                             id="g5774"
                             transform="translate(-160.888,-613.779)"><text
                               transform="matrix(1,0,0,-1,160.888,613.779)"
                               style="font-variant:normal;font-weight:normal;font-size:9.96259975px;font-family:CMR10;-inkscape-font-specification:CMR10;writing-mode:lr-tb;fill:#000000;fill-opacity:1;fill-rule:nonzero;stroke:none"
                               id="text5778"><tspan
                                 x="0 4.9812999"
                                 y="0"
                                 sodipodi:role="line"
                                 id="tspan5776">30</tspan></text>
<g
                               id="g5780"
                               transform="translate(160.888,613.779)" /></g></g><g
                           id="g5782"
                           transform="translate(38.39,-134.42)" /></g></g><g
                       id="g5784"><g
                         id="g5786"
                         transform="translate(-38.39,180.706)"><g
                           id="g5788"><g
                             id="g5790"
                             transform="translate(-160.888,-660.065)"><text
                               transform="matrix(1,0,0,-1,160.888,660.065)"
                               style="font-variant:normal;font-weight:normal;font-size:9.96259975px;font-family:CMR10;-inkscape-font-specification:CMR10;writing-mode:lr-tb;fill:#000000;fill-opacity:1;fill-rule:nonzero;stroke:none"
                               id="text5794"><tspan
                                 x="0 4.9812999"
                                 y="0"
                                 sodipodi:role="line"
                                 id="tspan5792">40</tspan></text>
<g
                               id="g5796"
                               transform="translate(160.888,660.065)" /></g></g><g
                           id="g5798"
                           transform="translate(38.39,-180.706)" /></g></g><g
                       id="g5800"><g
                         id="g5802"
                         transform="translate(-38.39,226.993)"><g
                           id="g5804"><g
                             id="g5806"
                             transform="translate(-160.888,-706.352)"><text
                               transform="matrix(1,0,0,-1,160.888,706.352)"
                               style="font-variant:normal;font-weight:normal;font-size:9.96259975px;font-family:CMR10;-inkscape-font-specification:CMR10;writing-mode:lr-tb;fill:#000000;fill-opacity:1;fill-rule:nonzero;stroke:none"
                               id="text5810"><tspan
                                 x="0 4.9812999"
                                 y="0"
                                 sodipodi:role="line"
                                 id="tspan5808">50</tspan></text>
<g
                               id="g5812"
                               transform="translate(160.888,706.352)" /></g></g><g
                           id="g5814"
                           transform="translate(38.39,-226.993)" /></g></g><g
                       id="g5816"
                       clip-path="url(#clipPath5820)"><g
                         id="g5822"><path
                           d="m 0,0 3.30501,1.5101 3.43721,1.80519 6.47788,4.47827 13.35227,9.94245 37.01627,32.93088 26.44018,21.03048 26.4402,20.80599 33.18245,28.62734 33.05025,31.8223 33.18245,26.33383 33.18242,30.40014"
                           style="fill:none;stroke:#ff0000;stroke-width:0.3985;stroke-linecap:butt;stroke-linejoin:miter;stroke-miterlimit:10;stroke-dasharray:none;stroke-opacity:1"
                           id="path5824"
                           inkscape:connector-curvature="0" /></g></g></g><g
                     id="g5826"><path
                       d="M 1.99255,0 C 1.99255,1.10046 1.10046,1.99255 0,1.99255 -1.10046,1.99255 -1.99255,1.10046 -1.99255,0 c 0,-1.10046 0.89209,-1.99255 1.99255,-1.99255 1.10046,0 1.99255,0.89209 1.99255,1.99255 z"
                       style="fill:#ff0000;fill-opacity:1;fill-rule:nonzero;stroke:#ff0000;stroke-width:0.3985;stroke-linecap:butt;stroke-linejoin:miter;stroke-miterlimit:10;stroke-dasharray:none;stroke-opacity:1"
                       id="path5828"
                       inkscape:connector-curvature="0" /><path
                       d="m 5.29756,1.5101 c 0,1.10047 -0.89207,1.99256 -1.99255,1.99256 -1.10047,0 -1.99256,-0.89209 -1.99256,-1.99256 0,-1.10048 0.89209,-1.99254 1.99256,-1.99254 1.10048,0 1.99255,0.89206 1.99255,1.99254 z"
                       style="fill:#ff0000;fill-opacity:1;fill-rule:nonzero;stroke:#ff0000;stroke-width:0.3985;stroke-linecap:butt;stroke-linejoin:miter;stroke-miterlimit:10;stroke-dasharray:none;stroke-opacity:1"
                       id="path5830"
                       inkscape:connector-curvature="0" /><path
                       d="m 8.73477,3.31529 c 0,1.10047 -0.89207,1.99256 -1.99255,1.99256 -1.10047,0 -1.99256,-0.89209 -1.99256,-1.99256 0,-1.10048 0.89209,-1.99255 1.99256,-1.99255 1.10048,0 1.99255,0.89207 1.99255,1.99255 z"
                       style="fill:#ff0000;fill-opacity:1;fill-rule:nonzero;stroke:#ff0000;stroke-width:0.3985;stroke-linecap:butt;stroke-linejoin:miter;stroke-miterlimit:10;stroke-dasharray:none;stroke-opacity:1"
                       id="path5832"
                       inkscape:connector-curvature="0" /><path
                       d="m 15.21265,7.79356 c 0,1.10047 -0.89209,1.99256 -1.99255,1.99256 -1.10049,0 -1.99256,-0.89209 -1.99256,-1.99256 0,-1.10048 0.89207,-1.99255 1.99256,-1.99255 1.10046,0 1.99255,0.89207 1.99255,1.99255 z"
                       style="fill:#ff0000;fill-opacity:1;fill-rule:nonzero;stroke:#ff0000;stroke-width:0.3985;stroke-linecap:butt;stroke-linejoin:miter;stroke-miterlimit:10;stroke-dasharray:none;stroke-opacity:1"
                       id="path5834"
                       inkscape:connector-curvature="0" /><path
                       d="m 28.56493,17.73601 c 0,1.10046 -0.89209,1.99255 -1.99256,1.99255 -1.10047,0 -1.99255,-0.89209 -1.99255,-1.99255 0,-1.10048 0.89208,-1.99256 1.99255,-1.99256 1.10047,0 1.99256,0.89208 1.99256,1.99256 z"
                       style="fill:#ff0000;fill-opacity:1;fill-rule:nonzero;stroke:#ff0000;stroke-width:0.3985;stroke-linecap:butt;stroke-linejoin:miter;stroke-miterlimit:10;stroke-dasharray:none;stroke-opacity:1"
                       id="path5836"
                       inkscape:connector-curvature="0" /><path
                       d="m 65.58119,50.66689 c 0,1.10046 -0.89209,1.99255 -1.99255,1.99255 -1.10048,0 -1.99256,-0.89209 -1.99256,-1.99255 0,-1.10049 0.89208,-1.99256 1.99256,-1.99256 1.10046,0 1.99255,0.89207 1.99255,1.99256 z"
                       style="fill:#ff0000;fill-opacity:1;fill-rule:nonzero;stroke:#ff0000;stroke-width:0.3985;stroke-linecap:butt;stroke-linejoin:miter;stroke-miterlimit:10;stroke-dasharray:none;stroke-opacity:1"
                       id="path5838"
                       inkscape:connector-curvature="0" /><path
                       d="m 92.02138,71.69737 c 0,1.10047 -0.89208,1.99256 -1.99256,1.99256 -1.10046,0 -1.99255,-0.89209 -1.99255,-1.99256 0,-1.10047 0.89209,-1.99255 1.99255,-1.99255 1.10048,0 1.99256,0.89208 1.99256,1.99255 z"
                       style="fill:#ff0000;fill-opacity:1;fill-rule:nonzero;stroke:#ff0000;stroke-width:0.3985;stroke-linecap:butt;stroke-linejoin:miter;stroke-miterlimit:10;stroke-dasharray:none;stroke-opacity:1"
                       id="path5840"
                       inkscape:connector-curvature="0" /><path
                       d="m 118.46158,92.50336 c 0,1.10048 -0.89209,1.99255 -1.99256,1.99255 -1.10047,0 -1.99255,-0.89207 -1.99255,-1.99255 0,-1.10046 0.89208,-1.99256 1.99255,-1.99256 1.10047,0 1.99256,0.8921 1.99256,1.99256 z"
                       style="fill:#ff0000;fill-opacity:1;fill-rule:nonzero;stroke:#ff0000;stroke-width:0.3985;stroke-linecap:butt;stroke-linejoin:miter;stroke-miterlimit:10;stroke-dasharray:none;stroke-opacity:1"
                       id="path5842"
                       inkscape:connector-curvature="0" /><path
                       d="m 151.64403,121.1307 c 0,1.10049 -0.89208,1.99256 -1.99256,1.99256 -1.10046,0 -1.99255,-0.89207 -1.99255,-1.99256 0,-1.10046 0.89209,-1.99255 1.99255,-1.99255 1.10048,0 1.99256,0.89209 1.99256,1.99255 z"
                       style="fill:#ff0000;fill-opacity:1;fill-rule:nonzero;stroke:#ff0000;stroke-width:0.3985;stroke-linecap:butt;stroke-linejoin:miter;stroke-miterlimit:10;stroke-dasharray:none;stroke-opacity:1"
                       id="path5844"
                       inkscape:connector-curvature="0" /><path
                       d="m 184.69427,152.953 c 0,1.10048 -0.89208,1.99256 -1.99255,1.99256 -1.10048,0 -1.99255,-0.89208 -1.99255,-1.99256 0,-1.10046 0.89207,-1.99255 1.99255,-1.99255 1.10047,0 1.99255,0.89209 1.99255,1.99255 z"
                       style="fill:#ff0000;fill-opacity:1;fill-rule:nonzero;stroke:#ff0000;stroke-width:0.3985;stroke-linecap:butt;stroke-linejoin:miter;stroke-miterlimit:10;stroke-dasharray:none;stroke-opacity:1"
                       id="path5846"
                       inkscape:connector-curvature="0" /><path
                       d="m 217.87672,179.28683 c 0,1.10048 -0.89209,1.99256 -1.99255,1.99256 -1.10048,0 -1.99255,-0.89208 -1.99255,-1.99256 0,-1.10046 0.89207,-1.99255 1.99255,-1.99255 1.10046,0 1.99255,0.89209 1.99255,1.99255 z"
                       style="fill:#ff0000;fill-opacity:1;fill-rule:nonzero;stroke:#ff0000;stroke-width:0.3985;stroke-linecap:butt;stroke-linejoin:miter;stroke-miterlimit:10;stroke-dasharray:none;stroke-opacity:1"
                       id="path5848"
                       inkscape:connector-curvature="0" /><path
                       d="m 251.05914,209.68697 c 0,1.10046 -0.89207,1.99255 -1.99255,1.99255 -1.10046,0 -1.99255,-0.89209 -1.99255,-1.99255 0,-1.10048 0.89209,-1.99256 1.99255,-1.99256 1.10048,0 1.99255,0.89208 1.99255,1.99256 z"
                       style="fill:#ff0000;fill-opacity:1;fill-rule:nonzero;stroke:#ff0000;stroke-width:0.3985;stroke-linecap:butt;stroke-linejoin:miter;stroke-miterlimit:10;stroke-dasharray:none;stroke-opacity:1"
                       id="path5850"
                       inkscape:connector-curvature="0" /></g><g
                     id="g5852"><g
                       id="g5854"
                       transform="translate(26.285,-45.218)"><g
                         id="g5856"><g
                           id="g5858"
                           transform="translate(-225.563,-434.141)"><text
                             transform="matrix(1,0,0,-1,225.563,434.141)"
                             style="font-variant:normal;font-weight:normal;font-size:9.96259975px;font-family:SFRM1000;-inkscape-font-specification:SFRM1000;writing-mode:lr-tb;fill:#000000;fill-opacity:1;fill-rule:nonzero;stroke:none"
                             id="text5862"><tspan
                               x="0 7.0555134 11.481896 17.015125 21.995428 27.528656 32.782932 37.763237 43.296463 48.276768 53.809994 58.790298 66.544189 72.077415 77.057724 82.59095 87.845222 93.239975 101.26086 105.68725 111.22047 116.7537 124.49763 129.47794 133.41615 136.18277 141.16307 149.46291 154.44321 162.19012 167.16048 172.14078 178.23489 183.76813 191.51505"
                               y="0"
                               sodipodi:role="line"
                               id="tspan5860">Вертикальное напряжение $\sigma_1$, кПа</tspan></text>
<g
                             id="g5864"
                             transform="translate(225.563,434.141)" /></g></g><g
                         id="g5866"
                         transform="translate(-26.285,45.218)" /></g></g><g
                     id="g5868"><g
                       id="g5870"
                       transform="rotate(90,-47.333,-0.385)"><g
                         id="g5872"><g
                           id="g5874"
                           transform="translate(-151.56,-526.307)"><text
                             transform="matrix(1,0,0,-1,151.56,526.307)"
                             style="font-variant:normal;font-weight:normal;font-size:9.96259975px;font-family:SFRM1000;-inkscape-font-specification:SFRM1000;writing-mode:lr-tb;fill:#000000;fill-opacity:1;fill-rule:nonzero;stroke:none"
                             id="text5882"><tspan
                               x="0 7.192997 12.726225 17.152609 22.685837 27.112219 32.645447 41.357742 46.338043 56.574615 61.55492 67.64904 73.182274 80.929192 89.229034 94.209335 100.84941"
                               y="0"
                               sodipodi:role="line"
                               id="tspan5876">Энергия$W$,кДж/м$</tspan><tspan
                               x="105.827"
                               y="-2.1029999"
                               id="tspan5878">ˆ</tspan><tspan
                               x="105.827 110.8073"
                               y="0"
                               sodipodi:role="line"
                               id="tspan5880">3$</tspan></text>
<g
                             id="g5884"
                             transform="translate(151.56,526.307)" /></g></g><g
                         id="g5886"
                         transform="translate(47.718,-46.948)" /></g></g></g></g><g
                 id="g5888"
                 transform="translate(-59.532,-50.857)" /></g><g
               id="g5890"
               transform="translate(34.624,29.887)" /></g><g
             id="g5892" /><g
             id="g5894" /></g></g></g><path
       style="fill:none;stroke:#000000;stroke-width:0.46771654;stroke-linecap:butt;stroke-linejoin:miter;stroke-miterlimit:4;stroke-dasharray:none;stroke-opacity:1"
       d="m 199.278,479.359 50.29049,26.67755"
       id="path1761"
       inkscape:connector-curvature="0"
       sodipodi:nodetypes="cc" /><path
       style="fill:none;stroke:#000000;stroke-width:0.4678441;stroke-linecap:butt;stroke-linejoin:miter;stroke-miterlimit:4;stroke-dasharray:none;stroke-opacity:1"
       d="M 448.34459,689.04597 201.83458,476.3674"
       id="path1763"
       inkscape:connector-curvature="0"
       sodipodi:nodetypes="cc" /><path
       style="fill:none;stroke:#000000;stroke-width:0.46771654;stroke-linecap:butt;stroke-linejoin:miter;stroke-miterlimit:4;stroke-dasharray:0.46771656, 1.40314967;stroke-dashoffset:0;stroke-opacity:1"
       d="m 215.49635,487.38619 0,-28.41534"
       id="path1765"
       inkscape:connector-curvature="0"
       sodipodi:nodetypes="cc" /></g></svg>