<?xml version="1.0" encoding="UTF-8" standalone="no"?>
<!-- Created with Inkscape (http://www.inkscape.org/) -->

<svg
   xmlns:dc="http://purl.org/dc/elements/1.1/"
   xmlns:cc="http://creativecommons.org/ns#"
   xmlns:rdf="http://www.w3.org/1999/02/22-rdf-syntax-ns#"
   xmlns:svg="http://www.w3.org/2000/svg"
   xmlns="http://www.w3.org/2000/svg"
   xmlns:sodipodi="http://sodipodi.sourceforge.net/DTD/sodipodi-0.dtd"
   xmlns:inkscape="http://www.inkscape.org/namespaces/inkscape"
   version="1.1"
   id="svg6460"
   xml:space="preserve"
   width="793.70135"
   height="1122.52"
   viewBox="0 0 793.70135 1122.52"
   sodipodi:docname="oedometerBecker+monolith+3.svg"
   inkscape:version="0.92.3 (2405546, 2018-03-11)"><metadata
     id="metadata6466"><rdf:RDF><cc:Work
         rdf:about=""><dc:format>image/svg+xml</dc:format><dc:type
           rdf:resource="http://purl.org/dc/dcmitype/StillImage" /><dc:title></dc:title></cc:Work></rdf:RDF></metadata><defs
     id="defs6464"><clipPath
       clipPathUnits="userSpaceOnUse"
       id="clipPath6712"><path
         d="M -24.90828,-20.97005 H 273.97609 V 230.65793 H -24.90828 Z"
         id="path6710"
         inkscape:connector-curvature="0" /></clipPath></defs><sodipodi:namedview
     pagecolor="#ffffff"
     bordercolor="#666666"
     borderopacity="1"
     objecttolerance="10"
     gridtolerance="10"
     guidetolerance="10"
     inkscape:pageopacity="0"
     inkscape:pageshadow="2"
     inkscape:window-width="1623"
     inkscape:window-height="1408"
     id="namedview6462"
     showgrid="false"
     inkscape:zoom="1.6819299"
     inkscape:cx="324.01334"
     inkscape:cy="721.93559"
     inkscape:window-x="62"
     inkscape:window-y="0"
     inkscape:window-maximized="0"
     inkscape:current-layer="g6468" /><g
     id="g6468"
     inkscape:groupmode="layer"
     inkscape:label="oedometerBecker+monolith"
     transform="matrix(1.3333333,0,0,-1.3333333,0,1122.52)"><g
       id="g6470"
       transform="translate(174.37,464.268)"><g
         id="g6472"><g
           id="g6474"><g
             id="g6476" /><g
             id="g6478" /><g
             id="g6480"><g
               id="g6482" /></g><g
             id="g6484" /><g
             id="g6486" /><g
             id="g6488" /><g
             id="g6490" /><g
             id="g6492"
             transform="translate(-34.624,-29.888)"><g
               id="g6494"
               transform="translate(59.532,50.857)"><g
                 id="g6496"><g
                   id="g6498"><g
                     id="g6500"><g
                       id="g6502"><g
                         id="g6504"><path
                           d="m -9.69968,-20.97005 v 4.2519 m 56.59085,-4.2519 v 4.2519 m 56.5909,-4.2519 v 4.2519 m 56.59088,-4.2519 v 4.2519 m 56.59088,-4.2519 v 4.2519 m 56.59088,-4.2519 v 4.2519 M -9.69968,230.65793 v -4.25189 m 56.59085,4.25189 v -4.25189 m 56.5909,4.25189 v -4.25189 m 56.59088,4.25189 v -4.25189 m 56.59088,4.25189 v -4.25189 m 56.59088,4.25189 v -4.25189"
                           style="fill:none;stroke:#808080;stroke-width:0.19925;stroke-linecap:butt;stroke-linejoin:miter;stroke-miterlimit:10;stroke-dasharray:none;stroke-opacity:1"
                           id="path6506"
                           inkscape:connector-curvature="0" /></g></g><g
                       id="g6508"><g
                         id="g6510"><path
                           d="m -24.90828,-4.53845 h 4.25258 m -4.25258,44.13131 h 4.25258 m -4.25258,44.13134 h 4.25258 m -4.25258,44.13135 h 4.25258 m -4.25258,44.13135 h 4.25258 m -4.25258,44.13134 h 4.25258 M 273.97609,-4.53845 h -4.25259 m 4.25259,44.13131 h -4.25259 m 4.25259,44.13134 h -4.25259 m 4.25259,44.13135 h -4.25259 m 4.25259,44.13135 h -4.25259 m 4.25259,44.13134 h -4.25259"
                           style="fill:none;stroke:#808080;stroke-width:0.19925;stroke-linecap:butt;stroke-linejoin:miter;stroke-miterlimit:10;stroke-dasharray:none;stroke-opacity:1"
                           id="path6512"
                           inkscape:connector-curvature="0" /></g></g><path
                       d="M -24.90828,-20.97005 V 230.65793 H 273.97609 V -20.97005 Z"
                       style="fill:none;stroke:#000000;stroke-width:0.3985;stroke-linecap:butt;stroke-linejoin:miter;stroke-miterlimit:10;stroke-dasharray:none;stroke-opacity:1"
                       id="path6514"
                       inkscape:connector-curvature="0" /><g
                       id="g6516"><g
                         id="g6518"
                         transform="translate(-12.19,-30.909)"><g
                           id="g6520"><g
                             id="g6522"
                             transform="translate(-187.088,-454.328)"><text
                               transform="matrix(1,0,0,-1,187.088,454.328)"
                               style="font-variant:normal;font-weight:normal;font-size:9.96259975px;font-family:CMR10;-inkscape-font-specification:CMR10;writing-mode:lr-tb;fill:#000000;fill-opacity:1;fill-rule:nonzero;stroke:none"
                               id="text6526"><tspan
                                 x="0"
                                 y="0"
                                 id="tspan6524">0</tspan></text>
<g
                               id="g6528"
                               transform="translate(187.088,454.328)" /></g></g><g
                           id="g6530"
                           transform="translate(12.19,30.909)" /></g></g><g
                       id="g6532"><g
                         id="g6534"
                         transform="translate(39.418,-30.909)"><g
                           id="g6536"><g
                             id="g6538"
                             transform="translate(-238.696,-454.328)"><text
                               transform="matrix(1,0,0,-1,238.696,454.328)"
                               style="font-variant:normal;font-weight:normal;font-size:9.96259975px;font-family:CMR10;-inkscape-font-specification:CMR10;writing-mode:lr-tb;fill:#000000;fill-opacity:1;fill-rule:nonzero;stroke:none"
                               id="text6542"><tspan
                                 x="0 4.9812999 9.9625998"
                                 y="0"
                                 sodipodi:role="line"
                                 id="tspan6540">500</tspan></text>
<g
                               id="g6544"
                               transform="translate(238.696,454.328)" /></g></g><g
                           id="g6546"
                           transform="translate(-39.418,30.909)" /></g></g><g
                       id="g6548"><g
                         id="g6550"
                         transform="translate(92.688,-30.909)"><g
                           id="g6552"><g
                             id="g6554"
                             transform="translate(-291.966,-454.328)"><text
                               transform="matrix(1,0,0,-1,291.966,454.328)"
                               style="font-variant:normal;font-weight:normal;font-size:9.96259975px;font-family:CMR10;-inkscape-font-specification:CMR10;writing-mode:lr-tb;fill:#000000;fill-opacity:1;fill-rule:nonzero;stroke:none"
                               id="text6558"><tspan
                                 x="0 6.6450543 11.626354 16.607655"
                                 y="0"
                                 sodipodi:role="line"
                                 id="tspan6556">1000</tspan></text>
<g
                               id="g6560"
                               transform="translate(291.966,454.328)" /></g></g><g
                           id="g6562"
                           transform="translate(-92.688,30.909)" /></g></g><g
                       id="g6564"><g
                         id="g6566"
                         transform="translate(149.278,-30.909)"><g
                           id="g6568"><g
                             id="g6570"
                             transform="translate(-348.556,-454.328)"><text
                               transform="matrix(1,0,0,-1,348.556,454.328)"
                               style="font-variant:normal;font-weight:normal;font-size:9.96259975px;font-family:CMR10;-inkscape-font-specification:CMR10;writing-mode:lr-tb;fill:#000000;fill-opacity:1;fill-rule:nonzero;stroke:none"
                               id="text6574"><tspan
                                 x="0 6.6450543 11.626354 16.607655"
                                 y="0"
                                 sodipodi:role="line"
                                 id="tspan6572">1500</tspan></text>
<g
                               id="g6576"
                               transform="translate(348.556,454.328)" /></g></g><g
                           id="g6578"
                           transform="translate(-149.278,30.909)" /></g></g><g
                       id="g6580"><g
                         id="g6582"
                         transform="translate(205.868,-30.909)"><g
                           id="g6584"><g
                             id="g6586"
                             transform="translate(-405.146,-454.328)"><text
                               transform="matrix(1,0,0,-1,405.146,454.328)"
                               style="font-variant:normal;font-weight:normal;font-size:9.96259975px;font-family:CMR10;-inkscape-font-specification:CMR10;writing-mode:lr-tb;fill:#000000;fill-opacity:1;fill-rule:nonzero;stroke:none"
                               id="text6590"><tspan
                                 x="0 6.6450543 11.626354 16.607655"
                                 y="0"
                                 sodipodi:role="line"
                                 id="tspan6588">2000</tspan></text>
<g
                               id="g6592"
                               transform="translate(405.146,454.328)" /></g></g><g
                           id="g6594"
                           transform="translate(-205.868,30.909)" /></g></g><g
                       id="g6596"><g
                         id="g6598"
                         transform="translate(262.458,-30.909)"><g
                           id="g6600"><g
                             id="g6602"
                             transform="translate(-461.736,-454.328)"><text
                               transform="matrix(1,0,0,-1,461.736,454.328)"
                               style="font-variant:normal;font-weight:normal;font-size:9.96259975px;font-family:CMR10;-inkscape-font-specification:CMR10;writing-mode:lr-tb;fill:#000000;fill-opacity:1;fill-rule:nonzero;stroke:none"
                               id="text6606"><tspan
                                 x="0 6.6450543 11.626354 16.607655"
                                 y="0"
                                 sodipodi:role="line"
                                 id="tspan6604">2500</tspan></text>
<g
                               id="g6608"
                               transform="translate(461.736,454.328)" /></g></g><g
                           id="g6610"
                           transform="translate(-262.458,30.909)" /></g></g><g
                       id="g6612"><g
                         id="g6614"
                         transform="translate(-33.408,-7.748)"><g
                           id="g6616"><g
                             id="g6618"
                             transform="translate(-165.87,-477.489)"><text
                               transform="matrix(1,0,0,-1,165.87,477.489)"
                               style="font-variant:normal;font-weight:normal;font-size:9.96259975px;font-family:CMR10;-inkscape-font-specification:CMR10;writing-mode:lr-tb;fill:#000000;fill-opacity:1;fill-rule:nonzero;stroke:none"
                               id="text6622"><tspan
                                 x="0"
                                 y="0"
                                 id="tspan6620">0</tspan></text>
<g
                               id="g6624"
                               transform="translate(165.87,477.489)" /></g></g><g
                           id="g6626"
                           transform="translate(33.408,7.748)" /></g></g><g
                       id="g6628"><g
                         id="g6630"
                         transform="translate(-38.39,36.382)"><g
                           id="g6632"><g
                             id="g6634"
                             transform="translate(-160.888,-521.619)"><text
                               transform="matrix(1,0,0,-1,160.888,521.619)"
                               style="font-variant:normal;font-weight:normal;font-size:9.96259975px;font-family:CMR10;-inkscape-font-specification:CMR10;writing-mode:lr-tb;fill:#000000;fill-opacity:1;fill-rule:nonzero;stroke:none"
                               id="text6638"><tspan
                                 x="0 4.9812999"
                                 y="0"
                                 sodipodi:role="line"
                                 id="tspan6636">10</tspan></text>
<g
                               id="g6640"
                               transform="translate(160.888,521.619)" /></g></g><g
                           id="g6642"
                           transform="translate(38.39,-36.382)" /></g></g><g
                       id="g6644"><g
                         id="g6646"
                         transform="translate(-38.39,80.513)"><g
                           id="g6648"><g
                             id="g6650"
                             transform="translate(-160.888,-565.75)"><text
                               transform="matrix(1,0,0,-1,160.888,565.75)"
                               style="font-variant:normal;font-weight:normal;font-size:9.96259975px;font-family:CMR10;-inkscape-font-specification:CMR10;writing-mode:lr-tb;fill:#000000;fill-opacity:1;fill-rule:nonzero;stroke:none"
                               id="text6654"><tspan
                                 x="0 4.9812999"
                                 y="0"
                                 sodipodi:role="line"
                                 id="tspan6652">20</tspan></text>
<g
                               id="g6656"
                               transform="translate(160.888,565.75)" /></g></g><g
                           id="g6658"
                           transform="translate(38.39,-80.513)" /></g></g><g
                       id="g6660"><g
                         id="g6662"
                         transform="translate(-38.39,124.644)"><g
                           id="g6664"><g
                             id="g6666"
                             transform="translate(-160.888,-609.881)"><text
                               transform="matrix(1,0,0,-1,160.888,609.881)"
                               style="font-variant:normal;font-weight:normal;font-size:9.96259975px;font-family:CMR10;-inkscape-font-specification:CMR10;writing-mode:lr-tb;fill:#000000;fill-opacity:1;fill-rule:nonzero;stroke:none"
                               id="text6670"><tspan
                                 x="0 4.9812999"
                                 y="0"
                                 sodipodi:role="line"
                                 id="tspan6668">30</tspan></text>
<g
                               id="g6672"
                               transform="translate(160.888,609.881)" /></g></g><g
                           id="g6674"
                           transform="translate(38.39,-124.644)" /></g></g><g
                       id="g6676"><g
                         id="g6678"
                         transform="translate(-38.39,168.775)"><g
                           id="g6680"><g
                             id="g6682"
                             transform="translate(-160.888,-654.012)"><text
                               transform="matrix(1,0,0,-1,160.888,654.012)"
                               style="font-variant:normal;font-weight:normal;font-size:9.96259975px;font-family:CMR10;-inkscape-font-specification:CMR10;writing-mode:lr-tb;fill:#000000;fill-opacity:1;fill-rule:nonzero;stroke:none"
                               id="text6686"><tspan
                                 x="0 4.9812999"
                                 y="0"
                                 sodipodi:role="line"
                                 id="tspan6684">40</tspan></text>
<g
                               id="g6688"
                               transform="translate(160.888,654.012)" /></g></g><g
                           id="g6690"
                           transform="translate(38.39,-168.775)" /></g></g><g
                       id="g6692"><g
                         id="g6694"
                         transform="translate(-38.39,212.906)"><g
                           id="g6696"><g
                             id="g6698"
                             transform="translate(-160.888,-698.143)"><text
                               transform="matrix(1,0,0,-1,160.888,698.143)"
                               style="font-variant:normal;font-weight:normal;font-size:9.96259975px;font-family:CMR10;-inkscape-font-specification:CMR10;writing-mode:lr-tb;fill:#000000;fill-opacity:1;fill-rule:nonzero;stroke:none"
                               id="text6702"><tspan
                                 x="0 4.9812999"
                                 y="0"
                                 sodipodi:role="line"
                                 id="tspan6700">50</tspan></text>
<g
                               id="g6704"
                               transform="translate(160.888,698.143)" /></g></g><g
                           id="g6706"
                           transform="translate(38.39,-212.906)" /></g></g><g
                       id="g6708"
                       clip-path="url(#clipPath6712)"><g
                         id="g6714"><path
                           d="m 0,0 11.13707,7.44164 11.35213,8.2702 11.38607,9.601 L 45.19345,34.9114 56.50032,45.53503 67.8864,56.74792 79.12535,68.10303 90.44353,79.15529 101.7617,89.4688 0.1471,90.65129 11.37474,90.34987 H 22.5684 l 22.7043,1.7008 22.5571,1.29163 22.62505,3.46408 22.62503,2.17314 22.70425,7.84502 22.50055,12.22261 22.65898,20.97519 22.80614,23.63432 22.65898,21.91121 22.659,24.11998 h -22.88535 l -11.21632,-4.48936 H 203.7498 192.53348 181.09079 l -11.36342,-3.60884 h -11.1371 -11.52191 l -11.21629,-2.94698 h -11.38611 -11.0918 l -11.30687,-2.28922 H 90.68121 L 79.44225,194.50601 68.04486,192.87921 56.73799,191.47375 45.35191,190.28947 34.03374,188.3636 22.72687,186.13638 11.37474,184.0503 0,181.95042"
                           style="fill:none;stroke:#ff0000;stroke-width:0.3985;stroke-linecap:butt;stroke-linejoin:miter;stroke-miterlimit:10;stroke-dasharray:none;stroke-opacity:1"
                           id="path6716"
                           inkscape:connector-curvature="0" /></g></g></g><g
                     id="g6718"><path
                       d="M 1.99255,0 C 1.99255,1.10046 1.10046,1.99255 0,1.99255 -1.10046,1.99255 -1.99255,1.10046 -1.99255,0 c 0,-1.10046 0.89209,-1.99255 1.99255,-1.99255 1.10046,0 1.99255,0.89209 1.99255,1.99255 z"
                       style="fill:#ff0000;fill-opacity:1;fill-rule:nonzero;stroke:#ff0000;stroke-width:0.3985;stroke-linecap:butt;stroke-linejoin:miter;stroke-miterlimit:10;stroke-dasharray:none;stroke-opacity:1"
                       id="path6720"
                       inkscape:connector-curvature="0" /><path
                       d="m 13.12962,7.44164 c 0,1.10046 -0.89209,1.99255 -1.99255,1.99255 -1.10048,0 -1.99255,-0.89209 -1.99255,-1.99255 0,-1.10048 0.89207,-1.99256 1.99255,-1.99256 1.10046,0 1.99255,0.89208 1.99255,1.99256 z"
                       style="fill:#ff0000;fill-opacity:1;fill-rule:nonzero;stroke:#ff0000;stroke-width:0.3985;stroke-linecap:butt;stroke-linejoin:miter;stroke-miterlimit:10;stroke-dasharray:none;stroke-opacity:1"
                       id="path6722"
                       inkscape:connector-curvature="0" /><path
                       d="m 24.48175,15.71184 c 0,1.10048 -0.89209,1.99255 -1.99255,1.99255 -1.10048,0 -1.99256,-0.89207 -1.99256,-1.99255 0,-1.10047 0.89208,-1.99256 1.99256,-1.99256 1.10046,0 1.99255,0.89209 1.99255,1.99256 z"
                       style="fill:#ff0000;fill-opacity:1;fill-rule:nonzero;stroke:#ff0000;stroke-width:0.3985;stroke-linecap:butt;stroke-linejoin:miter;stroke-miterlimit:10;stroke-dasharray:none;stroke-opacity:1"
                       id="path6724"
                       inkscape:connector-curvature="0" /><path
                       d="m 35.86783,25.31284 c 0,1.10047 -0.89208,1.99255 -1.99256,1.99255 -1.10046,0 -1.99255,-0.89208 -1.99255,-1.99255 0,-1.10047 0.89209,-1.99256 1.99255,-1.99256 1.10048,0 1.99256,0.89209 1.99256,1.99256 z"
                       style="fill:#ff0000;fill-opacity:1;fill-rule:nonzero;stroke:#ff0000;stroke-width:0.3985;stroke-linecap:butt;stroke-linejoin:miter;stroke-miterlimit:10;stroke-dasharray:none;stroke-opacity:1"
                       id="path6726"
                       inkscape:connector-curvature="0" /><path
                       d="m 47.186,34.9114 c 0,1.10049 -0.89207,1.99256 -1.99255,1.99256 -1.10046,0 -1.99255,-0.89207 -1.99255,-1.99256 0,-1.10046 0.89209,-1.99255 1.99255,-1.99255 1.10048,0 1.99255,0.89209 1.99255,1.99255 z"
                       style="fill:#ff0000;fill-opacity:1;fill-rule:nonzero;stroke:#ff0000;stroke-width:0.3985;stroke-linecap:butt;stroke-linejoin:miter;stroke-miterlimit:10;stroke-dasharray:none;stroke-opacity:1"
                       id="path6728"
                       inkscape:connector-curvature="0" /><path
                       d="m 58.49287,45.53503 c 0,1.10048 -0.89209,1.99256 -1.99255,1.99256 -1.10048,0 -1.99255,-0.89208 -1.99255,-1.99256 0,-1.10046 0.89207,-1.99255 1.99255,-1.99255 1.10046,0 1.99255,0.89209 1.99255,1.99255 z"
                       style="fill:#ff0000;fill-opacity:1;fill-rule:nonzero;stroke:#ff0000;stroke-width:0.3985;stroke-linecap:butt;stroke-linejoin:miter;stroke-miterlimit:10;stroke-dasharray:none;stroke-opacity:1"
                       id="path6730"
                       inkscape:connector-curvature="0" /><path
                       d="m 69.87895,56.74792 c 0,1.10048 -0.89207,1.99256 -1.99255,1.99256 -1.10047,0 -1.99256,-0.89208 -1.99256,-1.99256 0,-1.10046 0.89209,-1.99255 1.99256,-1.99255 1.10048,0 1.99255,0.89209 1.99255,1.99255 z"
                       style="fill:#ff0000;fill-opacity:1;fill-rule:nonzero;stroke:#ff0000;stroke-width:0.3985;stroke-linecap:butt;stroke-linejoin:miter;stroke-miterlimit:10;stroke-dasharray:none;stroke-opacity:1"
                       id="path6732"
                       inkscape:connector-curvature="0" /><path
                       d="m 81.1179,68.10303 c 0,1.10047 -0.89209,1.99255 -1.99255,1.99255 -1.10048,0 -1.99255,-0.89208 -1.99255,-1.99255 0,-1.10047 0.89207,-1.99256 1.99255,-1.99256 1.10046,0 1.99255,0.89209 1.99255,1.99256 z"
                       style="fill:#ff0000;fill-opacity:1;fill-rule:nonzero;stroke:#ff0000;stroke-width:0.3985;stroke-linecap:butt;stroke-linejoin:miter;stroke-miterlimit:10;stroke-dasharray:none;stroke-opacity:1"
                       id="path6734"
                       inkscape:connector-curvature="0" /><path
                       d="m 92.43608,79.15529 c 0,1.10048 -0.89209,1.99255 -1.99255,1.99255 -1.10048,0 -1.99256,-0.89207 -1.99256,-1.99255 0,-1.10047 0.89208,-1.99256 1.99256,-1.99256 1.10046,0 1.99255,0.89209 1.99255,1.99256 z"
                       style="fill:#ff0000;fill-opacity:1;fill-rule:nonzero;stroke:#ff0000;stroke-width:0.3985;stroke-linecap:butt;stroke-linejoin:miter;stroke-miterlimit:10;stroke-dasharray:none;stroke-opacity:1"
                       id="path6736"
                       inkscape:connector-curvature="0" /><path
                       d="m 103.75426,89.4688 c 0,1.10046 -0.89209,1.99255 -1.99256,1.99255 -1.10048,0 -1.99255,-0.89209 -1.99255,-1.99255 0,-1.10048 0.89207,-1.99256 1.99255,-1.99256 1.10047,0 1.99256,0.89208 1.99256,1.99256 z"
                       style="fill:#ff0000;fill-opacity:1;fill-rule:nonzero;stroke:#ff0000;stroke-width:0.3985;stroke-linecap:butt;stroke-linejoin:miter;stroke-miterlimit:10;stroke-dasharray:none;stroke-opacity:1"
                       id="path6738"
                       inkscape:connector-curvature="0" /><path
                       d="m 2.13965,90.65129 c 0,1.10046 -0.89208,1.99255 -1.99255,1.99255 -1.10045,0 -1.99254,-0.89209 -1.99254,-1.99255 0,-1.10048 0.89209,-1.99255 1.99254,-1.99255 1.10047,0 1.99255,0.89207 1.99255,1.99255 z"
                       style="fill:#ff0000;fill-opacity:1;fill-rule:nonzero;stroke:#ff0000;stroke-width:0.3985;stroke-linecap:butt;stroke-linejoin:miter;stroke-miterlimit:10;stroke-dasharray:none;stroke-opacity:1"
                       id="path6740"
                       inkscape:connector-curvature="0" /><path
                       d="m 13.3673,90.34987 c 0,1.10046 -0.8921,1.99255 -1.99256,1.99255 -1.10048,0 -1.99255,-0.89209 -1.99255,-1.99255 0,-1.10048 0.89207,-1.99255 1.99255,-1.99255 1.10046,0 1.99256,0.89207 1.99256,1.99255 z"
                       style="fill:#ff0000;fill-opacity:1;fill-rule:nonzero;stroke:#ff0000;stroke-width:0.3985;stroke-linecap:butt;stroke-linejoin:miter;stroke-miterlimit:10;stroke-dasharray:none;stroke-opacity:1"
                       id="path6742"
                       inkscape:connector-curvature="0" /><path
                       d="m 24.56096,90.34987 c 0,1.10046 -0.89208,1.99255 -1.99256,1.99255 -1.10046,0 -1.99255,-0.89209 -1.99255,-1.99255 0,-1.10048 0.89209,-1.99255 1.99255,-1.99255 1.10048,0 1.99256,0.89207 1.99256,1.99255 z"
                       style="fill:#ff0000;fill-opacity:1;fill-rule:nonzero;stroke:#ff0000;stroke-width:0.3985;stroke-linecap:butt;stroke-linejoin:miter;stroke-miterlimit:10;stroke-dasharray:none;stroke-opacity:1"
                       id="path6744"
                       inkscape:connector-curvature="0" /><path
                       d="m 47.26526,92.05067 c 0,1.10048 -0.89209,1.99256 -1.99256,1.99256 -1.10047,0 -1.99255,-0.89208 -1.99255,-1.99256 0,-1.10046 0.89208,-1.99255 1.99255,-1.99255 1.10047,0 1.99256,0.89209 1.99256,1.99255 z"
                       style="fill:#ff0000;fill-opacity:1;fill-rule:nonzero;stroke:#ff0000;stroke-width:0.3985;stroke-linecap:butt;stroke-linejoin:miter;stroke-miterlimit:10;stroke-dasharray:none;stroke-opacity:1"
                       id="path6746"
                       inkscape:connector-curvature="0" /><path
                       d="m 69.82236,93.3423 c 0,1.10046 -0.89208,1.99255 -1.99256,1.99255 -1.10046,0 -1.99255,-0.89209 -1.99255,-1.99255 0,-1.10048 0.89209,-1.99255 1.99255,-1.99255 1.10048,0 1.99256,0.89207 1.99256,1.99255 z"
                       style="fill:#ff0000;fill-opacity:1;fill-rule:nonzero;stroke:#ff0000;stroke-width:0.3985;stroke-linecap:butt;stroke-linejoin:miter;stroke-miterlimit:10;stroke-dasharray:none;stroke-opacity:1"
                       id="path6748"
                       inkscape:connector-curvature="0" /><path
                       d="m 92.4474,96.80638 c 0,1.10048 -0.89207,1.99255 -1.99255,1.99255 -1.10046,0 -1.99255,-0.89207 -1.99255,-1.99255 0,-1.10046 0.89209,-1.99255 1.99255,-1.99255 1.10048,0 1.99255,0.89209 1.99255,1.99255 z"
                       style="fill:#ff0000;fill-opacity:1;fill-rule:nonzero;stroke:#ff0000;stroke-width:0.3985;stroke-linecap:butt;stroke-linejoin:miter;stroke-miterlimit:10;stroke-dasharray:none;stroke-opacity:1"
                       id="path6750"
                       inkscape:connector-curvature="0" /><path
                       d="m 115.07243,98.97952 c 0,1.10048 -0.89209,1.99256 -1.99255,1.99256 -1.10048,0 -1.99255,-0.89208 -1.99255,-1.99256 0,-1.10046 0.89207,-1.99255 1.99255,-1.99255 1.10046,0 1.99255,0.89209 1.99255,1.99255 z"
                       style="fill:#ff0000;fill-opacity:1;fill-rule:nonzero;stroke:#ff0000;stroke-width:0.3985;stroke-linecap:butt;stroke-linejoin:miter;stroke-miterlimit:10;stroke-dasharray:none;stroke-opacity:1"
                       id="path6752"
                       inkscape:connector-curvature="0" /><path
                       d="m 137.77669,106.82454 c 0,1.10046 -0.89208,1.99256 -1.99256,1.99256 -1.10046,0 -1.99255,-0.8921 -1.99255,-1.99256 0,-1.10048 0.89209,-1.99255 1.99255,-1.99255 1.10048,0 1.99256,0.89207 1.99256,1.99255 z"
                       style="fill:#ff0000;fill-opacity:1;fill-rule:nonzero;stroke:#ff0000;stroke-width:0.3985;stroke-linecap:butt;stroke-linejoin:miter;stroke-miterlimit:10;stroke-dasharray:none;stroke-opacity:1"
                       id="path6754"
                       inkscape:connector-curvature="0" /><path
                       d="m 160.27724,119.04715 c 0,1.10048 -0.89209,1.99255 -1.99256,1.99255 -1.10048,0 -1.99255,-0.89207 -1.99255,-1.99255 0,-1.10046 0.89207,-1.99255 1.99255,-1.99255 1.10047,0 1.99256,0.89209 1.99256,1.99255 z"
                       style="fill:#ff0000;fill-opacity:1;fill-rule:nonzero;stroke:#ff0000;stroke-width:0.3985;stroke-linecap:butt;stroke-linejoin:miter;stroke-miterlimit:10;stroke-dasharray:none;stroke-opacity:1"
                       id="path6756"
                       inkscape:connector-curvature="0" /><path
                       d="m 182.93622,140.02234 c 0,1.10048 -0.89208,1.99256 -1.99256,1.99256 -1.10046,0 -1.99255,-0.89208 -1.99255,-1.99256 0,-1.10046 0.89209,-1.99255 1.99255,-1.99255 1.10048,0 1.99256,0.89209 1.99256,1.99255 z"
                       style="fill:#ff0000;fill-opacity:1;fill-rule:nonzero;stroke:#ff0000;stroke-width:0.3985;stroke-linecap:butt;stroke-linejoin:miter;stroke-miterlimit:10;stroke-dasharray:none;stroke-opacity:1"
                       id="path6758"
                       inkscape:connector-curvature="0" /><path
                       d="m 205.74236,163.65666 c 0,1.10048 -0.89209,1.99256 -1.99256,1.99256 -1.10048,0 -1.99255,-0.89208 -1.99255,-1.99256 0,-1.10046 0.89207,-1.99255 1.99255,-1.99255 1.10047,0 1.99256,0.89209 1.99256,1.99255 z"
                       style="fill:#ff0000;fill-opacity:1;fill-rule:nonzero;stroke:#ff0000;stroke-width:0.3985;stroke-linecap:butt;stroke-linejoin:miter;stroke-miterlimit:10;stroke-dasharray:none;stroke-opacity:1"
                       id="path6760"
                       inkscape:connector-curvature="0" /><path
                       d="m 228.40134,185.56787 c 0,1.10046 -0.89208,1.99255 -1.99256,1.99255 -1.10046,0 -1.99255,-0.89209 -1.99255,-1.99255 0,-1.10048 0.89209,-1.99255 1.99255,-1.99255 1.10048,0 1.99256,0.89207 1.99256,1.99255 z"
                       style="fill:#ff0000;fill-opacity:1;fill-rule:nonzero;stroke:#ff0000;stroke-width:0.3985;stroke-linecap:butt;stroke-linejoin:miter;stroke-miterlimit:10;stroke-dasharray:none;stroke-opacity:1"
                       id="path6762"
                       inkscape:connector-curvature="0" /><path
                       d="m 251.06033,209.68785 c 0,1.10048 -0.89209,1.99255 -1.99255,1.99255 -1.10048,0 -1.99255,-0.89207 -1.99255,-1.99255 0,-1.10046 0.89207,-1.99255 1.99255,-1.99255 1.10046,0 1.99255,0.89209 1.99255,1.99255 z"
                       style="fill:#ff0000;fill-opacity:1;fill-rule:nonzero;stroke:#ff0000;stroke-width:0.3985;stroke-linecap:butt;stroke-linejoin:miter;stroke-miterlimit:10;stroke-dasharray:none;stroke-opacity:1"
                       id="path6764"
                       inkscape:connector-curvature="0" /><path
                       d="m 228.17499,209.68785 c 0,1.10048 -0.89209,1.99255 -1.99256,1.99255 -1.10048,0 -1.99255,-0.89207 -1.99255,-1.99255 0,-1.10046 0.89207,-1.99255 1.99255,-1.99255 1.10047,0 1.99256,0.89209 1.99256,1.99255 z"
                       style="fill:#ff0000;fill-opacity:1;fill-rule:nonzero;stroke:#ff0000;stroke-width:0.3985;stroke-linecap:butt;stroke-linejoin:miter;stroke-miterlimit:10;stroke-dasharray:none;stroke-opacity:1"
                       id="path6766"
                       inkscape:connector-curvature="0" /><path
                       d="m 216.95866,205.19849 c 0,1.10046 -0.89209,1.99255 -1.99255,1.99255 -1.10048,0 -1.99255,-0.89209 -1.99255,-1.99255 0,-1.10049 0.89207,-1.99256 1.99255,-1.99256 1.10046,0 1.99255,0.89207 1.99255,1.99256 z"
                       style="fill:#ff0000;fill-opacity:1;fill-rule:nonzero;stroke:#ff0000;stroke-width:0.3985;stroke-linecap:butt;stroke-linejoin:miter;stroke-miterlimit:10;stroke-dasharray:none;stroke-opacity:1"
                       id="path6768"
                       inkscape:connector-curvature="0" /><path
                       d="m 205.74236,205.19849 c 0,1.10046 -0.89209,1.99255 -1.99256,1.99255 -1.10048,0 -1.99255,-0.89209 -1.99255,-1.99255 0,-1.10049 0.89207,-1.99256 1.99255,-1.99256 1.10047,0 1.99256,0.89207 1.99256,1.99256 z"
                       style="fill:#ff0000;fill-opacity:1;fill-rule:nonzero;stroke:#ff0000;stroke-width:0.3985;stroke-linecap:butt;stroke-linejoin:miter;stroke-miterlimit:10;stroke-dasharray:none;stroke-opacity:1"
                       id="path6770"
                       inkscape:connector-curvature="0" /><path
                       d="m 194.52603,205.19849 c 0,1.10046 -0.89209,1.99255 -1.99255,1.99255 -1.10048,0 -1.99256,-0.89209 -1.99256,-1.99255 0,-1.10049 0.89208,-1.99256 1.99256,-1.99256 1.10046,0 1.99255,0.89207 1.99255,1.99256 z"
                       style="fill:#ff0000;fill-opacity:1;fill-rule:nonzero;stroke:#ff0000;stroke-width:0.3985;stroke-linecap:butt;stroke-linejoin:miter;stroke-miterlimit:10;stroke-dasharray:none;stroke-opacity:1"
                       id="path6772"
                       inkscape:connector-curvature="0" /><path
                       d="m 183.08334,205.19849 c 0,1.10046 -0.89207,1.99255 -1.99255,1.99255 -1.10046,0 -1.99255,-0.89209 -1.99255,-1.99255 0,-1.10049 0.89209,-1.99256 1.99255,-1.99256 1.10048,0 1.99255,0.89207 1.99255,1.99256 z"
                       style="fill:#ff0000;fill-opacity:1;fill-rule:nonzero;stroke:#ff0000;stroke-width:0.3985;stroke-linecap:butt;stroke-linejoin:miter;stroke-miterlimit:10;stroke-dasharray:none;stroke-opacity:1"
                       id="path6774"
                       inkscape:connector-curvature="0" /><path
                       d="m 171.71992,201.58965 c 0,1.10046 -0.89207,1.99255 -1.99255,1.99255 -1.10047,0 -1.99255,-0.89209 -1.99255,-1.99255 0,-1.10048 0.89208,-1.99256 1.99255,-1.99256 1.10048,0 1.99255,0.89208 1.99255,1.99256 z"
                       style="fill:#ff0000;fill-opacity:1;fill-rule:nonzero;stroke:#ff0000;stroke-width:0.3985;stroke-linecap:butt;stroke-linejoin:miter;stroke-miterlimit:10;stroke-dasharray:none;stroke-opacity:1"
                       id="path6776"
                       inkscape:connector-curvature="0" /><path
                       d="m 160.58282,201.58965 c 0,1.10046 -0.89209,1.99255 -1.99255,1.99255 -1.10048,0 -1.99255,-0.89209 -1.99255,-1.99255 0,-1.10048 0.89207,-1.99256 1.99255,-1.99256 1.10046,0 1.99255,0.89208 1.99255,1.99256 z"
                       style="fill:#ff0000;fill-opacity:1;fill-rule:nonzero;stroke:#ff0000;stroke-width:0.3985;stroke-linecap:butt;stroke-linejoin:miter;stroke-miterlimit:10;stroke-dasharray:none;stroke-opacity:1"
                       id="path6778"
                       inkscape:connector-curvature="0" /><path
                       d="m 149.06091,201.58965 c 0,1.10046 -0.89209,1.99255 -1.99255,1.99255 -1.10048,0 -1.99256,-0.89209 -1.99256,-1.99255 0,-1.10048 0.89208,-1.99256 1.99256,-1.99256 1.10046,0 1.99255,0.89208 1.99255,1.99256 z"
                       style="fill:#ff0000;fill-opacity:1;fill-rule:nonzero;stroke:#ff0000;stroke-width:0.3985;stroke-linecap:butt;stroke-linejoin:miter;stroke-miterlimit:10;stroke-dasharray:none;stroke-opacity:1"
                       id="path6780"
                       inkscape:connector-curvature="0" /><path
                       d="m 137.84462,198.64267 c 0,1.10046 -0.89209,1.99255 -1.99255,1.99255 -1.10048,0 -1.99256,-0.89209 -1.99256,-1.99255 0,-1.10048 0.89208,-1.99255 1.99256,-1.99255 1.10046,0 1.99255,0.89207 1.99255,1.99255 z"
                       style="fill:#ff0000;fill-opacity:1;fill-rule:nonzero;stroke:#ff0000;stroke-width:0.3985;stroke-linecap:butt;stroke-linejoin:miter;stroke-miterlimit:10;stroke-dasharray:none;stroke-opacity:1"
                       id="path6782"
                       inkscape:connector-curvature="0" /><path
                       d="m 126.45851,198.64267 c 0,1.10046 -0.89207,1.99255 -1.99255,1.99255 -1.10046,0 -1.99256,-0.89209 -1.99256,-1.99255 0,-1.10048 0.8921,-1.99255 1.99256,-1.99255 1.10048,0 1.99255,0.89207 1.99255,1.99255 z"
                       style="fill:#ff0000;fill-opacity:1;fill-rule:nonzero;stroke:#ff0000;stroke-width:0.3985;stroke-linecap:butt;stroke-linejoin:miter;stroke-miterlimit:10;stroke-dasharray:none;stroke-opacity:1"
                       id="path6784"
                       inkscape:connector-curvature="0" /><path
                       d="m 115.36671,198.64267 c 0,1.10046 -0.89209,1.99255 -1.99255,1.99255 -1.10048,0 -1.99256,-0.89209 -1.99256,-1.99255 0,-1.10048 0.89208,-1.99255 1.99256,-1.99255 1.10046,0 1.99255,0.89207 1.99255,1.99255 z"
                       style="fill:#ff0000;fill-opacity:1;fill-rule:nonzero;stroke:#ff0000;stroke-width:0.3985;stroke-linecap:butt;stroke-linejoin:miter;stroke-miterlimit:10;stroke-dasharray:none;stroke-opacity:1"
                       id="path6786"
                       inkscape:connector-curvature="0" /><path
                       d="m 104.05984,196.35345 c 0,1.10048 -0.89208,1.99256 -1.99255,1.99256 -1.10046,0 -1.99255,-0.89208 -1.99255,-1.99256 0,-1.10046 0.89209,-1.99255 1.99255,-1.99255 1.10047,0 1.99255,0.89209 1.99255,1.99255 z"
                       style="fill:#ff0000;fill-opacity:1;fill-rule:nonzero;stroke:#ff0000;stroke-width:0.3985;stroke-linecap:butt;stroke-linejoin:miter;stroke-miterlimit:10;stroke-dasharray:none;stroke-opacity:1"
                       id="path6788"
                       inkscape:connector-curvature="0" /><path
                       d="m 92.67377,196.35345 c 0,1.10048 -0.89209,1.99256 -1.99256,1.99256 -1.10048,0 -1.99255,-0.89208 -1.99255,-1.99256 0,-1.10046 0.89207,-1.99255 1.99255,-1.99255 1.10047,0 1.99256,0.89209 1.99256,1.99255 z"
                       style="fill:#ff0000;fill-opacity:1;fill-rule:nonzero;stroke:#ff0000;stroke-width:0.3985;stroke-linecap:butt;stroke-linejoin:miter;stroke-miterlimit:10;stroke-dasharray:none;stroke-opacity:1"
                       id="path6790"
                       inkscape:connector-curvature="0" /><path
                       d="m 81.4348,194.50601 c 0,1.10047 -0.89208,1.99256 -1.99255,1.99256 -1.10047,0 -1.99256,-0.89209 -1.99256,-1.99256 0,-1.10048 0.89209,-1.99255 1.99256,-1.99255 1.10047,0 1.99255,0.89207 1.99255,1.99255 z"
                       style="fill:#ff0000;fill-opacity:1;fill-rule:nonzero;stroke:#ff0000;stroke-width:0.3985;stroke-linecap:butt;stroke-linejoin:miter;stroke-miterlimit:10;stroke-dasharray:none;stroke-opacity:1"
                       id="path6792"
                       inkscape:connector-curvature="0" /><path
                       d="m 70.03741,192.87921 c 0,1.10048 -0.89209,1.99256 -1.99255,1.99256 -1.10048,0 -1.99256,-0.89208 -1.99256,-1.99256 0,-1.10046 0.89208,-1.99255 1.99256,-1.99255 1.10046,0 1.99255,0.89209 1.99255,1.99255 z"
                       style="fill:#ff0000;fill-opacity:1;fill-rule:nonzero;stroke:#ff0000;stroke-width:0.3985;stroke-linecap:butt;stroke-linejoin:miter;stroke-miterlimit:10;stroke-dasharray:none;stroke-opacity:1"
                       id="path6794"
                       inkscape:connector-curvature="0" /><path
                       d="m 58.73055,191.47375 c 0,1.10048 -0.89209,1.99256 -1.99256,1.99256 -1.10048,0 -1.99255,-0.89208 -1.99255,-1.99256 0,-1.10046 0.89207,-1.99255 1.99255,-1.99255 1.10047,0 1.99256,0.89209 1.99256,1.99255 z"
                       style="fill:#ff0000;fill-opacity:1;fill-rule:nonzero;stroke:#ff0000;stroke-width:0.3985;stroke-linecap:butt;stroke-linejoin:miter;stroke-miterlimit:10;stroke-dasharray:none;stroke-opacity:1"
                       id="path6796"
                       inkscape:connector-curvature="0" /><path
                       d="m 47.34447,190.28947 c 0,1.10048 -0.89207,1.99256 -1.99256,1.99256 -1.10046,0 -1.99255,-0.89208 -1.99255,-1.99256 0,-1.10046 0.89209,-1.99255 1.99255,-1.99255 1.10049,0 1.99256,0.89209 1.99256,1.99255 z"
                       style="fill:#ff0000;fill-opacity:1;fill-rule:nonzero;stroke:#ff0000;stroke-width:0.3985;stroke-linecap:butt;stroke-linejoin:miter;stroke-miterlimit:10;stroke-dasharray:none;stroke-opacity:1"
                       id="path6798"
                       inkscape:connector-curvature="0" /><path
                       d="m 36.02629,188.3636 c 0,1.10048 -0.89207,1.99256 -1.99255,1.99256 -1.10047,0 -1.99256,-0.89208 -1.99256,-1.99256 0,-1.10046 0.89209,-1.99255 1.99256,-1.99255 1.10048,0 1.99255,0.89209 1.99255,1.99255 z"
                       style="fill:#ff0000;fill-opacity:1;fill-rule:nonzero;stroke:#ff0000;stroke-width:0.3985;stroke-linecap:butt;stroke-linejoin:miter;stroke-miterlimit:10;stroke-dasharray:none;stroke-opacity:1"
                       id="path6800"
                       inkscape:connector-curvature="0" /><path
                       d="m 24.71942,186.13638 c 0,1.10048 -0.89207,1.99256 -1.99255,1.99256 -1.10047,0 -1.99256,-0.89208 -1.99256,-1.99256 0,-1.10046 0.89209,-1.99255 1.99256,-1.99255 1.10048,0 1.99255,0.89209 1.99255,1.99255 z"
                       style="fill:#ff0000;fill-opacity:1;fill-rule:nonzero;stroke:#ff0000;stroke-width:0.3985;stroke-linecap:butt;stroke-linejoin:miter;stroke-miterlimit:10;stroke-dasharray:none;stroke-opacity:1"
                       id="path6802"
                       inkscape:connector-curvature="0" /><path
                       d="m 13.3673,184.0503 c 0,1.10047 -0.8921,1.99255 -1.99256,1.99255 -1.10048,0 -1.99255,-0.89208 -1.99255,-1.99255 0,-1.10047 0.89207,-1.99256 1.99255,-1.99256 1.10046,0 1.99256,0.89209 1.99256,1.99256 z"
                       style="fill:#ff0000;fill-opacity:1;fill-rule:nonzero;stroke:#ff0000;stroke-width:0.3985;stroke-linecap:butt;stroke-linejoin:miter;stroke-miterlimit:10;stroke-dasharray:none;stroke-opacity:1"
                       id="path6804"
                       inkscape:connector-curvature="0" /><path
                       d="m 1.99255,181.95042 c 0,1.10047 -0.89209,1.99256 -1.99255,1.99256 -1.10046,0 -1.99255,-0.89209 -1.99255,-1.99256 0,-1.10047 0.89209,-1.99255 1.99255,-1.99255 1.10046,0 1.99255,0.89208 1.99255,1.99255 z"
                       style="fill:#ff0000;fill-opacity:1;fill-rule:nonzero;stroke:#ff0000;stroke-width:0.3985;stroke-linecap:butt;stroke-linejoin:miter;stroke-miterlimit:10;stroke-dasharray:none;stroke-opacity:1"
                       id="path6806"
                       inkscape:connector-curvature="0" /></g><g
                     id="g6808"><g
                       id="g6810"
                       transform="translate(26.286,-45.218)"><g
                         id="g6812"><g
                           id="g6814"
                           transform="translate(-225.564,-440.019)"><text
                             transform="matrix(1,0,0,-1,225.564,440.019)"
                             style="font-variant:normal;font-weight:normal;font-size:9.96259975px;font-family:SFRM1000;-inkscape-font-specification:SFRM1000;writing-mode:lr-tb;fill:#000000;fill-opacity:1;fill-rule:nonzero;stroke:none"
                             id="text6818"><tspan
                               x="0 7.0555134 11.481896 17.015125 21.995428 27.528656 32.782932 37.763237 43.296463 48.276768 53.809994 58.790298 66.544189 72.077415 77.057724 82.59095 87.845222 93.239975 101.26086 105.68725 111.22047 116.7537 124.49763 129.47794 133.40619 136.17281 141.15311 149.46291 154.43326 162.18018 167.16048 172.14078 178.23489 183.76813 191.51505"
                               y="0"
                               sodipodi:role="line"
                               id="tspan6816">Вертикальное напряжение $\sigma_1$, кПа</tspan></text>
<g
                             id="g6820"
                             transform="translate(225.564,440.019)" /></g></g><g
                         id="g6822"
                         transform="translate(-26.286,45.218)" /></g></g><g
                     id="g6824"><g
                       id="g6826"
                       transform="rotate(90,-47.3335,-0.3845)"><g
                         id="g6828"><g
                           id="g6830"
                           transform="translate(-151.56,-532.186)"><text
                             transform="matrix(1,0,0,-1,151.56,532.186)"
                             style="font-variant:normal;font-weight:normal;font-size:9.96259975px;font-family:SFRM1000;-inkscape-font-specification:SFRM1000;writing-mode:lr-tb;fill:#000000;fill-opacity:1;fill-rule:nonzero;stroke:none"
                             id="text6838"><tspan
                               x="0 7.192997 12.726225 17.152609 22.685837 27.112219 32.645447 41.357742 46.338043 56.574615 61.55492 67.64904 73.182274 80.929192 89.229034 94.209335 100.84941"
                               y="0"
                               sodipodi:role="line"
                               id="tspan6832">Энергия$W$,кДж/м$</tspan><tspan
                               x="105.827"
                               y="-2.1029999"
                               id="tspan6834">ˆ</tspan><tspan
                               x="105.827 110.8073"
                               y="0"
                               sodipodi:role="line"
                               id="tspan6836">3$</tspan></text>
<g
                             id="g6840"
                             transform="translate(151.56,532.186)" /></g></g><g
                         id="g6842"
                         transform="translate(47.718,-46.949)" /></g></g></g></g><g
                 id="g6844"
                 transform="translate(-59.532,-50.857)" /></g><g
               id="g6846"
               transform="translate(34.624,29.887)" /></g><g
             id="g6848" /><g
             id="g6850" /></g></g></g><path
       style="fill:none;stroke:#000000;stroke-width:0.46771654;stroke-linecap:butt;stroke-linejoin:miter;stroke-miterlimit:4;stroke-dasharray:none;stroke-opacity:1"
       d="m 199.278,485.237 44.66403,29.7743"
       id="path1761"
       inkscape:connector-curvature="0"
       sodipodi:nodetypes="cc" /><path
       style="fill:none;stroke:#000000;stroke-width:0.4678441;stroke-linecap:butt;stroke-linejoin:miter;stroke-miterlimit:4;stroke-dasharray:none;stroke-opacity:1"
       d="M 417.13038,681.99443 211.86001,490.09954"
       id="path1763"
       inkscape:connector-curvature="0"
       sodipodi:nodetypes="cc" /><path
       style="fill:none;stroke:#000000;stroke-width:0.46771654;stroke-linecap:butt;stroke-linejoin:miter;stroke-miterlimit:4;stroke-dasharray:0.46771656, 1.40314967;stroke-dashoffset:0;stroke-opacity:1"
       d="m 224.90765,501.61506 v -36.7156"
       id="path1765"
       inkscape:connector-curvature="0"
       sodipodi:nodetypes="cc" /></g></svg>