<?xml version="1.0" encoding="UTF-8" standalone="no"?>
<!-- Created with Inkscape (http://www.inkscape.org/) -->

<svg
   xmlns:dc="http://purl.org/dc/elements/1.1/"
   xmlns:cc="http://creativecommons.org/ns#"
   xmlns:rdf="http://www.w3.org/1999/02/22-rdf-syntax-ns#"
   xmlns:svg="http://www.w3.org/2000/svg"
   xmlns="http://www.w3.org/2000/svg"
   xmlns:sodipodi="http://sodipodi.sourceforge.net/DTD/sodipodi-0.dtd"
   xmlns:inkscape="http://www.inkscape.org/namespaces/inkscape"
   version="1.1"
   id="svg16686"
   xml:space="preserve"
   width="793.70135"
   height="1122.52"
   viewBox="0 0 793.70135 1122.52"
   sodipodi:docname="oedometerBecker+monolith+14.svg"
   inkscape:version="0.92.3 (2405546, 2018-03-11)"><metadata
     id="metadata16692"><rdf:RDF><cc:Work
         rdf:about=""><dc:format>image/svg+xml</dc:format><dc:type
           rdf:resource="http://purl.org/dc/dcmitype/StillImage" /><dc:title></dc:title></cc:Work></rdf:RDF></metadata><defs
     id="defs16690"><clipPath
       clipPathUnits="userSpaceOnUse"
       id="clipPath16954"><path
         d="M -24.90811,-20.96925 H 273.97437 V 230.64919 H -24.90811 Z"
         id="path16952"
         inkscape:connector-curvature="0" /></clipPath></defs><sodipodi:namedview
     pagecolor="#ffffff"
     bordercolor="#666666"
     borderopacity="1"
     objecttolerance="10"
     gridtolerance="10"
     guidetolerance="10"
     inkscape:pageopacity="0"
     inkscape:pageshadow="2"
     inkscape:window-width="1243"
     inkscape:window-height="1408"
     id="namedview16688"
     showgrid="false"
     inkscape:zoom="1.189304"
     inkscape:cx="361.02714"
     inkscape:cy="612.29449"
     inkscape:window-x="62"
     inkscape:window-y="0"
     inkscape:window-maximized="0"
     inkscape:current-layer="g16694" /><g
     id="g16694"
     inkscape:groupmode="layer"
     inkscape:label="oedometerBecker+monolith"
     transform="matrix(1.3333333,0,0,-1.3333333,0,1122.52)"><g
       id="g16696"
       transform="translate(174.37,464.277)"><g
         id="g16698"><g
           id="g16700"><g
             id="g16702" /><g
             id="g16704" /><g
             id="g16706"><g
               id="g16708" /></g><g
             id="g16710" /><g
             id="g16712" /><g
             id="g16714" /><g
             id="g16716" /><g
             id="g16718"
             transform="translate(-34.624,-29.887)"><g
               id="g16720"
               transform="translate(59.532,50.856)"><g
                 id="g16722"><g
                   id="g16724"><g
                     id="g16726"><g
                       id="g16728"><g
                         id="g16730"><path
                           d="m 25.73935,-20.96925 v 4.25189 m 63.08668,-4.25189 v 4.25189 m 63.08669,-4.25189 v 4.25189 m 63.0867,-4.25189 v 4.25189 M 25.73935,230.64919 v -4.25189 m 63.08668,4.25189 v -4.25189 m 63.08669,4.25189 v -4.25189 m 63.0867,4.25189 v -4.25189"
                           style="fill:none;stroke:#808080;stroke-width:0.19925;stroke-linecap:butt;stroke-linejoin:miter;stroke-miterlimit:10;stroke-dasharray:none;stroke-opacity:1"
                           id="path16732"
                           inkscape:connector-curvature="0" /></g></g><g
                       id="g16734"><g
                         id="g16736"><path
                           d="m -24.90811,-13.4869 h 4.25273 m -4.25273,29.39603 h 4.25273 m -4.25273,29.39607 h 4.25273 m -4.25273,29.39606 h 4.25273 m -4.25273,29.39608 h 4.25273 m -4.25273,29.39606 h 4.25273 m -4.25273,29.39607 h 4.25273 m -4.25273,29.39605 h 4.25273 m -4.25273,29.39608 h 4.25273 M 273.97437,-13.4869 h -4.25277 m 4.25277,29.39603 h -4.25277 m 4.25277,29.39607 h -4.25277 m 4.25277,29.39606 h -4.25277 m 4.25277,29.39608 h -4.25277 m 4.25277,29.39606 h -4.25277 m 4.25277,29.39607 h -4.25277 m 4.25277,29.39605 h -4.25277 m 4.25277,29.39608 h -4.25277"
                           style="fill:none;stroke:#808080;stroke-width:0.19925;stroke-linecap:butt;stroke-linejoin:miter;stroke-miterlimit:10;stroke-dasharray:none;stroke-opacity:1"
                           id="path16738"
                           inkscape:connector-curvature="0" /></g></g><path
                       d="M -24.90811,-20.96925 V 230.64919 H 273.97437 V -20.96925 Z"
                       style="fill:none;stroke:#000000;stroke-width:0.3985;stroke-linecap:butt;stroke-linejoin:miter;stroke-miterlimit:10;stroke-dasharray:none;stroke-opacity:1"
                       id="path16740"
                       inkscape:connector-curvature="0" /><g
                       id="g16742"><g
                         id="g16744"
                         transform="translate(18.267,-30.908)"><g
                           id="g16746"><g
                             id="g16748"
                             transform="translate(-217.545,-454.338)"><text
                               transform="matrix(1,0,0,-1,217.545,454.338)"
                               style="font-variant:normal;font-weight:normal;font-size:9.96259975px;font-family:CMR10;-inkscape-font-specification:CMR10;writing-mode:lr-tb;fill:#000000;fill-opacity:1;fill-rule:nonzero;stroke:none"
                               id="text16752"><tspan
                                 x="0 4.9812999 9.9625998"
                                 y="0"
                                 sodipodi:role="line"
                                 id="tspan16750">500</tspan></text>
<g
                               id="g16754"
                               transform="translate(217.545,454.338)" /></g></g><g
                           id="g16756"
                           transform="translate(-18.267,30.908)" /></g></g><g
                       id="g16758"><g
                         id="g16760"
                         transform="translate(78.032,-30.908)"><g
                           id="g16762"><g
                             id="g16764"
                             transform="translate(-277.31,-454.338)"><text
                               transform="matrix(1,0,0,-1,277.31,454.338)"
                               style="font-variant:normal;font-weight:normal;font-size:9.96259975px;font-family:CMR10;-inkscape-font-specification:CMR10;writing-mode:lr-tb;fill:#000000;fill-opacity:1;fill-rule:nonzero;stroke:none"
                               id="text16768"><tspan
                                 x="0 6.6450543 11.626354 16.607655"
                                 y="0"
                                 sodipodi:role="line"
                                 id="tspan16766">1000</tspan></text>
<g
                               id="g16770"
                               transform="translate(277.31,454.338)" /></g></g><g
                           id="g16772"
                           transform="translate(-78.032,30.908)" /></g></g><g
                       id="g16774"><g
                         id="g16776"
                         transform="translate(141.118,-30.908)"><g
                           id="g16778"><g
                             id="g16780"
                             transform="translate(-340.396,-454.338)"><text
                               transform="matrix(1,0,0,-1,340.396,454.338)"
                               style="font-variant:normal;font-weight:normal;font-size:9.96259975px;font-family:CMR10;-inkscape-font-specification:CMR10;writing-mode:lr-tb;fill:#000000;fill-opacity:1;fill-rule:nonzero;stroke:none"
                               id="text16784"><tspan
                                 x="0 6.6450543 11.626354 16.607655"
                                 y="0"
                                 sodipodi:role="line"
                                 id="tspan16782">1500</tspan></text>
<g
                               id="g16786"
                               transform="translate(340.396,454.338)" /></g></g><g
                           id="g16788"
                           transform="translate(-141.118,30.908)" /></g></g><g
                       id="g16790"><g
                         id="g16792"
                         transform="translate(204.203,-30.908)"><g
                           id="g16794"><g
                             id="g16796"
                             transform="translate(-403.481,-454.338)"><text
                               transform="matrix(1,0,0,-1,403.481,454.338)"
                               style="font-variant:normal;font-weight:normal;font-size:9.96259975px;font-family:CMR10;-inkscape-font-specification:CMR10;writing-mode:lr-tb;fill:#000000;fill-opacity:1;fill-rule:nonzero;stroke:none"
                               id="text16800"><tspan
                                 x="0 6.6450543 11.626354 16.607655"
                                 y="0"
                                 sodipodi:role="line"
                                 id="tspan16798">2000</tspan></text>
<g
                               id="g16802"
                               transform="translate(403.481,454.338)" /></g></g><g
                           id="g16804"
                           transform="translate(-204.203,30.908)" /></g></g><g
                       id="g16806"><g
                         id="g16808"
                         transform="translate(-33.408,-16.697)"><g
                           id="g16810"><g
                             id="g16812"
                             transform="translate(-165.87,-468.549)"><text
                               transform="matrix(1,0,0,-1,165.87,468.549)"
                               style="font-variant:normal;font-weight:normal;font-size:9.96259975px;font-family:CMR10;-inkscape-font-specification:CMR10;writing-mode:lr-tb;fill:#000000;fill-opacity:1;fill-rule:nonzero;stroke:none"
                               id="text16816"><tspan
                                 x="0"
                                 y="0"
                                 id="tspan16814">0</tspan></text>
<g
                               id="g16818"
                               transform="translate(165.87,468.549)" /></g></g><g
                           id="g16820"
                           transform="translate(33.408,16.697)" /></g></g><g
                       id="g16822"><g
                         id="g16824"
                         transform="translate(-38.39,12.699)"><g
                           id="g16826"><g
                             id="g16828"
                             transform="translate(-160.888,-497.945)"><text
                               transform="matrix(1,0,0,-1,160.888,497.945)"
                               style="font-variant:normal;font-weight:normal;font-size:9.96259975px;font-family:CMR10;-inkscape-font-specification:CMR10;writing-mode:lr-tb;fill:#000000;fill-opacity:1;fill-rule:nonzero;stroke:none"
                               id="text16832"><tspan
                                 x="0 4.9812999"
                                 y="0"
                                 sodipodi:role="line"
                                 id="tspan16830">10</tspan></text>
<g
                               id="g16834"
                               transform="translate(160.888,497.945)" /></g></g><g
                           id="g16836"
                           transform="translate(38.39,-12.699)" /></g></g><g
                       id="g16838"><g
                         id="g16840"
                         transform="translate(-38.39,42.094)"><g
                           id="g16842"><g
                             id="g16844"
                             transform="translate(-160.888,-527.34)"><text
                               transform="matrix(1,0,0,-1,160.888,527.34)"
                               style="font-variant:normal;font-weight:normal;font-size:9.96259975px;font-family:CMR10;-inkscape-font-specification:CMR10;writing-mode:lr-tb;fill:#000000;fill-opacity:1;fill-rule:nonzero;stroke:none"
                               id="text16848"><tspan
                                 x="0 4.9812999"
                                 y="0"
                                 sodipodi:role="line"
                                 id="tspan16846">20</tspan></text>
<g
                               id="g16850"
                               transform="translate(160.888,527.34)" /></g></g><g
                           id="g16852"
                           transform="translate(38.39,-42.094)" /></g></g><g
                       id="g16854"><g
                         id="g16856"
                         transform="translate(-38.39,71.49)"><g
                           id="g16858"><g
                             id="g16860"
                             transform="translate(-160.888,-556.736)"><text
                               transform="matrix(1,0,0,-1,160.888,556.736)"
                               style="font-variant:normal;font-weight:normal;font-size:9.96259975px;font-family:CMR10;-inkscape-font-specification:CMR10;writing-mode:lr-tb;fill:#000000;fill-opacity:1;fill-rule:nonzero;stroke:none"
                               id="text16864"><tspan
                                 x="0 4.9812999"
                                 y="0"
                                 sodipodi:role="line"
                                 id="tspan16862">30</tspan></text>
<g
                               id="g16866"
                               transform="translate(160.888,556.736)" /></g></g><g
                           id="g16868"
                           transform="translate(38.39,-71.49)" /></g></g><g
                       id="g16870"><g
                         id="g16872"
                         transform="translate(-38.39,100.886)"><g
                           id="g16874"><g
                             id="g16876"
                             transform="translate(-160.888,-586.132)"><text
                               transform="matrix(1,0,0,-1,160.888,586.132)"
                               style="font-variant:normal;font-weight:normal;font-size:9.96259975px;font-family:CMR10;-inkscape-font-specification:CMR10;writing-mode:lr-tb;fill:#000000;fill-opacity:1;fill-rule:nonzero;stroke:none"
                               id="text16880"><tspan
                                 x="0 4.9812999"
                                 y="0"
                                 sodipodi:role="line"
                                 id="tspan16878">40</tspan></text>
<g
                               id="g16882"
                               transform="translate(160.888,586.132)" /></g></g><g
                           id="g16884"
                           transform="translate(38.39,-100.886)" /></g></g><g
                       id="g16886"><g
                         id="g16888"
                         transform="translate(-38.39,130.282)"><g
                           id="g16890"><g
                             id="g16892"
                             transform="translate(-160.888,-615.528)"><text
                               transform="matrix(1,0,0,-1,160.888,615.528)"
                               style="font-variant:normal;font-weight:normal;font-size:9.96259975px;font-family:CMR10;-inkscape-font-specification:CMR10;writing-mode:lr-tb;fill:#000000;fill-opacity:1;fill-rule:nonzero;stroke:none"
                               id="text16896"><tspan
                                 x="0 4.9812999"
                                 y="0"
                                 sodipodi:role="line"
                                 id="tspan16894">50</tspan></text>
<g
                               id="g16898"
                               transform="translate(160.888,615.528)" /></g></g><g
                           id="g16900"
                           transform="translate(38.39,-130.282)" /></g></g><g
                       id="g16902"><g
                         id="g16904"
                         transform="translate(-38.39,159.677)"><g
                           id="g16906"><g
                             id="g16908"
                             transform="translate(-160.888,-644.923)"><text
                               transform="matrix(1,0,0,-1,160.888,644.923)"
                               style="font-variant:normal;font-weight:normal;font-size:9.96259975px;font-family:CMR10;-inkscape-font-specification:CMR10;writing-mode:lr-tb;fill:#000000;fill-opacity:1;fill-rule:nonzero;stroke:none"
                               id="text16912"><tspan
                                 x="0 4.9812999"
                                 y="0"
                                 sodipodi:role="line"
                                 id="tspan16910">60</tspan></text>
<g
                               id="g16914"
                               transform="translate(160.888,644.923)" /></g></g><g
                           id="g16916"
                           transform="translate(38.39,-159.677)" /></g></g><g
                       id="g16918"><g
                         id="g16920"
                         transform="translate(-38.39,189.073)"><g
                           id="g16922"><g
                             id="g16924"
                             transform="translate(-160.888,-674.319)"><text
                               transform="matrix(1,0,0,-1,160.888,674.319)"
                               style="font-variant:normal;font-weight:normal;font-size:9.96259975px;font-family:CMR10;-inkscape-font-specification:CMR10;writing-mode:lr-tb;fill:#000000;fill-opacity:1;fill-rule:nonzero;stroke:none"
                               id="text16928"><tspan
                                 x="0 4.9812999"
                                 y="0"
                                 sodipodi:role="line"
                                 id="tspan16926">70</tspan></text>
<g
                               id="g16930"
                               transform="translate(160.888,674.319)" /></g></g><g
                           id="g16932"
                           transform="translate(38.39,-189.073)" /></g></g><g
                       id="g16934"><g
                         id="g16936"
                         transform="translate(-38.39,218.469)"><g
                           id="g16938"><g
                             id="g16940"
                             transform="translate(-160.888,-703.715)"><text
                               transform="matrix(1,0,0,-1,160.888,703.715)"
                               style="font-variant:normal;font-weight:normal;font-size:9.96259975px;font-family:CMR10;-inkscape-font-specification:CMR10;writing-mode:lr-tb;fill:#000000;fill-opacity:1;fill-rule:nonzero;stroke:none"
                               id="text16944"><tspan
                                 x="0 4.9812999"
                                 y="0"
                                 sodipodi:role="line"
                                 id="tspan16942">80</tspan></text>
<g
                               id="g16946"
                               transform="translate(160.888,703.715)" /></g></g><g
                           id="g16948"
                           transform="translate(38.39,-218.469)" /></g></g><g
                       id="g16950"
                       clip-path="url(#clipPath16954)"><g
                         id="g16956"><path
                           d="m 0,0 21.7018,12.3522 12.61734,6.85224 6.43483,3.48932 6.30867,4.73274 h -6.30867 -6.18248 l 12.49115,0.91055 25.48704,21.50324 24.98232,22.81134 25.36085,17.18934 25.10849,24.15476 h -25.10849 25.23467 l 37.85202,33.33513 63.08668,62.34904"
                           style="fill:none;stroke:#ff0000;stroke-width:0.3985;stroke-linecap:butt;stroke-linejoin:miter;stroke-miterlimit:10;stroke-dasharray:none;stroke-opacity:1"
                           id="path16958"
                           inkscape:connector-curvature="0" /></g></g></g><g
                     id="g16960"><path
                       d="M 1.99255,0 C 1.99255,1.10046 1.10046,1.99255 0,1.99255 -1.10046,1.99255 -1.99255,1.10046 -1.99255,0 c 0,-1.10046 0.89209,-1.99255 1.99255,-1.99255 1.10046,0 1.99255,0.89209 1.99255,1.99255 z"
                       style="fill:#ff0000;fill-opacity:1;fill-rule:nonzero;stroke:#ff0000;stroke-width:0.3985;stroke-linecap:butt;stroke-linejoin:miter;stroke-miterlimit:10;stroke-dasharray:none;stroke-opacity:1"
                       id="path16962"
                       inkscape:connector-curvature="0" /><path
                       d="m 23.69435,12.3522 c 0,1.10048 -0.89207,1.99256 -1.99255,1.99256 -1.10047,0 -1.99256,-0.89208 -1.99256,-1.99256 0,-1.10046 0.89209,-1.99255 1.99256,-1.99255 1.10048,0 1.99255,0.89209 1.99255,1.99255 z"
                       style="fill:#ff0000;fill-opacity:1;fill-rule:nonzero;stroke:#ff0000;stroke-width:0.3985;stroke-linecap:butt;stroke-linejoin:miter;stroke-miterlimit:10;stroke-dasharray:none;stroke-opacity:1"
                       id="path16964"
                       inkscape:connector-curvature="0" /><path
                       d="m 36.31169,19.20444 c 0,1.10048 -0.89207,1.99255 -1.99255,1.99255 -1.10047,0 -1.99256,-0.89207 -1.99256,-1.99255 0,-1.10047 0.89209,-1.99256 1.99256,-1.99256 1.10048,0 1.99255,0.89209 1.99255,1.99256 z"
                       style="fill:#ff0000;fill-opacity:1;fill-rule:nonzero;stroke:#ff0000;stroke-width:0.3985;stroke-linecap:butt;stroke-linejoin:miter;stroke-miterlimit:10;stroke-dasharray:none;stroke-opacity:1"
                       id="path16966"
                       inkscape:connector-curvature="0" /><path
                       d="m 42.74652,22.69376 c 0,1.10046 -0.89207,1.99255 -1.99255,1.99255 -1.10047,0 -1.99256,-0.89209 -1.99256,-1.99255 0,-1.10048 0.89209,-1.99256 1.99256,-1.99256 1.10048,0 1.99255,0.89208 1.99255,1.99256 z"
                       style="fill:#ff0000;fill-opacity:1;fill-rule:nonzero;stroke:#ff0000;stroke-width:0.3985;stroke-linecap:butt;stroke-linejoin:miter;stroke-miterlimit:10;stroke-dasharray:none;stroke-opacity:1"
                       id="path16968"
                       inkscape:connector-curvature="0" /><path
                       d="m 49.05519,27.4265 c 0,1.10048 -0.89207,1.99255 -1.99255,1.99255 -1.10047,0 -1.99256,-0.89207 -1.99256,-1.99255 0,-1.10047 0.89209,-1.99256 1.99256,-1.99256 1.10048,0 1.99255,0.89209 1.99255,1.99256 z"
                       style="fill:#ff0000;fill-opacity:1;fill-rule:nonzero;stroke:#ff0000;stroke-width:0.3985;stroke-linecap:butt;stroke-linejoin:miter;stroke-miterlimit:10;stroke-dasharray:none;stroke-opacity:1"
                       id="path16970"
                       inkscape:connector-curvature="0" /><path
                       d="m 42.74652,27.4265 c 0,1.10048 -0.89207,1.99255 -1.99255,1.99255 -1.10047,0 -1.99256,-0.89207 -1.99256,-1.99255 0,-1.10047 0.89209,-1.99256 1.99256,-1.99256 1.10048,0 1.99255,0.89209 1.99255,1.99256 z"
                       style="fill:#ff0000;fill-opacity:1;fill-rule:nonzero;stroke:#ff0000;stroke-width:0.3985;stroke-linecap:butt;stroke-linejoin:miter;stroke-miterlimit:10;stroke-dasharray:none;stroke-opacity:1"
                       id="path16972"
                       inkscape:connector-curvature="0" /><path
                       d="m 36.56404,27.4265 c 0,1.10048 -0.89209,1.99255 -1.99255,1.99255 -1.10048,0 -1.99256,-0.89207 -1.99256,-1.99255 0,-1.10047 0.89208,-1.99256 1.99256,-1.99256 1.10046,0 1.99255,0.89209 1.99255,1.99256 z"
                       style="fill:#ff0000;fill-opacity:1;fill-rule:nonzero;stroke:#ff0000;stroke-width:0.3985;stroke-linecap:butt;stroke-linejoin:miter;stroke-miterlimit:10;stroke-dasharray:none;stroke-opacity:1"
                       id="path16974"
                       inkscape:connector-curvature="0" /><path
                       d="m 49.05519,28.33705 c 0,1.10048 -0.89207,1.99255 -1.99255,1.99255 -1.10047,0 -1.99256,-0.89207 -1.99256,-1.99255 0,-1.10046 0.89209,-1.99255 1.99256,-1.99255 1.10048,0 1.99255,0.89209 1.99255,1.99255 z"
                       style="fill:#ff0000;fill-opacity:1;fill-rule:nonzero;stroke:#ff0000;stroke-width:0.3985;stroke-linecap:butt;stroke-linejoin:miter;stroke-miterlimit:10;stroke-dasharray:none;stroke-opacity:1"
                       id="path16976"
                       inkscape:connector-curvature="0" /><path
                       d="m 74.54224,49.84029 c 0,1.10048 -0.89208,1.99255 -1.99256,1.99255 -1.10046,0 -1.99255,-0.89207 -1.99255,-1.99255 0,-1.10047 0.89209,-1.99256 1.99255,-1.99256 1.10048,0 1.99256,0.89209 1.99256,1.99256 z"
                       style="fill:#ff0000;fill-opacity:1;fill-rule:nonzero;stroke:#ff0000;stroke-width:0.3985;stroke-linecap:butt;stroke-linejoin:miter;stroke-miterlimit:10;stroke-dasharray:none;stroke-opacity:1"
                       id="path16978"
                       inkscape:connector-curvature="0" /><path
                       d="m 99.52455,72.65163 c 0,1.10047 -0.89209,1.99255 -1.99255,1.99255 -1.10048,0 -1.99256,-0.89208 -1.99256,-1.99255 0,-1.10047 0.89208,-1.99256 1.99256,-1.99256 1.10046,0 1.99255,0.89209 1.99255,1.99256 z"
                       style="fill:#ff0000;fill-opacity:1;fill-rule:nonzero;stroke:#ff0000;stroke-width:0.3985;stroke-linecap:butt;stroke-linejoin:miter;stroke-miterlimit:10;stroke-dasharray:none;stroke-opacity:1"
                       id="path16980"
                       inkscape:connector-curvature="0" /><path
                       d="m 124.8854,89.84097 c 0,1.10048 -0.89208,1.99256 -1.99255,1.99256 -1.10048,0 -1.99255,-0.89208 -1.99255,-1.99256 0,-1.10046 0.89207,-1.99255 1.99255,-1.99255 1.10047,0 1.99255,0.89209 1.99255,1.99255 z"
                       style="fill:#ff0000;fill-opacity:1;fill-rule:nonzero;stroke:#ff0000;stroke-width:0.3985;stroke-linecap:butt;stroke-linejoin:miter;stroke-miterlimit:10;stroke-dasharray:none;stroke-opacity:1"
                       id="path16982"
                       inkscape:connector-curvature="0" /><path
                       d="m 149.9939,113.99573 c 0,1.10046 -0.89208,1.99255 -1.99256,1.99255 -1.10046,0 -1.99255,-0.89209 -1.99255,-1.99255 0,-1.10048 0.89209,-1.99256 1.99255,-1.99256 1.10048,0 1.99256,0.89208 1.99256,1.99256 z"
                       style="fill:#ff0000;fill-opacity:1;fill-rule:nonzero;stroke:#ff0000;stroke-width:0.3985;stroke-linecap:butt;stroke-linejoin:miter;stroke-miterlimit:10;stroke-dasharray:none;stroke-opacity:1"
                       id="path16984"
                       inkscape:connector-curvature="0" /><path
                       d="m 124.8854,113.99573 c 0,1.10046 -0.89208,1.99255 -1.99255,1.99255 -1.10048,0 -1.99255,-0.89209 -1.99255,-1.99255 0,-1.10048 0.89207,-1.99256 1.99255,-1.99256 1.10047,0 1.99255,0.89208 1.99255,1.99256 z"
                       style="fill:#ff0000;fill-opacity:1;fill-rule:nonzero;stroke:#ff0000;stroke-width:0.3985;stroke-linecap:butt;stroke-linejoin:miter;stroke-miterlimit:10;stroke-dasharray:none;stroke-opacity:1"
                       id="path16986"
                       inkscape:connector-curvature="0" /><path
                       d="m 150.12007,113.99573 c 0,1.10046 -0.89207,1.99255 -1.99255,1.99255 -1.10047,0 -1.99256,-0.89209 -1.99256,-1.99255 0,-1.10048 0.89209,-1.99256 1.99256,-1.99256 1.10048,0 1.99255,0.89208 1.99255,1.99256 z"
                       style="fill:#ff0000;fill-opacity:1;fill-rule:nonzero;stroke:#ff0000;stroke-width:0.3985;stroke-linecap:butt;stroke-linejoin:miter;stroke-miterlimit:10;stroke-dasharray:none;stroke-opacity:1"
                       id="path16988"
                       inkscape:connector-curvature="0" /><path
                       d="m 187.97209,147.33086 c 0,1.10048 -0.89209,1.99255 -1.99255,1.99255 -1.10048,0 -1.99256,-0.89207 -1.99256,-1.99255 0,-1.10046 0.89208,-1.99256 1.99256,-1.99256 1.10046,0 1.99255,0.8921 1.99255,1.99256 z"
                       style="fill:#ff0000;fill-opacity:1;fill-rule:nonzero;stroke:#ff0000;stroke-width:0.3985;stroke-linecap:butt;stroke-linejoin:miter;stroke-miterlimit:10;stroke-dasharray:none;stroke-opacity:1"
                       id="path16990"
                       inkscape:connector-curvature="0" /><path
                       d="m 251.05878,209.6799 c 0,1.10048 -0.89208,1.99255 -1.99256,1.99255 -1.10046,0 -1.99255,-0.89207 -1.99255,-1.99255 0,-1.10046 0.89209,-1.99255 1.99255,-1.99255 1.10048,0 1.99256,0.89209 1.99256,1.99255 z"
                       style="fill:#ff0000;fill-opacity:1;fill-rule:nonzero;stroke:#ff0000;stroke-width:0.3985;stroke-linecap:butt;stroke-linejoin:miter;stroke-miterlimit:10;stroke-dasharray:none;stroke-opacity:1"
                       id="path16992"
                       inkscape:connector-curvature="0" /></g><g
                     id="g16994"><g
                       id="g16996"
                       transform="translate(26.285,-45.217)"><g
                         id="g16998"><g
                           id="g17000"
                           transform="translate(-225.563,-440.029)"><text
                             transform="matrix(1,0,0,-1,225.563,440.029)"
                             style="font-variant:normal;font-weight:normal;font-size:9.96259975px;font-family:SFRM1000;-inkscape-font-specification:SFRM1000;writing-mode:lr-tb;fill:#000000;fill-opacity:1;fill-rule:nonzero;stroke:none"
                             id="text17004"><tspan
                               x="0 7.0555134 11.481896 17.015125 21.995428 27.528656 32.782932 37.763237 43.296463 48.276768 53.809994 58.790298 66.544189 72.077415 77.057724 82.59095 87.845222 93.239975 101.26086 105.68725 111.22047 116.7537 124.49763 129.47794 133.40619 136.18277 141.15311 149.46291 154.43326 162.18018 167.16048 172.14078 178.23489 183.76813 191.51505"
                               y="0"
                               sodipodi:role="line"
                               id="tspan17002">Вертикальное напряжение $\sigma_1$, кПа</tspan></text>
<g
                             id="g17006"
                             transform="translate(225.563,440.029)" /></g></g><g
                         id="g17008"
                         transform="translate(-26.285,45.217)" /></g></g><g
                     id="g17010"><g
                       id="g17012"
                       transform="rotate(90,-47.3315,-0.3865)"><g
                         id="g17014"><g
                           id="g17016"
                           transform="translate(-151.56,-532.191)"><text
                             transform="matrix(1,0,0,-1,151.56,532.191)"
                             style="font-variant:normal;font-weight:normal;font-size:9.96259975px;font-family:SFRM1000;-inkscape-font-specification:SFRM1000;writing-mode:lr-tb;fill:#000000;fill-opacity:1;fill-rule:nonzero;stroke:none"
                             id="text17024"><tspan
                               x="0 7.192997 12.726225 17.152609 22.685837 27.112219 32.645447 41.357742 46.338043 56.574615 61.55492 67.64904 73.182274 80.929192 89.229034 94.209335 100.84941"
                               y="0"
                               sodipodi:role="line"
                               id="tspan17018">Энергия$W$,кДж/м$</tspan><tspan
                               x="105.827"
                               y="-2.1029999"
                               id="tspan17020">ˆ</tspan><tspan
                               x="105.827 110.8073"
                               y="0"
                               sodipodi:role="line"
                               id="tspan17022">3$</tspan></text>
<g
                             id="g17026"
                             transform="translate(151.56,532.191)" /></g></g><g
                         id="g17028"
                         transform="translate(47.718,-46.945)" /></g></g></g></g><g
                 id="g17030"
                 transform="translate(-59.532,-50.856)" /></g><g
               id="g17032"
               transform="translate(34.624,29.887)" /></g><g
             id="g17034" /><g
             id="g17036" /></g></g></g><path
       style="fill:none;stroke:#000000;stroke-width:0.46771654;stroke-linecap:butt;stroke-linejoin:miter;stroke-miterlimit:4;stroke-dasharray:none;stroke-opacity:1"
       d="m 199.278,485.246 82.84237,46.07491"
       id="path1761"
       inkscape:connector-curvature="0"
       sodipodi:nodetypes="cc" /><path
       style="fill:none;stroke:#000000;stroke-width:0.4678441;stroke-linecap:butt;stroke-linejoin:miter;stroke-miterlimit:4;stroke-dasharray:none;stroke-opacity:1"
       d="M 448.34451,694.935 247.14853,503.48603"
       id="path1763"
       inkscape:connector-curvature="0"
       sodipodi:nodetypes="cc" /><path
       style="fill:none;stroke:#000000;stroke-width:0.46771654;stroke-linecap:butt;stroke-linejoin:miter;stroke-miterlimit:4;stroke-dasharray:0.46771656, 1.40314967;stroke-dashoffset:0;stroke-opacity:1"
       d="m 268.7253,523.17141 0,-57.92851"
       id="path1765"
       inkscape:connector-curvature="0"
       sodipodi:nodetypes="cc" /></g></svg>