<?xml version="1.0" encoding="UTF-8" standalone="no"?>
<!-- Created with Inkscape (http://www.inkscape.org/) -->

<svg
   xmlns:dc="http://purl.org/dc/elements/1.1/"
   xmlns:cc="http://creativecommons.org/ns#"
   xmlns:rdf="http://www.w3.org/1999/02/22-rdf-syntax-ns#"
   xmlns:svg="http://www.w3.org/2000/svg"
   xmlns="http://www.w3.org/2000/svg"
   xmlns:sodipodi="http://sodipodi.sourceforge.net/DTD/sodipodi-0.dtd"
   xmlns:inkscape="http://www.inkscape.org/namespaces/inkscape"
   version="1.1"
   id="svg10028"
   xml:space="preserve"
   width="793.70135"
   height="1122.52"
   viewBox="0 0 793.70135 1122.52"
   sodipodi:docname="oedometerBecker+monolith+7.svg"
   inkscape:version="0.92.3 (2405546, 2018-03-11)"><metadata
     id="metadata10034"><rdf:RDF><cc:Work
         rdf:about=""><dc:format>image/svg+xml</dc:format><dc:type
           rdf:resource="http://purl.org/dc/dcmitype/StillImage" /><dc:title></dc:title></cc:Work></rdf:RDF></metadata><defs
     id="defs10032"><clipPath
       clipPathUnits="userSpaceOnUse"
       id="clipPath10296"><path
         d="M -24.90804,-20.96983 H 273.97339 V 230.65544 H -24.90804 Z"
         id="path10294"
         inkscape:connector-curvature="0" /></clipPath></defs><sodipodi:namedview
     pagecolor="#ffffff"
     bordercolor="#666666"
     borderopacity="1"
     objecttolerance="10"
     gridtolerance="10"
     guidetolerance="10"
     inkscape:pageopacity="0"
     inkscape:pageshadow="2"
     inkscape:window-width="1243"
     inkscape:window-height="1408"
     id="namedview10030"
     showgrid="false"
     inkscape:zoom="1.189304"
     inkscape:cx="336.61353"
     inkscape:cy="743.80922"
     inkscape:window-x="62"
     inkscape:window-y="0"
     inkscape:window-maximized="0"
     inkscape:current-layer="g10036" /><g
     id="g10036"
     inkscape:groupmode="layer"
     inkscape:label="oedometerBecker+monolith"
     transform="matrix(1.3333333,0,0,-1.3333333,0,1122.52)"><g
       id="g10038"
       transform="translate(174.37,462.968)"><g
         id="g10040"><g
           id="g10042"><g
             id="g10044" /><g
             id="g10046" /><g
             id="g10048"><g
               id="g10050" /></g><g
             id="g10052" /><g
             id="g10054" /><g
             id="g10056" /><g
             id="g10058" /><g
             id="g10060"
             transform="translate(-34.624,-29.887)"><g
               id="g10062"
               transform="translate(59.532,50.857)"><g
                 id="g10064"><g
                   id="g10066"><g
                     id="g10068"><g
                       id="g10070"><g
                         id="g10072"><path
                           d="m 29.27246,-20.96983 v 4.25184 m 56.64182,-4.25184 v 4.25184 m 56.64181,-4.25184 v 4.25184 m 56.64181,-4.25184 v 4.25184 m 56.6418,-4.25184 v 4.25184 M 29.27246,230.65544 v -4.25183 m 56.64182,4.25183 v -4.25183 m 56.64181,4.25183 v -4.25183 m 56.64181,4.25183 v -4.25183 m 56.6418,4.25183 v -4.25183"
                           style="fill:none;stroke:#808080;stroke-width:0.19925;stroke-linecap:butt;stroke-linejoin:miter;stroke-miterlimit:10;stroke-dasharray:none;stroke-opacity:1"
                           id="path10074"
                           inkscape:connector-curvature="0" /></g></g><g
                       id="g10076"><g
                         id="g10078"><path
                           d="m -24.90804,6.35022 h 4.25258 m -4.25258,31.3252 h 4.25258 m -4.25258,31.32519 h 4.25258 m -4.25258,31.32521 h 4.25258 m -4.25258,31.3252 h 4.25258 m -4.25258,31.32519 h 4.25258 m -4.25258,31.32519 h 4.25258 m -4.25258,31.3252 h 4.25258 M 273.97339,6.35022 h -4.25256 m 4.25256,31.3252 h -4.25256 m 4.25256,31.32519 h -4.25256 m 4.25256,31.32521 h -4.25256 m 4.25256,31.3252 h -4.25256 m 4.25256,31.32519 h -4.25256 m 4.25256,31.32519 h -4.25256 m 4.25256,31.3252 h -4.25256"
                           style="fill:none;stroke:#808080;stroke-width:0.19925;stroke-linecap:butt;stroke-linejoin:miter;stroke-miterlimit:10;stroke-dasharray:none;stroke-opacity:1"
                           id="path10080"
                           inkscape:connector-curvature="0" /></g></g><path
                       d="M -24.90804,-20.96983 V 230.65544 H 273.97339 V -20.96983 Z"
                       style="fill:none;stroke:#000000;stroke-width:0.3985;stroke-linecap:butt;stroke-linejoin:miter;stroke-miterlimit:10;stroke-dasharray:none;stroke-opacity:1"
                       id="path10082"
                       inkscape:connector-curvature="0" /><g
                       id="g10084"><g
                         id="g10086"
                         transform="translate(21.8,-30.909)"><g
                           id="g10088"><g
                             id="g10090"
                             transform="translate(-221.078,-453.029)"><text
                               transform="matrix(1,0,0,-1,221.078,453.029)"
                               style="font-variant:normal;font-weight:normal;font-size:9.96259975px;font-family:CMR10;-inkscape-font-specification:CMR10;writing-mode:lr-tb;fill:#000000;fill-opacity:1;fill-rule:nonzero;stroke:none"
                               id="text10094"><tspan
                                 x="0 4.9812999 9.9625998"
                                 y="0"
                                 sodipodi:role="line"
                                 id="tspan10092">500</tspan></text>
<g
                               id="g10096"
                               transform="translate(221.078,453.029)" /></g></g><g
                           id="g10098"
                           transform="translate(-21.8,30.909)" /></g></g><g
                       id="g10100"><g
                         id="g10102"
                         transform="translate(75.12,-30.909)"><g
                           id="g10104"><g
                             id="g10106"
                             transform="translate(-274.398,-453.029)"><text
                               transform="matrix(1,0,0,-1,274.398,453.029)"
                               style="font-variant:normal;font-weight:normal;font-size:9.96259975px;font-family:CMR10;-inkscape-font-specification:CMR10;writing-mode:lr-tb;fill:#000000;fill-opacity:1;fill-rule:nonzero;stroke:none"
                               id="text10110"><tspan
                                 x="0 6.6450543 11.626354 16.607655"
                                 y="0"
                                 sodipodi:role="line"
                                 id="tspan10108">1000</tspan></text>
<g
                               id="g10112"
                               transform="translate(274.398,453.029)" /></g></g><g
                           id="g10114"
                           transform="translate(-75.12,30.909)" /></g></g><g
                       id="g10116"><g
                         id="g10118"
                         transform="translate(131.761,-30.909)"><g
                           id="g10120"><g
                             id="g10122"
                             transform="translate(-331.039,-453.029)"><text
                               transform="matrix(1,0,0,-1,331.039,453.029)"
                               style="font-variant:normal;font-weight:normal;font-size:9.96259975px;font-family:CMR10;-inkscape-font-specification:CMR10;writing-mode:lr-tb;fill:#000000;fill-opacity:1;fill-rule:nonzero;stroke:none"
                               id="text10126"><tspan
                                 x="0 6.6450543 11.626354 16.607655"
                                 y="0"
                                 sodipodi:role="line"
                                 id="tspan10124">1500</tspan></text>
<g
                               id="g10128"
                               transform="translate(331.039,453.029)" /></g></g><g
                           id="g10130"
                           transform="translate(-131.761,30.909)" /></g></g><g
                       id="g10132"><g
                         id="g10134"
                         transform="translate(188.402,-30.909)"><g
                           id="g10136"><g
                             id="g10138"
                             transform="translate(-387.68,-453.029)"><text
                               transform="matrix(1,0,0,-1,387.68,453.029)"
                               style="font-variant:normal;font-weight:normal;font-size:9.96259975px;font-family:CMR10;-inkscape-font-specification:CMR10;writing-mode:lr-tb;fill:#000000;fill-opacity:1;fill-rule:nonzero;stroke:none"
                               id="text10142"><tspan
                                 x="0 6.6450543 11.626354 16.607655"
                                 y="0"
                                 sodipodi:role="line"
                                 id="tspan10140">2000</tspan></text>
<g
                               id="g10144"
                               transform="translate(387.68,453.029)" /></g></g><g
                           id="g10146"
                           transform="translate(-188.402,30.909)" /></g></g><g
                       id="g10148"><g
                         id="g10150"
                         transform="translate(245.043,-30.909)"><g
                           id="g10152"><g
                             id="g10154"
                             transform="translate(-444.321,-453.029)"><text
                               transform="matrix(1,0,0,-1,444.321,453.029)"
                               style="font-variant:normal;font-weight:normal;font-size:9.96259975px;font-family:CMR10;-inkscape-font-specification:CMR10;writing-mode:lr-tb;fill:#000000;fill-opacity:1;fill-rule:nonzero;stroke:none"
                               id="text10158"><tspan
                                 x="0 6.6450543 11.626354 16.607655"
                                 y="0"
                                 sodipodi:role="line"
                                 id="tspan10156">2500</tspan></text>
<g
                               id="g10160"
                               transform="translate(444.321,453.029)" /></g></g><g
                           id="g10162"
                           transform="translate(-245.043,30.909)" /></g></g><g
                       id="g10164"><g
                         id="g10166"
                         transform="translate(-38.39,3.14)"><g
                           id="g10168"><g
                             id="g10170"
                             transform="translate(-160.888,-487.078)"><text
                               transform="matrix(1,0,0,-1,160.888,487.078)"
                               style="font-variant:normal;font-weight:normal;font-size:9.96259975px;font-family:CMR10;-inkscape-font-specification:CMR10;writing-mode:lr-tb;fill:#000000;fill-opacity:1;fill-rule:nonzero;stroke:none"
                               id="text10174"><tspan
                                 x="0 4.9812999"
                                 y="0"
                                 sodipodi:role="line"
                                 id="tspan10172">10</tspan></text>
<g
                               id="g10176"
                               transform="translate(160.888,487.078)" /></g></g><g
                           id="g10178"
                           transform="translate(38.39,-3.14)" /></g></g><g
                       id="g10180"><g
                         id="g10182"
                         transform="translate(-38.39,34.465)"><g
                           id="g10184"><g
                             id="g10186"
                             transform="translate(-160.888,-518.403)"><text
                               transform="matrix(1,0,0,-1,160.888,518.403)"
                               style="font-variant:normal;font-weight:normal;font-size:9.96259975px;font-family:CMR10;-inkscape-font-specification:CMR10;writing-mode:lr-tb;fill:#000000;fill-opacity:1;fill-rule:nonzero;stroke:none"
                               id="text10190"><tspan
                                 x="0 4.9812999"
                                 y="0"
                                 sodipodi:role="line"
                                 id="tspan10188">20</tspan></text>
<g
                               id="g10192"
                               transform="translate(160.888,518.403)" /></g></g><g
                           id="g10194"
                           transform="translate(38.39,-34.465)" /></g></g><g
                       id="g10196"><g
                         id="g10198"
                         transform="translate(-38.39,65.79)"><g
                           id="g10200"><g
                             id="g10202"
                             transform="translate(-160.888,-549.728)"><text
                               transform="matrix(1,0,0,-1,160.888,549.728)"
                               style="font-variant:normal;font-weight:normal;font-size:9.96259975px;font-family:CMR10;-inkscape-font-specification:CMR10;writing-mode:lr-tb;fill:#000000;fill-opacity:1;fill-rule:nonzero;stroke:none"
                               id="text10206"><tspan
                                 x="0 4.9812999"
                                 y="0"
                                 sodipodi:role="line"
                                 id="tspan10204">30</tspan></text>
<g
                               id="g10208"
                               transform="translate(160.888,549.728)" /></g></g><g
                           id="g10210"
                           transform="translate(38.39,-65.79)" /></g></g><g
                       id="g10212"><g
                         id="g10214"
                         transform="translate(-38.39,97.114)"><g
                           id="g10216"><g
                             id="g10218"
                             transform="translate(-160.888,-581.052)"><text
                               transform="matrix(1,0,0,-1,160.888,581.052)"
                               style="font-variant:normal;font-weight:normal;font-size:9.96259975px;font-family:CMR10;-inkscape-font-specification:CMR10;writing-mode:lr-tb;fill:#000000;fill-opacity:1;fill-rule:nonzero;stroke:none"
                               id="text10222"><tspan
                                 x="0 4.9812999"
                                 y="0"
                                 sodipodi:role="line"
                                 id="tspan10220">40</tspan></text>
<g
                               id="g10224"
                               transform="translate(160.888,581.052)" /></g></g><g
                           id="g10226"
                           transform="translate(38.39,-97.114)" /></g></g><g
                       id="g10228"><g
                         id="g10230"
                         transform="translate(-38.39,128.439)"><g
                           id="g10232"><g
                             id="g10234"
                             transform="translate(-160.888,-612.377)"><text
                               transform="matrix(1,0,0,-1,160.888,612.377)"
                               style="font-variant:normal;font-weight:normal;font-size:9.96259975px;font-family:CMR10;-inkscape-font-specification:CMR10;writing-mode:lr-tb;fill:#000000;fill-opacity:1;fill-rule:nonzero;stroke:none"
                               id="text10238"><tspan
                                 x="0 4.9812999"
                                 y="0"
                                 sodipodi:role="line"
                                 id="tspan10236">50</tspan></text>
<g
                               id="g10240"
                               transform="translate(160.888,612.377)" /></g></g><g
                           id="g10242"
                           transform="translate(38.39,-128.439)" /></g></g><g
                       id="g10244"><g
                         id="g10246"
                         transform="translate(-38.39,159.764)"><g
                           id="g10248"><g
                             id="g10250"
                             transform="translate(-160.888,-643.702)"><text
                               transform="matrix(1,0,0,-1,160.888,643.702)"
                               style="font-variant:normal;font-weight:normal;font-size:9.96259975px;font-family:CMR10;-inkscape-font-specification:CMR10;writing-mode:lr-tb;fill:#000000;fill-opacity:1;fill-rule:nonzero;stroke:none"
                               id="text10254"><tspan
                                 x="0 4.9812999"
                                 y="0"
                                 sodipodi:role="line"
                                 id="tspan10252">60</tspan></text>
<g
                               id="g10256"
                               transform="translate(160.888,643.702)" /></g></g><g
                           id="g10258"
                           transform="translate(38.39,-159.764)" /></g></g><g
                       id="g10260"><g
                         id="g10262"
                         transform="translate(-38.39,191.089)"><g
                           id="g10264"><g
                             id="g10266"
                             transform="translate(-160.888,-675.027)"><text
                               transform="matrix(1,0,0,-1,160.888,675.027)"
                               style="font-variant:normal;font-weight:normal;font-size:9.96259975px;font-family:CMR10;-inkscape-font-specification:CMR10;writing-mode:lr-tb;fill:#000000;fill-opacity:1;fill-rule:nonzero;stroke:none"
                               id="text10270"><tspan
                                 x="0 4.9812999"
                                 y="0"
                                 sodipodi:role="line"
                                 id="tspan10268">70</tspan></text>
<g
                               id="g10272"
                               transform="translate(160.888,675.027)" /></g></g><g
                           id="g10274"
                           transform="translate(38.39,-191.089)" /></g></g><g
                       id="g10276"><g
                         id="g10278"
                         transform="translate(-38.39,222.414)"><g
                           id="g10280"><g
                             id="g10282"
                             transform="translate(-160.888,-706.352)"><text
                               transform="matrix(1,0,0,-1,160.888,706.352)"
                               style="font-variant:normal;font-weight:normal;font-size:9.96259975px;font-family:CMR10;-inkscape-font-specification:CMR10;writing-mode:lr-tb;fill:#000000;fill-opacity:1;fill-rule:nonzero;stroke:none"
                               id="text10286"><tspan
                                 x="0 4.9812999"
                                 y="0"
                                 sodipodi:role="line"
                                 id="tspan10284">80</tspan></text>
<g
                               id="g10288"
                               transform="translate(160.888,706.352)" /></g></g><g
                           id="g10290"
                           transform="translate(38.39,-222.414)" /></g></g><g
                       id="g10292"
                       clip-path="url(#clipPath10296)"><g
                         id="g10298"><path
                           d="m 0,0 11.15842,6.83319 11.41899,8.56275 11.43031,9.23496 11.27171,8.3387 11.33971,9.7455 11.28305,11.15303 11.27171,9.76603 11.419,9.31202 11.419,10.25931 -101.89863,-6.50638 11.3397,0.45836 11.05648,0.61319 22.69068,2.53946 22.77004,2.3215 22.6907,2.95006 22.70203,5.36647 22.46414,12.60635 22.69072,16.89252 22.91728,19.09952 22.54341,24.34218 22.62276,20.13003 22.46413,25.66686 -22.54343,-3.66616 H 215.2162 204.12575 192.44618 l -11.15841,-2.96203 H 170.05003 L 158.81229,200.4056 H 147.21205 136.1216 l -11.53229,-2.18072 h -11.30573 l -11.33967,-1.86627 -11.28304,-1.70988 -11.419,-1.55295 -11.2717,-1.39609 L 56.55116,190.46046 45.27943,189.37811 33.92842,187.52615 22.736,185.98589 11.385,184.14304 0.11327,182.31145"
                           style="fill:none;stroke:#ff0000;stroke-width:0.3985;stroke-linecap:butt;stroke-linejoin:miter;stroke-miterlimit:10;stroke-dasharray:none;stroke-opacity:1"
                           id="path10300"
                           inkscape:connector-curvature="0" /></g></g></g><g
                     id="g10302"><path
                       d="M 1.99255,0 C 1.99255,1.10046 1.10046,1.99255 0,1.99255 -1.10046,1.99255 -1.99255,1.10046 -1.99255,0 c 0,-1.10046 0.89209,-1.99255 1.99255,-1.99255 1.10046,0 1.99255,0.89209 1.99255,1.99255 z"
                       style="fill:#ff0000;fill-opacity:1;fill-rule:nonzero;stroke:#ff0000;stroke-width:0.3985;stroke-linecap:butt;stroke-linejoin:miter;stroke-miterlimit:10;stroke-dasharray:none;stroke-opacity:1"
                       id="path10304"
                       inkscape:connector-curvature="0" /><path
                       d="m 13.15097,6.83319 c 0,1.10046 -0.89209,1.99255 -1.99255,1.99255 -1.10048,0 -1.99256,-0.89209 -1.99256,-1.99255 0,-1.10048 0.89208,-1.99255 1.99256,-1.99255 1.10046,0 1.99255,0.89207 1.99255,1.99255 z"
                       style="fill:#ff0000;fill-opacity:1;fill-rule:nonzero;stroke:#ff0000;stroke-width:0.3985;stroke-linecap:butt;stroke-linejoin:miter;stroke-miterlimit:10;stroke-dasharray:none;stroke-opacity:1"
                       id="path10306"
                       inkscape:connector-curvature="0" /><path
                       d="m 24.56996,15.39594 c 0,1.10046 -0.89207,1.99255 -1.99255,1.99255 -1.10047,0 -1.99256,-0.89209 -1.99256,-1.99255 0,-1.10048 0.89209,-1.99256 1.99256,-1.99256 1.10048,0 1.99255,0.89208 1.99255,1.99256 z"
                       style="fill:#ff0000;fill-opacity:1;fill-rule:nonzero;stroke:#ff0000;stroke-width:0.3985;stroke-linecap:butt;stroke-linejoin:miter;stroke-miterlimit:10;stroke-dasharray:none;stroke-opacity:1"
                       id="path10308"
                       inkscape:connector-curvature="0" /><path
                       d="m 36.00027,24.6309 c 0,1.10048 -0.89209,1.99256 -1.99255,1.99256 -1.10048,0 -1.99255,-0.89208 -1.99255,-1.99256 0,-1.10046 0.89207,-1.99255 1.99255,-1.99255 1.10046,0 1.99255,0.89209 1.99255,1.99255 z"
                       style="fill:#ff0000;fill-opacity:1;fill-rule:nonzero;stroke:#ff0000;stroke-width:0.3985;stroke-linecap:butt;stroke-linejoin:miter;stroke-miterlimit:10;stroke-dasharray:none;stroke-opacity:1"
                       id="path10310"
                       inkscape:connector-curvature="0" /><path
                       d="m 47.27199,32.9696 c 0,1.10047 -0.89208,1.99256 -1.99256,1.99256 -1.10046,0 -1.99255,-0.89209 -1.99255,-1.99256 0,-1.10047 0.89209,-1.99255 1.99255,-1.99255 1.10048,0 1.99256,0.89208 1.99256,1.99255 z"
                       style="fill:#ff0000;fill-opacity:1;fill-rule:nonzero;stroke:#ff0000;stroke-width:0.3985;stroke-linecap:butt;stroke-linejoin:miter;stroke-miterlimit:10;stroke-dasharray:none;stroke-opacity:1"
                       id="path10312"
                       inkscape:connector-curvature="0" /><path
                       d="m 58.6117,42.7151 c 0,1.10048 -0.8921,1.99256 -1.99256,1.99256 -1.10048,0 -1.99255,-0.89208 -1.99255,-1.99256 0,-1.10046 0.89207,-1.99255 1.99255,-1.99255 1.10046,0 1.99256,0.89209 1.99256,1.99255 z"
                       style="fill:#ff0000;fill-opacity:1;fill-rule:nonzero;stroke:#ff0000;stroke-width:0.3985;stroke-linecap:butt;stroke-linejoin:miter;stroke-miterlimit:10;stroke-dasharray:none;stroke-opacity:1"
                       id="path10314"
                       inkscape:connector-curvature="0" /><path
                       d="m 69.89474,53.86813 c 0,1.10047 -0.89207,1.99256 -1.99255,1.99256 -1.10046,0 -1.99255,-0.89209 -1.99255,-1.99256 0,-1.10048 0.89209,-1.99255 1.99255,-1.99255 1.10048,0 1.99255,0.89207 1.99255,1.99255 z"
                       style="fill:#ff0000;fill-opacity:1;fill-rule:nonzero;stroke:#ff0000;stroke-width:0.3985;stroke-linecap:butt;stroke-linejoin:miter;stroke-miterlimit:10;stroke-dasharray:none;stroke-opacity:1"
                       id="path10316"
                       inkscape:connector-curvature="0" /><path
                       d="m 81.16646,63.63416 c 0,1.10046 -0.89209,1.99255 -1.99256,1.99255 -1.10047,0 -1.99255,-0.89209 -1.99255,-1.99255 0,-1.10048 0.89208,-1.99256 1.99255,-1.99256 1.10047,0 1.99256,0.89208 1.99256,1.99256 z"
                       style="fill:#ff0000;fill-opacity:1;fill-rule:nonzero;stroke:#ff0000;stroke-width:0.3985;stroke-linecap:butt;stroke-linejoin:miter;stroke-miterlimit:10;stroke-dasharray:none;stroke-opacity:1"
                       id="path10318"
                       inkscape:connector-curvature="0" /><path
                       d="m 92.58545,72.94618 c 0,1.10048 -0.89208,1.99256 -1.99255,1.99256 -1.10047,0 -1.99256,-0.89208 -1.99256,-1.99256 0,-1.10046 0.89209,-1.99255 1.99256,-1.99255 1.10047,0 1.99255,0.89209 1.99255,1.99255 z"
                       style="fill:#ff0000;fill-opacity:1;fill-rule:nonzero;stroke:#ff0000;stroke-width:0.3985;stroke-linecap:butt;stroke-linejoin:miter;stroke-miterlimit:10;stroke-dasharray:none;stroke-opacity:1"
                       id="path10320"
                       inkscape:connector-curvature="0" /><path
                       d="m 104.00446,83.20549 c 0,1.10048 -0.89209,1.99255 -1.99256,1.99255 -1.10048,0 -1.99255,-0.89207 -1.99255,-1.99255 0,-1.10046 0.89207,-1.99255 1.99255,-1.99255 1.10047,0 1.99256,0.89209 1.99256,1.99255 z"
                       style="fill:#ff0000;fill-opacity:1;fill-rule:nonzero;stroke:#ff0000;stroke-width:0.3985;stroke-linecap:butt;stroke-linejoin:miter;stroke-miterlimit:10;stroke-dasharray:none;stroke-opacity:1"
                       id="path10322"
                       inkscape:connector-curvature="0" /><path
                       d="m 2.10582,76.69911 c 0,1.10047 -0.89209,1.99256 -1.99255,1.99256 -1.10047,0 -1.99254,-0.89209 -1.99254,-1.99256 0,-1.10048 0.89207,-1.99255 1.99254,-1.99255 1.10046,0 1.99255,0.89207 1.99255,1.99255 z"
                       style="fill:#ff0000;fill-opacity:1;fill-rule:nonzero;stroke:#ff0000;stroke-width:0.3985;stroke-linecap:butt;stroke-linejoin:miter;stroke-miterlimit:10;stroke-dasharray:none;stroke-opacity:1"
                       id="path10324"
                       inkscape:connector-curvature="0" /><path
                       d="m 13.44553,77.15747 c 0,1.10046 -0.89209,1.99255 -1.99256,1.99255 -1.10047,0 -1.99255,-0.89209 -1.99255,-1.99255 0,-1.10048 0.89208,-1.99255 1.99255,-1.99255 1.10047,0 1.99256,0.89207 1.99256,1.99255 z"
                       style="fill:#ff0000;fill-opacity:1;fill-rule:nonzero;stroke:#ff0000;stroke-width:0.3985;stroke-linecap:butt;stroke-linejoin:miter;stroke-miterlimit:10;stroke-dasharray:none;stroke-opacity:1"
                       id="path10326"
                       inkscape:connector-curvature="0" /><path
                       d="m 24.502,77.77066 c 0,1.10046 -0.89209,1.99255 -1.99255,1.99255 -1.10048,0 -1.99256,-0.89209 -1.99256,-1.99255 0,-1.10048 0.89208,-1.99256 1.99256,-1.99256 1.10046,0 1.99255,0.89208 1.99255,1.99256 z"
                       style="fill:#ff0000;fill-opacity:1;fill-rule:nonzero;stroke:#ff0000;stroke-width:0.3985;stroke-linecap:butt;stroke-linejoin:miter;stroke-miterlimit:10;stroke-dasharray:none;stroke-opacity:1"
                       id="path10328"
                       inkscape:connector-curvature="0" /><path
                       d="m 47.19269,80.31012 c 0,1.10046 -0.89208,1.99255 -1.99256,1.99255 -1.10046,0 -1.99255,-0.89209 -1.99255,-1.99255 0,-1.10048 0.89209,-1.99255 1.99255,-1.99255 1.10048,0 1.99256,0.89207 1.99256,1.99255 z"
                       style="fill:#ff0000;fill-opacity:1;fill-rule:nonzero;stroke:#ff0000;stroke-width:0.3985;stroke-linecap:butt;stroke-linejoin:miter;stroke-miterlimit:10;stroke-dasharray:none;stroke-opacity:1"
                       id="path10330"
                       inkscape:connector-curvature="0" /><path
                       d="m 69.96272,82.63162 c 0,1.10048 -0.89209,1.99256 -1.99255,1.99256 -1.10048,0 -1.99255,-0.89208 -1.99255,-1.99256 0,-1.10046 0.89207,-1.99255 1.99255,-1.99255 1.10046,0 1.99255,0.89209 1.99255,1.99255 z"
                       style="fill:#ff0000;fill-opacity:1;fill-rule:nonzero;stroke:#ff0000;stroke-width:0.3985;stroke-linecap:butt;stroke-linejoin:miter;stroke-miterlimit:10;stroke-dasharray:none;stroke-opacity:1"
                       id="path10332"
                       inkscape:connector-curvature="0" /><path
                       d="m 92.65343,85.58168 c 0,1.10046 -0.89209,1.99255 -1.99256,1.99255 -1.10047,0 -1.99255,-0.89209 -1.99255,-1.99255 0,-1.10048 0.89208,-1.99255 1.99255,-1.99255 1.10047,0 1.99256,0.89207 1.99256,1.99255 z"
                       style="fill:#ff0000;fill-opacity:1;fill-rule:nonzero;stroke:#ff0000;stroke-width:0.3985;stroke-linecap:butt;stroke-linejoin:miter;stroke-miterlimit:10;stroke-dasharray:none;stroke-opacity:1"
                       id="path10334"
                       inkscape:connector-curvature="0" /><path
                       d="m 115.35545,90.94815 c 0,1.10048 -0.89209,1.99255 -1.99255,1.99255 -1.10048,0 -1.99255,-0.89207 -1.99255,-1.99255 0,-1.10046 0.89207,-1.99255 1.99255,-1.99255 1.10046,0 1.99255,0.89209 1.99255,1.99255 z"
                       style="fill:#ff0000;fill-opacity:1;fill-rule:nonzero;stroke:#ff0000;stroke-width:0.3985;stroke-linecap:butt;stroke-linejoin:miter;stroke-miterlimit:10;stroke-dasharray:none;stroke-opacity:1"
                       id="path10336"
                       inkscape:connector-curvature="0" /><path
                       d="m 137.8196,103.5545 c 0,1.10047 -0.8921,1.99256 -1.99256,1.99256 -1.10048,0 -1.99255,-0.89209 -1.99255,-1.99256 0,-1.10047 0.89207,-1.99255 1.99255,-1.99255 1.10046,0 1.99256,0.89208 1.99256,1.99255 z"
                       style="fill:#ff0000;fill-opacity:1;fill-rule:nonzero;stroke:#ff0000;stroke-width:0.3985;stroke-linecap:butt;stroke-linejoin:miter;stroke-miterlimit:10;stroke-dasharray:none;stroke-opacity:1"
                       id="path10338"
                       inkscape:connector-curvature="0" /><path
                       d="m 160.51031,120.44702 c 0,1.10047 -0.89208,1.99256 -1.99255,1.99256 -1.10048,0 -1.99256,-0.89209 -1.99256,-1.99256 0,-1.10048 0.89208,-1.99255 1.99256,-1.99255 1.10047,0 1.99255,0.89207 1.99255,1.99255 z"
                       style="fill:#ff0000;fill-opacity:1;fill-rule:nonzero;stroke:#ff0000;stroke-width:0.3985;stroke-linecap:butt;stroke-linejoin:miter;stroke-miterlimit:10;stroke-dasharray:none;stroke-opacity:1"
                       id="path10340"
                       inkscape:connector-curvature="0" /><path
                       d="m 183.4276,139.54654 c 0,1.10046 -0.8921,1.99256 -1.99256,1.99256 -1.10048,0 -1.99255,-0.8921 -1.99255,-1.99256 0,-1.10048 0.89207,-1.99255 1.99255,-1.99255 1.10046,0 1.99256,0.89207 1.99256,1.99255 z"
                       style="fill:#ff0000;fill-opacity:1;fill-rule:nonzero;stroke:#ff0000;stroke-width:0.3985;stroke-linecap:butt;stroke-linejoin:miter;stroke-miterlimit:10;stroke-dasharray:none;stroke-opacity:1"
                       id="path10342"
                       inkscape:connector-curvature="0" /><path
                       d="m 205.97101,163.88872 c 0,1.10048 -0.89209,1.99255 -1.99256,1.99255 -1.10047,0 -1.99255,-0.89207 -1.99255,-1.99255 0,-1.10047 0.89208,-1.99256 1.99255,-1.99256 1.10047,0 1.99256,0.89209 1.99256,1.99256 z"
                       style="fill:#ff0000;fill-opacity:1;fill-rule:nonzero;stroke:#ff0000;stroke-width:0.3985;stroke-linecap:butt;stroke-linejoin:miter;stroke-miterlimit:10;stroke-dasharray:none;stroke-opacity:1"
                       id="path10344"
                       inkscape:connector-curvature="0" /><path
                       d="m 228.59377,184.01875 c 0,1.10048 -0.89208,1.99255 -1.99256,1.99255 -1.10046,0 -1.99255,-0.89207 -1.99255,-1.99255 0,-1.10046 0.89209,-1.99255 1.99255,-1.99255 1.10048,0 1.99256,0.89209 1.99256,1.99255 z"
                       style="fill:#ff0000;fill-opacity:1;fill-rule:nonzero;stroke:#ff0000;stroke-width:0.3985;stroke-linecap:butt;stroke-linejoin:miter;stroke-miterlimit:10;stroke-dasharray:none;stroke-opacity:1"
                       id="path10346"
                       inkscape:connector-curvature="0" /><path
                       d="m 251.05789,209.68561 c 0,1.10046 -0.89207,1.99255 -1.99255,1.99255 -1.10047,0 -1.99256,-0.89209 -1.99256,-1.99255 0,-1.10047 0.89209,-1.99256 1.99256,-1.99256 1.10048,0 1.99255,0.89209 1.99255,1.99256 z"
                       style="fill:#ff0000;fill-opacity:1;fill-rule:nonzero;stroke:#ff0000;stroke-width:0.3985;stroke-linecap:butt;stroke-linejoin:miter;stroke-miterlimit:10;stroke-dasharray:none;stroke-opacity:1"
                       id="path10348"
                       inkscape:connector-curvature="0" /><path
                       d="m 228.51447,206.01945 c 0,1.10047 -0.89209,1.99256 -1.99256,1.99256 -1.10048,0 -1.99255,-0.89209 -1.99255,-1.99256 0,-1.10047 0.89207,-1.99255 1.99255,-1.99255 1.10047,0 1.99256,0.89208 1.99256,1.99255 z"
                       style="fill:#ff0000;fill-opacity:1;fill-rule:nonzero;stroke:#ff0000;stroke-width:0.3985;stroke-linecap:butt;stroke-linejoin:miter;stroke-miterlimit:10;stroke-dasharray:none;stroke-opacity:1"
                       id="path10350"
                       inkscape:connector-curvature="0" /><path
                       d="m 217.20876,206.01945 c 0,1.10047 -0.89209,1.99256 -1.99256,1.99256 -1.10048,0 -1.99255,-0.89209 -1.99255,-1.99256 0,-1.10047 0.89207,-1.99255 1.99255,-1.99255 1.10047,0 1.99256,0.89208 1.99256,1.99255 z"
                       style="fill:#ff0000;fill-opacity:1;fill-rule:nonzero;stroke:#ff0000;stroke-width:0.3985;stroke-linecap:butt;stroke-linejoin:miter;stroke-miterlimit:10;stroke-dasharray:none;stroke-opacity:1"
                       id="path10352"
                       inkscape:connector-curvature="0" /><path
                       d="m 206.1183,206.01945 c 0,1.10047 -0.89209,1.99256 -1.99255,1.99256 -1.10048,0 -1.99255,-0.89209 -1.99255,-1.99256 0,-1.10047 0.89207,-1.99255 1.99255,-1.99255 1.10046,0 1.99255,0.89208 1.99255,1.99255 z"
                       style="fill:#ff0000;fill-opacity:1;fill-rule:nonzero;stroke:#ff0000;stroke-width:0.3985;stroke-linecap:butt;stroke-linejoin:miter;stroke-miterlimit:10;stroke-dasharray:none;stroke-opacity:1"
                       id="path10354"
                       inkscape:connector-curvature="0" /><path
                       d="m 194.43874,206.01945 c 0,1.10047 -0.89208,1.99256 -1.99256,1.99256 -1.10046,0 -1.99255,-0.89209 -1.99255,-1.99256 0,-1.10047 0.89209,-1.99255 1.99255,-1.99255 1.10048,0 1.99256,0.89208 1.99256,1.99255 z"
                       style="fill:#ff0000;fill-opacity:1;fill-rule:nonzero;stroke:#ff0000;stroke-width:0.3985;stroke-linecap:butt;stroke-linejoin:miter;stroke-miterlimit:10;stroke-dasharray:none;stroke-opacity:1"
                       id="path10356"
                       inkscape:connector-curvature="0" /><path
                       d="m 183.28032,203.05742 c 0,1.10048 -0.89209,1.99255 -1.99255,1.99255 -1.10048,0 -1.99256,-0.89207 -1.99256,-1.99255 0,-1.10047 0.89208,-1.99255 1.99256,-1.99255 1.10046,0 1.99255,0.89208 1.99255,1.99255 z"
                       style="fill:#ff0000;fill-opacity:1;fill-rule:nonzero;stroke:#ff0000;stroke-width:0.3985;stroke-linecap:butt;stroke-linejoin:miter;stroke-miterlimit:10;stroke-dasharray:none;stroke-opacity:1"
                       id="path10358"
                       inkscape:connector-curvature="0" /><path
                       d="m 172.04259,203.05742 c 0,1.10048 -0.89208,1.99255 -1.99256,1.99255 -1.10046,0 -1.99255,-0.89207 -1.99255,-1.99255 0,-1.10047 0.89209,-1.99255 1.99255,-1.99255 1.10048,0 1.99256,0.89208 1.99256,1.99255 z"
                       style="fill:#ff0000;fill-opacity:1;fill-rule:nonzero;stroke:#ff0000;stroke-width:0.3985;stroke-linecap:butt;stroke-linejoin:miter;stroke-miterlimit:10;stroke-dasharray:none;stroke-opacity:1"
                       id="path10360"
                       inkscape:connector-curvature="0" /><path
                       d="m 160.80484,200.4056 c 0,1.10046 -0.89207,1.99255 -1.99255,1.99255 -1.10047,0 -1.99256,-0.89209 -1.99256,-1.99255 0,-1.10049 0.89209,-1.99256 1.99256,-1.99256 1.10048,0 1.99255,0.89207 1.99255,1.99256 z"
                       style="fill:#ff0000;fill-opacity:1;fill-rule:nonzero;stroke:#ff0000;stroke-width:0.3985;stroke-linecap:butt;stroke-linejoin:miter;stroke-miterlimit:10;stroke-dasharray:none;stroke-opacity:1"
                       id="path10362"
                       inkscape:connector-curvature="0" /><path
                       d="m 149.2046,200.4056 c 0,1.10046 -0.89208,1.99255 -1.99255,1.99255 -1.10048,0 -1.99255,-0.89209 -1.99255,-1.99255 0,-1.10049 0.89207,-1.99256 1.99255,-1.99256 1.10047,0 1.99255,0.89207 1.99255,1.99256 z"
                       style="fill:#ff0000;fill-opacity:1;fill-rule:nonzero;stroke:#ff0000;stroke-width:0.3985;stroke-linecap:butt;stroke-linejoin:miter;stroke-miterlimit:10;stroke-dasharray:none;stroke-opacity:1"
                       id="path10364"
                       inkscape:connector-curvature="0" /><path
                       d="m 138.11415,200.4056 c 0,1.10046 -0.89209,1.99255 -1.99255,1.99255 -1.10048,0 -1.99256,-0.89209 -1.99256,-1.99255 0,-1.10049 0.89208,-1.99256 1.99256,-1.99256 1.10046,0 1.99255,0.89207 1.99255,1.99256 z"
                       style="fill:#ff0000;fill-opacity:1;fill-rule:nonzero;stroke:#ff0000;stroke-width:0.3985;stroke-linecap:butt;stroke-linejoin:miter;stroke-miterlimit:10;stroke-dasharray:none;stroke-opacity:1"
                       id="path10366"
                       inkscape:connector-curvature="0" /><path
                       d="m 126.58186,198.22488 c 0,1.10047 -0.89207,1.99256 -1.99255,1.99256 -1.10046,0 -1.99255,-0.89209 -1.99255,-1.99256 0,-1.10048 0.89209,-1.99255 1.99255,-1.99255 1.10048,0 1.99255,0.89207 1.99255,1.99255 z"
                       style="fill:#ff0000;fill-opacity:1;fill-rule:nonzero;stroke:#ff0000;stroke-width:0.3985;stroke-linecap:butt;stroke-linejoin:miter;stroke-miterlimit:10;stroke-dasharray:none;stroke-opacity:1"
                       id="path10368"
                       inkscape:connector-curvature="0" /><path
                       d="m 115.27614,198.22488 c 0,1.10047 -0.89209,1.99256 -1.99256,1.99256 -1.10046,0 -1.99255,-0.89209 -1.99255,-1.99256 0,-1.10048 0.89209,-1.99255 1.99255,-1.99255 1.10047,0 1.99256,0.89207 1.99256,1.99255 z"
                       style="fill:#ff0000;fill-opacity:1;fill-rule:nonzero;stroke:#ff0000;stroke-width:0.3985;stroke-linecap:butt;stroke-linejoin:miter;stroke-miterlimit:10;stroke-dasharray:none;stroke-opacity:1"
                       id="path10370"
                       inkscape:connector-curvature="0" /><path
                       d="m 103.93646,196.35861 c 0,1.10047 -0.89207,1.99256 -1.99255,1.99256 -1.10047,0 -1.99256,-0.89209 -1.99256,-1.99256 0,-1.10048 0.89209,-1.99255 1.99256,-1.99255 1.10048,0 1.99255,0.89207 1.99255,1.99255 z"
                       style="fill:#ff0000;fill-opacity:1;fill-rule:nonzero;stroke:#ff0000;stroke-width:0.3985;stroke-linecap:butt;stroke-linejoin:miter;stroke-miterlimit:10;stroke-dasharray:none;stroke-opacity:1"
                       id="path10372"
                       inkscape:connector-curvature="0" /><path
                       d="m 92.65343,194.64873 c 0,1.10046 -0.89209,1.99255 -1.99256,1.99255 -1.10047,0 -1.99255,-0.89209 -1.99255,-1.99255 0,-1.10048 0.89208,-1.99256 1.99255,-1.99256 1.10047,0 1.99256,0.89208 1.99256,1.99256 z"
                       style="fill:#ff0000;fill-opacity:1;fill-rule:nonzero;stroke:#ff0000;stroke-width:0.3985;stroke-linecap:butt;stroke-linejoin:miter;stroke-miterlimit:10;stroke-dasharray:none;stroke-opacity:1"
                       id="path10374"
                       inkscape:connector-curvature="0" /><path
                       d="m 81.23442,193.09578 c 0,1.10048 -0.89207,1.99255 -1.99255,1.99255 -1.10047,0 -1.99256,-0.89207 -1.99256,-1.99255 0,-1.10046 0.89209,-1.99255 1.99256,-1.99255 1.10048,0 1.99255,0.89209 1.99255,1.99255 z"
                       style="fill:#ff0000;fill-opacity:1;fill-rule:nonzero;stroke:#ff0000;stroke-width:0.3985;stroke-linecap:butt;stroke-linejoin:miter;stroke-miterlimit:10;stroke-dasharray:none;stroke-opacity:1"
                       id="path10376"
                       inkscape:connector-curvature="0" /><path
                       d="m 69.96272,191.69969 c 0,1.10047 -0.89209,1.99256 -1.99255,1.99256 -1.10048,0 -1.99255,-0.89209 -1.99255,-1.99256 0,-1.10048 0.89207,-1.99255 1.99255,-1.99255 1.10046,0 1.99255,0.89207 1.99255,1.99255 z"
                       style="fill:#ff0000;fill-opacity:1;fill-rule:nonzero;stroke:#ff0000;stroke-width:0.3985;stroke-linecap:butt;stroke-linejoin:miter;stroke-miterlimit:10;stroke-dasharray:none;stroke-opacity:1"
                       id="path10378"
                       inkscape:connector-curvature="0" /><path
                       d="m 58.54372,190.46046 c 0,1.10048 -0.89208,1.99256 -1.99256,1.99256 -1.10046,0 -1.99255,-0.89208 -1.99255,-1.99256 0,-1.10046 0.89209,-1.99255 1.99255,-1.99255 1.10048,0 1.99256,0.89209 1.99256,1.99255 z"
                       style="fill:#ff0000;fill-opacity:1;fill-rule:nonzero;stroke:#ff0000;stroke-width:0.3985;stroke-linecap:butt;stroke-linejoin:miter;stroke-miterlimit:10;stroke-dasharray:none;stroke-opacity:1"
                       id="path10380"
                       inkscape:connector-curvature="0" /><path
                       d="m 47.27199,189.37811 c 0,1.10047 -0.89208,1.99256 -1.99256,1.99256 -1.10046,0 -1.99255,-0.89209 -1.99255,-1.99256 0,-1.10048 0.89209,-1.99255 1.99255,-1.99255 1.10048,0 1.99256,0.89207 1.99256,1.99255 z"
                       style="fill:#ff0000;fill-opacity:1;fill-rule:nonzero;stroke:#ff0000;stroke-width:0.3985;stroke-linecap:butt;stroke-linejoin:miter;stroke-miterlimit:10;stroke-dasharray:none;stroke-opacity:1"
                       id="path10382"
                       inkscape:connector-curvature="0" /><path
                       d="m 35.92097,187.52615 c 0,1.10048 -0.89207,1.99255 -1.99255,1.99255 -1.10046,0 -1.99255,-0.89207 -1.99255,-1.99255 0,-1.10046 0.89209,-1.99255 1.99255,-1.99255 1.10048,0 1.99255,0.89209 1.99255,1.99255 z"
                       style="fill:#ff0000;fill-opacity:1;fill-rule:nonzero;stroke:#ff0000;stroke-width:0.3985;stroke-linecap:butt;stroke-linejoin:miter;stroke-miterlimit:10;stroke-dasharray:none;stroke-opacity:1"
                       id="path10384"
                       inkscape:connector-curvature="0" /><path
                       d="m 24.72855,185.98589 c 0,1.10047 -0.89208,1.99255 -1.99255,1.99255 -1.10047,0 -1.99256,-0.89208 -1.99256,-1.99255 0,-1.10047 0.89209,-1.99256 1.99256,-1.99256 1.10047,0 1.99255,0.89209 1.99255,1.99256 z"
                       style="fill:#ff0000;fill-opacity:1;fill-rule:nonzero;stroke:#ff0000;stroke-width:0.3985;stroke-linecap:butt;stroke-linejoin:miter;stroke-miterlimit:10;stroke-dasharray:none;stroke-opacity:1"
                       id="path10386"
                       inkscape:connector-curvature="0" /><path
                       d="m 13.37755,184.14304 c 0,1.10046 -0.89208,1.99255 -1.99255,1.99255 -1.10047,0 -1.99256,-0.89209 -1.99256,-1.99255 0,-1.10048 0.89209,-1.99256 1.99256,-1.99256 1.10047,0 1.99255,0.89208 1.99255,1.99256 z"
                       style="fill:#ff0000;fill-opacity:1;fill-rule:nonzero;stroke:#ff0000;stroke-width:0.3985;stroke-linecap:butt;stroke-linejoin:miter;stroke-miterlimit:10;stroke-dasharray:none;stroke-opacity:1"
                       id="path10388"
                       inkscape:connector-curvature="0" /><path
                       d="m 2.10582,182.31145 c 0,1.10048 -0.89209,1.99255 -1.99255,1.99255 -1.10047,0 -1.99254,-0.89207 -1.99254,-1.99255 0,-1.10047 0.89207,-1.99255 1.99254,-1.99255 1.10046,0 1.99255,0.89208 1.99255,1.99255 z"
                       style="fill:#ff0000;fill-opacity:1;fill-rule:nonzero;stroke:#ff0000;stroke-width:0.3985;stroke-linecap:butt;stroke-linejoin:miter;stroke-miterlimit:10;stroke-dasharray:none;stroke-opacity:1"
                       id="path10390"
                       inkscape:connector-curvature="0" /></g><g
                     id="g10392"><g
                       id="g10394"
                       transform="translate(26.284,-45.218)"><g
                         id="g10396"><g
                           id="g10398"
                           transform="translate(-225.562,-438.72)"><text
                             transform="matrix(1,0,0,-1,225.562,438.72)"
                             style="font-variant:normal;font-weight:normal;font-size:9.96259975px;font-family:SFRM1000;-inkscape-font-specification:SFRM1000;writing-mode:lr-tb;fill:#000000;fill-opacity:1;fill-rule:nonzero;stroke:none"
                             id="text10402"><tspan
                               x="0 7.0555134 11.481896 17.015125 21.995428 27.528656 32.782932 37.763237 43.296463 48.276768 53.809994 58.790298 66.544189 72.077415 77.057724 82.59095 87.845222 93.239975 101.26086 105.68725 111.22047 116.7537 124.50759 129.47794 133.41615 136.18277 141.16307 149.46291 154.44321 162.19012 167.17044 172.14078 178.23489 183.76813 191.51505"
                               y="0"
                               sodipodi:role="line"
                               id="tspan10400">Вертикальное напряжение $\sigma_1$, кПа</tspan></text>
<g
                             id="g10404"
                             transform="translate(225.562,438.72)" /></g></g><g
                         id="g10406"
                         transform="translate(-26.284,45.218)" /></g></g><g
                     id="g10408"><g
                       id="g10410"
                       transform="rotate(90,-47.3335,-0.3855)"><g
                         id="g10412"><g
                           id="g10414"
                           transform="translate(-151.559,-530.886)"><text
                             transform="matrix(1,0,0,-1,151.559,530.886)"
                             style="font-variant:normal;font-weight:normal;font-size:9.96259975px;font-family:SFRM1000;-inkscape-font-specification:SFRM1000;writing-mode:lr-tb;fill:#000000;fill-opacity:1;fill-rule:nonzero;stroke:none"
                             id="text10422"><tspan
                               x="0 7.192997 12.726225 17.152609 22.685837 27.112219 32.645447 41.367702 46.348007 56.584579 61.564884 67.64904 73.182274 80.929192 89.229034 94.209335 100.84941"
                               y="0"
                               sodipodi:role="line"
                               id="tspan10416">Энергия$W$,кДж/м$</tspan><tspan
                               x="105.828"
                               y="-2.102"
                               id="tspan10418">ˆ</tspan><tspan
                               x="105.828 110.8083"
                               y="0"
                               sodipodi:role="line"
                               id="tspan10420">3$</tspan></text>
<g
                             id="g10424"
                             transform="translate(151.559,530.886)" /></g></g><g
                         id="g10426"
                         transform="translate(47.719,-46.948)" /></g></g></g></g><g
                 id="g10428"
                 transform="translate(-59.532,-50.857)" /></g><g
               id="g10430"
               transform="translate(34.624,29.887)" /></g><g
             id="g10432" /><g
             id="g10434" /></g></g></g><path
       style="fill:none;stroke:#000000;stroke-width:0.46771654;stroke-linecap:butt;stroke-linejoin:miter;stroke-miterlimit:4;stroke-dasharray:none;stroke-opacity:1"
       d="m 199.278,483.938 58.76289,33.58925"
       id="path1761"
       inkscape:connector-curvature="0"
       sodipodi:nodetypes="cc" /><path
       style="fill:none;stroke:#000000;stroke-width:0.4678441;stroke-linecap:butt;stroke-linejoin:miter;stroke-miterlimit:4;stroke-dasharray:none;stroke-opacity:1"
       d="M 301.2899,567.14349 204.75047,480.5194"
       id="path1763"
       inkscape:connector-curvature="0"
       sodipodi:nodetypes="cc" /><path
       style="fill:none;stroke:#000000;stroke-width:0.46771654;stroke-linecap:butt;stroke-linejoin:miter;stroke-miterlimit:4;stroke-dasharray:0.46771656, 1.40314967;stroke-dashoffset:0;stroke-opacity:1"
       d="M 225.43678,497.0115 V 464.38874"
       id="path1765"
       inkscape:connector-curvature="0" /></g></svg>