<?xml version="1.0" encoding="UTF-8" standalone="no"?>
<!-- Created with Inkscape (http://www.inkscape.org/) -->

<svg
   xmlns:dc="http://purl.org/dc/elements/1.1/"
   xmlns:cc="http://creativecommons.org/ns#"
   xmlns:rdf="http://www.w3.org/1999/02/22-rdf-syntax-ns#"
   xmlns:svg="http://www.w3.org/2000/svg"
   xmlns="http://www.w3.org/2000/svg"
   xmlns:sodipodi="http://sodipodi.sourceforge.net/DTD/sodipodi-0.dtd"
   xmlns:inkscape="http://www.inkscape.org/namespaces/inkscape"
   version="1.1"
   id="svg14555"
   xml:space="preserve"
   width="793.70135"
   height="1122.52"
   viewBox="0 0 793.70135 1122.52"
   sodipodi:docname="oedometerCazagrande+monolith+15.svg"
   inkscape:version="0.92.3 (2405546, 2018-03-11)"><metadata
     id="metadata14561"><rdf:RDF><cc:Work
         rdf:about=""><dc:format>image/svg+xml</dc:format><dc:type
           rdf:resource="http://purl.org/dc/dcmitype/StillImage" /><dc:title></dc:title></cc:Work></rdf:RDF></metadata><defs
     id="defs14559"><clipPath
       clipPathUnits="userSpaceOnUse"
       id="clipPath14839"><path
         d="M 694.7477,-20.96997 H 993.63089 V 230.65695 H 694.7477 Z"
         id="path14837"
         inkscape:connector-curvature="0" /></clipPath></defs><sodipodi:namedview
     pagecolor="#ffffff"
     bordercolor="#666666"
     borderopacity="1"
     objecttolerance="10"
     gridtolerance="10"
     guidetolerance="10"
     inkscape:pageopacity="0"
     inkscape:pageshadow="2"
     inkscape:window-width="1243"
     inkscape:window-height="1408"
     id="namedview14557"
     showgrid="false"
     inkscape:zoom="0.84096496"
     inkscape:cx="361.15119"
     inkscape:cy="686.18309"
     inkscape:window-x="62"
     inkscape:window-y="0"
     inkscape:window-maximized="0"
     inkscape:current-layer="g14563" /><g
     id="g14563"
     inkscape:groupmode="layer"
     inkscape:label="oedometerCazagrande+monolith"
     transform="matrix(1.3333333,0,0,-1.3333333,0,1122.52)"><g
       id="g14565"
       transform="translate(185.523,458.538)"><g
         id="g14567"><g
           id="g14569"><g
             id="g14571" /><g
             id="g14573" /><g
             id="g14575"><g
               id="g14577" /></g><g
             id="g14579" /><g
             id="g14581" /><g
             id="g14583" /><g
             id="g14585" /><g
             id="g14587"
             transform="translate(-45.777,-29.887)"><g
               id="g14589"
               transform="translate(-648.962,50.857)"><g
                 id="g14591"><g
                   id="g14593"><g
                     id="g14595"><g
                       id="g14597"><g
                         id="g14599"><path
                           d="m 739.87314,-20.96997 v 4.25195 m 56.91171,-4.25195 v 4.25195 m 56.91173,-4.25195 v 4.25195 m 56.91172,-4.25195 v 4.25195 m 56.91172,-4.25195 v 4.25195 M 739.87314,230.65695 V 226.405 m 56.91171,4.25195 V 226.405 m 56.91173,4.25195 V 226.405 m 56.91172,4.25195 V 226.405 m 56.91172,4.25195 V 226.405"
                           style="fill:none;stroke:#808080;stroke-width:0.19925;stroke-linecap:butt;stroke-linejoin:miter;stroke-miterlimit:10;stroke-dasharray:none;stroke-opacity:1"
                           id="path14601"
                           inkscape:connector-curvature="0" /></g></g><g
                       id="g14603"><g
                         id="g14605"><path
                           d="m 694.7477,17.91339 h 4.24871 m -4.24871,42.42873 h 4.24871 m -4.24871,42.42872 h 4.24871 m -4.24871,42.42871 h 4.24871 m -4.24871,42.42873 h 4.24871 M 694.7477,230.057 h 4.24871 M 993.63089,17.91339 h -4.24873 m 4.24873,42.42873 h -4.24873 m 4.24873,42.42872 h -4.24873 m 4.24873,42.42871 h -4.24873 m 4.24873,42.42873 h -4.24873 m 4.24873,42.42872 h -4.24873"
                           style="fill:none;stroke:#808080;stroke-width:0.19925;stroke-linecap:butt;stroke-linejoin:miter;stroke-miterlimit:10;stroke-dasharray:none;stroke-opacity:1"
                           id="path14607"
                           inkscape:connector-curvature="0" /></g></g><path
                       d="M 694.7477,-20.96997 V 230.65695 H 993.63089 V -20.96997 Z"
                       style="fill:none;stroke:#000000;stroke-width:0.3985;stroke-linecap:butt;stroke-linejoin:miter;stroke-miterlimit:10;stroke-dasharray:none;stroke-opacity:1"
                       id="path14609"
                       inkscape:connector-curvature="0" /><g
                       id="g14611"><g
                         id="g14613"
                         transform="translate(730.732,-30.909)"><g
                           id="g14615"><g
                             id="g14617"
                             transform="translate(-221.516,-448.599)"><text
                               transform="matrix(1,0,0,-1,224.836,448.599)"
                               style="font-variant:normal;font-weight:normal;font-size:9.96259975px;font-family:CMR10;-inkscape-font-specification:CMR10;writing-mode:lr-tb;fill:#000000;fill-opacity:1;fill-rule:nonzero;stroke:none"
                               id="text14621"><tspan
                                 x="0 4.9812999 9.9625998"
                                 y="0"
                                 sodipodi:role="line"
                                 id="tspan14619">398</tspan></text>
<g
                               id="g14623"
                               transform="translate(221.516,448.599)" /></g></g><g
                           id="g14625"
                           transform="translate(-730.732,30.909)" /></g></g><g
                       id="g14627"><g
                         id="g14629"
                         transform="translate(787.643,-30.909)"><g
                           id="g14631"><g
                             id="g14633"
                             transform="translate(-278.427,-448.599)"><text
                               transform="matrix(1,0,0,-1,281.747,448.599)"
                               style="font-variant:normal;font-weight:normal;font-size:9.96259975px;font-family:CMR10;-inkscape-font-specification:CMR10;writing-mode:lr-tb;fill:#000000;fill-opacity:1;fill-rule:nonzero;stroke:none"
                               id="text14637"><tspan
                                 x="0 4.9812999 9.9625998"
                                 y="0"
                                 sodipodi:role="line"
                                 id="tspan14635">631</tspan></text>
<g
                               id="g14639"
                               transform="translate(278.427,448.599)" /></g></g><g
                           id="g14641"
                           transform="translate(-787.643,30.909)" /></g></g><g
                       id="g14643"><g
                         id="g14645"
                         transform="translate(841.233,-30.909)"><g
                           id="g14647"><g
                             id="g14649"
                             transform="translate(-332.017,-448.599)"><text
                               transform="matrix(1,0,0,-1,335.337,448.599)"
                               style="font-variant:normal;font-weight:normal;font-size:9.96259975px;font-family:CMR10;-inkscape-font-specification:CMR10;writing-mode:lr-tb;fill:#000000;fill-opacity:1;fill-rule:nonzero;stroke:none"
                               id="text14653"><tspan
                                 x="0 6.6450543 11.626354 16.607655"
                                 y="0"
                                 sodipodi:role="line"
                                 id="tspan14651">1000</tspan></text>
<g
                               id="g14655"
                               transform="translate(332.017,448.599)" /></g></g><g
                           id="g14657"
                           transform="translate(-841.233,30.909)" /></g></g><g
                       id="g14659"><g
                         id="g14661"
                         transform="translate(898.144,-30.909)"><g
                           id="g14663"><g
                             id="g14665"
                             transform="translate(-388.928,-448.599)"><text
                               transform="matrix(1,0,0,-1,392.248,448.599)"
                               style="font-variant:normal;font-weight:normal;font-size:9.96259975px;font-family:CMR10;-inkscape-font-specification:CMR10;writing-mode:lr-tb;fill:#000000;fill-opacity:1;fill-rule:nonzero;stroke:none"
                               id="text14669"><tspan
                                 x="0 6.6450543 11.626354 16.607655"
                                 y="0"
                                 sodipodi:role="line"
                                 id="tspan14667">1585</tspan></text>
<g
                               id="g14671"
                               transform="translate(388.928,448.599)" /></g></g><g
                           id="g14673"
                           transform="translate(-898.144,30.909)" /></g></g><g
                       id="g14675"><g
                         id="g14677"
                         transform="translate(955.055,-30.909)"><g
                           id="g14679"><g
                             id="g14681"
                             transform="translate(-445.839,-448.599)"><text
                               transform="matrix(1,0,0,-1,449.159,448.599)"
                               style="font-variant:normal;font-weight:normal;font-size:9.96259975px;font-family:CMR10;-inkscape-font-specification:CMR10;writing-mode:lr-tb;fill:#000000;fill-opacity:1;fill-rule:nonzero;stroke:none"
                               id="text14685"><tspan
                                 x="0 6.6450543 11.626354 16.607655"
                                 y="0"
                                 sodipodi:role="line"
                                 id="tspan14683">2511</tspan></text>
<g
                               id="g14687"
                               transform="translate(445.839,448.599)" /></g></g><g
                           id="g14689"
                           transform="translate(-955.055,30.909)" /></g></g><g
                       id="g14691"><g
                         id="g14693"
                         transform="translate(668.527,14.703)"><g
                           id="g14695"><g
                             id="g14697"
                             transform="translate(-159.311,-494.211)"><text
                               transform="matrix(1,0,0,-1,159.311,494.211)"
                               style="font-variant:normal;font-weight:normal;font-size:9.96259975px;font-family:CMR10;-inkscape-font-specification:CMR10;writing-mode:lr-tb;fill:#000000;fill-opacity:1;fill-rule:nonzero;stroke:none"
                               id="text14701"><tspan
                                 x="0"
                                 y="0"
                                 id="tspan14699">0</tspan></text>
<text
                               transform="matrix(1,0,0,-1,164.293,494.211)"
                               style="font-variant:normal;font-weight:normal;font-size:9.96259975px;font-family:CMMI10;-inkscape-font-specification:CMMI10;writing-mode:lr-tb;fill:#000000;fill-opacity:1;fill-rule:nonzero;stroke:none"
                               id="text14705"><tspan
                                 x="0"
                                 y="0"
                                 id="tspan14703">.</tspan></text>
<text
                               transform="matrix(1,0,0,-1,167.06,494.211)"
                               style="font-variant:normal;font-weight:normal;font-size:9.96259975px;font-family:CMR10;-inkscape-font-specification:CMR10;writing-mode:lr-tb;fill:#000000;fill-opacity:1;fill-rule:nonzero;stroke:none"
                               id="text14709"><tspan
                                 x="0 4.9812999 9.9625998"
                                 y="0"
                                 sodipodi:role="line"
                                 id="tspan14707">300</tspan></text>
<g
                               id="g14711"
                               transform="translate(159.311,494.211)" /></g></g><g
                           id="g14713"
                           transform="translate(-668.527,-14.703)" /></g></g><g
                       id="g14715"><g
                         id="g14717"
                         transform="translate(668.527,57.131)"><g
                           id="g14719"><g
                             id="g14721"
                             transform="translate(-159.311,-536.639)"><text
                               transform="matrix(1,0,0,-1,159.311,536.639)"
                               style="font-variant:normal;font-weight:normal;font-size:9.96259975px;font-family:CMR10;-inkscape-font-specification:CMR10;writing-mode:lr-tb;fill:#000000;fill-opacity:1;fill-rule:nonzero;stroke:none"
                               id="text14725"><tspan
                                 x="0"
                                 y="0"
                                 id="tspan14723">0</tspan></text>
<text
                               transform="matrix(1,0,0,-1,164.292,536.639)"
                               style="font-variant:normal;font-weight:normal;font-size:9.96259975px;font-family:CMMI10;-inkscape-font-specification:CMMI10;writing-mode:lr-tb;fill:#000000;fill-opacity:1;fill-rule:nonzero;stroke:none"
                               id="text14729"><tspan
                                 x="0"
                                 y="0"
                                 id="tspan14727">.</tspan></text>
<text
                               transform="matrix(1,0,0,-1,167.06,536.639)"
                               style="font-variant:normal;font-weight:normal;font-size:9.96259975px;font-family:CMR10;-inkscape-font-specification:CMR10;writing-mode:lr-tb;fill:#000000;fill-opacity:1;fill-rule:nonzero;stroke:none"
                               id="text14733"><tspan
                                 x="0 4.9812999 9.9625998"
                                 y="0"
                                 sodipodi:role="line"
                                 id="tspan14731">310</tspan></text>
<g
                               id="g14735"
                               transform="translate(159.311,536.639)" /></g></g><g
                           id="g14737"
                           transform="translate(-668.527,-57.131)" /></g></g><g
                       id="g14739"><g
                         id="g14741"
                         transform="translate(668.527,99.559)"><g
                           id="g14743"><g
                             id="g14745"
                             transform="translate(-159.311,-579.067)"><text
                               transform="matrix(1,0,0,-1,159.311,579.067)"
                               style="font-variant:normal;font-weight:normal;font-size:9.96259975px;font-family:CMR10;-inkscape-font-specification:CMR10;writing-mode:lr-tb;fill:#000000;fill-opacity:1;fill-rule:nonzero;stroke:none"
                               id="text14749"><tspan
                                 x="0"
                                 y="0"
                                 id="tspan14747">0</tspan></text>
<text
                               transform="matrix(1,0,0,-1,164.292,579.067)"
                               style="font-variant:normal;font-weight:normal;font-size:9.96259975px;font-family:CMMI10;-inkscape-font-specification:CMMI10;writing-mode:lr-tb;fill:#000000;fill-opacity:1;fill-rule:nonzero;stroke:none"
                               id="text14753"><tspan
                                 x="0"
                                 y="0"
                                 id="tspan14751">.</tspan></text>
<text
                               transform="matrix(1,0,0,-1,167.06,579.067)"
                               style="font-variant:normal;font-weight:normal;font-size:9.96259975px;font-family:CMR10;-inkscape-font-specification:CMR10;writing-mode:lr-tb;fill:#000000;fill-opacity:1;fill-rule:nonzero;stroke:none"
                               id="text14757"><tspan
                                 x="0 4.9812999 9.9625998"
                                 y="0"
                                 sodipodi:role="line"
                                 id="tspan14755">320</tspan></text>
<g
                               id="g14759"
                               transform="translate(159.311,579.067)" /></g></g><g
                           id="g14761"
                           transform="translate(-668.527,-99.559)" /></g></g><g
                       id="g14763"><g
                         id="g14765"
                         transform="translate(668.527,141.987)"><g
                           id="g14767"><g
                             id="g14769"
                             transform="translate(-159.311,-621.495)"><text
                               transform="matrix(1,0,0,-1,159.311,621.495)"
                               style="font-variant:normal;font-weight:normal;font-size:9.96259975px;font-family:CMR10;-inkscape-font-specification:CMR10;writing-mode:lr-tb;fill:#000000;fill-opacity:1;fill-rule:nonzero;stroke:none"
                               id="text14773"><tspan
                                 x="0"
                                 y="0"
                                 id="tspan14771">0</tspan></text>
<text
                               transform="matrix(1,0,0,-1,164.292,621.495)"
                               style="font-variant:normal;font-weight:normal;font-size:9.96259975px;font-family:CMMI10;-inkscape-font-specification:CMMI10;writing-mode:lr-tb;fill:#000000;fill-opacity:1;fill-rule:nonzero;stroke:none"
                               id="text14777"><tspan
                                 x="0"
                                 y="0"
                                 id="tspan14775">.</tspan></text>
<text
                               transform="matrix(1,0,0,-1,167.06,621.495)"
                               style="font-variant:normal;font-weight:normal;font-size:9.96259975px;font-family:CMR10;-inkscape-font-specification:CMR10;writing-mode:lr-tb;fill:#000000;fill-opacity:1;fill-rule:nonzero;stroke:none"
                               id="text14781"><tspan
                                 x="0 4.9812999 9.9625998"
                                 y="0"
                                 sodipodi:role="line"
                                 id="tspan14779">330</tspan></text>
<g
                               id="g14783"
                               transform="translate(159.311,621.495)" /></g></g><g
                           id="g14785"
                           transform="translate(-668.527,-141.987)" /></g></g><g
                       id="g14787"><g
                         id="g14789"
                         transform="translate(668.527,184.415)"><g
                           id="g14791"><g
                             id="g14793"
                             transform="translate(-159.311,-663.923)"><text
                               transform="matrix(1,0,0,-1,159.311,663.923)"
                               style="font-variant:normal;font-weight:normal;font-size:9.96259975px;font-family:CMR10;-inkscape-font-specification:CMR10;writing-mode:lr-tb;fill:#000000;fill-opacity:1;fill-rule:nonzero;stroke:none"
                               id="text14797"><tspan
                                 x="0"
                                 y="0"
                                 id="tspan14795">0</tspan></text>
<text
                               transform="matrix(1,0,0,-1,164.292,663.923)"
                               style="font-variant:normal;font-weight:normal;font-size:9.96259975px;font-family:CMMI10;-inkscape-font-specification:CMMI10;writing-mode:lr-tb;fill:#000000;fill-opacity:1;fill-rule:nonzero;stroke:none"
                               id="text14801"><tspan
                                 x="0"
                                 y="0"
                                 id="tspan14799">.</tspan></text>
<text
                               transform="matrix(1,0,0,-1,167.06,663.923)"
                               style="font-variant:normal;font-weight:normal;font-size:9.96259975px;font-family:CMR10;-inkscape-font-specification:CMR10;writing-mode:lr-tb;fill:#000000;fill-opacity:1;fill-rule:nonzero;stroke:none"
                               id="text14805"><tspan
                                 x="0 4.9812999 9.9625998"
                                 y="0"
                                 sodipodi:role="line"
                                 id="tspan14803">340</tspan></text>
<g
                               id="g14807"
                               transform="translate(159.311,663.923)" /></g></g><g
                           id="g14809"
                           transform="translate(-668.527,-184.415)" /></g></g><g
                       id="g14811"><g
                         id="g14813"
                         transform="translate(668.527,226.844)"><g
                           id="g14815"><g
                             id="g14817"
                             transform="translate(-159.311,-706.352)"><text
                               transform="matrix(1,0,0,-1,159.311,706.352)"
                               style="font-variant:normal;font-weight:normal;font-size:9.96259975px;font-family:CMR10;-inkscape-font-specification:CMR10;writing-mode:lr-tb;fill:#000000;fill-opacity:1;fill-rule:nonzero;stroke:none"
                               id="text14821"><tspan
                                 x="0"
                                 y="0"
                                 id="tspan14819">0</tspan></text>
<text
                               transform="matrix(1,0,0,-1,164.292,706.352)"
                               style="font-variant:normal;font-weight:normal;font-size:9.96259975px;font-family:CMMI10;-inkscape-font-specification:CMMI10;writing-mode:lr-tb;fill:#000000;fill-opacity:1;fill-rule:nonzero;stroke:none"
                               id="text14825"><tspan
                                 x="0"
                                 y="0"
                                 id="tspan14823">.</tspan></text>
<text
                               transform="matrix(1,0,0,-1,167.06,706.352)"
                               style="font-variant:normal;font-weight:normal;font-size:9.96259975px;font-family:CMR10;-inkscape-font-specification:CMR10;writing-mode:lr-tb;fill:#000000;fill-opacity:1;fill-rule:nonzero;stroke:none"
                               id="text14829"><tspan
                                 x="0 4.9812999 9.9625998"
                                 y="0"
                                 sodipodi:role="line"
                                 id="tspan14827">350</tspan></text>
<g
                               id="g14831"
                               transform="translate(159.311,706.352)" /></g></g><g
                           id="g14833"
                           transform="translate(-668.527,-226.844)" /></g></g><g
                       id="g14835"
                       clip-path="url(#clipPath14839)"><g
                         id="g14841"><path
                           d="m 719.65541,209.68698 c 0,0 23.80901,-10.37671 31.74753,-14.36214 7.93852,-3.98542 16.52901,-8.38398 25.46782,-14.36212 8.9388,-5.97815 29.37448,-21.15192 38.95697,-28.72424 9.58247,-7.57231 22.64876,-19.87368 30.10687,-25.85182 7.45813,-5.97815 17.5737,-13.24912 23.64612,-17.23455 6.07242,-3.98542 14.95071,-8.30134 20.11964,-11.48968 5.16894,-3.18834 12.65,-7.90282 17.13445,-11.4897 4.48445,-3.5869 11.24068,-9.97815 15.18639,-14.36213 3.94569,-4.38398 9.70722,-12.85058 13.25155,-17.23455 3.54433,-4.38397 9.06087,-7.98545 12.29356,-14.36212 3.23272,-6.3767 8.0701,-26.01706 11.00557,-31.59667 C 961.50735,3.03767 968.72318,0 968.72318,0"
                           style="fill:none;stroke:#ff0000;stroke-width:0.3985;stroke-linecap:butt;stroke-linejoin:miter;stroke-miterlimit:10;stroke-dasharray:none;stroke-opacity:1"
                           id="path14843"
                           inkscape:connector-curvature="0" /></g></g></g><g
                     id="g14845"><path
                       d="m 721.64796,209.68698 c 0,1.10047 -0.89207,1.99255 -1.99255,1.99255 -1.10046,0 -1.99255,-0.89208 -1.99255,-1.99255 0,-1.10048 0.89209,-1.99255 1.99255,-1.99255 1.10048,0 1.99255,0.89207 1.99255,1.99255 z"
                       style="fill:#ff0000;fill-opacity:1;fill-rule:nonzero;stroke:#ff0000;stroke-width:0.3985;stroke-linecap:butt;stroke-linejoin:miter;stroke-miterlimit:10;stroke-dasharray:none;stroke-opacity:1"
                       id="path14847"
                       inkscape:connector-curvature="0" /><path
                       d="m 753.3955,195.32484 c 0,1.10048 -0.89208,1.99256 -1.99256,1.99256 -1.10047,0 -1.99255,-0.89208 -1.99255,-1.99256 0,-1.10046 0.89208,-1.99255 1.99255,-1.99255 1.10048,0 1.99256,0.89209 1.99256,1.99255 z"
                       style="fill:#ff0000;fill-opacity:1;fill-rule:nonzero;stroke:#ff0000;stroke-width:0.3985;stroke-linecap:butt;stroke-linejoin:miter;stroke-miterlimit:10;stroke-dasharray:none;stroke-opacity:1"
                       id="path14849"
                       inkscape:connector-curvature="0" /><path
                       d="m 778.86331,180.96272 c 0,1.10047 -0.89209,1.99256 -1.99255,1.99256 -1.10048,0 -1.99256,-0.89209 -1.99256,-1.99256 0,-1.10048 0.89208,-1.99255 1.99256,-1.99255 1.10046,0 1.99255,0.89207 1.99255,1.99255 z"
                       style="fill:#ff0000;fill-opacity:1;fill-rule:nonzero;stroke:#ff0000;stroke-width:0.3985;stroke-linecap:butt;stroke-linejoin:miter;stroke-miterlimit:10;stroke-dasharray:none;stroke-opacity:1"
                       id="path14851"
                       inkscape:connector-curvature="0" /><path
                       d="m 817.82028,152.23848 c 0,1.10048 -0.89209,1.99255 -1.99255,1.99255 -1.10048,0 -1.99256,-0.89207 -1.99256,-1.99255 0,-1.10046 0.89208,-1.99255 1.99256,-1.99255 1.10046,0 1.99255,0.89209 1.99255,1.99255 z"
                       style="fill:#ff0000;fill-opacity:1;fill-rule:nonzero;stroke:#ff0000;stroke-width:0.3985;stroke-linecap:butt;stroke-linejoin:miter;stroke-miterlimit:10;stroke-dasharray:none;stroke-opacity:1"
                       id="path14853"
                       inkscape:connector-curvature="0" /><path
                       d="m 847.92715,126.38666 c 0,1.10046 -0.89207,1.99255 -1.99255,1.99255 -1.10046,0 -1.99255,-0.89209 -1.99255,-1.99255 0,-1.10048 0.89209,-1.99256 1.99255,-1.99256 1.10048,0 1.99255,0.89208 1.99255,1.99256 z"
                       style="fill:#ff0000;fill-opacity:1;fill-rule:nonzero;stroke:#ff0000;stroke-width:0.3985;stroke-linecap:butt;stroke-linejoin:miter;stroke-miterlimit:10;stroke-dasharray:none;stroke-opacity:1"
                       id="path14855"
                       inkscape:connector-curvature="0" /><path
                       d="m 871.57327,109.15211 c 0,1.10047 -0.89209,1.99256 -1.99255,1.99256 -1.10048,0 -1.99255,-0.89209 -1.99255,-1.99256 0,-1.10047 0.89207,-1.99255 1.99255,-1.99255 1.10046,0 1.99255,0.89208 1.99255,1.99255 z"
                       style="fill:#ff0000;fill-opacity:1;fill-rule:nonzero;stroke:#ff0000;stroke-width:0.3985;stroke-linecap:butt;stroke-linejoin:miter;stroke-miterlimit:10;stroke-dasharray:none;stroke-opacity:1"
                       id="path14857"
                       inkscape:connector-curvature="0" /><path
                       d="m 891.69292,97.66243 c 0,1.10047 -0.89208,1.99255 -1.99256,1.99255 -1.10046,0 -1.99255,-0.89208 -1.99255,-1.99255 0,-1.10048 0.89209,-1.99255 1.99255,-1.99255 1.10048,0 1.99256,0.89207 1.99256,1.99255 z"
                       style="fill:#ff0000;fill-opacity:1;fill-rule:nonzero;stroke:#ff0000;stroke-width:0.3985;stroke-linecap:butt;stroke-linejoin:miter;stroke-miterlimit:10;stroke-dasharray:none;stroke-opacity:1"
                       id="path14859"
                       inkscape:connector-curvature="0" /><path
                       d="m 908.82736,86.17273 c 0,1.10047 -0.89209,1.99255 -1.99255,1.99255 -1.10048,0 -1.99256,-0.89208 -1.99256,-1.99255 0,-1.10048 0.89208,-1.99255 1.99256,-1.99255 1.10046,0 1.99255,0.89207 1.99255,1.99255 z"
                       style="fill:#ff0000;fill-opacity:1;fill-rule:nonzero;stroke:#ff0000;stroke-width:0.3985;stroke-linecap:butt;stroke-linejoin:miter;stroke-miterlimit:10;stroke-dasharray:none;stroke-opacity:1"
                       id="path14861"
                       inkscape:connector-curvature="0" /><path
                       d="m 924.01375,71.8106 c 0,1.10047 -0.89209,1.99255 -1.99255,1.99255 -1.10048,0 -1.99256,-0.89208 -1.99256,-1.99255 0,-1.10047 0.89208,-1.99256 1.99256,-1.99256 1.10046,0 1.99255,0.89209 1.99255,1.99256 z"
                       style="fill:#ff0000;fill-opacity:1;fill-rule:nonzero;stroke:#ff0000;stroke-width:0.3985;stroke-linecap:butt;stroke-linejoin:miter;stroke-miterlimit:10;stroke-dasharray:none;stroke-opacity:1"
                       id="path14863"
                       inkscape:connector-curvature="0" /><path
                       d="m 937.2653,54.57605 c 0,1.10048 -0.89207,1.99255 -1.99255,1.99255 -1.10046,0 -1.99255,-0.89207 -1.99255,-1.99255 0,-1.10046 0.89209,-1.99255 1.99255,-1.99255 1.10048,0 1.99255,0.89209 1.99255,1.99255 z"
                       style="fill:#ff0000;fill-opacity:1;fill-rule:nonzero;stroke:#ff0000;stroke-width:0.3985;stroke-linecap:butt;stroke-linejoin:miter;stroke-miterlimit:10;stroke-dasharray:none;stroke-opacity:1"
                       id="path14865"
                       inkscape:connector-curvature="0" /><path
                       d="m 949.55887,40.21393 c 0,1.10046 -0.89207,1.99255 -1.99256,1.99255 -1.10046,0 -1.99255,-0.89209 -1.99255,-1.99255 0,-1.10048 0.89209,-1.99256 1.99255,-1.99256 1.10049,0 1.99256,0.89208 1.99256,1.99256 z"
                       style="fill:#ff0000;fill-opacity:1;fill-rule:nonzero;stroke:#ff0000;stroke-width:0.3985;stroke-linecap:butt;stroke-linejoin:miter;stroke-miterlimit:10;stroke-dasharray:none;stroke-opacity:1"
                       id="path14867"
                       inkscape:connector-curvature="0" /><path
                       d="m 960.56444,8.61726 c 0,1.10048 -0.89209,1.99256 -1.99256,1.99256 -1.10048,0 -1.99255,-0.89208 -1.99255,-1.99256 0,-1.10046 0.89207,-1.99255 1.99255,-1.99255 1.10047,0 1.99256,0.89209 1.99256,1.99255 z"
                       style="fill:#ff0000;fill-opacity:1;fill-rule:nonzero;stroke:#ff0000;stroke-width:0.3985;stroke-linecap:butt;stroke-linejoin:miter;stroke-miterlimit:10;stroke-dasharray:none;stroke-opacity:1"
                       id="path14869"
                       inkscape:connector-curvature="0" /><path
                       d="m 970.71573,0 c 0,1.10046 -0.89209,1.99255 -1.99255,1.99255 -1.10048,0 -1.99256,-0.89209 -1.99256,-1.99255 0,-1.10046 0.89208,-1.99255 1.99256,-1.99255 1.10046,0 1.99255,0.89209 1.99255,1.99255 z"
                       style="fill:#ff0000;fill-opacity:1;fill-rule:nonzero;stroke:#ff0000;stroke-width:0.3985;stroke-linecap:butt;stroke-linejoin:miter;stroke-miterlimit:10;stroke-dasharray:none;stroke-opacity:1"
                       id="path14871"
                       inkscape:connector-curvature="0" /></g><g
                     id="g14873"><g
                       id="g14875"
                       transform="translate(745.931,-45.218)"><g
                         id="g14877"><g
                           id="g14879"
                           transform="translate(-236.715,-434.29)"><text
                             transform="matrix(1,0,0,-1,236.715,434.29)"
                             style="font-variant:normal;font-weight:normal;font-size:9.96259975px;font-family:SFRM1000;-inkscape-font-specification:SFRM1000;writing-mode:lr-tb;fill:#000000;fill-opacity:1;fill-rule:nonzero;stroke:none"
                             id="text14883"><tspan
                               x="0 7.0555134 11.481896 17.015125 21.995428 27.528656 32.782932 37.763237 43.296463 48.276768 53.809994 58.790298 66.544189 72.077415 77.057724 82.59095 87.845222 93.239975 101.26086 105.68725 111.22047 116.7537 124.49763 129.47794 133.41615 136.18277 141.16307 149.46291 154.44321 162.19012 167.16048 172.14078 178.23489 183.76813 191.51505"
                               y="0"
                               sodipodi:role="line"
                               id="tspan14881">Вертикальное напряжение $\sigma_1$, кПа</tspan></text>
<g
                             id="g14885"
                             transform="translate(236.715,434.29)" /></g></g><g
                         id="g14887"
                         transform="translate(-745.931,45.218)" /></g></g><g
                     id="g14889"><g
                       id="g14891"
                       transform="rotate(90,311.486,348.266)"><g
                         id="g14893"><g
                           id="g14895"
                           transform="translate(-150.536,-516.288)"><text
                             transform="matrix(1,0,0,-1,150.536,516.288)"
                             style="font-variant:normal;font-weight:normal;font-size:9.96259975px;font-family:SFRM1000;-inkscape-font-specification:SFRM1000;writing-mode:lr-tb;fill:#000000;fill-opacity:1;fill-rule:nonzero;stroke:none"
                             id="text14899"><tspan
                               x="0 7.7469177 12.727221 17.153605 24.900522 32.647442 38.180668 43.713898 49.247124 53.673508 59.206734 67.504585 73.037811 78.01812 83.551346 89.084572 93.510956 98.491257 103.47157 107.89795 112.87825 121.73898 126.71929 131.14568"
                               y="0"
                               sodipodi:role="line"
                               id="tspan14897">Коэффициентпористости$e$</tspan></text>
<g
                             id="g14901"
                             transform="translate(150.536,516.288)" /></g></g><g
                         id="g14903"
                         transform="translate(-659.752,-36.78)" /></g></g></g></g><g
                 id="g14905"
                 transform="translate(648.962,-50.857)" /></g><g
               id="g14907"
               transform="translate(45.777,29.887)" /></g><g
             id="g14909" /><g
             id="g14911" /></g></g></g><path
       style="fill:none;stroke:#000000;stroke-width:0.465;stroke-linecap:butt;stroke-linejoin:miter;stroke-miterlimit:4;stroke-dasharray:0.46500001, 1.39500003;stroke-dashoffset:0;stroke-opacity:1"
       d="m 350.68528,615.76398 0,-156.39198"
       id="path1765"
       inkscape:connector-curvature="0"
       sodipodi:nodetypes="cc" /><path
       style="fill:none;stroke:#000000;stroke-width:0.465;stroke-linecap:butt;stroke-linejoin:miter;stroke-miterlimit:4;stroke-dasharray:none;stroke-opacity:1"
       d="M 440.34287,519.72193 291.91922,681.30129"
       id="path7401"
       inkscape:connector-curvature="0"
       sodipodi:nodetypes="cc" /><path
       style="fill:none;stroke:#000000;stroke-width:0.465;stroke-linecap:butt;stroke-linejoin:miter;stroke-miterlimit:4;stroke-dasharray:none;stroke-opacity:1"
       d="m 399.61136,565.68073 -91.00708,66.06575 h 87.18335"
       id="path7403"
       inkscape:connector-curvature="0"
       sodipodi:nodetypes="ccc" /><path
       style="fill:none;stroke:#000000;stroke-width:0.465;stroke-linecap:butt;stroke-linejoin:miter;stroke-miterlimit:4;stroke-dasharray:none;stroke-opacity:1"
       d="m 308.60428,631.74648 88.44459,-31.37339"
       id="path7405"
       inkscape:connector-curvature="0"
       sodipodi:nodetypes="cc" /></g></svg>