<?xml version="1.0" encoding="UTF-8" standalone="no"?>
<!-- Created with Inkscape (http://www.inkscape.org/) -->

<svg
   xmlns:dc="http://purl.org/dc/elements/1.1/"
   xmlns:cc="http://creativecommons.org/ns#"
   xmlns:rdf="http://www.w3.org/1999/02/22-rdf-syntax-ns#"
   xmlns:svg="http://www.w3.org/2000/svg"
   xmlns="http://www.w3.org/2000/svg"
   xmlns:sodipodi="http://sodipodi.sourceforge.net/DTD/sodipodi-0.dtd"
   xmlns:inkscape="http://www.inkscape.org/namespaces/inkscape"
   version="1.1"
   id="svg7596"
   xml:space="preserve"
   width="793.70135"
   height="1122.52"
   viewBox="0 0 793.70135 1122.52"
   sodipodi:docname="oedometerCazagrande+monolith+8.svg"
   inkscape:version="0.92.3 (2405546, 2018-03-11)"><metadata
     id="metadata7602"><rdf:RDF><cc:Work
         rdf:about=""><dc:format>image/svg+xml</dc:format><dc:type
           rdf:resource="http://purl.org/dc/dcmitype/StillImage" /><dc:title></dc:title></cc:Work></rdf:RDF></metadata><defs
     id="defs7600"><clipPath
       clipPathUnits="userSpaceOnUse"
       id="clipPath7884"><path
         d="M 398.9364,-20.9697 H 697.82294 V 230.65407 H 398.9364 Z"
         id="path7882"
         inkscape:connector-curvature="0" /></clipPath></defs><sodipodi:namedview
     pagecolor="#ffffff"
     bordercolor="#666666"
     borderopacity="1"
     objecttolerance="10"
     gridtolerance="10"
     guidetolerance="10"
     inkscape:pageopacity="0"
     inkscape:pageshadow="2"
     inkscape:window-width="1243"
     inkscape:window-height="1408"
     id="namedview7598"
     showgrid="false"
     inkscape:zoom="1.189304"
     inkscape:cx="407.55815"
     inkscape:cy="833.57347"
     inkscape:window-x="62"
     inkscape:window-y="0"
     inkscape:window-maximized="0"
     inkscape:current-layer="g7604" /><g
     id="g7604"
     inkscape:groupmode="layer"
     inkscape:label="oedometerCazagrande+monolith"
     transform="matrix(1.3333333,0,0,-1.3333333,0,1122.52)"><g
       id="g7606"
       transform="translate(185.523,464.272)"><g
         id="g7608"><g
           id="g7610"><g
             id="g7612" /><g
             id="g7614" /><g
             id="g7616"><g
               id="g7618" /></g><g
             id="g7620" /><g
             id="g7622" /><g
             id="g7624" /><g
             id="g7626" /><g
             id="g7628"
             transform="translate(-45.777,-29.887)"><g
               id="g7630"
               transform="translate(-353.154,50.856)"><g
                 id="g7632"><g
                   id="g7634"><g
                     id="g7636"><g
                       id="g7638"><g
                         id="g7640"><path
                           d="m 407.70505,-20.9697 v 2.83512 m 61.36569,-2.83512 v 2.83512 m 35.89729,-2.83512 v 2.83512 m 25.46839,-2.83512 v 2.83512 m 19.75548,-2.83512 v 2.83512 m 16.14182,-2.83512 v 2.83512 m 13.64672,-2.83512 v 2.83512 m 11.82167,-2.83512 v 2.83512 m 10.42755,-2.83512 v 2.83512 M 407.70505,230.65407 v -2.83512 m 61.36569,2.83512 v -2.83512 m 35.89729,2.83512 v -2.83512 m 25.46839,2.83512 v -2.83512 m 19.75548,2.83512 v -2.83512 m 16.14182,2.83512 v -2.83512 m 13.64672,2.83512 v -2.83512 m 11.82167,2.83512 v -2.83512 m 10.42755,2.83512 v -2.83512"
                           style="fill:none;stroke:#808080;stroke-width:0.19925;stroke-linecap:butt;stroke-linejoin:miter;stroke-miterlimit:10;stroke-dasharray:none;stroke-opacity:1"
                           id="path7642"
                           inkscape:connector-curvature="0" /></g><g
                         id="g7644"><path
                           d="m 407.70505,-20.9697 v 4.25225 m 203.85254,-4.25225 v 4.25225 M 407.70505,230.65407 v -4.25223 m 203.85254,4.25223 v -4.25223"
                           style="fill:none;stroke:#808080;stroke-width:0.19925;stroke-linecap:butt;stroke-linejoin:miter;stroke-miterlimit:10;stroke-dasharray:none;stroke-opacity:1"
                           id="path7646"
                           inkscape:connector-curvature="0" /></g></g><g
                       id="g7648"><g
                         id="g7650"><path
                           d="m 398.9364,6.01942 h 4.231 m -4.231,30.1726 h 4.231 m -4.231,30.17258 h 4.231 m -4.231,30.17257 h 4.231 m -4.231,30.17259 h 4.231 m -4.231,30.17258 h 4.231 m -4.231,30.17259 h 4.231 m -4.231,30.17258 h 4.231 M 697.82294,6.01942 h -4.23099 m 4.23099,30.1726 h -4.23099 m 4.23099,30.17258 h -4.23099 m 4.23099,30.17257 h -4.23099 m 4.23099,30.17259 h -4.23099 m 4.23099,30.17258 h -4.23099 m 4.23099,30.17259 h -4.23099 m 4.23099,30.17258 h -4.23099"
                           style="fill:none;stroke:#808080;stroke-width:0.19925;stroke-linecap:butt;stroke-linejoin:miter;stroke-miterlimit:10;stroke-dasharray:none;stroke-opacity:1"
                           id="path7652"
                           inkscape:connector-curvature="0" /></g></g><path
                       d="M 398.9364,-20.9697 V 230.65407 H 697.82294 V -20.9697 Z"
                       style="fill:none;stroke:#000000;stroke-width:0.3985;stroke-linecap:butt;stroke-linejoin:miter;stroke-miterlimit:10;stroke-dasharray:none;stroke-opacity:1"
                       id="path7654"
                       inkscape:connector-curvature="0" /><g
                       id="g7656"><g
                         id="g7658"
                         transform="translate(398.567,-30.909)"><g
                           id="g7660"><g
                             id="g7662"
                             transform="translate(-185.159,-454.332)"><text
                               transform="matrix(1,0,0,-1,188.479,454.332)"
                               style="font-variant:normal;font-weight:normal;font-size:9.96259975px;font-family:CMR10;-inkscape-font-specification:CMR10;writing-mode:lr-tb;fill:#000000;fill-opacity:1;fill-rule:nonzero;stroke:none"
                               id="text7666"><tspan
                                 x="0 4.9812999 9.9625998"
                                 y="0"
                                 sodipodi:role="line"
                                 id="tspan7664">100</tspan></text>
<g
                               id="g7668"
                               transform="translate(185.159,454.332)" /></g></g><g
                           id="g7670"
                           transform="translate(-398.567,30.909)" /></g></g><g
                       id="g7672"><g
                         id="g7674"
                         transform="translate(599.096,-30.909)"><g
                           id="g7676"><g
                             id="g7678"
                             transform="translate(-385.688,-454.332)"><text
                               transform="matrix(1,0,0,-1,389.008,454.332)"
                               style="font-variant:normal;font-weight:normal;font-size:9.96259975px;font-family:CMR10;-inkscape-font-specification:CMR10;writing-mode:lr-tb;fill:#000000;fill-opacity:1;fill-rule:nonzero;stroke:none"
                               id="text7682"><tspan
                                 x="0 6.6450543 11.626354 16.607655"
                                 y="0"
                                 sodipodi:role="line"
                                 id="tspan7680">1000</tspan></text>
<g
                               id="g7684"
                               transform="translate(385.688,454.332)" /></g></g><g
                           id="g7686"
                           transform="translate(-599.096,30.909)" /></g></g><g
                       id="g7688"><g
                         id="g7690"
                         transform="translate(372.719,2.809)"><g
                           id="g7692"><g
                             id="g7694"
                             transform="translate(-159.311,-488.05)"><text
                               transform="matrix(1,0,0,-1,159.311,488.05)"
                               style="font-variant:normal;font-weight:normal;font-size:9.96259975px;font-family:CMR10;-inkscape-font-specification:CMR10;writing-mode:lr-tb;fill:#000000;fill-opacity:1;fill-rule:nonzero;stroke:none"
                               id="text7698"><tspan
                                 x="0"
                                 y="0"
                                 id="tspan7696">0</tspan></text>
<text
                               transform="matrix(1,0,0,-1,164.293,488.05)"
                               style="font-variant:normal;font-weight:normal;font-size:9.96259975px;font-family:CMMI10;-inkscape-font-specification:CMMI10;writing-mode:lr-tb;fill:#000000;fill-opacity:1;fill-rule:nonzero;stroke:none"
                               id="text7702"><tspan
                                 x="0"
                                 y="0"
                                 id="tspan7700">.</tspan></text>
<text
                               transform="matrix(1,0,0,-1,167.06,488.05)"
                               style="font-variant:normal;font-weight:normal;font-size:9.96259975px;font-family:CMR10;-inkscape-font-specification:CMR10;writing-mode:lr-tb;fill:#000000;fill-opacity:1;fill-rule:nonzero;stroke:none"
                               id="text7706"><tspan
                                 x="0 4.9812999 9.9625998"
                                 y="0"
                                 sodipodi:role="line"
                                 id="tspan7704">560</tspan></text>
<g
                               id="g7708"
                               transform="translate(159.311,488.05)" /></g></g><g
                           id="g7710"
                           transform="translate(-372.719,-2.809)" /></g></g><g
                       id="g7712"><g
                         id="g7714"
                         transform="translate(372.719,32.981)"><g
                           id="g7716"><g
                             id="g7718"
                             transform="translate(-159.311,-518.222)"><text
                               transform="matrix(1,0,0,-1,159.311,518.222)"
                               style="font-variant:normal;font-weight:normal;font-size:9.96259975px;font-family:CMR10;-inkscape-font-specification:CMR10;writing-mode:lr-tb;fill:#000000;fill-opacity:1;fill-rule:nonzero;stroke:none"
                               id="text7722"><tspan
                                 x="0"
                                 y="0"
                                 id="tspan7720">0</tspan></text>
<text
                               transform="matrix(1,0,0,-1,164.293,518.222)"
                               style="font-variant:normal;font-weight:normal;font-size:9.96259975px;font-family:CMMI10;-inkscape-font-specification:CMMI10;writing-mode:lr-tb;fill:#000000;fill-opacity:1;fill-rule:nonzero;stroke:none"
                               id="text7726"><tspan
                                 x="0"
                                 y="0"
                                 id="tspan7724">.</tspan></text>
<text
                               transform="matrix(1,0,0,-1,167.06,518.222)"
                               style="font-variant:normal;font-weight:normal;font-size:9.96259975px;font-family:CMR10;-inkscape-font-specification:CMR10;writing-mode:lr-tb;fill:#000000;fill-opacity:1;fill-rule:nonzero;stroke:none"
                               id="text7730"><tspan
                                 x="0 4.9812999 9.9625998"
                                 y="0"
                                 sodipodi:role="line"
                                 id="tspan7728">580</tspan></text>
<g
                               id="g7732"
                               transform="translate(159.311,518.222)" /></g></g><g
                           id="g7734"
                           transform="translate(-372.719,-32.981)" /></g></g><g
                       id="g7736"><g
                         id="g7738"
                         transform="translate(372.719,63.154)"><g
                           id="g7740"><g
                             id="g7742"
                             transform="translate(-159.311,-548.395)"><text
                               transform="matrix(1,0,0,-1,159.311,548.395)"
                               style="font-variant:normal;font-weight:normal;font-size:9.96259975px;font-family:CMR10;-inkscape-font-specification:CMR10;writing-mode:lr-tb;fill:#000000;fill-opacity:1;fill-rule:nonzero;stroke:none"
                               id="text7746"><tspan
                                 x="0"
                                 y="0"
                                 id="tspan7744">0</tspan></text>
<text
                               transform="matrix(1,0,0,-1,164.293,548.395)"
                               style="font-variant:normal;font-weight:normal;font-size:9.96259975px;font-family:CMMI10;-inkscape-font-specification:CMMI10;writing-mode:lr-tb;fill:#000000;fill-opacity:1;fill-rule:nonzero;stroke:none"
                               id="text7750"><tspan
                                 x="0"
                                 y="0"
                                 id="tspan7748">.</tspan></text>
<text
                               transform="matrix(1,0,0,-1,167.06,548.395)"
                               style="font-variant:normal;font-weight:normal;font-size:9.96259975px;font-family:CMR10;-inkscape-font-specification:CMR10;writing-mode:lr-tb;fill:#000000;fill-opacity:1;fill-rule:nonzero;stroke:none"
                               id="text7754"><tspan
                                 x="0 4.9812999 9.9625998"
                                 y="0"
                                 sodipodi:role="line"
                                 id="tspan7752">600</tspan></text>
<g
                               id="g7756"
                               transform="translate(159.311,548.395)" /></g></g><g
                           id="g7758"
                           transform="translate(-372.719,-63.154)" /></g></g><g
                       id="g7760"><g
                         id="g7762"
                         transform="translate(372.719,93.326)"><g
                           id="g7764"><g
                             id="g7766"
                             transform="translate(-159.311,-578.567)"><text
                               transform="matrix(1,0,0,-1,159.311,578.567)"
                               style="font-variant:normal;font-weight:normal;font-size:9.96259975px;font-family:CMR10;-inkscape-font-specification:CMR10;writing-mode:lr-tb;fill:#000000;fill-opacity:1;fill-rule:nonzero;stroke:none"
                               id="text7770"><tspan
                                 x="0"
                                 y="0"
                                 id="tspan7768">0</tspan></text>
<text
                               transform="matrix(1,0,0,-1,164.293,578.567)"
                               style="font-variant:normal;font-weight:normal;font-size:9.96259975px;font-family:CMMI10;-inkscape-font-specification:CMMI10;writing-mode:lr-tb;fill:#000000;fill-opacity:1;fill-rule:nonzero;stroke:none"
                               id="text7774"><tspan
                                 x="0"
                                 y="0"
                                 id="tspan7772">.</tspan></text>
<text
                               transform="matrix(1,0,0,-1,167.06,578.567)"
                               style="font-variant:normal;font-weight:normal;font-size:9.96259975px;font-family:CMR10;-inkscape-font-specification:CMR10;writing-mode:lr-tb;fill:#000000;fill-opacity:1;fill-rule:nonzero;stroke:none"
                               id="text7778"><tspan
                                 x="0 4.9812999 9.9625998"
                                 y="0"
                                 sodipodi:role="line"
                                 id="tspan7776">620</tspan></text>
<g
                               id="g7780"
                               transform="translate(159.311,578.567)" /></g></g><g
                           id="g7782"
                           transform="translate(-372.719,-93.326)" /></g></g><g
                       id="g7784"><g
                         id="g7786"
                         transform="translate(372.719,123.498)"><g
                           id="g7788"><g
                             id="g7790"
                             transform="translate(-159.311,-608.739)"><text
                               transform="matrix(1,0,0,-1,159.311,608.739)"
                               style="font-variant:normal;font-weight:normal;font-size:9.96259975px;font-family:CMR10;-inkscape-font-specification:CMR10;writing-mode:lr-tb;fill:#000000;fill-opacity:1;fill-rule:nonzero;stroke:none"
                               id="text7794"><tspan
                                 x="0"
                                 y="0"
                                 id="tspan7792">0</tspan></text>
<text
                               transform="matrix(1,0,0,-1,164.293,608.739)"
                               style="font-variant:normal;font-weight:normal;font-size:9.96259975px;font-family:CMMI10;-inkscape-font-specification:CMMI10;writing-mode:lr-tb;fill:#000000;fill-opacity:1;fill-rule:nonzero;stroke:none"
                               id="text7798"><tspan
                                 x="0"
                                 y="0"
                                 id="tspan7796">.</tspan></text>
<text
                               transform="matrix(1,0,0,-1,167.06,608.739)"
                               style="font-variant:normal;font-weight:normal;font-size:9.96259975px;font-family:CMR10;-inkscape-font-specification:CMR10;writing-mode:lr-tb;fill:#000000;fill-opacity:1;fill-rule:nonzero;stroke:none"
                               id="text7802"><tspan
                                 x="0 4.9812999 9.9625998"
                                 y="0"
                                 sodipodi:role="line"
                                 id="tspan7800">640</tspan></text>
<g
                               id="g7804"
                               transform="translate(159.311,608.739)" /></g></g><g
                           id="g7806"
                           transform="translate(-372.719,-123.498)" /></g></g><g
                       id="g7808"><g
                         id="g7810"
                         transform="translate(372.719,153.67)"><g
                           id="g7812"><g
                             id="g7814"
                             transform="translate(-159.311,-638.911)"><text
                               transform="matrix(1,0,0,-1,159.311,638.911)"
                               style="font-variant:normal;font-weight:normal;font-size:9.96259975px;font-family:CMR10;-inkscape-font-specification:CMR10;writing-mode:lr-tb;fill:#000000;fill-opacity:1;fill-rule:nonzero;stroke:none"
                               id="text7818"><tspan
                                 x="0"
                                 y="0"
                                 id="tspan7816">0</tspan></text>
<text
                               transform="matrix(1,0,0,-1,164.293,638.911)"
                               style="font-variant:normal;font-weight:normal;font-size:9.96259975px;font-family:CMMI10;-inkscape-font-specification:CMMI10;writing-mode:lr-tb;fill:#000000;fill-opacity:1;fill-rule:nonzero;stroke:none"
                               id="text7822"><tspan
                                 x="0"
                                 y="0"
                                 id="tspan7820">.</tspan></text>
<text
                               transform="matrix(1,0,0,-1,167.06,638.911)"
                               style="font-variant:normal;font-weight:normal;font-size:9.96259975px;font-family:CMR10;-inkscape-font-specification:CMR10;writing-mode:lr-tb;fill:#000000;fill-opacity:1;fill-rule:nonzero;stroke:none"
                               id="text7826"><tspan
                                 x="0 4.9812999 9.9625998"
                                 y="0"
                                 sodipodi:role="line"
                                 id="tspan7824">660</tspan></text>
<g
                               id="g7828"
                               transform="translate(159.311,638.911)" /></g></g><g
                           id="g7830"
                           transform="translate(-372.719,-153.67)" /></g></g><g
                       id="g7832"><g
                         id="g7834"
                         transform="translate(372.719,183.842)"><g
                           id="g7836"><g
                             id="g7838"
                             transform="translate(-159.311,-669.083)"><text
                               transform="matrix(1,0,0,-1,159.311,669.083)"
                               style="font-variant:normal;font-weight:normal;font-size:9.96259975px;font-family:CMR10;-inkscape-font-specification:CMR10;writing-mode:lr-tb;fill:#000000;fill-opacity:1;fill-rule:nonzero;stroke:none"
                               id="text7842"><tspan
                                 x="0"
                                 y="0"
                                 id="tspan7840">0</tspan></text>
<text
                               transform="matrix(1,0,0,-1,164.293,669.083)"
                               style="font-variant:normal;font-weight:normal;font-size:9.96259975px;font-family:CMMI10;-inkscape-font-specification:CMMI10;writing-mode:lr-tb;fill:#000000;fill-opacity:1;fill-rule:nonzero;stroke:none"
                               id="text7846"><tspan
                                 x="0"
                                 y="0"
                                 id="tspan7844">.</tspan></text>
<text
                               transform="matrix(1,0,0,-1,167.06,669.083)"
                               style="font-variant:normal;font-weight:normal;font-size:9.96259975px;font-family:CMR10;-inkscape-font-specification:CMR10;writing-mode:lr-tb;fill:#000000;fill-opacity:1;fill-rule:nonzero;stroke:none"
                               id="text7850"><tspan
                                 x="0 4.9812999 9.9625998"
                                 y="0"
                                 sodipodi:role="line"
                                 id="tspan7848">680</tspan></text>
<g
                               id="g7852"
                               transform="translate(159.311,669.083)" /></g></g><g
                           id="g7854"
                           transform="translate(-372.719,-183.842)" /></g></g><g
                       id="g7856"><g
                         id="g7858"
                         transform="translate(372.719,214.015)"><g
                           id="g7860"><g
                             id="g7862"
                             transform="translate(-159.311,-699.256)"><text
                               transform="matrix(1,0,0,-1,159.311,699.256)"
                               style="font-variant:normal;font-weight:normal;font-size:9.96259975px;font-family:CMR10;-inkscape-font-specification:CMR10;writing-mode:lr-tb;fill:#000000;fill-opacity:1;fill-rule:nonzero;stroke:none"
                               id="text7866"><tspan
                                 x="0"
                                 y="0"
                                 id="tspan7864">0</tspan></text>
<text
                               transform="matrix(1,0,0,-1,164.293,699.256)"
                               style="font-variant:normal;font-weight:normal;font-size:9.96259975px;font-family:CMMI10;-inkscape-font-specification:CMMI10;writing-mode:lr-tb;fill:#000000;fill-opacity:1;fill-rule:nonzero;stroke:none"
                               id="text7870"><tspan
                                 x="0"
                                 y="0"
                                 id="tspan7868">.</tspan></text>
<text
                               transform="matrix(1,0,0,-1,167.06,699.256)"
                               style="font-variant:normal;font-weight:normal;font-size:9.96259975px;font-family:CMR10;-inkscape-font-specification:CMR10;writing-mode:lr-tb;fill:#000000;fill-opacity:1;fill-rule:nonzero;stroke:none"
                               id="text7874"><tspan
                                 x="0 4.9812999 9.9625998"
                                 y="0"
                                 sodipodi:role="line"
                                 id="tspan7872">700</tspan></text>
<g
                               id="g7876"
                               transform="translate(159.311,699.256)" /></g></g><g
                           id="g7878"
                           transform="translate(-372.719,-214.015)" /></g></g><g
                       id="g7880"
                       clip-path="url(#clipPath7884)"><g
                         id="g7886"><path
                           d="m 423.84418,209.68436 c 0,0 11.93446,-0.56899 16.14047,-1.27858 4.20601,-0.70958 9.02347,-2.06169 14.17358,-3.83567 5.1501,-1.77398 15.14205,-4.86978 22.94492,-8.94993 7.80287,-4.08016 20.93376,-10.34534 33.29277,-20.45703 12.35902,-10.11171 44.50586,-41.77719 55.78246,-52.42108 11.27658,-10.64391 19.20764,-17.72898 25.49136,-24.29271 6.28372,-6.56372 14.30666,-16.80521 19.79733,-23.01413 5.49068,-6.20894 14.77536,-15.70404 19.77573,-21.73558 5.00035,-6.03155 12.11438,-16.41364 16.26341,-21.73558 4.14902,-5.32193 10.11452,-12.18637 13.63997,-16.62133 C 664.67163,10.90779 672.91518,0 672.91518,0"
                           style="fill:none;stroke:#ff0000;stroke-width:0.3985;stroke-linecap:butt;stroke-linejoin:miter;stroke-miterlimit:10;stroke-dasharray:none;stroke-opacity:1"
                           id="path7888"
                           inkscape:connector-curvature="0" /></g></g></g><g
                     id="g7890"><path
                       d="m 425.83673,209.68436 c 0,1.10048 -0.89207,1.99255 -1.99255,1.99255 -1.10047,0 -1.99256,-0.89207 -1.99256,-1.99255 0,-1.10046 0.89209,-1.99256 1.99256,-1.99256 1.10048,0 1.99255,0.8921 1.99255,1.99256 z"
                       style="fill:#ff0000;fill-opacity:1;fill-rule:nonzero;stroke:#ff0000;stroke-width:0.3985;stroke-linecap:butt;stroke-linejoin:miter;stroke-miterlimit:10;stroke-dasharray:none;stroke-opacity:1"
                       id="path7892"
                       inkscape:connector-curvature="0" /><path
                       d="m 441.9772,208.40578 c 0,1.10048 -0.89207,1.99255 -1.99255,1.99255 -1.10046,0 -1.99255,-0.89207 -1.99255,-1.99255 0,-1.10047 0.89209,-1.99256 1.99255,-1.99256 1.10048,0 1.99255,0.89209 1.99255,1.99256 z"
                       style="fill:#ff0000;fill-opacity:1;fill-rule:nonzero;stroke:#ff0000;stroke-width:0.3985;stroke-linecap:butt;stroke-linejoin:miter;stroke-miterlimit:10;stroke-dasharray:none;stroke-opacity:1"
                       id="path7894"
                       inkscape:connector-curvature="0" /><path
                       d="m 456.15079,204.57011 c 0,1.10047 -0.89209,1.99256 -1.99256,1.99256 -1.10048,0 -1.99255,-0.89209 -1.99255,-1.99256 0,-1.10047 0.89207,-1.99255 1.99255,-1.99255 1.10047,0 1.99256,0.89208 1.99256,1.99255 z"
                       style="fill:#ff0000;fill-opacity:1;fill-rule:nonzero;stroke:#ff0000;stroke-width:0.3985;stroke-linecap:butt;stroke-linejoin:miter;stroke-miterlimit:10;stroke-dasharray:none;stroke-opacity:1"
                       id="path7896"
                       inkscape:connector-curvature="0" /><path
                       d="m 479.0957,195.62018 c 0,1.10046 -0.89207,1.99255 -1.99255,1.99255 -1.10046,0 -1.99255,-0.89209 -1.99255,-1.99255 0,-1.10048 0.89209,-1.99256 1.99255,-1.99256 1.10048,0 1.99255,0.89208 1.99255,1.99256 z"
                       style="fill:#ff0000;fill-opacity:1;fill-rule:nonzero;stroke:#ff0000;stroke-width:0.3985;stroke-linecap:butt;stroke-linejoin:miter;stroke-miterlimit:10;stroke-dasharray:none;stroke-opacity:1"
                       id="path7898"
                       inkscape:connector-curvature="0" /><path
                       d="m 512.38847,175.16315 c 0,1.10046 -0.89207,1.99255 -1.99255,1.99255 -1.10046,0 -1.99255,-0.89209 -1.99255,-1.99255 0,-1.10048 0.89209,-1.99255 1.99255,-1.99255 1.10048,0 1.99255,0.89207 1.99255,1.99255 z"
                       style="fill:#ff0000;fill-opacity:1;fill-rule:nonzero;stroke:#ff0000;stroke-width:0.3985;stroke-linecap:butt;stroke-linejoin:miter;stroke-miterlimit:10;stroke-dasharray:none;stroke-opacity:1"
                       id="path7900"
                       inkscape:connector-curvature="0" /><path
                       d="m 568.17093,122.74207 c 0,1.10046 -0.89209,1.99255 -1.99255,1.99255 -1.10048,0 -1.99256,-0.89209 -1.99256,-1.99255 0,-1.10048 0.89208,-1.99256 1.99256,-1.99256 1.10046,0 1.99255,0.89208 1.99255,1.99256 z"
                       style="fill:#ff0000;fill-opacity:1;fill-rule:nonzero;stroke:#ff0000;stroke-width:0.3985;stroke-linecap:butt;stroke-linejoin:miter;stroke-miterlimit:10;stroke-dasharray:none;stroke-opacity:1"
                       id="path7902"
                       inkscape:connector-curvature="0" /><path
                       d="m 593.6623,98.44936 c 0,1.10048 -0.8921,1.99255 -1.99256,1.99255 -1.10048,0 -1.99255,-0.89207 -1.99255,-1.99255 0,-1.10047 0.89207,-1.99256 1.99255,-1.99256 1.10046,0 1.99256,0.89209 1.99256,1.99256 z"
                       style="fill:#ff0000;fill-opacity:1;fill-rule:nonzero;stroke:#ff0000;stroke-width:0.3985;stroke-linecap:butt;stroke-linejoin:miter;stroke-miterlimit:10;stroke-dasharray:none;stroke-opacity:1"
                       id="path7904"
                       inkscape:connector-curvature="0" /><path
                       d="m 613.45963,75.43523 c 0,1.10046 -0.89209,1.99255 -1.99256,1.99255 -1.10047,0 -1.99255,-0.89209 -1.99255,-1.99255 0,-1.10048 0.89208,-1.99256 1.99255,-1.99256 1.10047,0 1.99256,0.89208 1.99256,1.99256 z"
                       style="fill:#ff0000;fill-opacity:1;fill-rule:nonzero;stroke:#ff0000;stroke-width:0.3985;stroke-linecap:butt;stroke-linejoin:miter;stroke-miterlimit:10;stroke-dasharray:none;stroke-opacity:1"
                       id="path7906"
                       inkscape:connector-curvature="0" /><path
                       d="m 633.23535,53.69965 c 0,1.10046 -0.89209,1.99255 -1.99255,1.99255 -1.10048,0 -1.99256,-0.89209 -1.99256,-1.99255 0,-1.10048 0.89208,-1.99256 1.99256,-1.99256 1.10046,0 1.99255,0.89208 1.99255,1.99256 z"
                       style="fill:#ff0000;fill-opacity:1;fill-rule:nonzero;stroke:#ff0000;stroke-width:0.3985;stroke-linecap:butt;stroke-linejoin:miter;stroke-miterlimit:10;stroke-dasharray:none;stroke-opacity:1"
                       id="path7908"
                       inkscape:connector-curvature="0" /><path
                       d="m 649.49876,31.96407 c 0,1.10047 -0.89209,1.99255 -1.99255,1.99255 -1.10048,0 -1.99255,-0.89208 -1.99255,-1.99255 0,-1.10047 0.89207,-1.99256 1.99255,-1.99256 1.10046,0 1.99255,0.89209 1.99255,1.99256 z"
                       style="fill:#ff0000;fill-opacity:1;fill-rule:nonzero;stroke:#ff0000;stroke-width:0.3985;stroke-linecap:butt;stroke-linejoin:miter;stroke-miterlimit:10;stroke-dasharray:none;stroke-opacity:1"
                       id="path7910"
                       inkscape:connector-curvature="0" /><path
                       d="m 663.13873,15.34274 c 0,1.10046 -0.89209,1.99256 -1.99255,1.99256 -1.10048,0 -1.99255,-0.8921 -1.99255,-1.99256 0,-1.10048 0.89207,-1.99255 1.99255,-1.99255 1.10046,0 1.99255,0.89207 1.99255,1.99255 z"
                       style="fill:#ff0000;fill-opacity:1;fill-rule:nonzero;stroke:#ff0000;stroke-width:0.3985;stroke-linecap:butt;stroke-linejoin:miter;stroke-miterlimit:10;stroke-dasharray:none;stroke-opacity:1"
                       id="path7912"
                       inkscape:connector-curvature="0" /><path
                       d="m 674.90773,0 c 0,1.10046 -0.89209,1.99255 -1.99255,1.99255 -1.10048,0 -1.99256,-0.89209 -1.99256,-1.99255 0,-1.10046 0.89208,-1.99255 1.99256,-1.99255 1.10046,0 1.99255,0.89209 1.99255,1.99255 z"
                       style="fill:#ff0000;fill-opacity:1;fill-rule:nonzero;stroke:#ff0000;stroke-width:0.3985;stroke-linecap:butt;stroke-linejoin:miter;stroke-miterlimit:10;stroke-dasharray:none;stroke-opacity:1"
                       id="path7914"
                       inkscape:connector-curvature="0" /></g><g
                     id="g7916"><g
                       id="g7918"
                       transform="translate(450.125,-45.217)"><g
                         id="g7920"><g
                           id="g7922"
                           transform="translate(-236.717,-440.024)"><text
                             transform="matrix(1,0,0,-1,236.717,440.024)"
                             style="font-variant:normal;font-weight:normal;font-size:9.96259975px;font-family:SFRM1000;-inkscape-font-specification:SFRM1000;writing-mode:lr-tb;fill:#000000;fill-opacity:1;fill-rule:nonzero;stroke:none"
                             id="text7926"><tspan
                               x="0 7.0555134 11.481896 17.015125 21.995428 27.528656 32.782932 37.763237 43.296463 48.276768 53.809994 58.790298 66.544189 72.077415 77.057724 82.59095 87.845222 93.239975 101.26086 105.68725 111.22047 116.7537 124.50759 129.47794 133.41615 136.18277 141.16307 149.46291 154.44321 162.19012 167.17044 172.14078 178.23489 183.76813 191.51505"
                               y="0"
                               sodipodi:role="line"
                               id="tspan7924">Вертикальное напряжение $\sigma_1$, кПа</tspan></text>
<g
                             id="g7928"
                             transform="translate(236.717,440.024)" /></g></g><g
                         id="g7930"
                         transform="translate(-450.125,45.217)" /></g></g><g
                     id="g7932"><g
                       id="g7934"
                       transform="rotate(90,163.582,200.362)"><g
                         id="g7936"><g
                           id="g7938"
                           transform="translate(-150.536,-522.021)"><text
                             transform="matrix(1,0,0,-1,150.536,522.021)"
                             style="font-variant:normal;font-weight:normal;font-size:9.96259975px;font-family:SFRM1000;-inkscape-font-specification:SFRM1000;writing-mode:lr-tb;fill:#000000;fill-opacity:1;fill-rule:nonzero;stroke:none"
                             id="text7942"><tspan
                               x="0 7.7469177 12.727221 17.153605 24.900522 32.647442 38.180668 43.713898 49.247124 53.673508 59.206734 67.504585 73.037811 78.01812 83.551346 89.084572 93.510956 98.491257 103.47157 107.89795 112.87825 121.73898 126.71929 131.14568"
                               y="0"
                               sodipodi:role="line"
                               id="tspan7940">Коэффициентпористости$e$</tspan></text>
<g
                             id="g7944"
                             transform="translate(150.536,522.021)" /></g></g><g
                         id="g7946"
                         transform="translate(-363.944,-36.78)" /></g></g></g></g><g
                 id="g7948"
                 transform="translate(353.154,-50.856)" /></g><g
               id="g7950"
               transform="translate(45.777,29.887)" /></g><g
             id="g7952" /><g
             id="g7954" /></g></g></g><path
       style="fill:none;stroke:#000000;stroke-width:0.465;stroke-linecap:butt;stroke-linejoin:miter;stroke-miterlimit:4;stroke-dasharray:0.46500001, 1.39500003;stroke-dashoffset:0;stroke-opacity:1"
       d="M 323.87886,660.35543 V 466.4415"
       id="path1765"
       inkscape:connector-curvature="0" /><path
       style="fill:none;stroke:#000000;stroke-width:0.465;stroke-linecap:butt;stroke-linejoin:miter;stroke-miterlimit:4;stroke-dasharray:none;stroke-opacity:1"
       d="M 459.50718,485.241 302.63979,690.1874"
       id="path7401"
       inkscape:connector-curvature="0"
       sodipodi:nodetypes="cc" /><path
       style="fill:none;stroke:#000000;stroke-width:0.465;stroke-linecap:butt;stroke-linejoin:miter;stroke-miterlimit:4;stroke-dasharray:none;stroke-opacity:1"
       d="m 352.39808,625.52418 -86.71038,55.337 h 87.18335"
       id="path7403"
       inkscape:connector-curvature="0"
       sodipodi:nodetypes="ccc" /><path
       style="fill:none;stroke:#000000;stroke-width:0.465;stroke-linecap:butt;stroke-linejoin:miter;stroke-miterlimit:4;stroke-dasharray:none;stroke-opacity:1"
       d="m 265.6877,680.86118 87.40631,-28.20445"
       id="path7405"
       inkscape:connector-curvature="0"
       sodipodi:nodetypes="cc" /></g></svg>