<?xml version="1.0" encoding="UTF-8" standalone="no"?>
<!-- Created with Inkscape (http://www.inkscape.org/) -->

<svg
   xmlns:dc="http://purl.org/dc/elements/1.1/"
   xmlns:cc="http://creativecommons.org/ns#"
   xmlns:rdf="http://www.w3.org/1999/02/22-rdf-syntax-ns#"
   xmlns:svg="http://www.w3.org/2000/svg"
   xmlns="http://www.w3.org/2000/svg"
   xmlns:sodipodi="http://sodipodi.sourceforge.net/DTD/sodipodi-0.dtd"
   xmlns:inkscape="http://www.inkscape.org/namespaces/inkscape"
   version="1.1"
   id="svg10651"
   xml:space="preserve"
   width="793.70135"
   height="1122.52"
   viewBox="0 0 793.70135 1122.52"
   sodipodi:docname="oedometerCazagrande+monolith+11.svg"
   inkscape:version="0.92.3 (2405546, 2018-03-11)"><metadata
     id="metadata10657"><rdf:RDF><cc:Work
         rdf:about=""><dc:format>image/svg+xml</dc:format><dc:type
           rdf:resource="http://purl.org/dc/dcmitype/StillImage" /><dc:title></dc:title></cc:Work></rdf:RDF></metadata><defs
     id="defs10655"><clipPath
       clipPathUnits="userSpaceOnUse"
       id="clipPath10867"><path
         d="M 145.45168,-20.96991 H 444.34074 V 230.65633 H 145.45168 Z"
         id="path10865"
         inkscape:connector-curvature="0" /></clipPath></defs><sodipodi:namedview
     pagecolor="#ffffff"
     bordercolor="#666666"
     borderopacity="1"
     objecttolerance="10"
     gridtolerance="10"
     guidetolerance="10"
     inkscape:pageopacity="0"
     inkscape:pageshadow="2"
     inkscape:window-width="1243"
     inkscape:window-height="1408"
     id="namedview10653"
     showgrid="false"
     inkscape:zoom="1.189304"
     inkscape:cx="479.56769"
     inkscape:cy="974.67461"
     inkscape:window-x="62"
     inkscape:window-y="0"
     inkscape:window-maximized="0"
     inkscape:current-layer="g10659" /><g
     id="g10659"
     inkscape:groupmode="layer"
     inkscape:label="oedometerCazagrande+monolith"
     transform="matrix(1.3333333,0,0,-1.3333333,0,1122.52)"><g
       id="g10661"
       transform="translate(185.523,464.269)"><g
         id="g10663"><g
           id="g10665"><g
             id="g10667" /><g
             id="g10669" /><g
             id="g10671"><g
               id="g10673" /></g><g
             id="g10675" /><g
             id="g10677" /><g
             id="g10679" /><g
             id="g10681" /><g
             id="g10683"
             transform="translate(-45.777,-29.887)"><g
               id="g10685"
               transform="translate(-99.673,50.857)"><g
                 id="g10687"><g
                   id="g10689"><g
                     id="g10691"><g
                       id="g10693"><g
                         id="g10695"><path
                           d="m 160.58798,-20.96991 v 2.83458 m 21.73558,-2.83458 v 2.83458 m 15.42096,-2.83458 v 2.83458 m 11.96181,-2.83458 v 2.83458 m 9.77377,-2.83458 v 2.83458 m 8.26302,-2.83458 v 2.83458 m 7.15794,-2.83458 v 2.83458 m 6.31381,-2.83458 v 2.83458 m 5.648,-2.83458 v 2.83458 m 37.15655,-2.83458 v 2.83458 m 21.73558,-2.83458 v 2.83458 m 15.42096,-2.83458 v 2.83458 m 11.96181,-2.83458 v 2.83458 m 9.77377,-2.83458 v 2.83458 m 8.26302,-2.83458 v 2.83458 m 7.15794,-2.83458 v 2.83458 m 6.31382,-2.83458 v 2.83458 m 5.64799,-2.83458 v 2.83458 m 37.15656,-2.83458 v 2.83458 m 21.73559,-2.83458 v 2.83458 M 160.58798,230.65633 v -2.83458 m 21.73558,2.83458 v -2.83458 m 15.42096,2.83458 v -2.83458 m 11.96181,2.83458 v -2.83458 m 9.77377,2.83458 v -2.83458 m 8.26302,2.83458 v -2.83458 m 7.15794,2.83458 v -2.83458 m 6.31381,2.83458 v -2.83458 m 5.648,2.83458 v -2.83458 m 37.15655,2.83458 v -2.83458 m 21.73558,2.83458 v -2.83458 m 15.42096,2.83458 v -2.83458 m 11.96181,2.83458 v -2.83458 m 9.77377,2.83458 v -2.83458 m 8.26302,2.83458 v -2.83458 m 7.15794,2.83458 v -2.83458 m 6.31382,2.83458 v -2.83458 m 5.64799,2.83458 v -2.83458 m 37.15656,2.83458 v -2.83458 m 21.73559,2.83458 v -2.83458"
                           style="fill:none;stroke:#808080;stroke-width:0.19925;stroke-linecap:butt;stroke-linejoin:miter;stroke-miterlimit:10;stroke-dasharray:none;stroke-opacity:1"
                           id="path10697"
                           inkscape:connector-curvature="0" /></g><g
                         id="g10699"><path
                           d="m 246.86287,-20.96991 v 4.25145 m 123.43144,-4.25145 v 4.25145 M 246.86287,230.65633 v -4.25145 m 123.43144,4.25145 v -4.25145"
                           style="fill:none;stroke:#808080;stroke-width:0.19925;stroke-linecap:butt;stroke-linejoin:miter;stroke-miterlimit:10;stroke-dasharray:none;stroke-opacity:1"
                           id="path10701"
                           inkscape:connector-curvature="0" /></g></g><g
                       id="g10703"><g
                         id="g10705"><path
                           d="m 145.45168,-7.45999 h 4.23046 m -4.23046,49.74008 h 4.23046 m -4.23046,49.74011 h 4.23046 m -4.23046,49.74011 h 4.23046 m -4.23046,49.74012 h 4.23046 M 444.34074,-7.45999 h -4.23046 m 4.23046,49.74008 h -4.23046 m 4.23046,49.74011 h -4.23046 m 4.23046,49.74011 h -4.23046 m 4.23046,49.74012 h -4.23046"
                           style="fill:none;stroke:#808080;stroke-width:0.19925;stroke-linecap:butt;stroke-linejoin:miter;stroke-miterlimit:10;stroke-dasharray:none;stroke-opacity:1"
                           id="path10707"
                           inkscape:connector-curvature="0" /></g></g><path
                       d="M 145.45168,-20.96991 V 230.65633 H 444.34074 V -20.96991 Z"
                       style="fill:none;stroke:#000000;stroke-width:0.3985;stroke-linecap:butt;stroke-linejoin:miter;stroke-miterlimit:10;stroke-dasharray:none;stroke-opacity:1"
                       id="path10709"
                       inkscape:connector-curvature="0" /><g
                       id="g10711"><g
                         id="g10713"
                         transform="translate(237.728,-30.909)"><g
                           id="g10715"><g
                             id="g10717"
                             transform="translate(-277.801,-454.33)"><text
                               transform="matrix(1,0,0,-1,281.121,454.33)"
                               style="font-variant:normal;font-weight:normal;font-size:9.96259975px;font-family:CMR10;-inkscape-font-specification:CMR10;writing-mode:lr-tb;fill:#000000;fill-opacity:1;fill-rule:nonzero;stroke:none"
                               id="text10721"><tspan
                                 x="0 4.9812999 9.9625998"
                                 y="0"
                                 sodipodi:role="line"
                                 id="tspan10719">100</tspan></text>
<g
                               id="g10723"
                               transform="translate(277.801,454.33)" /></g></g><g
                           id="g10725"
                           transform="translate(-237.728,30.909)" /></g></g><g
                       id="g10727"><g
                         id="g10729"
                         transform="translate(357.837,-30.909)"><g
                           id="g10731"><g
                             id="g10733"
                             transform="translate(-397.91,-454.33)"><text
                               transform="matrix(1,0,0,-1,401.23,454.33)"
                               style="font-variant:normal;font-weight:normal;font-size:9.96259975px;font-family:CMR10;-inkscape-font-specification:CMR10;writing-mode:lr-tb;fill:#000000;fill-opacity:1;fill-rule:nonzero;stroke:none"
                               id="text10737"><tspan
                                 x="0 6.6450543 11.626354 16.607655"
                                 y="0"
                                 sodipodi:role="line"
                                 id="tspan10735">1000</tspan></text>
<g
                               id="g10739"
                               transform="translate(397.91,454.33)" /></g></g><g
                           id="g10741"
                           transform="translate(-357.837,30.909)" /></g></g><g
                       id="g10743"><g
                         id="g10745"
                         transform="translate(119.238,-10.67)"><g
                           id="g10747"><g
                             id="g10749"
                             transform="translate(-159.311,-474.569)"><text
                               transform="matrix(1,0,0,-1,159.311,474.569)"
                               style="font-variant:normal;font-weight:normal;font-size:9.96259975px;font-family:CMR10;-inkscape-font-specification:CMR10;writing-mode:lr-tb;fill:#000000;fill-opacity:1;fill-rule:nonzero;stroke:none"
                               id="text10753"><tspan
                                 x="0"
                                 y="0"
                                 id="tspan10751">0</tspan></text>
<text
                               transform="matrix(1,0,0,-1,164.293,474.569)"
                               style="font-variant:normal;font-weight:normal;font-size:9.96259975px;font-family:CMMI10;-inkscape-font-specification:CMMI10;writing-mode:lr-tb;fill:#000000;fill-opacity:1;fill-rule:nonzero;stroke:none"
                               id="text10757"><tspan
                                 x="0"
                                 y="0"
                                 id="tspan10755">.</tspan></text>
<text
                               transform="matrix(1,0,0,-1,167.06,474.569)"
                               style="font-variant:normal;font-weight:normal;font-size:9.96259975px;font-family:CMR10;-inkscape-font-specification:CMR10;writing-mode:lr-tb;fill:#000000;fill-opacity:1;fill-rule:nonzero;stroke:none"
                               id="text10761"><tspan
                                 x="0 4.9812999 9.9625998"
                                 y="0"
                                 sodipodi:role="line"
                                 id="tspan10759">350</tspan></text>
<g
                               id="g10763"
                               transform="translate(159.311,474.569)" /></g></g><g
                           id="g10765"
                           transform="translate(-119.238,10.67)" /></g></g><g
                       id="g10767"><g
                         id="g10769"
                         transform="translate(119.238,39.069)"><g
                           id="g10771"><g
                             id="g10773"
                             transform="translate(-159.311,-524.308)"><text
                               transform="matrix(1,0,0,-1,159.311,524.308)"
                               style="font-variant:normal;font-weight:normal;font-size:9.96259975px;font-family:CMR10;-inkscape-font-specification:CMR10;writing-mode:lr-tb;fill:#000000;fill-opacity:1;fill-rule:nonzero;stroke:none"
                               id="text10777"><tspan
                                 x="0"
                                 y="0"
                                 id="tspan10775">0</tspan></text>
<text
                               transform="matrix(1,0,0,-1,164.292,524.308)"
                               style="font-variant:normal;font-weight:normal;font-size:9.96259975px;font-family:CMMI10;-inkscape-font-specification:CMMI10;writing-mode:lr-tb;fill:#000000;fill-opacity:1;fill-rule:nonzero;stroke:none"
                               id="text10781"><tspan
                                 x="0"
                                 y="0"
                                 id="tspan10779">.</tspan></text>
<text
                               transform="matrix(1,0,0,-1,167.06,524.308)"
                               style="font-variant:normal;font-weight:normal;font-size:9.96259975px;font-family:CMR10;-inkscape-font-specification:CMR10;writing-mode:lr-tb;fill:#000000;fill-opacity:1;fill-rule:nonzero;stroke:none"
                               id="text10785"><tspan
                                 x="0 4.9812999 9.9625998"
                                 y="0"
                                 sodipodi:role="line"
                                 id="tspan10783">400</tspan></text>
<g
                               id="g10787"
                               transform="translate(159.311,524.308)" /></g></g><g
                           id="g10789"
                           transform="translate(-119.238,-39.069)" /></g></g><g
                       id="g10791"><g
                         id="g10793"
                         transform="translate(119.238,88.809)"><g
                           id="g10795"><g
                             id="g10797"
                             transform="translate(-159.311,-574.048)"><text
                               transform="matrix(1,0,0,-1,159.311,574.048)"
                               style="font-variant:normal;font-weight:normal;font-size:9.96259975px;font-family:CMR10;-inkscape-font-specification:CMR10;writing-mode:lr-tb;fill:#000000;fill-opacity:1;fill-rule:nonzero;stroke:none"
                               id="text10801"><tspan
                                 x="0"
                                 y="0"
                                 id="tspan10799">0</tspan></text>
<text
                               transform="matrix(1,0,0,-1,164.292,574.048)"
                               style="font-variant:normal;font-weight:normal;font-size:9.96259975px;font-family:CMMI10;-inkscape-font-specification:CMMI10;writing-mode:lr-tb;fill:#000000;fill-opacity:1;fill-rule:nonzero;stroke:none"
                               id="text10805"><tspan
                                 x="0"
                                 y="0"
                                 id="tspan10803">.</tspan></text>
<text
                               transform="matrix(1,0,0,-1,167.06,574.048)"
                               style="font-variant:normal;font-weight:normal;font-size:9.96259975px;font-family:CMR10;-inkscape-font-specification:CMR10;writing-mode:lr-tb;fill:#000000;fill-opacity:1;fill-rule:nonzero;stroke:none"
                               id="text10809"><tspan
                                 x="0 4.9812999 9.9625998"
                                 y="0"
                                 sodipodi:role="line"
                                 id="tspan10807">450</tspan></text>
<g
                               id="g10811"
                               transform="translate(159.311,574.048)" /></g></g><g
                           id="g10813"
                           transform="translate(-119.238,-88.809)" /></g></g><g
                       id="g10815"><g
                         id="g10817"
                         transform="translate(119.238,138.548)"><g
                           id="g10819"><g
                             id="g10821"
                             transform="translate(-159.311,-623.787)"><text
                               transform="matrix(1,0,0,-1,159.311,623.787)"
                               style="font-variant:normal;font-weight:normal;font-size:9.96259975px;font-family:CMR10;-inkscape-font-specification:CMR10;writing-mode:lr-tb;fill:#000000;fill-opacity:1;fill-rule:nonzero;stroke:none"
                               id="text10825"><tspan
                                 x="0"
                                 y="0"
                                 id="tspan10823">0</tspan></text>
<text
                               transform="matrix(1,0,0,-1,164.292,623.787)"
                               style="font-variant:normal;font-weight:normal;font-size:9.96259975px;font-family:CMMI10;-inkscape-font-specification:CMMI10;writing-mode:lr-tb;fill:#000000;fill-opacity:1;fill-rule:nonzero;stroke:none"
                               id="text10829"><tspan
                                 x="0"
                                 y="0"
                                 id="tspan10827">.</tspan></text>
<text
                               transform="matrix(1,0,0,-1,167.06,623.787)"
                               style="font-variant:normal;font-weight:normal;font-size:9.96259975px;font-family:CMR10;-inkscape-font-specification:CMR10;writing-mode:lr-tb;fill:#000000;fill-opacity:1;fill-rule:nonzero;stroke:none"
                               id="text10833"><tspan
                                 x="0 4.9812999 9.9625998"
                                 y="0"
                                 sodipodi:role="line"
                                 id="tspan10831">500</tspan></text>
<g
                               id="g10835"
                               transform="translate(159.311,623.787)" /></g></g><g
                           id="g10837"
                           transform="translate(-119.238,-138.548)" /></g></g><g
                       id="g10839"><g
                         id="g10841"
                         transform="translate(119.238,188.288)"><g
                           id="g10843"><g
                             id="g10845"
                             transform="translate(-159.311,-673.527)"><text
                               transform="matrix(1,0,0,-1,159.311,673.527)"
                               style="font-variant:normal;font-weight:normal;font-size:9.96259975px;font-family:CMR10;-inkscape-font-specification:CMR10;writing-mode:lr-tb;fill:#000000;fill-opacity:1;fill-rule:nonzero;stroke:none"
                               id="text10849"><tspan
                                 x="0"
                                 y="0"
                                 id="tspan10847">0</tspan></text>
<text
                               transform="matrix(1,0,0,-1,164.292,673.527)"
                               style="font-variant:normal;font-weight:normal;font-size:9.96259975px;font-family:CMMI10;-inkscape-font-specification:CMMI10;writing-mode:lr-tb;fill:#000000;fill-opacity:1;fill-rule:nonzero;stroke:none"
                               id="text10853"><tspan
                                 x="0"
                                 y="0"
                                 id="tspan10851">.</tspan></text>
<text
                               transform="matrix(1,0,0,-1,167.06,673.527)"
                               style="font-variant:normal;font-weight:normal;font-size:9.96259975px;font-family:CMR10;-inkscape-font-specification:CMR10;writing-mode:lr-tb;fill:#000000;fill-opacity:1;fill-rule:nonzero;stroke:none"
                               id="text10857"><tspan
                                 x="0 4.9812999 9.9625998"
                                 y="0"
                                 sodipodi:role="line"
                                 id="tspan10855">550</tspan></text>
<g
                               id="g10859"
                               transform="translate(159.311,673.527)" /></g></g><g
                           id="g10861"
                           transform="translate(-119.238,-188.288)" /></g></g><g
                       id="g10863"
                       clip-path="url(#clipPath10867)"><g
                         id="g10869"><path
                           d="m 170.3601,209.68642 c 0,0 103.28973,-41.25866 122.0753,-49.29197 18.78555,-8.0333 10.34545,-6.54393 13.31797,-8.60653 2.97252,-2.06261 6.00514,-4.41384 8.10596,-6.25931 2.1008,-1.84547 7.03526,-6.17323 7.03526,-7.0417 0,-0.86846 -4.88441,0.67386 -7.03526,0.78242 -2.15086,0.10855 -9.48183,0.21712 -8.46668,0 1.01517,-0.21711 10.59069,2.2347 15.78331,-1.56483 5.19262,-3.79953 16.49724,-19.19754 21.64151,-25.81958 5.14429,-6.62206 11.63749,-16.47963 15.43486,-21.90755 3.79738,-5.42792 8.91359,-12.76219 11.93401,-17.21307 3.02043,-4.45088 9.81277,-12.91179 9.83513,-14.86583 0.0223,-1.95403 -9.66785,0.89097 -9.67398,0.78243 -0.006,-0.10857 6.61711,0.82343 9.62982,-1.56484 3.01269,-2.38828 8.27248,-10.00321 12.08368,-15.64823 3.81122,-5.64503 11.58725,-19.28361 15.38496,-25.0372 C 411.24367,10.67706 419.43231,0 419.43231,0"
                           style="fill:none;stroke:#ff0000;stroke-width:0.3985;stroke-linecap:butt;stroke-linejoin:miter;stroke-miterlimit:10;stroke-dasharray:none;stroke-opacity:1"
                           id="path10871"
                           inkscape:connector-curvature="0" /></g></g></g><g
                     id="g10873"><path
                       d="m 172.35266,209.68642 c 0,1.10046 -0.89207,1.99255 -1.99256,1.99255 -1.10046,0 -1.99255,-0.89209 -1.99255,-1.99255 0,-1.10048 0.89209,-1.99256 1.99255,-1.99256 1.10049,0 1.99256,0.89208 1.99256,1.99256 z"
                       style="fill:#ff0000;fill-opacity:1;fill-rule:nonzero;stroke:#ff0000;stroke-width:0.3985;stroke-linecap:butt;stroke-linejoin:miter;stroke-miterlimit:10;stroke-dasharray:none;stroke-opacity:1"
                       id="path10875"
                       inkscape:connector-curvature="0" /><path
                       d="m 294.42795,160.39445 c 0,1.10047 -0.89209,1.99256 -1.99255,1.99256 -1.10048,0 -1.99256,-0.89209 -1.99256,-1.99256 0,-1.10046 0.89208,-1.99255 1.99256,-1.99255 1.10046,0 1.99255,0.89209 1.99255,1.99255 z"
                       style="fill:#ff0000;fill-opacity:1;fill-rule:nonzero;stroke:#ff0000;stroke-width:0.3985;stroke-linecap:butt;stroke-linejoin:miter;stroke-miterlimit:10;stroke-dasharray:none;stroke-opacity:1"
                       id="path10877"
                       inkscape:connector-curvature="0" /><path
                       d="m 307.74593,151.78792 c 0,1.10046 -0.89209,1.99255 -1.99256,1.99255 -1.10047,0 -1.99255,-0.89209 -1.99255,-1.99255 0,-1.10048 0.89208,-1.99256 1.99255,-1.99256 1.10047,0 1.99256,0.89208 1.99256,1.99256 z"
                       style="fill:#ff0000;fill-opacity:1;fill-rule:nonzero;stroke:#ff0000;stroke-width:0.3985;stroke-linecap:butt;stroke-linejoin:miter;stroke-miterlimit:10;stroke-dasharray:none;stroke-opacity:1"
                       id="path10879"
                       inkscape:connector-curvature="0" /><path
                       d="m 315.85188,145.52861 c 0,1.10046 -0.89208,1.99255 -1.99255,1.99255 -1.10048,0 -1.99255,-0.89209 -1.99255,-1.99255 0,-1.10048 0.89207,-1.99255 1.99255,-1.99255 1.10047,0 1.99255,0.89207 1.99255,1.99255 z"
                       style="fill:#ff0000;fill-opacity:1;fill-rule:nonzero;stroke:#ff0000;stroke-width:0.3985;stroke-linecap:butt;stroke-linejoin:miter;stroke-miterlimit:10;stroke-dasharray:none;stroke-opacity:1"
                       id="path10881"
                       inkscape:connector-curvature="0" /><path
                       d="m 322.88715,138.48691 c 0,1.10048 -0.89209,1.99255 -1.99256,1.99255 -1.10048,0 -1.99255,-0.89207 -1.99255,-1.99255 0,-1.10047 0.89207,-1.99256 1.99255,-1.99256 1.10047,0 1.99256,0.89209 1.99256,1.99256 z"
                       style="fill:#ff0000;fill-opacity:1;fill-rule:nonzero;stroke:#ff0000;stroke-width:0.3985;stroke-linecap:butt;stroke-linejoin:miter;stroke-miterlimit:10;stroke-dasharray:none;stroke-opacity:1"
                       id="path10883"
                       inkscape:connector-curvature="0" /><path
                       d="m 315.85188,139.26933 c 0,1.10047 -0.89208,1.99256 -1.99255,1.99256 -1.10048,0 -1.99255,-0.89209 -1.99255,-1.99256 0,-1.10048 0.89207,-1.99255 1.99255,-1.99255 1.10047,0 1.99255,0.89207 1.99255,1.99255 z"
                       style="fill:#ff0000;fill-opacity:1;fill-rule:nonzero;stroke:#ff0000;stroke-width:0.3985;stroke-linecap:butt;stroke-linejoin:miter;stroke-miterlimit:10;stroke-dasharray:none;stroke-opacity:1"
                       id="path10885"
                       inkscape:connector-curvature="0" /><path
                       d="m 307.38521,139.26933 c 0,1.10047 -0.89208,1.99256 -1.99256,1.99256 -1.10046,0 -1.99255,-0.89209 -1.99255,-1.99256 0,-1.10048 0.89209,-1.99255 1.99255,-1.99255 1.10048,0 1.99256,0.89207 1.99256,1.99255 z"
                       style="fill:#ff0000;fill-opacity:1;fill-rule:nonzero;stroke:#ff0000;stroke-width:0.3985;stroke-linecap:butt;stroke-linejoin:miter;stroke-miterlimit:10;stroke-dasharray:none;stroke-opacity:1"
                       id="path10887"
                       inkscape:connector-curvature="0" /><path
                       d="m 323.16852,137.7045 c 0,1.10048 -0.89209,1.99255 -1.99256,1.99255 -1.10047,0 -1.99255,-0.89207 -1.99255,-1.99255 0,-1.10047 0.89208,-1.99256 1.99255,-1.99256 1.10047,0 1.99256,0.89209 1.99256,1.99256 z"
                       style="fill:#ff0000;fill-opacity:1;fill-rule:nonzero;stroke:#ff0000;stroke-width:0.3985;stroke-linecap:butt;stroke-linejoin:miter;stroke-miterlimit:10;stroke-dasharray:none;stroke-opacity:1"
                       id="path10889"
                       inkscape:connector-curvature="0" /><path
                       d="m 344.81003,111.88492 c 0,1.10046 -0.89208,1.99255 -1.99256,1.99255 -1.10046,0 -1.99255,-0.89209 -1.99255,-1.99255 0,-1.10048 0.89209,-1.99256 1.99255,-1.99256 1.10048,0 1.99256,0.89208 1.99256,1.99256 z"
                       style="fill:#ff0000;fill-opacity:1;fill-rule:nonzero;stroke:#ff0000;stroke-width:0.3985;stroke-linecap:butt;stroke-linejoin:miter;stroke-miterlimit:10;stroke-dasharray:none;stroke-opacity:1"
                       id="path10891"
                       inkscape:connector-curvature="0" /><path
                       d="m 360.24489,89.97737 c 0,1.10047 -0.89208,1.99255 -1.99256,1.99255 -1.10046,0 -1.99255,-0.89208 -1.99255,-1.99255 0,-1.10048 0.89209,-1.99255 1.99255,-1.99255 1.10048,0 1.99256,0.89207 1.99256,1.99255 z"
                       style="fill:#ff0000;fill-opacity:1;fill-rule:nonzero;stroke:#ff0000;stroke-width:0.3985;stroke-linecap:butt;stroke-linejoin:miter;stroke-miterlimit:10;stroke-dasharray:none;stroke-opacity:1"
                       id="path10893"
                       inkscape:connector-curvature="0" /><path
                       d="m 372.1789,72.7643 c 0,1.10046 -0.89208,1.99255 -1.99256,1.99255 -1.10046,0 -1.99255,-0.89209 -1.99255,-1.99255 0,-1.10048 0.89209,-1.99256 1.99255,-1.99256 1.10048,0 1.99256,0.89208 1.99256,1.99256 z"
                       style="fill:#ff0000;fill-opacity:1;fill-rule:nonzero;stroke:#ff0000;stroke-width:0.3985;stroke-linecap:butt;stroke-linejoin:miter;stroke-miterlimit:10;stroke-dasharray:none;stroke-opacity:1"
                       id="path10895"
                       inkscape:connector-curvature="0" /><path
                       d="m 382.01402,57.89847 c 0,1.10048 -0.89209,1.99255 -1.99255,1.99255 -1.10048,0 -1.99255,-0.89207 -1.99255,-1.99255 0,-1.10047 0.89207,-1.99256 1.99255,-1.99256 1.10046,0 1.99255,0.89209 1.99255,1.99256 z"
                       style="fill:#ff0000;fill-opacity:1;fill-rule:nonzero;stroke:#ff0000;stroke-width:0.3985;stroke-linecap:butt;stroke-linejoin:miter;stroke-miterlimit:10;stroke-dasharray:none;stroke-opacity:1"
                       id="path10897"
                       inkscape:connector-curvature="0" /><path
                       d="m 372.34004,58.6809 c 0,1.10046 -0.89209,1.99255 -1.99255,1.99255 -1.10047,0 -1.99256,-0.89209 -1.99256,-1.99255 0,-1.10049 0.89209,-1.99256 1.99256,-1.99256 1.10046,0 1.99255,0.89207 1.99255,1.99256 z"
                       style="fill:#ff0000;fill-opacity:1;fill-rule:nonzero;stroke:#ff0000;stroke-width:0.3985;stroke-linecap:butt;stroke-linejoin:miter;stroke-miterlimit:10;stroke-dasharray:none;stroke-opacity:1"
                       id="path10899"
                       inkscape:connector-curvature="0" /><path
                       d="m 381.96986,57.11606 c 0,1.10048 -0.89209,1.99255 -1.99255,1.99255 -1.10048,0 -1.99255,-0.89207 -1.99255,-1.99255 0,-1.10046 0.89207,-1.99256 1.99255,-1.99256 1.10046,0 1.99255,0.8921 1.99255,1.99256 z"
                       style="fill:#ff0000;fill-opacity:1;fill-rule:nonzero;stroke:#ff0000;stroke-width:0.3985;stroke-linecap:butt;stroke-linejoin:miter;stroke-miterlimit:10;stroke-dasharray:none;stroke-opacity:1"
                       id="path10901"
                       inkscape:connector-curvature="0" /><path
                       d="m 394.05354,41.46783 c 0,1.10047 -0.89207,1.99256 -1.99255,1.99256 -1.10046,0 -1.99255,-0.89209 -1.99255,-1.99256 0,-1.10047 0.89209,-1.99255 1.99255,-1.99255 1.10048,0 1.99255,0.89208 1.99255,1.99255 z"
                       style="fill:#ff0000;fill-opacity:1;fill-rule:nonzero;stroke:#ff0000;stroke-width:0.3985;stroke-linecap:butt;stroke-linejoin:miter;stroke-miterlimit:10;stroke-dasharray:none;stroke-opacity:1"
                       id="path10903"
                       inkscape:connector-curvature="0" /><path
                       d="m 409.4385,16.43063 c 0,1.10048 -0.89207,1.99256 -1.99255,1.99256 -1.10046,0 -1.99255,-0.89208 -1.99255,-1.99256 0,-1.10046 0.89209,-1.99255 1.99255,-1.99255 1.10048,0 1.99255,0.89209 1.99255,1.99255 z"
                       style="fill:#ff0000;fill-opacity:1;fill-rule:nonzero;stroke:#ff0000;stroke-width:0.3985;stroke-linecap:butt;stroke-linejoin:miter;stroke-miterlimit:10;stroke-dasharray:none;stroke-opacity:1"
                       id="path10905"
                       inkscape:connector-curvature="0" /><path
                       d="m 421.42487,0 c 0,1.10046 -0.89209,1.99255 -1.99256,1.99255 -1.10048,0 -1.99255,-0.89209 -1.99255,-1.99255 0,-1.10046 0.89207,-1.99255 1.99255,-1.99255 1.10047,0 1.99256,0.89209 1.99256,1.99255 z"
                       style="fill:#ff0000;fill-opacity:1;fill-rule:nonzero;stroke:#ff0000;stroke-width:0.3985;stroke-linecap:butt;stroke-linejoin:miter;stroke-miterlimit:10;stroke-dasharray:none;stroke-opacity:1"
                       id="path10907"
                       inkscape:connector-curvature="0" /></g><g
                     id="g10909"><g
                       id="g10911"
                       transform="translate(196.646,-45.218)"><g
                         id="g10913"><g
                           id="g10915"
                           transform="translate(-236.719,-440.021)"><text
                             transform="matrix(1,0,0,-1,236.719,440.021)"
                             style="font-variant:normal;font-weight:normal;font-size:9.96259975px;font-family:SFRM1000;-inkscape-font-specification:SFRM1000;writing-mode:lr-tb;fill:#000000;fill-opacity:1;fill-rule:nonzero;stroke:none"
                             id="text10919"><tspan
                               x="0 7.0555134 11.481896 17.015125 21.995428 27.528656 32.782932 37.763237 43.296463 48.276768 53.809994 58.790298 66.544189 72.077415 77.057724 82.59095 87.845222 93.239975 101.26086 105.68725 111.22047 116.7537 124.49763 129.47794 133.40619 136.17281 141.15311 149.46291 154.43326 162.18018 167.16048 172.14078 178.23489 183.76813 191.51505"
                               y="0"
                               sodipodi:role="line"
                               id="tspan10917">Вертикальное напряжение $\sigma_1$, кПа</tspan></text>
<g
                             id="g10921"
                             transform="translate(236.719,440.021)" /></g></g><g
                         id="g10923"
                         transform="translate(-196.646,45.218)" /></g></g><g
                     id="g10925"><g
                       id="g10927"
                       transform="rotate(90,36.8415,73.6215)"><g
                         id="g10929"><g
                           id="g10931"
                           transform="translate(-150.536,-522.019)"><text
                             transform="matrix(1,0,0,-1,150.536,522.019)"
                             style="font-variant:normal;font-weight:normal;font-size:9.96259975px;font-family:SFRM1000;-inkscape-font-specification:SFRM1000;writing-mode:lr-tb;fill:#000000;fill-opacity:1;fill-rule:nonzero;stroke:none"
                             id="text10935"><tspan
                               x="0 7.7469177 12.727221 17.153605 24.900522 32.647442 38.180668 43.713898 49.247124 53.673508 59.206734 67.504585 73.037811 78.01812 83.551346 89.084572 93.510956 98.491257 103.47157 107.89795 112.87825 121.73898 126.71929 131.14568"
                               y="0"
                               sodipodi:role="line"
                               id="tspan10933">Коэффициентпористости$e$</tspan></text>
<g
                             id="g10937"
                             transform="translate(150.536,522.019)" /></g></g><g
                         id="g10939"
                         transform="translate(-110.463,-36.78)" /></g></g></g></g><g
                 id="g10941"
                 transform="translate(99.673,-50.857)" /></g><g
               id="g10943"
               transform="translate(45.777,29.887)" /></g><g
             id="g10945" /><g
             id="g10947" /></g></g></g><path
       style="fill:none;stroke:#000000;stroke-width:0.465;stroke-linecap:butt;stroke-linejoin:miter;stroke-miterlimit:4;stroke-dasharray:0.46500001, 1.39500003;stroke-dashoffset:0;stroke-opacity:1"
       d="M 359.9483,639.22176 V 467.41898"
       id="path1765"
       inkscape:connector-curvature="0"
       sodipodi:nodetypes="cc" /><path
       style="fill:none;stroke:#000000;stroke-width:0.465;stroke-linecap:butt;stroke-linejoin:miter;stroke-miterlimit:4;stroke-dasharray:none;stroke-opacity:1"
       d="M 459.50531,485.239 317.14219,697.12223"
       id="path7401"
       inkscape:connector-curvature="0"
       sodipodi:nodetypes="cc" /><path
       style="fill:none;stroke:#000000;stroke-width:0.465;stroke-linecap:butt;stroke-linejoin:miter;stroke-miterlimit:4;stroke-dasharray:none;stroke-opacity:1"
       d="m 423.58978,564.9066 -79.14293,74.72859 h 87.18335"
       id="path7403"
       inkscape:connector-curvature="0" /><path
       style="fill:none;stroke:#000000;stroke-width:0.465;stroke-linecap:butt;stroke-linejoin:miter;stroke-miterlimit:4;stroke-dasharray:none;stroke-opacity:1"
       d="m 344.44685,639.63519 88.12928,-36.10305"
       id="path7405"
       inkscape:connector-curvature="0" /></g></svg>