<?xml version="1.0" encoding="UTF-8" standalone="no"?>
<!-- Created with Inkscape (http://www.inkscape.org/) -->

<svg
   xmlns:dc="http://purl.org/dc/elements/1.1/"
   xmlns:cc="http://creativecommons.org/ns#"
   xmlns:rdf="http://www.w3.org/1999/02/22-rdf-syntax-ns#"
   xmlns:svg="http://www.w3.org/2000/svg"
   xmlns="http://www.w3.org/2000/svg"
   xmlns:sodipodi="http://sodipodi.sourceforge.net/DTD/sodipodi-0.dtd"
   xmlns:inkscape="http://www.inkscape.org/namespaces/inkscape"
   version="1.1"
   id="svg12912"
   xml:space="preserve"
   width="793.70135"
   height="1122.52"
   viewBox="0 0 793.70135 1122.52"
   sodipodi:docname="oedometerBecker+monolith+10.svg"
   inkscape:version="0.92.3 (2405546, 2018-03-11)"><metadata
     id="metadata12918"><rdf:RDF><cc:Work
         rdf:about=""><dc:format>image/svg+xml</dc:format><dc:type
           rdf:resource="http://purl.org/dc/dcmitype/StillImage" /><dc:title></dc:title></cc:Work></rdf:RDF></metadata><defs
     id="defs12916"><clipPath
       clipPathUnits="userSpaceOnUse"
       id="clipPath13212"><path
         d="M -24.90819,-20.96964 H 273.9752 V 230.65334 H -24.90819 Z"
         id="path13210"
         inkscape:connector-curvature="0" /></clipPath></defs><sodipodi:namedview
     pagecolor="#ffffff"
     bordercolor="#666666"
     borderopacity="1"
     objecttolerance="10"
     gridtolerance="10"
     guidetolerance="10"
     inkscape:pageopacity="0"
     inkscape:pageshadow="2"
     inkscape:window-width="1243"
     inkscape:window-height="1408"
     id="namedview12914"
     showgrid="false"
     inkscape:zoom="1.189304"
     inkscape:cx="313.03225"
     inkscape:cy="779.41856"
     inkscape:window-x="62"
     inkscape:window-y="0"
     inkscape:window-maximized="0"
     inkscape:current-layer="g12920" /><g
     id="g12920"
     inkscape:groupmode="layer"
     inkscape:label="oedometerBecker+monolith"
     transform="matrix(1.3333333,0,0,-1.3333333,0,1122.52)"><g
       id="g12922"
       transform="translate(174.37,464.273)"><g
         id="g12924"><g
           id="g12926"><g
             id="g12928" /><g
             id="g12930" /><g
             id="g12932"><g
               id="g12934" /></g><g
             id="g12936" /><g
             id="g12938" /><g
             id="g12940" /><g
             id="g12942" /><g
             id="g12944"
             transform="translate(-34.624,-29.888)"><g
               id="g12946"
               transform="translate(59.532,50.857)"><g
                 id="g12948"><g
                   id="g12950"><g
                     id="g12952"><g
                       id="g12954"><g
                         id="g12956"><path
                           d="m 8.14325,-20.96964 v 4.25167 m 62.25743,-4.25167 v 4.25167 m 62.25742,-4.25167 v 4.25167 m 62.25741,-4.25167 v 4.25167 m 62.25743,-4.25167 v 4.25167 M 8.14325,230.65334 v -4.25167 m 62.25743,4.25167 v -4.25167 m 62.25742,4.25167 v -4.25167 m 62.25741,4.25167 v -4.25167 m 62.25743,4.25167 v -4.25167"
                           style="fill:none;stroke:#808080;stroke-width:0.19925;stroke-linecap:butt;stroke-linejoin:miter;stroke-miterlimit:10;stroke-dasharray:none;stroke-opacity:1"
                           id="path12958"
                           inkscape:connector-curvature="0" /></g></g><g
                       id="g12960"><g
                         id="g12962"><path
                           d="m -24.90819,-1.70372 h 4.25269 m -4.25269,23.99629 h 4.25269 m -4.25269,23.99633 h 4.25269 m -4.25269,23.99632 h 4.25269 m -4.25269,23.99632 h 4.25269 m -4.25269,23.99632 h 4.25269 m -4.25269,23.99633 h 4.25269 m -4.25269,23.99632 h 4.25269 m -4.25269,23.99632 h 4.25269 m -4.25269,23.99632 h 4.25269 M 273.9752,-1.70372 h -4.25271 m 4.25271,23.99629 h -4.25271 m 4.25271,23.99633 h -4.25271 m 4.25271,23.99632 h -4.25271 m 4.25271,23.99632 h -4.25271 m 4.25271,23.99632 h -4.25271 m 4.25271,23.99633 h -4.25271 m 4.25271,23.99632 h -4.25271 m 4.25271,23.99632 h -4.25271 m 4.25271,23.99632 h -4.25271"
                           style="fill:none;stroke:#808080;stroke-width:0.19925;stroke-linecap:butt;stroke-linejoin:miter;stroke-miterlimit:10;stroke-dasharray:none;stroke-opacity:1"
                           id="path12964"
                           inkscape:connector-curvature="0" /></g></g><path
                       d="M -24.90819,-20.96964 V 230.65334 H 273.9752 V -20.96964 Z"
                       style="fill:none;stroke:#000000;stroke-width:0.3985;stroke-linecap:butt;stroke-linejoin:miter;stroke-miterlimit:10;stroke-dasharray:none;stroke-opacity:1"
                       id="path12966"
                       inkscape:connector-curvature="0" /><g
                       id="g12968"><g
                         id="g12970"
                         transform="translate(0.671,-30.909)"><g
                           id="g12972"><g
                             id="g12974"
                             transform="translate(-199.949,-454.333)"><text
                               transform="matrix(1,0,0,-1,199.949,454.333)"
                               style="font-variant:normal;font-weight:normal;font-size:9.96259975px;font-family:CMR10;-inkscape-font-specification:CMR10;writing-mode:lr-tb;fill:#000000;fill-opacity:1;fill-rule:nonzero;stroke:none"
                               id="text12978"><tspan
                                 x="0 4.9812999 9.9625998"
                                 y="0"
                                 sodipodi:role="line"
                                 id="tspan12976">500</tspan></text>
<g
                               id="g12980"
                               transform="translate(199.949,454.333)" /></g></g><g
                           id="g12982"
                           transform="translate(-0.671,30.909)" /></g></g><g
                       id="g12984"><g
                         id="g12986"
                         transform="translate(59.607,-30.909)"><g
                           id="g12988"><g
                             id="g12990"
                             transform="translate(-258.885,-454.333)"><text
                               transform="matrix(1,0,0,-1,258.885,454.333)"
                               style="font-variant:normal;font-weight:normal;font-size:9.96259975px;font-family:CMR10;-inkscape-font-specification:CMR10;writing-mode:lr-tb;fill:#000000;fill-opacity:1;fill-rule:nonzero;stroke:none"
                               id="text12994"><tspan
                                 x="0 6.6450543 11.626354 16.607655"
                                 y="0"
                                 sodipodi:role="line"
                                 id="tspan12992">1000</tspan></text>
<g
                               id="g12996"
                               transform="translate(258.885,454.333)" /></g></g><g
                           id="g12998"
                           transform="translate(-59.607,30.909)" /></g></g><g
                       id="g13000"><g
                         id="g13002"
                         transform="translate(121.863,-30.909)"><g
                           id="g13004"><g
                             id="g13006"
                             transform="translate(-321.141,-454.333)"><text
                               transform="matrix(1,0,0,-1,321.141,454.333)"
                               style="font-variant:normal;font-weight:normal;font-size:9.96259975px;font-family:CMR10;-inkscape-font-specification:CMR10;writing-mode:lr-tb;fill:#000000;fill-opacity:1;fill-rule:nonzero;stroke:none"
                               id="text13010"><tspan
                                 x="0 6.6450543 11.626354 16.607655"
                                 y="0"
                                 sodipodi:role="line"
                                 id="tspan13008">1500</tspan></text>
<g
                               id="g13012"
                               transform="translate(321.141,454.333)" /></g></g><g
                           id="g13014"
                           transform="translate(-121.863,30.909)" /></g></g><g
                       id="g13016"><g
                         id="g13018"
                         transform="translate(184.12,-30.909)"><g
                           id="g13020"><g
                             id="g13022"
                             transform="translate(-383.398,-454.333)"><text
                               transform="matrix(1,0,0,-1,383.398,454.333)"
                               style="font-variant:normal;font-weight:normal;font-size:9.96259975px;font-family:CMR10;-inkscape-font-specification:CMR10;writing-mode:lr-tb;fill:#000000;fill-opacity:1;fill-rule:nonzero;stroke:none"
                               id="text13026"><tspan
                                 x="0 6.6450543 11.626354 16.607655"
                                 y="0"
                                 sodipodi:role="line"
                                 id="tspan13024">2000</tspan></text>
<g
                               id="g13028"
                               transform="translate(383.398,454.333)" /></g></g><g
                           id="g13030"
                           transform="translate(-184.12,30.909)" /></g></g><g
                       id="g13032"><g
                         id="g13034"
                         transform="translate(246.377,-30.909)"><g
                           id="g13036"><g
                             id="g13038"
                             transform="translate(-445.655,-454.333)"><text
                               transform="matrix(1,0,0,-1,445.655,454.333)"
                               style="font-variant:normal;font-weight:normal;font-size:9.96259975px;font-family:CMR10;-inkscape-font-specification:CMR10;writing-mode:lr-tb;fill:#000000;fill-opacity:1;fill-rule:nonzero;stroke:none"
                               id="text13042"><tspan
                                 x="0 6.6450543 11.626354 16.607655"
                                 y="0"
                                 sodipodi:role="line"
                                 id="tspan13040">2500</tspan></text>
<g
                               id="g13044"
                               transform="translate(445.655,454.333)" /></g></g><g
                           id="g13046"
                           transform="translate(-246.377,30.909)" /></g></g><g
                       id="g13048"><g
                         id="g13050"
                         transform="translate(-38.39,-4.914)"><g
                           id="g13052"><g
                             id="g13054"
                             transform="translate(-160.888,-480.328)"><text
                               transform="matrix(1,0,0,-1,160.888,480.328)"
                               style="font-variant:normal;font-weight:normal;font-size:9.96259975px;font-family:CMR10;-inkscape-font-specification:CMR10;writing-mode:lr-tb;fill:#000000;fill-opacity:1;fill-rule:nonzero;stroke:none"
                               id="text13058"><tspan
                                 x="0 4.9812999"
                                 y="0"
                                 sodipodi:role="line"
                                 id="tspan13056">10</tspan></text>
<g
                               id="g13060"
                               transform="translate(160.888,480.328)" /></g></g><g
                           id="g13062"
                           transform="translate(38.39,4.914)" /></g></g><g
                       id="g13064"><g
                         id="g13066"
                         transform="translate(-38.39,19.082)"><g
                           id="g13068"><g
                             id="g13070"
                             transform="translate(-160.888,-504.324)"><text
                               transform="matrix(1,0,0,-1,160.888,504.324)"
                               style="font-variant:normal;font-weight:normal;font-size:9.96259975px;font-family:CMR10;-inkscape-font-specification:CMR10;writing-mode:lr-tb;fill:#000000;fill-opacity:1;fill-rule:nonzero;stroke:none"
                               id="text13074"><tspan
                                 x="0 4.9812999"
                                 y="0"
                                 sodipodi:role="line"
                                 id="tspan13072">15</tspan></text>
<g
                               id="g13076"
                               transform="translate(160.888,504.324)" /></g></g><g
                           id="g13078"
                           transform="translate(38.39,-19.082)" /></g></g><g
                       id="g13080"><g
                         id="g13082"
                         transform="translate(-38.39,43.078)"><g
                           id="g13084"><g
                             id="g13086"
                             transform="translate(-160.888,-528.32)"><text
                               transform="matrix(1,0,0,-1,160.888,528.32)"
                               style="font-variant:normal;font-weight:normal;font-size:9.96259975px;font-family:CMR10;-inkscape-font-specification:CMR10;writing-mode:lr-tb;fill:#000000;fill-opacity:1;fill-rule:nonzero;stroke:none"
                               id="text13090"><tspan
                                 x="0 4.9812999"
                                 y="0"
                                 sodipodi:role="line"
                                 id="tspan13088">20</tspan></text>
<g
                               id="g13092"
                               transform="translate(160.888,528.32)" /></g></g><g
                           id="g13094"
                           transform="translate(38.39,-43.078)" /></g></g><g
                       id="g13096"><g
                         id="g13098"
                         transform="translate(-38.39,67.074)"><g
                           id="g13100"><g
                             id="g13102"
                             transform="translate(-160.888,-552.316)"><text
                               transform="matrix(1,0,0,-1,160.888,552.316)"
                               style="font-variant:normal;font-weight:normal;font-size:9.96259975px;font-family:CMR10;-inkscape-font-specification:CMR10;writing-mode:lr-tb;fill:#000000;fill-opacity:1;fill-rule:nonzero;stroke:none"
                               id="text13106"><tspan
                                 x="0 4.9812999"
                                 y="0"
                                 sodipodi:role="line"
                                 id="tspan13104">25</tspan></text>
<g
                               id="g13108"
                               transform="translate(160.888,552.316)" /></g></g><g
                           id="g13110"
                           transform="translate(38.39,-67.074)" /></g></g><g
                       id="g13112"><g
                         id="g13114"
                         transform="translate(-38.39,91.07)"><g
                           id="g13116"><g
                             id="g13118"
                             transform="translate(-160.888,-576.312)"><text
                               transform="matrix(1,0,0,-1,160.888,576.312)"
                               style="font-variant:normal;font-weight:normal;font-size:9.96259975px;font-family:CMR10;-inkscape-font-specification:CMR10;writing-mode:lr-tb;fill:#000000;fill-opacity:1;fill-rule:nonzero;stroke:none"
                               id="text13122"><tspan
                                 x="0 4.9812999"
                                 y="0"
                                 sodipodi:role="line"
                                 id="tspan13120">30</tspan></text>
<g
                               id="g13124"
                               transform="translate(160.888,576.312)" /></g></g><g
                           id="g13126"
                           transform="translate(38.39,-91.07)" /></g></g><g
                       id="g13128"><g
                         id="g13130"
                         transform="translate(-38.39,115.066)"><g
                           id="g13132"><g
                             id="g13134"
                             transform="translate(-160.888,-600.308)"><text
                               transform="matrix(1,0,0,-1,160.888,600.308)"
                               style="font-variant:normal;font-weight:normal;font-size:9.96259975px;font-family:CMR10;-inkscape-font-specification:CMR10;writing-mode:lr-tb;fill:#000000;fill-opacity:1;fill-rule:nonzero;stroke:none"
                               id="text13138"><tspan
                                 x="0 4.9812999"
                                 y="0"
                                 sodipodi:role="line"
                                 id="tspan13136">35</tspan></text>
<g
                               id="g13140"
                               transform="translate(160.888,600.308)" /></g></g><g
                           id="g13142"
                           transform="translate(38.39,-115.066)" /></g></g><g
                       id="g13144"><g
                         id="g13146"
                         transform="translate(-38.39,139.062)"><g
                           id="g13148"><g
                             id="g13150"
                             transform="translate(-160.888,-624.304)"><text
                               transform="matrix(1,0,0,-1,160.888,624.304)"
                               style="font-variant:normal;font-weight:normal;font-size:9.96259975px;font-family:CMR10;-inkscape-font-specification:CMR10;writing-mode:lr-tb;fill:#000000;fill-opacity:1;fill-rule:nonzero;stroke:none"
                               id="text13154"><tspan
                                 x="0 4.9812999"
                                 y="0"
                                 sodipodi:role="line"
                                 id="tspan13152">40</tspan></text>
<g
                               id="g13156"
                               transform="translate(160.888,624.304)" /></g></g><g
                           id="g13158"
                           transform="translate(38.39,-139.062)" /></g></g><g
                       id="g13160"><g
                         id="g13162"
                         transform="translate(-38.39,163.058)"><g
                           id="g13164"><g
                             id="g13166"
                             transform="translate(-160.888,-648.3)"><text
                               transform="matrix(1,0,0,-1,160.888,648.3)"
                               style="font-variant:normal;font-weight:normal;font-size:9.96259975px;font-family:CMR10;-inkscape-font-specification:CMR10;writing-mode:lr-tb;fill:#000000;fill-opacity:1;fill-rule:nonzero;stroke:none"
                               id="text13170"><tspan
                                 x="0 4.9812999"
                                 y="0"
                                 sodipodi:role="line"
                                 id="tspan13168">45</tspan></text>
<g
                               id="g13172"
                               transform="translate(160.888,648.3)" /></g></g><g
                           id="g13174"
                           transform="translate(38.39,-163.058)" /></g></g><g
                       id="g13176"><g
                         id="g13178"
                         transform="translate(-38.39,187.054)"><g
                           id="g13180"><g
                             id="g13182"
                             transform="translate(-160.888,-672.296)"><text
                               transform="matrix(1,0,0,-1,160.888,672.296)"
                               style="font-variant:normal;font-weight:normal;font-size:9.96259975px;font-family:CMR10;-inkscape-font-specification:CMR10;writing-mode:lr-tb;fill:#000000;fill-opacity:1;fill-rule:nonzero;stroke:none"
                               id="text13186"><tspan
                                 x="0 4.9812999"
                                 y="0"
                                 sodipodi:role="line"
                                 id="tspan13184">50</tspan></text>
<g
                               id="g13188"
                               transform="translate(160.888,672.296)" /></g></g><g
                           id="g13190"
                           transform="translate(38.39,-187.054)" /></g></g><g
                       id="g13192"><g
                         id="g13194"
                         transform="translate(-38.39,211.05)"><g
                           id="g13196"><g
                             id="g13198"
                             transform="translate(-160.888,-696.292)"><text
                               transform="matrix(1,0,0,-1,160.888,696.292)"
                               style="font-variant:normal;font-weight:normal;font-size:9.96259975px;font-family:CMR10;-inkscape-font-specification:CMR10;writing-mode:lr-tb;fill:#000000;fill-opacity:1;fill-rule:nonzero;stroke:none"
                               id="text13202"><tspan
                                 x="0 4.9812999"
                                 y="0"
                                 sodipodi:role="line"
                                 id="tspan13200">55</tspan></text>
<g
                               id="g13204"
                               transform="translate(160.888,696.292)" /></g></g><g
                           id="g13206"
                           transform="translate(38.39,-211.05)" /></g></g><g
                       id="g13208"
                       clip-path="url(#clipPath13212)"><g
                         id="g13214"><path
                           d="M 0.1743,0 12.22734,6.97427 24.87805,18.17769 37.35442,28.03297 49.58179,37.43593 62.3072,50.16212 74.53455,64.331 87.08565,74.73196 99.64922,88.94319 111.85165,98.18585 0,83.34113 l 12.56354,1.16394 12.14018,1.40199 25.03993,5.28076 24.95278,4.48393 25.02749,5.44718 24.97768,9.61627 24.51697,11.04709 25.27652,16.64863 24.77844,23.22246 24.92789,25.61727 24.86557,22.41304 H 223.8777 199.27353 l -24.86559,-4.64365 H 161.90665 149.48004 136.96632 124.61443 99.4749 87.08565 74.69643 L 62.46909,202.67545 H 49.6565 l -12.14019,-1.88288 -12.56357,-1.64482 -12.55108,-2.80566"
                           style="fill:none;stroke:#ff0000;stroke-width:0.3985;stroke-linecap:butt;stroke-linejoin:miter;stroke-miterlimit:10;stroke-dasharray:none;stroke-opacity:1"
                           id="path13216"
                           inkscape:connector-curvature="0" /></g></g></g><g
                     id="g13218"><path
                       d="m 2.16685,0 c 0,1.10046 -0.89208,1.99255 -1.99255,1.99255 -1.10046,0 -1.99254,-0.89209 -1.99254,-1.99255 0,-1.10046 0.89208,-1.99255 1.99254,-1.99255 1.10047,0 1.99255,0.89209 1.99255,1.99255 z"
                       style="fill:#ff0000;fill-opacity:1;fill-rule:nonzero;stroke:#ff0000;stroke-width:0.3985;stroke-linecap:butt;stroke-linejoin:miter;stroke-miterlimit:10;stroke-dasharray:none;stroke-opacity:1"
                       id="path13220"
                       inkscape:connector-curvature="0" /><path
                       d="m 14.2199,6.97427 c 0,1.10048 -0.8921,1.99256 -1.99256,1.99256 -1.10048,0 -1.99255,-0.89208 -1.99255,-1.99256 0,-1.10046 0.89207,-1.99255 1.99255,-1.99255 1.10046,0 1.99256,0.89209 1.99256,1.99255 z"
                       style="fill:#ff0000;fill-opacity:1;fill-rule:nonzero;stroke:#ff0000;stroke-width:0.3985;stroke-linecap:butt;stroke-linejoin:miter;stroke-miterlimit:10;stroke-dasharray:none;stroke-opacity:1"
                       id="path13222"
                       inkscape:connector-curvature="0" /><path
                       d="m 26.8706,18.17769 c 0,1.10046 -0.89208,1.99255 -1.99255,1.99255 -1.10048,0 -1.99255,-0.89209 -1.99255,-1.99255 0,-1.10048 0.89207,-1.99256 1.99255,-1.99256 1.10047,0 1.99255,0.89208 1.99255,1.99256 z"
                       style="fill:#ff0000;fill-opacity:1;fill-rule:nonzero;stroke:#ff0000;stroke-width:0.3985;stroke-linecap:butt;stroke-linejoin:miter;stroke-miterlimit:10;stroke-dasharray:none;stroke-opacity:1"
                       id="path13224"
                       inkscape:connector-curvature="0" /><path
                       d="m 39.34697,28.03297 c 0,1.10047 -0.89209,1.99256 -1.99255,1.99256 -1.10048,0 -1.99256,-0.89209 -1.99256,-1.99256 0,-1.10047 0.89208,-1.99255 1.99256,-1.99255 1.10046,0 1.99255,0.89208 1.99255,1.99255 z"
                       style="fill:#ff0000;fill-opacity:1;fill-rule:nonzero;stroke:#ff0000;stroke-width:0.3985;stroke-linecap:butt;stroke-linejoin:miter;stroke-miterlimit:10;stroke-dasharray:none;stroke-opacity:1"
                       id="path13226"
                       inkscape:connector-curvature="0" /><path
                       d="m 51.57434,37.43593 c 0,1.10046 -0.89207,1.99255 -1.99255,1.99255 -1.10047,0 -1.99256,-0.89209 -1.99256,-1.99255 0,-1.10047 0.89209,-1.99256 1.99256,-1.99256 1.10048,0 1.99255,0.89209 1.99255,1.99256 z"
                       style="fill:#ff0000;fill-opacity:1;fill-rule:nonzero;stroke:#ff0000;stroke-width:0.3985;stroke-linecap:butt;stroke-linejoin:miter;stroke-miterlimit:10;stroke-dasharray:none;stroke-opacity:1"
                       id="path13228"
                       inkscape:connector-curvature="0" /><path
                       d="m 64.29976,50.16212 c 0,1.10048 -0.89209,1.99256 -1.99256,1.99256 -1.10047,0 -1.99255,-0.89208 -1.99255,-1.99256 0,-1.10046 0.89208,-1.99255 1.99255,-1.99255 1.10047,0 1.99256,0.89209 1.99256,1.99255 z"
                       style="fill:#ff0000;fill-opacity:1;fill-rule:nonzero;stroke:#ff0000;stroke-width:0.3985;stroke-linecap:butt;stroke-linejoin:miter;stroke-miterlimit:10;stroke-dasharray:none;stroke-opacity:1"
                       id="path13230"
                       inkscape:connector-curvature="0" /><path
                       d="m 76.5271,64.331 c 0,1.10047 -0.89207,1.99255 -1.99255,1.99255 -1.10047,0 -1.99256,-0.89208 -1.99256,-1.99255 0,-1.10047 0.89209,-1.99256 1.99256,-1.99256 1.10048,0 1.99255,0.89209 1.99255,1.99256 z"
                       style="fill:#ff0000;fill-opacity:1;fill-rule:nonzero;stroke:#ff0000;stroke-width:0.3985;stroke-linecap:butt;stroke-linejoin:miter;stroke-miterlimit:10;stroke-dasharray:none;stroke-opacity:1"
                       id="path13232"
                       inkscape:connector-curvature="0" /><path
                       d="m 89.0782,74.73196 c 0,1.10047 -0.89207,1.99256 -1.99255,1.99256 -1.10047,0 -1.99255,-0.89209 -1.99255,-1.99256 0,-1.10048 0.89208,-1.99255 1.99255,-1.99255 1.10048,0 1.99255,0.89207 1.99255,1.99255 z"
                       style="fill:#ff0000;fill-opacity:1;fill-rule:nonzero;stroke:#ff0000;stroke-width:0.3985;stroke-linecap:butt;stroke-linejoin:miter;stroke-miterlimit:10;stroke-dasharray:none;stroke-opacity:1"
                       id="path13234"
                       inkscape:connector-curvature="0" /><path
                       d="m 101.64177,88.94319 c 0,1.10048 -0.89207,1.99256 -1.99255,1.99256 -1.10047,0 -1.99256,-0.89208 -1.99256,-1.99256 0,-1.10046 0.89209,-1.99255 1.99256,-1.99255 1.10048,0 1.99255,0.89209 1.99255,1.99255 z"
                       style="fill:#ff0000;fill-opacity:1;fill-rule:nonzero;stroke:#ff0000;stroke-width:0.3985;stroke-linecap:butt;stroke-linejoin:miter;stroke-miterlimit:10;stroke-dasharray:none;stroke-opacity:1"
                       id="path13236"
                       inkscape:connector-curvature="0" /><path
                       d="m 113.84421,98.18585 c 0,1.10047 -0.89209,1.99255 -1.99256,1.99255 -1.10048,0 -1.99255,-0.89208 -1.99255,-1.99255 0,-1.10048 0.89207,-1.99255 1.99255,-1.99255 1.10047,0 1.99256,0.89207 1.99256,1.99255 z"
                       style="fill:#ff0000;fill-opacity:1;fill-rule:nonzero;stroke:#ff0000;stroke-width:0.3985;stroke-linecap:butt;stroke-linejoin:miter;stroke-miterlimit:10;stroke-dasharray:none;stroke-opacity:1"
                       id="path13238"
                       inkscape:connector-curvature="0" /><path
                       d="m 1.99255,83.34113 c 0,1.10047 -0.89209,1.99255 -1.99255,1.99255 -1.10046,0 -1.99255,-0.89208 -1.99255,-1.99255 0,-1.10047 0.89209,-1.99256 1.99255,-1.99256 1.10046,0 1.99255,0.89209 1.99255,1.99256 z"
                       style="fill:#ff0000;fill-opacity:1;fill-rule:nonzero;stroke:#ff0000;stroke-width:0.3985;stroke-linecap:butt;stroke-linejoin:miter;stroke-miterlimit:10;stroke-dasharray:none;stroke-opacity:1"
                       id="path13240"
                       inkscape:connector-curvature="0" /><path
                       d="m 14.55609,84.50507 c 0,1.10048 -0.89209,1.99255 -1.99255,1.99255 -1.10048,0 -1.99256,-0.89207 -1.99256,-1.99255 0,-1.10047 0.89208,-1.99256 1.99256,-1.99256 1.10046,0 1.99255,0.89209 1.99255,1.99256 z"
                       style="fill:#ff0000;fill-opacity:1;fill-rule:nonzero;stroke:#ff0000;stroke-width:0.3985;stroke-linecap:butt;stroke-linejoin:miter;stroke-miterlimit:10;stroke-dasharray:none;stroke-opacity:1"
                       id="path13242"
                       inkscape:connector-curvature="0" /><path
                       d="m 26.69627,85.90706 c 0,1.10046 -0.89207,1.99255 -1.99255,1.99255 -1.10046,0 -1.99255,-0.89209 -1.99255,-1.99255 0,-1.10048 0.89209,-1.99256 1.99255,-1.99256 1.10048,0 1.99255,0.89208 1.99255,1.99256 z"
                       style="fill:#ff0000;fill-opacity:1;fill-rule:nonzero;stroke:#ff0000;stroke-width:0.3985;stroke-linecap:butt;stroke-linejoin:miter;stroke-miterlimit:10;stroke-dasharray:none;stroke-opacity:1"
                       id="path13244"
                       inkscape:connector-curvature="0" /><path
                       d="m 51.7362,91.18782 c 0,1.10046 -0.89208,1.99255 -1.99255,1.99255 -1.10048,0 -1.99255,-0.89209 -1.99255,-1.99255 0,-1.10048 0.89207,-1.99255 1.99255,-1.99255 1.10047,0 1.99255,0.89207 1.99255,1.99255 z"
                       style="fill:#ff0000;fill-opacity:1;fill-rule:nonzero;stroke:#ff0000;stroke-width:0.3985;stroke-linecap:butt;stroke-linejoin:miter;stroke-miterlimit:10;stroke-dasharray:none;stroke-opacity:1"
                       id="path13246"
                       inkscape:connector-curvature="0" /><path
                       d="m 76.68898,95.67175 c 0,1.10048 -0.89208,1.99255 -1.99255,1.99255 -1.10047,0 -1.99256,-0.89207 -1.99256,-1.99255 0,-1.10046 0.89209,-1.99255 1.99256,-1.99255 1.10047,0 1.99255,0.89209 1.99255,1.99255 z"
                       style="fill:#ff0000;fill-opacity:1;fill-rule:nonzero;stroke:#ff0000;stroke-width:0.3985;stroke-linecap:butt;stroke-linejoin:miter;stroke-miterlimit:10;stroke-dasharray:none;stroke-opacity:1"
                       id="path13248"
                       inkscape:connector-curvature="0" /><path
                       d="m 101.71648,101.11893 c 0,1.10047 -0.89209,1.99255 -1.99256,1.99255 -1.10048,0 -1.99255,-0.89208 -1.99255,-1.99255 0,-1.10047 0.89207,-1.99256 1.99255,-1.99256 1.10047,0 1.99256,0.89209 1.99256,1.99256 z"
                       style="fill:#ff0000;fill-opacity:1;fill-rule:nonzero;stroke:#ff0000;stroke-width:0.3985;stroke-linecap:butt;stroke-linejoin:miter;stroke-miterlimit:10;stroke-dasharray:none;stroke-opacity:1"
                       id="path13250"
                       inkscape:connector-curvature="0" /><path
                       d="m 126.69415,110.7352 c 0,1.10048 -0.89209,1.99255 -1.99255,1.99255 -1.10048,0 -1.99255,-0.89207 -1.99255,-1.99255 0,-1.10046 0.89207,-1.99255 1.99255,-1.99255 1.10046,0 1.99255,0.89209 1.99255,1.99255 z"
                       style="fill:#ff0000;fill-opacity:1;fill-rule:nonzero;stroke:#ff0000;stroke-width:0.3985;stroke-linecap:butt;stroke-linejoin:miter;stroke-miterlimit:10;stroke-dasharray:none;stroke-opacity:1"
                       id="path13252"
                       inkscape:connector-curvature="0" /><path
                       d="m 151.21112,121.78229 c 0,1.10046 -0.89207,1.99255 -1.99255,1.99255 -1.10047,0 -1.99256,-0.89209 -1.99256,-1.99255 0,-1.10048 0.89209,-1.99256 1.99256,-1.99256 1.10048,0 1.99255,0.89208 1.99255,1.99256 z"
                       style="fill:#ff0000;fill-opacity:1;fill-rule:nonzero;stroke:#ff0000;stroke-width:0.3985;stroke-linecap:butt;stroke-linejoin:miter;stroke-miterlimit:10;stroke-dasharray:none;stroke-opacity:1"
                       id="path13254"
                       inkscape:connector-curvature="0" /><path
                       d="m 176.48764,138.43092 c 0,1.10048 -0.89209,1.99256 -1.99255,1.99256 -1.10049,0 -1.99256,-0.89208 -1.99256,-1.99256 0,-1.10046 0.89207,-1.99255 1.99256,-1.99255 1.10046,0 1.99255,0.89209 1.99255,1.99255 z"
                       style="fill:#ff0000;fill-opacity:1;fill-rule:nonzero;stroke:#ff0000;stroke-width:0.3985;stroke-linecap:butt;stroke-linejoin:miter;stroke-miterlimit:10;stroke-dasharray:none;stroke-opacity:1"
                       id="path13256"
                       inkscape:connector-curvature="0" /><path
                       d="m 201.26608,161.65338 c 0,1.10047 -0.89207,1.99256 -1.99255,1.99256 -1.10046,0 -1.99255,-0.89209 -1.99255,-1.99256 0,-1.10048 0.89209,-1.99255 1.99255,-1.99255 1.10048,0 1.99255,0.89207 1.99255,1.99255 z"
                       style="fill:#ff0000;fill-opacity:1;fill-rule:nonzero;stroke:#ff0000;stroke-width:0.3985;stroke-linecap:butt;stroke-linejoin:miter;stroke-miterlimit:10;stroke-dasharray:none;stroke-opacity:1"
                       id="path13258"
                       inkscape:connector-curvature="0" /><path
                       d="m 226.19397,187.27065 c 0,1.10046 -0.89209,1.99255 -1.99255,1.99255 -1.10048,0 -1.99256,-0.89209 -1.99256,-1.99255 0,-1.10048 0.89208,-1.99256 1.99256,-1.99256 1.10046,0 1.99255,0.89208 1.99255,1.99256 z"
                       style="fill:#ff0000;fill-opacity:1;fill-rule:nonzero;stroke:#ff0000;stroke-width:0.3985;stroke-linecap:butt;stroke-linejoin:miter;stroke-miterlimit:10;stroke-dasharray:none;stroke-opacity:1"
                       id="path13260"
                       inkscape:connector-curvature="0" /><path
                       d="m 251.05954,209.68369 c 0,1.10047 -0.89207,1.99255 -1.99255,1.99255 -1.10047,0 -1.99256,-0.89208 -1.99256,-1.99255 0,-1.10047 0.89209,-1.99256 1.99256,-1.99256 1.10048,0 1.99255,0.89209 1.99255,1.99256 z"
                       style="fill:#ff0000;fill-opacity:1;fill-rule:nonzero;stroke:#ff0000;stroke-width:0.3985;stroke-linecap:butt;stroke-linejoin:miter;stroke-miterlimit:10;stroke-dasharray:none;stroke-opacity:1"
                       id="path13262"
                       inkscape:connector-curvature="0" /><path
                       d="m 225.87025,209.68369 c 0,1.10047 -0.89207,1.99255 -1.99255,1.99255 -1.10046,0 -1.99255,-0.89208 -1.99255,-1.99255 0,-1.10047 0.89209,-1.99256 1.99255,-1.99256 1.10048,0 1.99255,0.89209 1.99255,1.99256 z"
                       style="fill:#ff0000;fill-opacity:1;fill-rule:nonzero;stroke:#ff0000;stroke-width:0.3985;stroke-linecap:butt;stroke-linejoin:miter;stroke-miterlimit:10;stroke-dasharray:none;stroke-opacity:1"
                       id="path13264"
                       inkscape:connector-curvature="0" /><path
                       d="m 201.26608,209.68369 c 0,1.10047 -0.89207,1.99255 -1.99255,1.99255 -1.10046,0 -1.99255,-0.89208 -1.99255,-1.99255 0,-1.10047 0.89209,-1.99256 1.99255,-1.99256 1.10048,0 1.99255,0.89209 1.99255,1.99256 z"
                       style="fill:#ff0000;fill-opacity:1;fill-rule:nonzero;stroke:#ff0000;stroke-width:0.3985;stroke-linecap:butt;stroke-linejoin:miter;stroke-miterlimit:10;stroke-dasharray:none;stroke-opacity:1"
                       id="path13266"
                       inkscape:connector-curvature="0" /><path
                       d="m 176.4005,205.04004 c 0,1.10046 -0.8921,1.99256 -1.99256,1.99256 -1.10048,0 -1.99255,-0.8921 -1.99255,-1.99256 0,-1.10048 0.89207,-1.99255 1.99255,-1.99255 1.10046,0 1.99256,0.89207 1.99256,1.99255 z"
                       style="fill:#ff0000;fill-opacity:1;fill-rule:nonzero;stroke:#ff0000;stroke-width:0.3985;stroke-linecap:butt;stroke-linejoin:miter;stroke-miterlimit:10;stroke-dasharray:none;stroke-opacity:1"
                       id="path13268"
                       inkscape:connector-curvature="0" /><path
                       d="m 163.8992,205.04004 c 0,1.10046 -0.89209,1.99256 -1.99255,1.99256 -1.10048,0 -1.99255,-0.8921 -1.99255,-1.99256 0,-1.10048 0.89207,-1.99255 1.99255,-1.99255 1.10046,0 1.99255,0.89207 1.99255,1.99255 z"
                       style="fill:#ff0000;fill-opacity:1;fill-rule:nonzero;stroke:#ff0000;stroke-width:0.3985;stroke-linecap:butt;stroke-linejoin:miter;stroke-miterlimit:10;stroke-dasharray:none;stroke-opacity:1"
                       id="path13270"
                       inkscape:connector-curvature="0" /><path
                       d="m 151.4726,205.04004 c 0,1.10046 -0.89208,1.99256 -1.99256,1.99256 -1.10046,0 -1.99255,-0.8921 -1.99255,-1.99256 0,-1.10048 0.89209,-1.99255 1.99255,-1.99255 1.10048,0 1.99256,0.89207 1.99256,1.99255 z"
                       style="fill:#ff0000;fill-opacity:1;fill-rule:nonzero;stroke:#ff0000;stroke-width:0.3985;stroke-linecap:butt;stroke-linejoin:miter;stroke-miterlimit:10;stroke-dasharray:none;stroke-opacity:1"
                       id="path13272"
                       inkscape:connector-curvature="0" /><path
                       d="m 138.95888,205.04004 c 0,1.10046 -0.89209,1.99256 -1.99256,1.99256 -1.10048,0 -1.99255,-0.8921 -1.99255,-1.99256 0,-1.10048 0.89207,-1.99255 1.99255,-1.99255 1.10047,0 1.99256,0.89207 1.99256,1.99255 z"
                       style="fill:#ff0000;fill-opacity:1;fill-rule:nonzero;stroke:#ff0000;stroke-width:0.3985;stroke-linecap:butt;stroke-linejoin:miter;stroke-miterlimit:10;stroke-dasharray:none;stroke-opacity:1"
                       id="path13274"
                       inkscape:connector-curvature="0" /><path
                       d="m 126.60698,205.04004 c 0,1.10046 -0.89209,1.99256 -1.99255,1.99256 -1.10048,0 -1.99256,-0.8921 -1.99256,-1.99256 0,-1.10048 0.89208,-1.99255 1.99256,-1.99255 1.10046,0 1.99255,0.89207 1.99255,1.99255 z"
                       style="fill:#ff0000;fill-opacity:1;fill-rule:nonzero;stroke:#ff0000;stroke-width:0.3985;stroke-linecap:butt;stroke-linejoin:miter;stroke-miterlimit:10;stroke-dasharray:none;stroke-opacity:1"
                       id="path13276"
                       inkscape:connector-curvature="0" /><path
                       d="m 101.46745,205.04004 c 0,1.10046 -0.89209,1.99256 -1.99255,1.99256 -1.10048,0 -1.99255,-0.8921 -1.99255,-1.99256 0,-1.10048 0.89207,-1.99255 1.99255,-1.99255 1.10046,0 1.99255,0.89207 1.99255,1.99255 z"
                       style="fill:#ff0000;fill-opacity:1;fill-rule:nonzero;stroke:#ff0000;stroke-width:0.3985;stroke-linecap:butt;stroke-linejoin:miter;stroke-miterlimit:10;stroke-dasharray:none;stroke-opacity:1"
                       id="path13278"
                       inkscape:connector-curvature="0" /><path
                       d="m 89.0782,205.04004 c 0,1.10046 -0.89207,1.99256 -1.99255,1.99256 -1.10047,0 -1.99255,-0.8921 -1.99255,-1.99256 0,-1.10048 0.89208,-1.99255 1.99255,-1.99255 1.10048,0 1.99255,0.89207 1.99255,1.99255 z"
                       style="fill:#ff0000;fill-opacity:1;fill-rule:nonzero;stroke:#ff0000;stroke-width:0.3985;stroke-linecap:butt;stroke-linejoin:miter;stroke-miterlimit:10;stroke-dasharray:none;stroke-opacity:1"
                       id="path13280"
                       inkscape:connector-curvature="0" /><path
                       d="m 76.68898,205.04004 c 0,1.10046 -0.89208,1.99256 -1.99255,1.99256 -1.10047,0 -1.99256,-0.8921 -1.99256,-1.99256 0,-1.10048 0.89209,-1.99255 1.99256,-1.99255 1.10047,0 1.99255,0.89207 1.99255,1.99255 z"
                       style="fill:#ff0000;fill-opacity:1;fill-rule:nonzero;stroke:#ff0000;stroke-width:0.3985;stroke-linecap:butt;stroke-linejoin:miter;stroke-miterlimit:10;stroke-dasharray:none;stroke-opacity:1"
                       id="path13282"
                       inkscape:connector-curvature="0" /><path
                       d="m 64.46164,202.67545 c 0,1.10046 -0.89208,1.99255 -1.99255,1.99255 -1.10047,0 -1.99256,-0.89209 -1.99256,-1.99255 0,-1.10048 0.89209,-1.99256 1.99256,-1.99256 1.10047,0 1.99255,0.89208 1.99255,1.99256 z"
                       style="fill:#ff0000;fill-opacity:1;fill-rule:nonzero;stroke:#ff0000;stroke-width:0.3985;stroke-linecap:butt;stroke-linejoin:miter;stroke-miterlimit:10;stroke-dasharray:none;stroke-opacity:1"
                       id="path13284"
                       inkscape:connector-curvature="0" /><path
                       d="m 51.64905,202.67545 c 0,1.10046 -0.89208,1.99255 -1.99255,1.99255 -1.10047,0 -1.99256,-0.89209 -1.99256,-1.99255 0,-1.10048 0.89209,-1.99256 1.99256,-1.99256 1.10047,0 1.99255,0.89208 1.99255,1.99256 z"
                       style="fill:#ff0000;fill-opacity:1;fill-rule:nonzero;stroke:#ff0000;stroke-width:0.3985;stroke-linecap:butt;stroke-linejoin:miter;stroke-miterlimit:10;stroke-dasharray:none;stroke-opacity:1"
                       id="path13286"
                       inkscape:connector-curvature="0" /><path
                       d="m 39.50887,200.79257 c 0,1.10048 -0.89208,1.99256 -1.99256,1.99256 -1.10046,0 -1.99255,-0.89208 -1.99255,-1.99256 0,-1.10046 0.89209,-1.99255 1.99255,-1.99255 1.10048,0 1.99256,0.89209 1.99256,1.99255 z"
                       style="fill:#ff0000;fill-opacity:1;fill-rule:nonzero;stroke:#ff0000;stroke-width:0.3985;stroke-linecap:butt;stroke-linejoin:miter;stroke-miterlimit:10;stroke-dasharray:none;stroke-opacity:1"
                       id="path13288"
                       inkscape:connector-curvature="0" /><path
                       d="m 26.9453,199.14775 c 0,1.10046 -0.89208,1.99255 -1.99256,1.99255 -1.10046,0 -1.99255,-0.89209 -1.99255,-1.99255 0,-1.10048 0.89209,-1.99255 1.99255,-1.99255 1.10048,0 1.99256,0.89207 1.99256,1.99255 z"
                       style="fill:#ff0000;fill-opacity:1;fill-rule:nonzero;stroke:#ff0000;stroke-width:0.3985;stroke-linecap:butt;stroke-linejoin:miter;stroke-miterlimit:10;stroke-dasharray:none;stroke-opacity:1"
                       id="path13290"
                       inkscape:connector-curvature="0" /><path
                       d="m 14.39421,196.34209 c 0,1.10046 -0.89207,1.99255 -1.99255,1.99255 -1.10046,0 -1.99256,-0.89209 -1.99256,-1.99255 0,-1.10047 0.8921,-1.99256 1.99256,-1.99256 1.10048,0 1.99255,0.89209 1.99255,1.99256 z"
                       style="fill:#ff0000;fill-opacity:1;fill-rule:nonzero;stroke:#ff0000;stroke-width:0.3985;stroke-linecap:butt;stroke-linejoin:miter;stroke-miterlimit:10;stroke-dasharray:none;stroke-opacity:1"
                       id="path13292"
                       inkscape:connector-curvature="0" /></g><g
                     id="g13294"><g
                       id="g13296"
                       transform="translate(26.285,-45.218)"><g
                         id="g13298"><g
                           id="g13300"
                           transform="translate(-225.563,-440.024)"><text
                             transform="matrix(1,0,0,-1,225.563,440.024)"
                             style="font-variant:normal;font-weight:normal;font-size:9.96259975px;font-family:SFRM1000;-inkscape-font-specification:SFRM1000;writing-mode:lr-tb;fill:#000000;fill-opacity:1;fill-rule:nonzero;stroke:none"
                             id="text13304"><tspan
                               x="0 7.0555134 11.481896 17.015125 21.995428 27.528656 32.782932 37.763237 43.296463 48.276768 53.809994 58.790298 66.544189 72.077415 77.057724 82.59095 87.845222 93.239975 101.26086 105.68725 111.22047 116.7537 124.50759 129.47794 133.41615 136.18277 141.16307 149.46291 154.44321 162.19012 167.17044 172.14078 178.23489 183.76813 191.51505"
                               y="0"
                               sodipodi:role="line"
                               id="tspan13302">Вертикальное напряжение $\sigma_1$, кПа</tspan></text>
<g
                             id="g13306"
                             transform="translate(225.563,440.024)" /></g></g><g
                         id="g13308"
                         transform="translate(-26.285,45.218)" /></g></g><g
                     id="g13310"><g
                       id="g13312"
                       transform="rotate(90,-47.333,-0.386)"><g
                         id="g13314"><g
                           id="g13316"
                           transform="translate(-151.559,-532.189)"><text
                             transform="matrix(1,0,0,-1,151.559,532.189)"
                             style="font-variant:normal;font-weight:normal;font-size:9.96259975px;font-family:SFRM1000;-inkscape-font-specification:SFRM1000;writing-mode:lr-tb;fill:#000000;fill-opacity:1;fill-rule:nonzero;stroke:none"
                             id="text13324"><tspan
                               x="0 7.192997 12.726225 17.152609 22.685837 27.112219 32.645447 41.367702 46.348007 56.584579 61.564884 67.64904 73.182274 80.929192 89.229034 94.209335 100.84941"
                               y="0"
                               sodipodi:role="line"
                               id="tspan13318">Энергия$W$,кДж/м$</tspan><tspan
                               x="105.828"
                               y="-2.102"
                               id="tspan13320">ˆ</tspan><tspan
                               x="105.828 110.8083"
                               y="0"
                               sodipodi:role="line"
                               id="tspan13322">3$</tspan></text>
<g
                             id="g13326"
                             transform="translate(151.559,532.189)" /></g></g><g
                         id="g13328"
                         transform="translate(47.719,-46.947)" /></g></g></g></g><g
                 id="g13330"
                 transform="translate(-59.532,-50.856)" /></g><g
               id="g13332"
               transform="translate(34.624,29.887)" /></g><g
             id="g13334" /><g
             id="g13336" /></g></g></g><path
       style="fill:none;stroke:#000000;stroke-width:0.46771654;stroke-linecap:butt;stroke-linejoin:miter;stroke-miterlimit:4;stroke-dasharray:none;stroke-opacity:1"
       d="m 199.4523,485.242 40.8203,23.58126"
       id="path1761"
       inkscape:connector-curvature="0"
       sodipodi:nodetypes="cc" /><path
       style="fill:none;stroke:#000000;stroke-width:0.4678441;stroke-linecap:butt;stroke-linejoin:miter;stroke-miterlimit:4;stroke-dasharray:none;stroke-opacity:1"
       d="M 311.12965,583.42785 202.20174,477.34839"
       id="path1763"
       inkscape:connector-curvature="0"
       sodipodi:nodetypes="cc" /><path
       style="fill:none;stroke:#000000;stroke-width:0.46771654;stroke-linecap:butt;stroke-linejoin:miter;stroke-miterlimit:4;stroke-dasharray:0.46771656, 1.40314967;stroke-dashoffset:0;stroke-opacity:1"
       d="M 226.39935,498.15784 V 465.53508"
       id="path1765"
       inkscape:connector-curvature="0" /></g></svg>