<?xml version="1.0" encoding="UTF-8" standalone="no"?>
<!-- Created with Inkscape (http://www.inkscape.org/) -->

<svg
   xmlns:dc="http://purl.org/dc/elements/1.1/"
   xmlns:cc="http://creativecommons.org/ns#"
   xmlns:rdf="http://www.w3.org/1999/02/22-rdf-syntax-ns#"
   xmlns:svg="http://www.w3.org/2000/svg"
   xmlns="http://www.w3.org/2000/svg"
   xmlns:sodipodi="http://sodipodi.sourceforge.net/DTD/sodipodi-0.dtd"
   xmlns:inkscape="http://www.inkscape.org/namespaces/inkscape"
   version="1.1"
   id="svg17602"
   xml:space="preserve"
   width="793.70135"
   height="1122.52"
   viewBox="0 0 793.70135 1122.52"
   sodipodi:docname="oedometerBecker+monolith+15.svg"
   inkscape:version="0.92.3 (2405546, 2018-03-11)"><metadata
     id="metadata17608"><rdf:RDF><cc:Work
         rdf:about=""><dc:format>image/svg+xml</dc:format><dc:type
           rdf:resource="http://purl.org/dc/dcmitype/StillImage" /><dc:title></dc:title></cc:Work></rdf:RDF></metadata><defs
     id="defs17606"><clipPath
       clipPathUnits="userSpaceOnUse"
       id="clipPath17838"><path
         d="m -24.90825,-20.96948 h 298.8841 v 251.62112 h -298.8841 z"
         id="path17836"
         inkscape:connector-curvature="0" /></clipPath></defs><sodipodi:namedview
     pagecolor="#ffffff"
     bordercolor="#666666"
     borderopacity="1"
     objecttolerance="10"
     gridtolerance="10"
     guidetolerance="10"
     inkscape:pageopacity="0"
     inkscape:pageshadow="2"
     inkscape:window-width="1243"
     inkscape:window-height="1408"
     id="namedview17604"
     showgrid="false"
     inkscape:zoom="1.189304"
     inkscape:cx="429.68147"
     inkscape:cy="588.71381"
     inkscape:window-x="62"
     inkscape:window-y="0"
     inkscape:window-maximized="0"
     inkscape:current-layer="g17610" /><g
     id="g17610"
     inkscape:groupmode="layer"
     inkscape:label="oedometerBecker+monolith"
     transform="matrix(1.3333333,0,0,-1.3333333,0,1122.52)"><g
       id="g17612"
       transform="translate(174.37,464.274)"><g
         id="g17614"><g
           id="g17616"><g
             id="g17618" /><g
             id="g17620" /><g
             id="g17622"><g
               id="g17624" /></g><g
             id="g17626" /><g
             id="g17628" /><g
             id="g17630" /><g
             id="g17632" /><g
             id="g17634"
             transform="translate(-34.624,-29.887)"><g
               id="g17636"
               transform="translate(59.532,50.857)"><g
                 id="g17638"><g
                   id="g17640"><g
                     id="g17642"><g
                       id="g17644"><g
                         id="g17646"><path
                           d="m 18.3571,-20.96948 v 4.25194 m 56.65776,-4.25194 v 4.25194 m 56.65778,-4.25194 v 4.25194 m 56.65777,-4.25194 v 4.25194 m 56.65778,-4.25194 v 4.25194 M 18.3571,230.65164 v -4.25191 m 56.65776,4.25191 v -4.25191 m 56.65778,4.25191 v -4.25191 m 56.65777,4.25191 v -4.25191 m 56.65778,4.25191 v -4.25191"
                           style="fill:none;stroke:#808080;stroke-width:0.19925;stroke-linecap:butt;stroke-linejoin:miter;stroke-miterlimit:10;stroke-dasharray:none;stroke-opacity:1"
                           id="path17648"
                           inkscape:connector-curvature="0" /></g></g><g
                       id="g17650"><g
                         id="g17652"><path
                           d="m -24.90825,-4.77383 h 4.25281 m -4.25281,43.45785 h 4.25281 m -4.25281,43.4579 h 4.25281 m -4.25281,43.4579 h 4.25281 m -4.25281,43.45789 h 4.25281 m -4.25281,43.4579 h 4.25281 M 273.97585,-4.77383 H 269.723 m 4.25285,43.45785 H 269.723 m 4.25285,43.4579 H 269.723 m 4.25285,43.4579 H 269.723 m 4.25285,43.45789 H 269.723 m 4.25285,43.4579 H 269.723"
                           style="fill:none;stroke:#808080;stroke-width:0.19925;stroke-linecap:butt;stroke-linejoin:miter;stroke-miterlimit:10;stroke-dasharray:none;stroke-opacity:1"
                           id="path17654"
                           inkscape:connector-curvature="0" /></g></g><path
                       d="m -24.90825,-20.96948 v 251.62112 h 298.8841 V -20.96948 Z"
                       style="fill:none;stroke:#000000;stroke-width:0.3985;stroke-linecap:butt;stroke-linejoin:miter;stroke-miterlimit:10;stroke-dasharray:none;stroke-opacity:1"
                       id="path17656"
                       inkscape:connector-curvature="0" /><g
                       id="g17658"><g
                         id="g17660"
                         transform="translate(10.885,-30.909)"><g
                           id="g17662"><g
                             id="g17664"
                             transform="translate(-210.163,-454.335)"><text
                               transform="matrix(1,0,0,-1,210.163,454.335)"
                               style="font-variant:normal;font-weight:normal;font-size:9.96259975px;font-family:CMR10;-inkscape-font-specification:CMR10;writing-mode:lr-tb;fill:#000000;fill-opacity:1;fill-rule:nonzero;stroke:none"
                               id="text17668"><tspan
                                 x="0 4.9812999 9.9625998"
                                 y="0"
                                 sodipodi:role="line"
                                 id="tspan17666">500</tspan></text>
<g
                               id="g17670"
                               transform="translate(210.163,454.335)" /></g></g><g
                           id="g17672"
                           transform="translate(-10.885,30.909)" /></g></g><g
                       id="g17674"><g
                         id="g17676"
                         transform="translate(64.221,-30.909)"><g
                           id="g17678"><g
                             id="g17680"
                             transform="translate(-263.499,-454.335)"><text
                               transform="matrix(1,0,0,-1,263.499,454.335)"
                               style="font-variant:normal;font-weight:normal;font-size:9.96259975px;font-family:CMR10;-inkscape-font-specification:CMR10;writing-mode:lr-tb;fill:#000000;fill-opacity:1;fill-rule:nonzero;stroke:none"
                               id="text17684"><tspan
                                 x="0 6.6450543 11.626354 16.607655"
                                 y="0"
                                 sodipodi:role="line"
                                 id="tspan17682">1000</tspan></text>
<g
                               id="g17686"
                               transform="translate(263.499,454.335)" /></g></g><g
                           id="g17688"
                           transform="translate(-64.221,30.909)" /></g></g><g
                       id="g17690"><g
                         id="g17692"
                         transform="translate(120.878,-30.909)"><g
                           id="g17694"><g
                             id="g17696"
                             transform="translate(-320.156,-454.335)"><text
                               transform="matrix(1,0,0,-1,320.156,454.335)"
                               style="font-variant:normal;font-weight:normal;font-size:9.96259975px;font-family:CMR10;-inkscape-font-specification:CMR10;writing-mode:lr-tb;fill:#000000;fill-opacity:1;fill-rule:nonzero;stroke:none"
                               id="text17700"><tspan
                                 x="0 6.6450543 11.626354 16.607655"
                                 y="0"
                                 sodipodi:role="line"
                                 id="tspan17698">1500</tspan></text>
<g
                               id="g17702"
                               transform="translate(320.156,454.335)" /></g></g><g
                           id="g17704"
                           transform="translate(-120.878,30.909)" /></g></g><g
                       id="g17706"><g
                         id="g17708"
                         transform="translate(177.535,-30.909)"><g
                           id="g17710"><g
                             id="g17712"
                             transform="translate(-376.813,-454.335)"><text
                               transform="matrix(1,0,0,-1,376.813,454.335)"
                               style="font-variant:normal;font-weight:normal;font-size:9.96259975px;font-family:CMR10;-inkscape-font-specification:CMR10;writing-mode:lr-tb;fill:#000000;fill-opacity:1;fill-rule:nonzero;stroke:none"
                               id="text17716"><tspan
                                 x="0 6.6450543 11.626354 16.607655"
                                 y="0"
                                 sodipodi:role="line"
                                 id="tspan17714">2000</tspan></text>
<g
                               id="g17718"
                               transform="translate(376.813,454.335)" /></g></g><g
                           id="g17720"
                           transform="translate(-177.535,30.909)" /></g></g><g
                       id="g17722"><g
                         id="g17724"
                         transform="translate(234.192,-30.909)"><g
                           id="g17726"><g
                             id="g17728"
                             transform="translate(-433.47,-454.335)"><text
                               transform="matrix(1,0,0,-1,433.47,454.335)"
                               style="font-variant:normal;font-weight:normal;font-size:9.96259975px;font-family:CMR10;-inkscape-font-specification:CMR10;writing-mode:lr-tb;fill:#000000;fill-opacity:1;fill-rule:nonzero;stroke:none"
                               id="text17732"><tspan
                                 x="0 6.6450543 11.626354 16.607655"
                                 y="0"
                                 sodipodi:role="line"
                                 id="tspan17730">2500</tspan></text>
<g
                               id="g17734"
                               transform="translate(433.47,454.335)" /></g></g><g
                           id="g17736"
                           transform="translate(-234.192,30.909)" /></g></g><g
                       id="g17738"><g
                         id="g17740"
                         transform="translate(-33.408,-7.984)"><g
                           id="g17742"><g
                             id="g17744"
                             transform="translate(-165.87,-477.26)"><text
                               transform="matrix(1,0,0,-1,165.87,477.26)"
                               style="font-variant:normal;font-weight:normal;font-size:9.96259975px;font-family:CMR10;-inkscape-font-specification:CMR10;writing-mode:lr-tb;fill:#000000;fill-opacity:1;fill-rule:nonzero;stroke:none"
                               id="text17748"><tspan
                                 x="0"
                                 y="0"
                                 id="tspan17746">0</tspan></text>
<g
                               id="g17750"
                               transform="translate(165.87,477.26)" /></g></g><g
                           id="g17752"
                           transform="translate(33.408,7.984)" /></g></g><g
                       id="g17754"><g
                         id="g17756"
                         transform="translate(-38.39,35.473)"><g
                           id="g17758"><g
                             id="g17760"
                             transform="translate(-160.888,-520.717)"><text
                               transform="matrix(1,0,0,-1,160.888,520.717)"
                               style="font-variant:normal;font-weight:normal;font-size:9.96259975px;font-family:CMR10;-inkscape-font-specification:CMR10;writing-mode:lr-tb;fill:#000000;fill-opacity:1;fill-rule:nonzero;stroke:none"
                               id="text17764"><tspan
                                 x="0 4.9812999"
                                 y="0"
                                 sodipodi:role="line"
                                 id="tspan17762">10</tspan></text>
<g
                               id="g17766"
                               transform="translate(160.888,520.717)" /></g></g><g
                           id="g17768"
                           transform="translate(38.39,-35.473)" /></g></g><g
                       id="g17770"><g
                         id="g17772"
                         transform="translate(-38.39,78.93)"><g
                           id="g17774"><g
                             id="g17776"
                             transform="translate(-160.888,-564.174)"><text
                               transform="matrix(1,0,0,-1,160.888,564.174)"
                               style="font-variant:normal;font-weight:normal;font-size:9.96259975px;font-family:CMR10;-inkscape-font-specification:CMR10;writing-mode:lr-tb;fill:#000000;fill-opacity:1;fill-rule:nonzero;stroke:none"
                               id="text17780"><tspan
                                 x="0 4.9812999"
                                 y="0"
                                 sodipodi:role="line"
                                 id="tspan17778">20</tspan></text>
<g
                               id="g17782"
                               transform="translate(160.888,564.174)" /></g></g><g
                           id="g17784"
                           transform="translate(38.39,-78.93)" /></g></g><g
                       id="g17786"><g
                         id="g17788"
                         transform="translate(-38.39,122.388)"><g
                           id="g17790"><g
                             id="g17792"
                             transform="translate(-160.888,-607.632)"><text
                               transform="matrix(1,0,0,-1,160.888,607.632)"
                               style="font-variant:normal;font-weight:normal;font-size:9.96259975px;font-family:CMR10;-inkscape-font-specification:CMR10;writing-mode:lr-tb;fill:#000000;fill-opacity:1;fill-rule:nonzero;stroke:none"
                               id="text17796"><tspan
                                 x="0 4.9812999"
                                 y="0"
                                 sodipodi:role="line"
                                 id="tspan17794">30</tspan></text>
<g
                               id="g17798"
                               transform="translate(160.888,607.632)" /></g></g><g
                           id="g17800"
                           transform="translate(38.39,-122.388)" /></g></g><g
                       id="g17802"><g
                         id="g17804"
                         transform="translate(-38.39,165.845)"><g
                           id="g17806"><g
                             id="g17808"
                             transform="translate(-160.888,-651.089)"><text
                               transform="matrix(1,0,0,-1,160.888,651.089)"
                               style="font-variant:normal;font-weight:normal;font-size:9.96259975px;font-family:CMR10;-inkscape-font-specification:CMR10;writing-mode:lr-tb;fill:#000000;fill-opacity:1;fill-rule:nonzero;stroke:none"
                               id="text17812"><tspan
                                 x="0 4.9812999"
                                 y="0"
                                 sodipodi:role="line"
                                 id="tspan17810">40</tspan></text>
<g
                               id="g17814"
                               transform="translate(160.888,651.089)" /></g></g><g
                           id="g17816"
                           transform="translate(38.39,-165.845)" /></g></g><g
                       id="g17818"><g
                         id="g17820"
                         transform="translate(-38.39,209.302)"><g
                           id="g17822"><g
                             id="g17824"
                             transform="translate(-160.888,-694.546)"><text
                               transform="matrix(1,0,0,-1,160.888,694.546)"
                               style="font-variant:normal;font-weight:normal;font-size:9.96259975px;font-family:CMR10;-inkscape-font-specification:CMR10;writing-mode:lr-tb;fill:#000000;fill-opacity:1;fill-rule:nonzero;stroke:none"
                               id="text17828"><tspan
                                 x="0 4.9812999"
                                 y="0"
                                 sodipodi:role="line"
                                 id="tspan17826">50</tspan></text>
<g
                               id="g17830"
                               transform="translate(160.888,694.546)" /></g></g><g
                           id="g17832"
                           transform="translate(38.39,-209.302)" /></g></g><g
                       id="g17834"
                       clip-path="url(#clipPath17838)"><g
                         id="g17840"><path
                           d="m 0,0 11.21822,4.20996 11.33155,5.29102 22.54981,13.83046 23.00304,16.3782 22.43648,13.53279 22.77644,10.75583 22.54977,12.49414 22.77644,17.79057 22.32315,23.94313 22.88974,22.12008 22.54981,53.45646 22.66312,15.87952"
                           style="fill:none;stroke:#ff0000;stroke-width:0.3985;stroke-linecap:butt;stroke-linejoin:miter;stroke-miterlimit:10;stroke-dasharray:none;stroke-opacity:1"
                           id="path17842"
                           inkscape:connector-curvature="0" /></g></g></g><g
                     id="g17844"><path
                       d="M 1.99255,0 C 1.99255,1.10046 1.10046,1.99255 0,1.99255 -1.10046,1.99255 -1.99255,1.10046 -1.99255,0 c 0,-1.10046 0.89209,-1.99255 1.99255,-1.99255 1.10046,0 1.99255,0.89209 1.99255,1.99255 z"
                       style="fill:#ff0000;fill-opacity:1;fill-rule:nonzero;stroke:#ff0000;stroke-width:0.3985;stroke-linecap:butt;stroke-linejoin:miter;stroke-miterlimit:10;stroke-dasharray:none;stroke-opacity:1"
                       id="path17846"
                       inkscape:connector-curvature="0" /><path
                       d="m 13.21077,4.20996 c 0,1.10048 -0.89207,1.99255 -1.99255,1.99255 -1.10047,0 -1.99256,-0.89207 -1.99256,-1.99255 0,-1.10046 0.89209,-1.99256 1.99256,-1.99256 1.10048,0 1.99255,0.8921 1.99255,1.99256 z"
                       style="fill:#ff0000;fill-opacity:1;fill-rule:nonzero;stroke:#ff0000;stroke-width:0.3985;stroke-linecap:butt;stroke-linejoin:miter;stroke-miterlimit:10;stroke-dasharray:none;stroke-opacity:1"
                       id="path17848"
                       inkscape:connector-curvature="0" /><path
                       d="m 24.54233,9.50098 c 0,1.10046 -0.89209,1.99255 -1.99256,1.99255 -1.10047,0 -1.99255,-0.89209 -1.99255,-1.99255 0,-1.10048 0.89208,-1.99256 1.99255,-1.99256 1.10047,0 1.99256,0.89208 1.99256,1.99256 z"
                       style="fill:#ff0000;fill-opacity:1;fill-rule:nonzero;stroke:#ff0000;stroke-width:0.3985;stroke-linecap:butt;stroke-linejoin:miter;stroke-miterlimit:10;stroke-dasharray:none;stroke-opacity:1"
                       id="path17850"
                       inkscape:connector-curvature="0" /><path
                       d="m 47.09213,23.33144 c 0,1.10048 -0.89207,1.99255 -1.99255,1.99255 -1.10047,0 -1.99255,-0.89207 -1.99255,-1.99255 0,-1.10047 0.89208,-1.99256 1.99255,-1.99256 1.10048,0 1.99255,0.89209 1.99255,1.99256 z"
                       style="fill:#ff0000;fill-opacity:1;fill-rule:nonzero;stroke:#ff0000;stroke-width:0.3985;stroke-linecap:butt;stroke-linejoin:miter;stroke-miterlimit:10;stroke-dasharray:none;stroke-opacity:1"
                       id="path17852"
                       inkscape:connector-curvature="0" /><path
                       d="m 70.09517,39.70964 c 0,1.10048 -0.89207,1.99256 -1.99255,1.99256 -1.10047,0 -1.99256,-0.89208 -1.99256,-1.99256 0,-1.10046 0.89209,-1.99255 1.99256,-1.99255 1.10048,0 1.99255,0.89209 1.99255,1.99255 z"
                       style="fill:#ff0000;fill-opacity:1;fill-rule:nonzero;stroke:#ff0000;stroke-width:0.3985;stroke-linecap:butt;stroke-linejoin:miter;stroke-miterlimit:10;stroke-dasharray:none;stroke-opacity:1"
                       id="path17854"
                       inkscape:connector-curvature="0" /><path
                       d="m 92.53165,53.24243 c 0,1.10047 -0.89208,1.99256 -1.99255,1.99256 -1.10047,0 -1.99256,-0.89209 -1.99256,-1.99256 0,-1.10048 0.89209,-1.99255 1.99256,-1.99255 1.10047,0 1.99255,0.89207 1.99255,1.99255 z"
                       style="fill:#ff0000;fill-opacity:1;fill-rule:nonzero;stroke:#ff0000;stroke-width:0.3985;stroke-linecap:butt;stroke-linejoin:miter;stroke-miterlimit:10;stroke-dasharray:none;stroke-opacity:1"
                       id="path17856"
                       inkscape:connector-curvature="0" /><path
                       d="m 115.30809,63.99826 c 0,1.10046 -0.89207,1.99255 -1.99255,1.99255 -1.10047,0 -1.99256,-0.89209 -1.99256,-1.99255 0,-1.10048 0.89209,-1.99256 1.99256,-1.99256 1.10048,0 1.99255,0.89208 1.99255,1.99256 z"
                       style="fill:#ff0000;fill-opacity:1;fill-rule:nonzero;stroke:#ff0000;stroke-width:0.3985;stroke-linecap:butt;stroke-linejoin:miter;stroke-miterlimit:10;stroke-dasharray:none;stroke-opacity:1"
                       id="path17858"
                       inkscape:connector-curvature="0" /><path
                       d="m 137.85786,76.4924 c 0,1.10046 -0.89207,1.99255 -1.99255,1.99255 -1.10046,0 -1.99255,-0.89209 -1.99255,-1.99255 0,-1.10048 0.89209,-1.99255 1.99255,-1.99255 1.10048,0 1.99255,0.89207 1.99255,1.99255 z"
                       style="fill:#ff0000;fill-opacity:1;fill-rule:nonzero;stroke:#ff0000;stroke-width:0.3985;stroke-linecap:butt;stroke-linejoin:miter;stroke-miterlimit:10;stroke-dasharray:none;stroke-opacity:1"
                       id="path17860"
                       inkscape:connector-curvature="0" /><path
                       d="m 160.63431,94.28297 c 0,1.10048 -0.89208,1.99256 -1.99256,1.99256 -1.10046,0 -1.99255,-0.89208 -1.99255,-1.99256 0,-1.10046 0.89209,-1.99255 1.99255,-1.99255 1.10048,0 1.99256,0.89209 1.99256,1.99255 z"
                       style="fill:#ff0000;fill-opacity:1;fill-rule:nonzero;stroke:#ff0000;stroke-width:0.3985;stroke-linecap:butt;stroke-linejoin:miter;stroke-miterlimit:10;stroke-dasharray:none;stroke-opacity:1"
                       id="path17862"
                       inkscape:connector-curvature="0" /><path
                       d="m 182.95746,118.2261 c 0,1.10047 -0.89208,1.99256 -1.99256,1.99256 -1.10046,0 -1.99255,-0.89209 -1.99255,-1.99256 0,-1.10047 0.89209,-1.99255 1.99255,-1.99255 1.10048,0 1.99256,0.89208 1.99256,1.99255 z"
                       style="fill:#ff0000;fill-opacity:1;fill-rule:nonzero;stroke:#ff0000;stroke-width:0.3985;stroke-linecap:butt;stroke-linejoin:miter;stroke-miterlimit:10;stroke-dasharray:none;stroke-opacity:1"
                       id="path17864"
                       inkscape:connector-curvature="0" /><path
                       d="m 205.8472,140.34618 c 0,1.10048 -0.89208,1.99255 -1.99256,1.99255 -1.10046,0 -1.99255,-0.89207 -1.99255,-1.99255 0,-1.10047 0.89209,-1.99256 1.99255,-1.99256 1.10048,0 1.99256,0.89209 1.99256,1.99256 z"
                       style="fill:#ff0000;fill-opacity:1;fill-rule:nonzero;stroke:#ff0000;stroke-width:0.3985;stroke-linecap:butt;stroke-linejoin:miter;stroke-miterlimit:10;stroke-dasharray:none;stroke-opacity:1"
                       id="path17866"
                       inkscape:connector-curvature="0" /><path
                       d="m 228.397,193.80264 c 0,1.10046 -0.89207,1.99256 -1.99255,1.99256 -1.10046,0 -1.99255,-0.8921 -1.99255,-1.99256 0,-1.10048 0.89209,-1.99255 1.99255,-1.99255 1.10048,0 1.99255,0.89207 1.99255,1.99255 z"
                       style="fill:#ff0000;fill-opacity:1;fill-rule:nonzero;stroke:#ff0000;stroke-width:0.3985;stroke-linecap:butt;stroke-linejoin:miter;stroke-miterlimit:10;stroke-dasharray:none;stroke-opacity:1"
                       id="path17868"
                       inkscape:connector-curvature="0" /><path
                       d="m 251.06012,209.68216 c 0,1.10046 -0.89209,1.99255 -1.99255,1.99255 -1.10048,0 -1.99256,-0.89209 -1.99256,-1.99255 0,-1.10048 0.89208,-1.99256 1.99256,-1.99256 1.10046,0 1.99255,0.89208 1.99255,1.99256 z"
                       style="fill:#ff0000;fill-opacity:1;fill-rule:nonzero;stroke:#ff0000;stroke-width:0.3985;stroke-linecap:butt;stroke-linejoin:miter;stroke-miterlimit:10;stroke-dasharray:none;stroke-opacity:1"
                       id="path17870"
                       inkscape:connector-curvature="0" /></g><g
                     id="g17872"><g
                       id="g17874"
                       transform="translate(26.286,-45.218)"><g
                         id="g17876"><g
                           id="g17878"
                           transform="translate(-225.564,-440.026)"><text
                             transform="matrix(1,0,0,-1,225.564,440.026)"
                             style="font-variant:normal;font-weight:normal;font-size:9.96259975px;font-family:SFRM1000;-inkscape-font-specification:SFRM1000;writing-mode:lr-tb;fill:#000000;fill-opacity:1;fill-rule:nonzero;stroke:none"
                             id="text17882"><tspan
                               x="0 7.0555134 11.481896 17.015125 21.995428 27.528656 32.782932 37.763237 43.296463 48.276768 53.809994 58.790298 66.544189 72.077415 77.057724 82.59095 87.845222 93.239975 101.26086 105.68725 111.22047 116.7537 124.49763 129.47794 133.40619 136.17281 141.15311 149.45294 154.43326 162.18018 167.16048 172.14078 178.23489 183.76813 191.51505"
                               y="0"
                               sodipodi:role="line"
                               id="tspan17880">Вертикальное напряжение $\sigma_1$, кПа</tspan></text>
<g
                             id="g17884"
                             transform="translate(225.564,440.026)" /></g></g><g
                         id="g17886"
                         transform="translate(-26.286,45.218)" /></g></g><g
                     id="g17888"><g
                       id="g17890"
                       transform="rotate(90,-47.332,-0.386)"><g
                         id="g17892"><g
                           id="g17894"
                           transform="translate(-151.56,-532.19)"><text
                             transform="matrix(1,0,0,-1,151.56,532.19)"
                             style="font-variant:normal;font-weight:normal;font-size:9.96259975px;font-family:SFRM1000;-inkscape-font-specification:SFRM1000;writing-mode:lr-tb;fill:#000000;fill-opacity:1;fill-rule:nonzero;stroke:none"
                             id="text17902"><tspan
                               x="0 7.192997 12.726225 17.152609 22.685837 27.112219 32.645447 41.357742 46.338043 56.574615 61.55492 67.64904 73.182274 80.929192 89.229034 94.209335 100.84941"
                               y="0"
                               sodipodi:role="line"
                               id="tspan17896">Энергия$W$,кДж/м$</tspan><tspan
                               x="105.827"
                               y="-2.102"
                               id="tspan17898">ˆ</tspan><tspan
                               x="105.827 110.8073"
                               y="0"
                               sodipodi:role="line"
                               id="tspan17900">3$</tspan></text>
<g
                             id="g17904"
                             transform="translate(151.56,532.19)" /></g></g><g
                         id="g17906"
                         transform="translate(47.718,-46.946)" /></g></g></g></g><g
                 id="g17908"
                 transform="translate(-59.532,-50.857)" /></g><g
               id="g17910"
               transform="translate(34.624,29.887)" /></g><g
             id="g17912" /><g
             id="g17914" /></g></g></g><path
       style="fill:none;stroke:#000000;stroke-width:0.46771654;stroke-linecap:butt;stroke-linejoin:miter;stroke-miterlimit:4;stroke-dasharray:none;stroke-opacity:1"
       d="m 199.278,485.244 124.31259,51.64886"
       id="path1761"
       inkscape:connector-curvature="0"
       sodipodi:nodetypes="cc" /><path
       style="fill:none;stroke:#000000;stroke-width:0.4678441;stroke-linecap:butt;stroke-linejoin:miter;stroke-miterlimit:4;stroke-dasharray:none;stroke-opacity:1"
       d="M 403.13264,625.59018 278.80859,507.49728"
       id="path1763"
       inkscape:connector-curvature="0"
       sodipodi:nodetypes="cc" /><path
       style="fill:none;stroke:#000000;stroke-width:0.46771654;stroke-linecap:butt;stroke-linejoin:miter;stroke-miterlimit:4;stroke-dasharray:0.46771656, 1.40314967;stroke-dashoffset:0;stroke-opacity:1"
       d="m 298.71318,524.73012 0,-59.26649"
       id="path1765"
       inkscape:connector-curvature="0"
       sodipodi:nodetypes="cc" /></g></svg>