<?xml version="1.0" encoding="UTF-8" standalone="no"?>
<!-- Created with Inkscape (http://www.inkscape.org/) -->

<svg
   xmlns:dc="http://purl.org/dc/elements/1.1/"
   xmlns:cc="http://creativecommons.org/ns#"
   xmlns:rdf="http://www.w3.org/1999/02/22-rdf-syntax-ns#"
   xmlns:svg="http://www.w3.org/2000/svg"
   xmlns="http://www.w3.org/2000/svg"
   xmlns:sodipodi="http://sodipodi.sourceforge.net/DTD/sodipodi-0.dtd"
   xmlns:inkscape="http://www.inkscape.org/namespaces/inkscape"
   version="1.1"
   id="svg11000"
   xml:space="preserve"
   width="793.70135"
   height="1122.52"
   viewBox="0 0 793.70135 1122.52"
   sodipodi:docname="oedometerBecker+monolith+8.svg"
   inkscape:version="0.92.3 (2405546, 2018-03-11)"><metadata
     id="metadata11006"><rdf:RDF><cc:Work
         rdf:about=""><dc:format>image/svg+xml</dc:format><dc:type
           rdf:resource="http://purl.org/dc/dcmitype/StillImage" /><dc:title></dc:title></cc:Work></rdf:RDF></metadata><defs
     id="defs11004"><clipPath
       clipPathUnits="userSpaceOnUse"
       id="clipPath11268"><path
         d="M -24.90816,-20.96925 H 273.9747 V 230.64922 H -24.90816 Z"
         id="path11266"
         inkscape:connector-curvature="0" /></clipPath></defs><sodipodi:namedview
     pagecolor="#ffffff"
     bordercolor="#666666"
     borderopacity="1"
     objecttolerance="10"
     gridtolerance="10"
     guidetolerance="10"
     inkscape:pageopacity="0"
     inkscape:pageshadow="2"
     inkscape:window-width="1243"
     inkscape:window-height="1408"
     id="namedview11002"
     showgrid="false"
     inkscape:zoom="0.84096496"
     inkscape:cx="401.29434"
     inkscape:cy="774.3048"
     inkscape:window-x="62"
     inkscape:window-y="0"
     inkscape:window-maximized="0"
     inkscape:current-layer="g11008" /><g
     id="g11008"
     inkscape:groupmode="layer"
     inkscape:label="oedometerBecker+monolith"
     transform="matrix(1.3333333,0,0,-1.3333333,0,1122.52)"><g
       id="g11010"
       transform="translate(174.37,464.277)"><g
         id="g11012"><g
           id="g11014"><g
             id="g11016" /><g
             id="g11018" /><g
             id="g11020"><g
               id="g11022" /></g><g
             id="g11024" /><g
             id="g11026" /><g
             id="g11028" /><g
             id="g11030" /><g
             id="g11032"
             transform="translate(-34.624,-29.887)"><g
               id="g11034"
               transform="translate(59.532,50.856)"><g
                 id="g11036"><g
                   id="g11038"><g
                     id="g11040"><g
                       id="g11042"><g
                         id="g11044"><path
                           d="m -15.89786,-20.96925 v 4.25196 m 66.24109,-4.25196 v 4.25196 m 66.24111,-4.25196 v 4.25196 m 66.24108,-4.25196 v 4.25196 m 66.24111,-4.25196 v 4.25196 M -15.89786,230.64922 v -4.25197 m 66.24109,4.25197 v -4.25197 m 66.24111,4.25197 v -4.25197 m 66.24108,4.25197 v -4.25197 m 66.24111,4.25197 v -4.25197"
                           style="fill:none;stroke:#808080;stroke-width:0.19925;stroke-linecap:butt;stroke-linejoin:miter;stroke-miterlimit:10;stroke-dasharray:none;stroke-opacity:1"
                           id="path11046"
                           inkscape:connector-curvature="0" /></g></g><g
                       id="g11048"><g
                         id="g11050"><path
                           d="m -24.90816,0 h 4.25281 m -4.25281,29.81107 h 4.25281 m -4.25281,29.81108 h 4.25281 m -4.25281,29.81108 h 4.25281 m -4.25281,29.81108 h 4.25281 m -4.25281,29.81108 h 4.25281 m -4.25281,29.81108 h 4.25281 m -4.25281,29.81108 h 4.25281 M 273.9747,0 h -4.25282 m 4.25282,29.81107 h -4.25282 m 4.25282,29.81108 h -4.25282 m 4.25282,29.81108 h -4.25282 m 4.25282,29.81108 h -4.25282 m 4.25282,29.81108 h -4.25282 m 4.25282,29.81108 h -4.25282 m 4.25282,29.81108 h -4.25282"
                           style="fill:none;stroke:#808080;stroke-width:0.19925;stroke-linecap:butt;stroke-linejoin:miter;stroke-miterlimit:10;stroke-dasharray:none;stroke-opacity:1"
                           id="path11052"
                           inkscape:connector-curvature="0" /></g></g><path
                       d="M -24.90816,-20.96925 V 230.64922 H 273.9747 V -20.96925 Z"
                       style="fill:none;stroke:#000000;stroke-width:0.3985;stroke-linecap:butt;stroke-linejoin:miter;stroke-miterlimit:10;stroke-dasharray:none;stroke-opacity:1"
                       id="path11054"
                       inkscape:connector-curvature="0" /><g
                       id="g11056"><g
                         id="g11058"
                         transform="translate(-18.389,-30.908)"><g
                           id="g11060"><g
                             id="g11062"
                             transform="translate(-180.889,-454.338)"><text
                               transform="matrix(1,0,0,-1,180.889,454.338)"
                               style="font-variant:normal;font-weight:normal;font-size:9.96259975px;font-family:CMR10;-inkscape-font-specification:CMR10;writing-mode:lr-tb;fill:#000000;fill-opacity:1;fill-rule:nonzero;stroke:none"
                               id="text11066"><tspan
                                 x="0"
                                 y="0"
                                 id="tspan11064">0</tspan></text>
<g
                               id="g11068"
                               transform="translate(180.889,454.338)" /></g></g><g
                           id="g11070"
                           transform="translate(18.389,30.908)" /></g></g><g
                       id="g11072"><g
                         id="g11074"
                         transform="translate(42.87,-30.908)"><g
                           id="g11076"><g
                             id="g11078"
                             transform="translate(-242.148,-454.338)"><text
                               transform="matrix(1,0,0,-1,242.148,454.338)"
                               style="font-variant:normal;font-weight:normal;font-size:9.96259975px;font-family:CMR10;-inkscape-font-specification:CMR10;writing-mode:lr-tb;fill:#000000;fill-opacity:1;fill-rule:nonzero;stroke:none"
                               id="text11082"><tspan
                                 x="0 4.9812999 9.9625998"
                                 y="0"
                                 sodipodi:role="line"
                                 id="tspan11080">500</tspan></text>
<g
                               id="g11084"
                               transform="translate(242.148,454.338)" /></g></g><g
                           id="g11086"
                           transform="translate(-42.87,30.908)" /></g></g><g
                       id="g11088"><g
                         id="g11090"
                         transform="translate(105.79,-30.908)"><g
                           id="g11092"><g
                             id="g11094"
                             transform="translate(-305.068,-454.338)"><text
                               transform="matrix(1,0,0,-1,305.068,454.338)"
                               style="font-variant:normal;font-weight:normal;font-size:9.96259975px;font-family:CMR10;-inkscape-font-specification:CMR10;writing-mode:lr-tb;fill:#000000;fill-opacity:1;fill-rule:nonzero;stroke:none"
                               id="text11098"><tspan
                                 x="0 6.6450543 11.626354 16.607655"
                                 y="0"
                                 sodipodi:role="line"
                                 id="tspan11096">1000</tspan></text>
<g
                               id="g11100"
                               transform="translate(305.068,454.338)" /></g></g><g
                           id="g11102"
                           transform="translate(-105.79,30.908)" /></g></g><g
                       id="g11104"><g
                         id="g11106"
                         transform="translate(172.03,-30.908)"><g
                           id="g11108"><g
                             id="g11110"
                             transform="translate(-371.308,-454.338)"><text
                               transform="matrix(1,0,0,-1,371.308,454.338)"
                               style="font-variant:normal;font-weight:normal;font-size:9.96259975px;font-family:CMR10;-inkscape-font-specification:CMR10;writing-mode:lr-tb;fill:#000000;fill-opacity:1;fill-rule:nonzero;stroke:none"
                               id="text11114"><tspan
                                 x="0 6.6450543 11.626354 16.607655"
                                 y="0"
                                 sodipodi:role="line"
                                 id="tspan11112">1500</tspan></text>
<g
                               id="g11116"
                               transform="translate(371.308,454.338)" /></g></g><g
                           id="g11118"
                           transform="translate(-172.03,30.908)" /></g></g><g
                       id="g11120"><g
                         id="g11122"
                         transform="translate(238.27,-30.908)"><g
                           id="g11124"><g
                             id="g11126"
                             transform="translate(-437.548,-454.338)"><text
                               transform="matrix(1,0,0,-1,437.548,454.338)"
                               style="font-variant:normal;font-weight:normal;font-size:9.96259975px;font-family:CMR10;-inkscape-font-specification:CMR10;writing-mode:lr-tb;fill:#000000;fill-opacity:1;fill-rule:nonzero;stroke:none"
                               id="text11130"><tspan
                                 x="0 6.6450543 11.626354 16.607655"
                                 y="0"
                                 sodipodi:role="line"
                                 id="tspan11128">2000</tspan></text>
<g
                               id="g11132"
                               transform="translate(437.548,454.338)" /></g></g><g
                           id="g11134"
                           transform="translate(-238.27,30.908)" /></g></g><g
                       id="g11136"><g
                         id="g11138"
                         transform="translate(-33.408,-3.21)"><g
                           id="g11140"><g
                             id="g11142"
                             transform="translate(-165.87,-482.036)"><text
                               transform="matrix(1,0,0,-1,165.87,482.036)"
                               style="font-variant:normal;font-weight:normal;font-size:9.96259975px;font-family:CMR10;-inkscape-font-specification:CMR10;writing-mode:lr-tb;fill:#000000;fill-opacity:1;fill-rule:nonzero;stroke:none"
                               id="text11146"><tspan
                                 x="0"
                                 y="0"
                                 id="tspan11144">0</tspan></text>
<g
                               id="g11148"
                               transform="translate(165.87,482.036)" /></g></g><g
                           id="g11150"
                           transform="translate(33.408,3.21)" /></g></g><g
                       id="g11152"><g
                         id="g11154"
                         transform="translate(-38.39,26.601)"><g
                           id="g11156"><g
                             id="g11158"
                             transform="translate(-160.888,-511.847)"><text
                               transform="matrix(1,0,0,-1,160.888,511.847)"
                               style="font-variant:normal;font-weight:normal;font-size:9.96259975px;font-family:CMR10;-inkscape-font-specification:CMR10;writing-mode:lr-tb;fill:#000000;fill-opacity:1;fill-rule:nonzero;stroke:none"
                               id="text11162"><tspan
                                 x="0 4.9812999"
                                 y="0"
                                 sodipodi:role="line"
                                 id="tspan11160">10</tspan></text>
<g
                               id="g11164"
                               transform="translate(160.888,511.847)" /></g></g><g
                           id="g11166"
                           transform="translate(38.39,-26.601)" /></g></g><g
                       id="g11168"><g
                         id="g11170"
                         transform="translate(-38.39,56.411)"><g
                           id="g11172"><g
                             id="g11174"
                             transform="translate(-160.888,-541.657)"><text
                               transform="matrix(1,0,0,-1,160.888,541.657)"
                               style="font-variant:normal;font-weight:normal;font-size:9.96259975px;font-family:CMR10;-inkscape-font-specification:CMR10;writing-mode:lr-tb;fill:#000000;fill-opacity:1;fill-rule:nonzero;stroke:none"
                               id="text11178"><tspan
                                 x="0 4.9812999"
                                 y="0"
                                 sodipodi:role="line"
                                 id="tspan11176">20</tspan></text>
<g
                               id="g11180"
                               transform="translate(160.888,541.657)" /></g></g><g
                           id="g11182"
                           transform="translate(38.39,-56.411)" /></g></g><g
                       id="g11184"><g
                         id="g11186"
                         transform="translate(-38.39,86.222)"><g
                           id="g11188"><g
                             id="g11190"
                             transform="translate(-160.888,-571.468)"><text
                               transform="matrix(1,0,0,-1,160.888,571.468)"
                               style="font-variant:normal;font-weight:normal;font-size:9.96259975px;font-family:CMR10;-inkscape-font-specification:CMR10;writing-mode:lr-tb;fill:#000000;fill-opacity:1;fill-rule:nonzero;stroke:none"
                               id="text11194"><tspan
                                 x="0 4.9812999"
                                 y="0"
                                 sodipodi:role="line"
                                 id="tspan11192">30</tspan></text>
<g
                               id="g11196"
                               transform="translate(160.888,571.468)" /></g></g><g
                           id="g11198"
                           transform="translate(38.39,-86.222)" /></g></g><g
                       id="g11200"><g
                         id="g11202"
                         transform="translate(-38.39,116.033)"><g
                           id="g11204"><g
                             id="g11206"
                             transform="translate(-160.888,-601.279)"><text
                               transform="matrix(1,0,0,-1,160.888,601.279)"
                               style="font-variant:normal;font-weight:normal;font-size:9.96259975px;font-family:CMR10;-inkscape-font-specification:CMR10;writing-mode:lr-tb;fill:#000000;fill-opacity:1;fill-rule:nonzero;stroke:none"
                               id="text11210"><tspan
                                 x="0 4.9812999"
                                 y="0"
                                 sodipodi:role="line"
                                 id="tspan11208">40</tspan></text>
<g
                               id="g11212"
                               transform="translate(160.888,601.279)" /></g></g><g
                           id="g11214"
                           transform="translate(38.39,-116.033)" /></g></g><g
                       id="g11216"><g
                         id="g11218"
                         transform="translate(-38.39,145.843)"><g
                           id="g11220"><g
                             id="g11222"
                             transform="translate(-160.888,-631.089)"><text
                               transform="matrix(1,0,0,-1,160.888,631.089)"
                               style="font-variant:normal;font-weight:normal;font-size:9.96259975px;font-family:CMR10;-inkscape-font-specification:CMR10;writing-mode:lr-tb;fill:#000000;fill-opacity:1;fill-rule:nonzero;stroke:none"
                               id="text11226"><tspan
                                 x="0 4.9812999"
                                 y="0"
                                 sodipodi:role="line"
                                 id="tspan11224">50</tspan></text>
<g
                               id="g11228"
                               transform="translate(160.888,631.089)" /></g></g><g
                           id="g11230"
                           transform="translate(38.39,-145.843)" /></g></g><g
                       id="g11232"><g
                         id="g11234"
                         transform="translate(-38.39,175.654)"><g
                           id="g11236"><g
                             id="g11238"
                             transform="translate(-160.888,-660.9)"><text
                               transform="matrix(1,0,0,-1,160.888,660.9)"
                               style="font-variant:normal;font-weight:normal;font-size:9.96259975px;font-family:CMR10;-inkscape-font-specification:CMR10;writing-mode:lr-tb;fill:#000000;fill-opacity:1;fill-rule:nonzero;stroke:none"
                               id="text11242"><tspan
                                 x="0 4.9812999"
                                 y="0"
                                 sodipodi:role="line"
                                 id="tspan11240">60</tspan></text>
<g
                               id="g11244"
                               transform="translate(160.888,660.9)" /></g></g><g
                           id="g11246"
                           transform="translate(38.39,-175.654)" /></g></g><g
                       id="g11248"><g
                         id="g11250"
                         transform="translate(-38.39,205.465)"><g
                           id="g11252"><g
                             id="g11254"
                             transform="translate(-160.888,-690.711)"><text
                               transform="matrix(1,0,0,-1,160.888,690.711)"
                               style="font-variant:normal;font-weight:normal;font-size:9.96259975px;font-family:CMR10;-inkscape-font-specification:CMR10;writing-mode:lr-tb;fill:#000000;fill-opacity:1;fill-rule:nonzero;stroke:none"
                               id="text11258"><tspan
                                 x="0 4.9812999"
                                 y="0"
                                 sodipodi:role="line"
                                 id="tspan11256">70</tspan></text>
<g
                               id="g11260"
                               transform="translate(160.888,690.711)" /></g></g><g
                           id="g11262"
                           transform="translate(38.39,-205.465)" /></g></g><g
                       id="g11264"
                       clip-path="url(#clipPath11268)"><g
                         id="g11270"><path
                           d="m 0,0 3.17955,0.19673 3.31206,0.69983 6.62409,2.02416 13.24824,6.41535 37.09501,28.05074 26.49643,19.79605 26.49645,24.12014 33.12054,28.4815 33.38555,34.8417 33.12054,31.50733 32.98807,33.5464"
                           style="fill:none;stroke:#ff0000;stroke-width:0.3985;stroke-linecap:butt;stroke-linejoin:miter;stroke-miterlimit:10;stroke-dasharray:none;stroke-opacity:1"
                           id="path11272"
                           inkscape:connector-curvature="0" /></g></g></g><g
                     id="g11274"><path
                       d="M 1.99255,0 C 1.99255,1.10046 1.10046,1.99255 0,1.99255 -1.10046,1.99255 -1.99255,1.10046 -1.99255,0 c 0,-1.10046 0.89209,-1.99255 1.99255,-1.99255 1.10046,0 1.99255,0.89209 1.99255,1.99255 z"
                       style="fill:#ff0000;fill-opacity:1;fill-rule:nonzero;stroke:#ff0000;stroke-width:0.3985;stroke-linecap:butt;stroke-linejoin:miter;stroke-miterlimit:10;stroke-dasharray:none;stroke-opacity:1"
                       id="path11276"
                       inkscape:connector-curvature="0" /><path
                       d="m 5.1721,0.19673 c 0,1.10048 -0.89209,1.99256 -1.99255,1.99256 -1.10048,0 -1.99255,-0.89208 -1.99255,-1.99256 0,-1.10045 0.89207,-1.99253 1.99255,-1.99253 1.10046,0 1.99255,0.89208 1.99255,1.99253 z"
                       style="fill:#ff0000;fill-opacity:1;fill-rule:nonzero;stroke:#ff0000;stroke-width:0.3985;stroke-linecap:butt;stroke-linejoin:miter;stroke-miterlimit:10;stroke-dasharray:none;stroke-opacity:1"
                       id="path11278"
                       inkscape:connector-curvature="0" /><path
                       d="m 8.48416,0.89656 c 0,1.10046 -0.89209,1.99255 -1.99255,1.99255 -1.10048,0 -1.99256,-0.89209 -1.99256,-1.99255 0,-1.10046 0.89208,-1.99254 1.99256,-1.99254 1.10046,0 1.99255,0.89208 1.99255,1.99254 z"
                       style="fill:#ff0000;fill-opacity:1;fill-rule:nonzero;stroke:#ff0000;stroke-width:0.3985;stroke-linecap:butt;stroke-linejoin:miter;stroke-miterlimit:10;stroke-dasharray:none;stroke-opacity:1"
                       id="path11280"
                       inkscape:connector-curvature="0" /><path
                       d="m 15.10826,2.92072 c 0,1.10048 -0.89207,1.99255 -1.99256,1.99255 -1.10046,0 -1.99255,-0.89207 -1.99255,-1.99255 0,-1.10047 0.89209,-1.99256 1.99255,-1.99256 1.10049,0 1.99256,0.89209 1.99256,1.99256 z"
                       style="fill:#ff0000;fill-opacity:1;fill-rule:nonzero;stroke:#ff0000;stroke-width:0.3985;stroke-linecap:butt;stroke-linejoin:miter;stroke-miterlimit:10;stroke-dasharray:none;stroke-opacity:1"
                       id="path11282"
                       inkscape:connector-curvature="0" /><path
                       d="m 28.35649,9.33607 c 0,1.10047 -0.89209,1.99256 -1.99255,1.99256 -1.10048,0 -1.99256,-0.89209 -1.99256,-1.99256 0,-1.10046 0.89208,-1.99255 1.99256,-1.99255 1.10046,0 1.99255,0.89209 1.99255,1.99255 z"
                       style="fill:#ff0000;fill-opacity:1;fill-rule:nonzero;stroke:#ff0000;stroke-width:0.3985;stroke-linecap:butt;stroke-linejoin:miter;stroke-miterlimit:10;stroke-dasharray:none;stroke-opacity:1"
                       id="path11284"
                       inkscape:connector-curvature="0" /><path
                       d="m 65.4515,37.38681 c 0,1.10048 -0.89208,1.99255 -1.99255,1.99255 -1.10048,0 -1.99255,-0.89207 -1.99255,-1.99255 0,-1.10046 0.89207,-1.99255 1.99255,-1.99255 1.10047,0 1.99255,0.89209 1.99255,1.99255 z"
                       style="fill:#ff0000;fill-opacity:1;fill-rule:nonzero;stroke:#ff0000;stroke-width:0.3985;stroke-linecap:butt;stroke-linejoin:miter;stroke-miterlimit:10;stroke-dasharray:none;stroke-opacity:1"
                       id="path11286"
                       inkscape:connector-curvature="0" /><path
                       d="m 91.94794,57.18286 c 0,1.10047 -0.89208,1.99256 -1.99256,1.99256 -1.10046,0 -1.99255,-0.89209 -1.99255,-1.99256 0,-1.10048 0.89209,-1.99256 1.99255,-1.99256 1.10048,0 1.99256,0.89208 1.99256,1.99256 z"
                       style="fill:#ff0000;fill-opacity:1;fill-rule:nonzero;stroke:#ff0000;stroke-width:0.3985;stroke-linecap:butt;stroke-linejoin:miter;stroke-miterlimit:10;stroke-dasharray:none;stroke-opacity:1"
                       id="path11288"
                       inkscape:connector-curvature="0" /><path
                       d="m 118.44438,81.303 c 0,1.10047 -0.89208,1.99255 -1.99255,1.99255 -1.10047,0 -1.99256,-0.89208 -1.99256,-1.99255 0,-1.10047 0.89209,-1.99256 1.99256,-1.99256 1.10047,0 1.99255,0.89209 1.99255,1.99256 z"
                       style="fill:#ff0000;fill-opacity:1;fill-rule:nonzero;stroke:#ff0000;stroke-width:0.3985;stroke-linecap:butt;stroke-linejoin:miter;stroke-miterlimit:10;stroke-dasharray:none;stroke-opacity:1"
                       id="path11290"
                       inkscape:connector-curvature="0" /><path
                       d="m 151.56493,109.7845 c 0,1.10046 -0.89208,1.99255 -1.99256,1.99255 -1.10046,0 -1.99255,-0.89209 -1.99255,-1.99255 0,-1.10048 0.89209,-1.99255 1.99255,-1.99255 1.10048,0 1.99256,0.89207 1.99256,1.99255 z"
                       style="fill:#ff0000;fill-opacity:1;fill-rule:nonzero;stroke:#ff0000;stroke-width:0.3985;stroke-linecap:butt;stroke-linejoin:miter;stroke-miterlimit:10;stroke-dasharray:none;stroke-opacity:1"
                       id="path11292"
                       inkscape:connector-curvature="0" /><path
                       d="m 184.95047,144.6262 c 0,1.10047 -0.89209,1.99256 -1.99255,1.99256 -1.10048,0 -1.99256,-0.89209 -1.99256,-1.99256 0,-1.10047 0.89208,-1.99255 1.99256,-1.99255 1.10046,0 1.99255,0.89208 1.99255,1.99255 z"
                       style="fill:#ff0000;fill-opacity:1;fill-rule:nonzero;stroke:#ff0000;stroke-width:0.3985;stroke-linecap:butt;stroke-linejoin:miter;stroke-miterlimit:10;stroke-dasharray:none;stroke-opacity:1"
                       id="path11294"
                       inkscape:connector-curvature="0" /><path
                       d="m 218.07101,176.13353 c 0,1.10048 -0.89207,1.99255 -1.99255,1.99255 -1.10046,0 -1.99256,-0.89207 -1.99256,-1.99255 0,-1.10046 0.8921,-1.99255 1.99256,-1.99255 1.10048,0 1.99255,0.89209 1.99255,1.99255 z"
                       style="fill:#ff0000;fill-opacity:1;fill-rule:nonzero;stroke:#ff0000;stroke-width:0.3985;stroke-linecap:butt;stroke-linejoin:miter;stroke-miterlimit:10;stroke-dasharray:none;stroke-opacity:1"
                       id="path11296"
                       inkscape:connector-curvature="0" /><path
                       d="m 251.05908,209.67993 c 0,1.10048 -0.89208,1.99256 -1.99255,1.99256 -1.10047,0 -1.99256,-0.89208 -1.99256,-1.99256 0,-1.10046 0.89209,-1.99255 1.99256,-1.99255 1.10047,0 1.99255,0.89209 1.99255,1.99255 z"
                       style="fill:#ff0000;fill-opacity:1;fill-rule:nonzero;stroke:#ff0000;stroke-width:0.3985;stroke-linecap:butt;stroke-linejoin:miter;stroke-miterlimit:10;stroke-dasharray:none;stroke-opacity:1"
                       id="path11298"
                       inkscape:connector-curvature="0" /></g><g
                     id="g11300"><g
                       id="g11302"
                       transform="translate(26.285,-45.217)"><g
                         id="g11304"><g
                           id="g11306"
                           transform="translate(-225.563,-440.029)"><text
                             transform="matrix(1,0,0,-1,225.563,440.029)"
                             style="font-variant:normal;font-weight:normal;font-size:9.96259975px;font-family:SFRM1000;-inkscape-font-specification:SFRM1000;writing-mode:lr-tb;fill:#000000;fill-opacity:1;fill-rule:nonzero;stroke:none"
                             id="text11310"><tspan
                               x="0 7.0555134 11.481896 17.015125 21.995428 27.528656 32.782932 37.763237 43.296463 48.276768 53.809994 58.790298 66.544189 72.077415 77.057724 82.59095 87.845222 93.239975 101.26086 105.68725 111.22047 116.7537 124.49763 129.47794 133.41615 136.18277 141.16307 149.46291 154.44321 162.19012 167.16048 172.14078 178.23489 183.76813 191.51505"
                               y="0"
                               sodipodi:role="line"
                               id="tspan11308">Вертикальное напряжение $\sigma_1$, кПа</tspan></text>
<g
                             id="g11312"
                             transform="translate(225.563,440.029)" /></g></g><g
                         id="g11314"
                         transform="translate(-26.285,45.217)" /></g></g><g
                     id="g11316"><g
                       id="g11318"
                       transform="rotate(90,-47.3315,-0.3865)"><g
                         id="g11320"><g
                           id="g11322"
                           transform="translate(-151.56,-532.191)"><text
                             transform="matrix(1,0,0,-1,151.56,532.191)"
                             style="font-variant:normal;font-weight:normal;font-size:9.96259975px;font-family:SFRM1000;-inkscape-font-specification:SFRM1000;writing-mode:lr-tb;fill:#000000;fill-opacity:1;fill-rule:nonzero;stroke:none"
                             id="text11330"><tspan
                               x="0 7.192997 12.726225 17.152609 22.685837 27.112219 32.645447 41.357742 46.338043 56.574615 61.55492 67.64904 73.182274 80.929192 89.229034 94.209335 100.84941"
                               y="0"
                               sodipodi:role="line"
                               id="tspan11324">Энергия$W$,кДж/м$</tspan><tspan
                               x="105.827"
                               y="-2.1029999"
                               id="tspan11326">ˆ</tspan><tspan
                               x="105.827 110.8073"
                               y="0"
                               sodipodi:role="line"
                               id="tspan11328">3$</tspan></text>
<g
                             id="g11332"
                             transform="translate(151.56,532.191)" /></g></g><g
                         id="g11334"
                         transform="translate(47.718,-46.945)" /></g></g></g></g><g
                 id="g11336"
                 transform="translate(-59.532,-50.856)" /></g><g
               id="g11338"
               transform="translate(34.624,29.887)" /></g><g
             id="g11340" /><g
             id="g11342" /></g></g></g><path
       style="fill:none;stroke:#000000;stroke-width:0.46771654;stroke-linecap:butt;stroke-linejoin:miter;stroke-miterlimit:4;stroke-dasharray:none;stroke-opacity:1"
       d="m 199.278,485.246 86.85563,16.64443"
       id="path1761"
       inkscape:connector-curvature="0"
       sodipodi:nodetypes="cc" /><path
       style="fill:none;stroke:#000000;stroke-width:0.4678441;stroke-linecap:butt;stroke-linejoin:miter;stroke-miterlimit:4;stroke-dasharray:none;stroke-opacity:1"
       d="M 448.34452,694.935 234.66287,479.85247"
       id="path1763"
       inkscape:connector-curvature="0"
       sodipodi:nodetypes="cc" /><path
       style="fill:none;stroke:#000000;stroke-width:0.46771654;stroke-linecap:butt;stroke-linejoin:miter;stroke-miterlimit:4;stroke-dasharray:0.46771656, 1.40314967;stroke-dashoffset:0;stroke-opacity:1"
       d="m 249.62123,494.81058 0,-30.53383"
       id="path1765"
       inkscape:connector-curvature="0"
       sodipodi:nodetypes="cc" /></g></svg>